0
SECTION
2
HEADER
9
$INSUNITS
70
4
0
ENDSEC
0
SECTION
2
TABLES
0
TABLE
2
LTYPE
0
LTYPE
72
65
70
64
2
CONTINUOUS
3
______
73
0
40
0
0
ENDTAB
0
TABLE
2
LAYER
0
ENDTAB
0
ENDSEC
0
SECTION
2
ENTITIES
0
LINE
8
0
10
47.8524161
20
-90.7036178
11
65.1551266
21
-95.6650902
0
LINE
8
0
10
65.1551266
20
-95.6650902
11
60.4692915
21
-112.006539
0
LINE
8
0
10
60.4692915
20
-112.006539
11
43.166581
21
-107.0450666
0
LINE
8
0
10
43.166581
20
-107.0450666
11
47.8524161
21
-90.7036178
0
LINE
8
0
10
60.8121038
20
-112.6249885
11
78.1148143
21
-117.5864609
0
LINE
8
0
10
78.1148143
20
-117.5864609
11
73.4289792
21
-133.9279097
0
LINE
8
0
10
73.4289792
20
-133.9279097
11
56.1262687
21
-128.9664373
0
LINE
8
0
10
56.1262687
20
-128.9664373
11
60.8121038
21
-112.6249885
0
LINE
8
0
10
65.6357575
20
-95.8029089
11
82.938468
21
-100.7643813
0
LINE
8
0
10
82.938468
20
-100.7643813
11
78.2526329
21
-117.1058301
0
LINE
8
0
10
78.2526329
20
-117.1058301
11
60.9499224
21
-112.1443577
0
LINE
8
0
10
60.9499224
20
-112.1443577
11
65.6357575
21
-95.8029089
0
LINE
8
0
10
86.8501749
20
-106.1744112
11
103.5394842
21
-112.9173299
0
LINE
8
0
10
103.5394842
20
-112.9173299
11
97.1711721
21
-128.6794554
0
LINE
8
0
10
97.1711721
20
-128.6794554
11
80.4818628
21
-121.9365367
0
LINE
8
0
10
80.4818628
20
-121.9365367
11
86.8501749
21
-106.1744112
0
LINE
8
0
10
93.4057902
20
-89.9486937
11
110.0950995
21
-96.6916124
0
LINE
8
0
10
110.0950995
20
-96.6916124
11
103.7267874
21
-112.4537379
0
LINE
8
0
10
103.7267874
20
-112.4537379
11
87.0374781
21
-105.7108192
0
LINE
8
0
10
87.0374781
20
-105.7108192
11
93.4057902
21
-89.9486937
0
LINE
8
0
10
99.9614056
20
-73.7229762
11
116.6507149
21
-80.4658949
0
LINE
8
0
10
116.6507149
20
-80.4658949
11
110.2824028
21
-96.2280204
0
LINE
8
0
10
110.2824028
20
-96.2280204
11
93.5930935
21
-89.4851017
0
LINE
8
0
10
93.5930935
20
-89.4851017
11
99.9614056
21
-73.7229762
0
LINE
8
0
10
106.6688828
20
-108.844656
11
122.982423
21
-116.4517847
0
LINE
8
0
10
122.982423
20
-116.4517847
11
115.7979126
21
-131.859017
0
LINE
8
0
10
115.7979126
20
-131.859017
11
99.4843724
21
-124.2518883
0
LINE
8
0
10
99.4843724
20
-124.2518883
11
106.6688828
21
-108.844656
0
LINE
8
0
10
114.0647024
20
-92.9842696
11
130.3782426
21
-100.5913983
0
LINE
8
0
10
130.3782426
20
-100.5913983
11
123.1937322
21
-115.9986306
0
LINE
8
0
10
123.1937322
20
-115.9986306
11
106.880192
21
-108.3915019
0
LINE
8
0
10
106.880192
20
-108.3915019
11
114.0647024
21
-92.9842696
0
LINE
8
0
10
121.4605219
20
-77.1238833
11
137.7740621
21
-84.731012
0
LINE
8
0
10
137.7740621
20
-84.731012
11
130.5895517
21
-100.1382443
0
LINE
8
0
10
130.5895517
20
-100.1382443
11
114.2760115
21
-92.5311156
0
LINE
8
0
10
114.2760115
20
-92.5311156
11
121.4605219
21
-77.1238833
0
LINE
8
0
10
121.5337947
20
-120.7414789
11
137.8473349
21
-128.3486076
0
LINE
8
0
10
137.8473349
20
-128.3486076
11
130.6628245
21
-143.7558399
0
LINE
8
0
10
130.6628245
20
-143.7558399
11
114.3492843
21
-136.1487112
0
LINE
8
0
10
114.3492843
20
-136.1487112
11
121.5337947
21
-120.7414789
0
LINE
8
0
10
128.9296142
20
-104.8810926
11
145.2431544
21
-112.4882213
0
LINE
8
0
10
145.2431544
20
-112.4882213
11
138.058644
21
-127.8954536
0
LINE
8
0
10
138.058644
20
-127.8954536
11
121.7451038
21
-120.2883249
0
LINE
8
0
10
121.7451038
20
-120.2883249
11
128.9296142
21
-104.8810926
0
LINE
8
0
10
136.3254338
20
-89.0207063
11
152.638974
21
-96.627835
0
LINE
8
0
10
152.638974
20
-96.627835
11
145.4544636
21
-112.0350673
0
LINE
8
0
10
145.4544636
20
-112.0350673
11
129.1409234
21
-104.4279386
0
LINE
8
0
10
129.1409234
20
-104.4279386
11
136.3254338
21
-89.0207063
0
LINE
8
0
10
137.4552524
20
-130.3725323
11
153.7687926
21
-137.979661
0
LINE
8
0
10
153.7687926
20
-137.979661
11
146.5842822
21
-153.3868933
0
LINE
8
0
10
146.5842822
20
-153.3868933
11
130.270742
21
-145.7797646
0
LINE
8
0
10
130.270742
20
-145.7797646
11
137.4552524
21
-130.3725323
0
LINE
8
0
10
144.8510719
20
-114.512146
11
161.1646121
21
-122.1192747
0
LINE
8
0
10
161.1646121
20
-122.1192747
11
153.9801017
21
-137.526507
0
LINE
8
0
10
153.9801017
20
-137.526507
11
137.6665615
21
-129.9193783
0
LINE
8
0
10
137.6665615
20
-129.9193783
11
144.8510719
21
-114.512146
0
LINE
8
0
10
152.2468915
20
-98.6517596
11
168.5604317
21
-106.2588883
0
LINE
8
0
10
168.5604317
20
-106.2588883
11
161.3759213
21
-121.6661206
0
LINE
8
0
10
161.3759213
20
-121.6661206
11
145.0623811
21
-114.0589919
0
LINE
8
0
10
145.0623811
20
-114.0589919
11
152.2468915
21
-98.6517596
0
LINE
8
0
10
290.0395962
20
-95.6650902
11
307.3423067
21
-90.7036178
0
LINE
8
0
10
307.3423067
20
-90.7036178
11
312.0281418
21
-107.0450666
0
LINE
8
0
10
312.0281418
20
-107.0450666
11
294.7254313
21
-112.006539
0
LINE
8
0
10
294.7254313
20
-112.006539
11
290.0395962
21
-95.6650902
0
LINE
8
0
10
277.0799085
20
-117.5864609
11
294.382619
21
-112.6249885
0
LINE
8
0
10
294.382619
20
-112.6249885
11
299.0684541
21
-128.9664373
0
LINE
8
0
10
299.0684541
20
-128.9664373
11
281.7657436
21
-133.9279097
0
LINE
8
0
10
281.7657436
20
-133.9279097
11
277.0799085
21
-117.5864609
0
LINE
8
0
10
272.2562548
20
-100.7643813
11
289.5589653
21
-95.8029089
0
LINE
8
0
10
289.5589653
20
-95.8029089
11
294.2448004
21
-112.1443577
0
LINE
8
0
10
294.2448004
20
-112.1443577
11
276.9420899
21
-117.1058301
0
LINE
8
0
10
276.9420899
20
-117.1058301
11
272.2562548
21
-100.7643813
0
LINE
8
0
10
251.6552386
20
-112.9173299
11
268.3445479
21
-106.1744112
0
LINE
8
0
10
268.3445479
20
-106.1744112
11
274.71286
21
-121.9365367
0
LINE
8
0
10
274.71286
20
-121.9365367
11
258.0235507
21
-128.6794554
0
LINE
8
0
10
258.0235507
20
-128.6794554
11
251.6552386
21
-112.9173299
0
LINE
8
0
10
245.0996233
20
-96.6916124
11
261.7889326
21
-89.9486937
0
LINE
8
0
10
261.7889326
20
-89.9486937
11
268.1572447
21
-105.7108192
0
LINE
8
0
10
268.1572447
20
-105.7108192
11
251.4679354
21
-112.4537379
0
LINE
8
0
10
251.4679354
20
-112.4537379
11
245.0996233
21
-96.6916124
0
LINE
8
0
10
238.5440079
20
-80.4658949
11
255.2333172
21
-73.7229762
0
LINE
8
0
10
255.2333172
20
-73.7229762
11
261.6016293
21
-89.4851017
0
LINE
8
0
10
261.6016293
20
-89.4851017
11
244.91232
21
-96.2280204
0
LINE
8
0
10
244.91232
20
-96.2280204
11
238.5440079
21
-80.4658949
0
LINE
8
0
10
232.2122998
20
-116.4517847
11
248.52584
21
-108.844656
0
LINE
8
0
10
248.52584
20
-108.844656
11
255.7103504
21
-124.2518883
0
LINE
8
0
10
255.7103504
20
-124.2518883
11
239.3968102
21
-131.859017
0
LINE
8
0
10
239.3968102
20
-131.859017
11
232.2122998
21
-116.4517847
0
LINE
8
0
10
224.8164802
20
-100.5913983
11
241.1300204
21
-92.9842696
0
LINE
8
0
10
241.1300204
20
-92.9842696
11
248.3145308
21
-108.3915019
0
LINE
8
0
10
248.3145308
20
-108.3915019
11
232.0009906
21
-115.9986306
0
LINE
8
0
10
232.0009906
20
-115.9986306
11
224.8164802
21
-100.5913983
0
LINE
8
0
10
217.4206607
20
-84.731012
11
233.7342009
21
-77.1238833
0
LINE
8
0
10
233.7342009
20
-77.1238833
11
240.9187113
21
-92.5311156
0
LINE
8
0
10
240.9187113
20
-92.5311156
11
224.6051711
21
-100.1382443
0
LINE
8
0
10
224.6051711
20
-100.1382443
11
217.4206607
21
-84.731012
0
LINE
8
0
10
217.3473879
20
-128.3486076
11
233.6609281
21
-120.7414789
0
LINE
8
0
10
233.6609281
20
-120.7414789
11
240.8454385
21
-136.1487112
0
LINE
8
0
10
240.8454385
20
-136.1487112
11
224.5318983
21
-143.7558399
0
LINE
8
0
10
224.5318983
20
-143.7558399
11
217.3473879
21
-128.3486076
0
LINE
8
0
10
209.9515684
20
-112.4882213
11
226.2651086
21
-104.8810926
0
LINE
8
0
10
226.2651086
20
-104.8810926
11
233.449619
21
-120.2883249
0
LINE
8
0
10
233.449619
20
-120.2883249
11
217.1360788
21
-127.8954536
0
LINE
8
0
10
217.1360788
20
-127.8954536
11
209.9515684
21
-112.4882213
0
LINE
8
0
10
202.5557488
20
-96.627835
11
218.869289
21
-89.0207063
0
LINE
8
0
10
218.869289
20
-89.0207063
11
226.0537994
21
-104.4279386
0
LINE
8
0
10
226.0537994
20
-104.4279386
11
209.7402592
21
-112.0350673
0
LINE
8
0
10
209.7402592
20
-112.0350673
11
202.5557488
21
-96.627835
0
LINE
8
0
10
201.4259302
20
-137.979661
11
217.7394704
21
-130.3725323
0
LINE
8
0
10
217.7394704
20
-130.3725323
11
224.9239808
21
-145.7797646
0
LINE
8
0
10
224.9239808
20
-145.7797646
11
208.6104406
21
-153.3868933
0
LINE
8
0
10
208.6104406
20
-153.3868933
11
201.4259302
21
-137.979661
0
LINE
8
0
10
194.0301107
20
-122.1192747
11
210.3436509
21
-114.512146
0
LINE
8
0
10
210.3436509
20
-114.512146
11
217.5281613
21
-129.9193783
0
LINE
8
0
10
217.5281613
20
-129.9193783
11
201.2146211
21
-137.526507
0
LINE
8
0
10
201.2146211
20
-137.526507
11
194.0301107
21
-122.1192747
0
LINE
8
0
10
186.6342911
20
-106.2588883
11
202.9478313
21
-98.6517596
0
LINE
8
0
10
202.9478313
20
-98.6517596
11
210.1323417
21
-114.0589919
0
LINE
8
0
10
210.1323417
20
-114.0589919
11
193.8188015
21
-121.6661206
0
LINE
8
0
10
193.8188015
20
-121.6661206
11
186.6342911
21
-106.2588883
0
LINE
8
0
10
130.6575328
20
-150.8814795
11
144.4463328
21
-162.4516565
0
LINE
8
0
10
144.4463328
20
-162.4516565
11
133.5189434
21
-175.4744121
0
LINE
8
0
10
133.5189434
20
-175.4744121
11
119.7301434
21
-163.9042351
0
LINE
8
0
10
119.7301434
20
-163.9042351
11
130.6575328
21
-150.8814795
0
LINE
8
0
10
146.9863496
20
-164.9916732
11
158.5565266
21
-178.7804732
0
LINE
8
0
10
158.5565266
20
-178.7804732
11
145.533771
21
-189.7078626
0
LINE
8
0
10
145.533771
20
-189.7078626
11
133.963594
21
-175.9190626
0
LINE
8
0
10
133.963594
20
-175.9190626
11
146.9863496
21
-164.9916732
0
LINE
8
0
10
163.9559208
20
-187.2558247
11
171.5630495
21
-203.5693649
0
LINE
8
0
10
171.5630495
20
-203.5693649
11
156.1558172
21
-210.7538753
0
LINE
8
0
10
156.1558172
20
-210.7538753
11
148.5486885
21
-194.4403351
0
LINE
8
0
10
148.5486885
20
-194.4403351
11
163.9559208
21
-187.2558247
0
LINE
8
0
10
210.74839
20
-162.4516565
11
224.53719
21
-150.8814795
0
LINE
8
0
10
224.53719
20
-150.8814795
11
235.4645794
21
-163.9042351
0
LINE
8
0
10
235.4645794
20
-163.9042351
11
221.6757794
21
-175.4744121
0
LINE
8
0
10
221.6757794
20
-175.4744121
11
210.74839
21
-162.4516565
0
LINE
8
0
10
196.6381962
20
-178.7804732
11
208.2083732
21
-164.9916732
0
LINE
8
0
10
208.2083732
20
-164.9916732
11
221.2311288
21
-175.9190626
0
LINE
8
0
10
221.2311288
20
-175.9190626
11
209.6609518
21
-189.7078626
0
LINE
8
0
10
209.6609518
20
-189.7078626
11
196.6381962
21
-178.7804732
0
LINE
8
0
10
183.6316733
20
-203.5693649
11
191.238802
21
-187.2558247
0
LINE
8
0
10
191.238802
20
-187.2558247
11
206.6460343
21
-194.4403351
0
LINE
8
0
10
206.6460343
20
-194.4403351
11
199.0389056
21
-210.7538753
0
LINE
8
0
10
199.0389056
20
-210.7538753
11
183.6316733
21
-203.5693649
0
ENDSEC
0
EOF