<svg width="270.834mm" height="140.922mm" viewBox="0 0 270.834 140.922" xmlns="http://www.w3.org/2000/svg"><g id="svgGroup" stroke-linecap="round" fill-rule="evenodd" font-size="9pt" stroke="#000" stroke-width="0.25mm" fill="none" style="stroke:#000;stroke-width:0.25mm;fill:none"><path d="M 81.518 81.804 L 91.842 96.549 L 77.917 106.3 L 67.593 91.555 L 81.518 81.804 Z M 178.992 96.549 L 189.316 81.804 L 203.242 91.555 L 192.917 106.3 L 178.992 96.549 Z M 102.375 119.136 L 107.034 136.522 L 90.613 140.922 L 85.954 123.536 L 102.375 119.136 Z M 163.801 136.522 L 168.459 119.136 L 184.88 123.536 L 180.221 140.922 L 163.801 136.522 Z M 4.686 47.914 L 21.989 52.875 L 17.303 69.217 L 0 64.255 L 4.686 47.914 Z M 14.333 14.27 L 31.636 19.231 L 26.95 35.573 L 9.647 30.611 L 14.333 14.27 Z M 9.509 31.092 L 26.812 36.053 L 22.126 52.395 L 4.824 47.433 L 9.509 31.092 Z M 248.846 52.875 L 266.148 47.914 L 270.834 64.255 L 253.531 69.217 L 248.846 52.875 Z M 244.022 36.053 L 261.325 31.092 L 266.011 47.433 L 248.708 52.395 L 244.022 36.053 Z M 239.198 19.231 L 256.501 14.27 L 261.187 30.611 L 243.884 35.573 L 239.198 19.231 Z M 200.05 43.407 L 216.364 35.799 L 223.548 51.207 L 207.234 58.814 L 200.05 43.407 Z M 176.377 39.964 L 192.69 32.357 L 199.875 47.764 L 183.561 55.371 L 176.377 39.964 Z M 54.471 35.799 L 70.784 43.407 L 63.6 58.814 L 47.286 51.207 L 54.471 35.799 Z M 69.262 4.079 L 85.576 11.686 L 78.391 27.093 L 62.078 19.486 L 69.262 4.079 Z M 70.748 48.217 L 87.061 55.824 L 79.877 71.231 L 63.563 63.624 L 70.748 48.217 Z M 78.144 32.357 L 94.457 39.964 L 87.273 55.371 L 70.959 47.764 L 78.144 32.357 Z M 85.54 16.496 L 101.853 24.103 L 94.669 39.511 L 78.355 31.903 L 85.54 16.496 Z M 86.775 57.621 L 103.089 65.229 L 95.904 80.636 L 79.59 73.029 L 86.775 57.621 Z M 94.171 41.761 L 110.484 49.368 L 103.3 64.775 L 86.986 57.168 L 94.171 41.761 Z M 101.567 25.901 L 117.88 33.508 L 110.696 48.915 L 94.382 41.308 L 101.567 25.901 Z M 168.981 24.103 L 185.295 16.496 L 192.479 31.903 L 176.166 39.511 L 168.981 24.103 Z M 167.746 65.229 L 184.059 57.621 L 191.244 73.029 L 174.93 80.636 L 167.746 65.229 Z M 160.35 49.368 L 176.663 41.761 L 183.848 57.168 L 167.534 64.775 L 160.35 49.368 Z M 152.954 33.508 L 169.268 25.901 L 176.452 41.308 L 160.139 48.915 L 152.954 33.508 Z M 93.579 99.558 L 101.187 115.871 L 85.779 123.056 L 78.172 106.742 L 93.579 99.558 Z M 169.648 115.871 L 177.255 99.558 L 192.662 106.742 L 185.055 123.056 L 169.648 115.871 Z M 183.773 55.824 L 200.086 48.217 L 207.271 63.624 L 190.957 71.231 L 183.773 55.824 Z M 61.866 19.939 L 78.18 27.546 L 70.996 42.953 L 54.682 35.346 L 61.866 19.939 Z M 192.654 27.546 L 208.968 19.939 L 216.152 35.346 L 199.839 42.953 L 192.654 27.546 Z M 185.258 11.686 L 201.572 4.079 L 208.756 19.486 L 192.443 27.093 L 185.258 11.686 Z M 39.864 16.226 L 56.553 22.969 L 50.185 38.731 L 33.495 31.988 L 39.864 16.226 Z M 46.419 0 L 63.109 6.743 L 56.74 22.505 L 40.051 15.762 L 46.419 0 Z M 220.837 39.194 L 237.526 32.451 L 243.894 48.214 L 227.205 54.956 L 220.837 39.194 Z M 214.281 22.969 L 230.971 16.226 L 237.339 31.988 L 220.65 38.731 L 214.281 22.969 Z M 207.726 6.743 L 224.415 0 L 230.783 15.762 L 214.094 22.505 L 207.726 6.743 Z M 33.308 32.451 L 49.997 39.194 L 43.629 54.956 L 26.94 48.214 L 33.308 32.451 Z" vector-effect="non-scaling-stroke"/></g></svg>