0
SECTION
2
HEADER
9
$INSUNITS
70
4
0
ENDSEC
0
SECTION
2
TABLES
0
TABLE
2
LTYPE
0
LTYPE
72
65
70
64
2
CONTINUOUS
3
______
73
0
40
0
0
ENDTAB
0
TABLE
2
LAYER
0
ENDTAB
0
ENDSEC
0
SECTION
2
ENTITIES
0
LINE
8
0
10
43.850435
20
-92.7045811
11
60.9202608
21
-98.4160649
0
LINE
8
0
10
60.9202608
20
-98.4160649
11
55.5260816
21
-114.5375671
0
LINE
8
0
10
55.5260816
20
-114.5375671
11
38.4562558
21
-108.8260833
0
LINE
8
0
10
38.4562558
20
-108.8260833
11
43.850435
21
-92.7045811
0
LINE
8
0
10
55.8415911
20
-115.1703812
11
72.9114169
21
-120.881865
0
LINE
8
0
10
72.9114169
20
-120.881865
11
67.5172377
21
-137.0033672
0
LINE
8
0
10
67.5172377
20
-137.0033672
11
50.4474119
21
-131.2918834
0
LINE
8
0
10
50.4474119
20
-131.2918834
11
55.8415911
21
-115.1703812
0
LINE
8
0
10
61.3944226
20
-98.5747172
11
78.4642484
21
-104.286201
0
LINE
8
0
10
78.4642484
20
-104.286201
11
73.0700692
21
-120.4077032
0
LINE
8
0
10
73.0700692
20
-120.4077032
11
56.0002434
21
-114.6962194
0
LINE
8
0
10
56.0002434
20
-114.6962194
11
61.3944226
21
-98.5747172
0
LINE
8
0
10
82.1362499
20
-109.8617081
11
98.5155528
21
-117.3261865
0
LINE
8
0
10
98.5155528
20
-117.3261865
11
91.4657677
21
-132.7955281
0
LINE
8
0
10
91.4657677
20
-132.7955281
11
75.0864648
21
-125.3310497
0
LINE
8
0
10
75.0864648
20
-125.3310497
11
82.1362499
21
-109.8617081
0
LINE
8
0
10
89.3933816
20
-93.9373858
11
105.7726845
21
-101.4018642
0
LINE
8
0
10
105.7726845
20
-101.4018642
11
98.7228994
21
-116.8712058
0
LINE
8
0
10
98.7228994
20
-116.8712058
11
82.3435965
21
-109.4067274
0
LINE
8
0
10
82.3435965
20
-109.4067274
11
89.3933816
21
-93.9373858
0
LINE
8
0
10
96.6505134
20
-78.0130635
11
113.0298163
21
-85.4775419
0
LINE
8
0
10
113.0298163
20
-85.4775419
11
105.9800312
21
-100.9468835
0
LINE
8
0
10
105.9800312
20
-100.9468835
11
89.6007283
21
-93.4824051
0
LINE
8
0
10
89.6007283
20
-93.4824051
11
96.6505134
21
-78.0130635
0
LINE
8
0
10
101.8196205
20
-113.3938912
11
117.7858155
21
-121.7053662
0
LINE
8
0
10
117.7858155
20
-121.7053662
11
109.9360891
21
-136.7845504
0
LINE
8
0
10
109.9360891
20
-136.7845504
11
93.9698941
21
-128.4730754
0
LINE
8
0
10
93.9698941
20
-128.4730754
11
101.8196205
21
-113.3938912
0
LINE
8
0
10
109.9002212
20
-97.8712016
11
125.8664162
21
-106.1826766
0
LINE
8
0
10
125.8664162
20
-106.1826766
11
118.0166898
21
-121.2618608
0
LINE
8
0
10
118.0166898
20
-121.2618608
11
102.0504948
21
-112.9503858
0
LINE
8
0
10
102.0504948
20
-112.9503858
11
109.9002212
21
-97.8712016
0
LINE
8
0
10
117.9808219
20
-82.348512
11
133.9470169
21
-90.659987
0
LINE
8
0
10
133.9470169
20
-90.659987
11
126.0972905
21
-105.7391712
0
LINE
8
0
10
126.0972905
20
-105.7391712
11
110.1310955
21
-97.4276962
0
LINE
8
0
10
110.1310955
20
-97.4276962
11
117.9808219
21
-82.348512
0
LINE
8
0
10
116.1514521
20
-125.9277894
11
132.1176471
21
-134.2392644
0
LINE
8
0
10
132.1176471
20
-134.2392644
11
124.2679207
21
-149.3184486
0
LINE
8
0
10
124.2679207
20
-149.3184486
11
108.3017257
21
-141.0069736
0
LINE
8
0
10
108.3017257
20
-141.0069736
11
116.1514521
21
-125.9277894
0
LINE
8
0
10
124.2320528
20
-110.4050998
11
140.1982478
21
-118.7165748
0
LINE
8
0
10
140.1982478
20
-118.7165748
11
132.3485214
21
-133.795759
0
LINE
8
0
10
132.3485214
20
-133.795759
11
116.3823264
21
-125.484284
0
LINE
8
0
10
116.3823264
20
-125.484284
11
124.2320528
21
-110.4050998
0
LINE
8
0
10
132.3126535
20
-94.8824101
11
148.2788485
21
-103.1938851
0
LINE
8
0
10
148.2788485
20
-103.1938851
11
140.4291221
21
-118.2730693
0
LINE
8
0
10
140.4291221
20
-118.2730693
11
124.4629271
21
-109.9615943
0
LINE
8
0
10
124.4629271
20
-109.9615943
11
132.3126535
21
-94.8824101
0
LINE
8
0
10
131.6376555
20
-136.2441604
11
147.6038505
21
-144.5556354
0
LINE
8
0
10
147.6038505
20
-144.5556354
11
139.7541241
21
-159.6348196
0
LINE
8
0
10
139.7541241
20
-159.6348196
11
123.7879291
21
-151.3233446
0
LINE
8
0
10
123.7879291
20
-151.3233446
11
131.6376555
21
-136.2441604
0
LINE
8
0
10
139.7182562
20
-120.7214707
11
155.6844512
21
-129.0329457
0
LINE
8
0
10
155.6844512
20
-129.0329457
11
147.8347248
21
-144.1121299
0
LINE
8
0
10
147.8347248
20
-144.1121299
11
131.8685298
21
-135.8006549
0
LINE
8
0
10
131.8685298
20
-135.8006549
11
139.7182562
21
-120.7214707
0
LINE
8
0
10
147.7988569
20
-105.1987811
11
163.7650519
21
-113.5102561
0
LINE
8
0
10
163.7650519
20
-113.5102561
11
155.9153255
21
-128.5894403
0
LINE
8
0
10
155.9153255
20
-128.5894403
11
139.9491305
21
-120.2779653
0
LINE
8
0
10
139.9491305
20
-120.2779653
11
147.7988569
21
-105.1987811
0
LINE
8
0
10
284.7922496
20
-98.4160649
11
301.8620754
21
-92.7045811
0
LINE
8
0
10
301.8620754
20
-92.7045811
11
307.2562546
21
-108.8260833
0
LINE
8
0
10
307.2562546
20
-108.8260833
11
290.1864288
21
-114.5375671
0
LINE
8
0
10
290.1864288
20
-114.5375671
11
284.7922496
21
-98.4160649
0
LINE
8
0
10
272.8010935
20
-120.881865
11
289.8709193
21
-115.1703812
0
LINE
8
0
10
289.8709193
20
-115.1703812
11
295.2650985
21
-131.2918834
0
LINE
8
0
10
295.2650985
20
-131.2918834
11
278.1952727
21
-137.0033672
0
LINE
8
0
10
278.1952727
20
-137.0033672
11
272.8010935
21
-120.881865
0
LINE
8
0
10
267.248262
20
-104.286201
11
284.3180878
21
-98.5747172
0
LINE
8
0
10
284.3180878
20
-98.5747172
11
289.712267
21
-114.6962194
0
LINE
8
0
10
289.712267
20
-114.6962194
11
272.6424412
21
-120.4077032
0
LINE
8
0
10
272.6424412
20
-120.4077032
11
267.248262
21
-104.286201
0
LINE
8
0
10
247.1969576
20
-117.3261865
11
263.5762605
21
-109.8617081
0
LINE
8
0
10
263.5762605
20
-109.8617081
11
270.6260456
21
-125.3310497
0
LINE
8
0
10
270.6260456
20
-125.3310497
11
254.2467427
21
-132.7955281
0
LINE
8
0
10
254.2467427
20
-132.7955281
11
247.1969576
21
-117.3261865
0
LINE
8
0
10
239.9398259
20
-101.4018642
11
256.3191288
21
-93.9373858
0
LINE
8
0
10
256.3191288
20
-93.9373858
11
263.3689139
21
-109.4067274
0
LINE
8
0
10
263.3689139
20
-109.4067274
11
246.989611
21
-116.8712058
0
LINE
8
0
10
246.989611
20
-116.8712058
11
239.9398259
21
-101.4018642
0
LINE
8
0
10
232.6826941
20
-85.4775419
11
249.061997
21
-78.0130635
0
LINE
8
0
10
249.061997
20
-78.0130635
11
256.1117821
21
-93.4824051
0
LINE
8
0
10
256.1117821
20
-93.4824051
11
239.7324792
21
-100.9468835
0
LINE
8
0
10
239.7324792
20
-100.9468835
11
232.6826941
21
-85.4775419
0
LINE
8
0
10
227.9266949
20
-121.7053662
11
243.8928899
21
-113.3938912
0
LINE
8
0
10
243.8928899
20
-113.3938912
11
251.7426163
21
-128.4730754
0
LINE
8
0
10
251.7426163
20
-128.4730754
11
235.7764213
21
-136.7845504
0
LINE
8
0
10
235.7764213
20
-136.7845504
11
227.9266949
21
-121.7053662
0
LINE
8
0
10
219.8460942
20
-106.1826766
11
235.8122892
21
-97.8712016
0
LINE
8
0
10
235.8122892
20
-97.8712016
11
243.6620156
21
-112.9503858
0
LINE
8
0
10
243.6620156
20
-112.9503858
11
227.6958206
21
-121.2618608
0
LINE
8
0
10
227.6958206
20
-121.2618608
11
219.8460942
21
-106.1826766
0
LINE
8
0
10
211.7654935
20
-90.659987
11
227.7316885
21
-82.348512
0
LINE
8
0
10
227.7316885
20
-82.348512
11
235.5814149
21
-97.4276962
0
LINE
8
0
10
235.5814149
20
-97.4276962
11
219.6152199
21
-105.7391712
0
LINE
8
0
10
219.6152199
20
-105.7391712
11
211.7654935
21
-90.659987
0
LINE
8
0
10
213.5948633
20
-134.2392644
11
229.5610583
21
-125.9277894
0
LINE
8
0
10
229.5610583
20
-125.9277894
11
237.4107847
21
-141.0069736
0
LINE
8
0
10
237.4107847
20
-141.0069736
11
221.4445897
21
-149.3184486
0
LINE
8
0
10
221.4445897
20
-149.3184486
11
213.5948633
21
-134.2392644
0
LINE
8
0
10
205.5142626
20
-118.7165748
11
221.4804576
21
-110.4050998
0
LINE
8
0
10
221.4804576
20
-110.4050998
11
229.330184
21
-125.484284
0
LINE
8
0
10
229.330184
20
-125.484284
11
213.363989
21
-133.795759
0
LINE
8
0
10
213.363989
20
-133.795759
11
205.5142626
21
-118.7165748
0
LINE
8
0
10
197.4336619
20
-103.1938851
11
213.3998569
21
-94.8824101
0
LINE
8
0
10
213.3998569
20
-94.8824101
11
221.2495833
21
-109.9615943
0
LINE
8
0
10
221.2495833
20
-109.9615943
11
205.2833883
21
-118.2730693
0
LINE
8
0
10
205.2833883
20
-118.2730693
11
197.4336619
21
-103.1938851
0
LINE
8
0
10
198.1086599
20
-144.5556354
11
214.0748549
21
-136.2441604
0
LINE
8
0
10
214.0748549
20
-136.2441604
11
221.9245813
21
-151.3233446
0
LINE
8
0
10
221.9245813
20
-151.3233446
11
205.9583863
21
-159.6348196
0
LINE
8
0
10
205.9583863
20
-159.6348196
11
198.1086599
21
-144.5556354
0
LINE
8
0
10
190.0280592
20
-129.0329457
11
205.9942542
21
-120.7214707
0
LINE
8
0
10
205.9942542
20
-120.7214707
11
213.8439806
21
-135.8006549
0
LINE
8
0
10
213.8439806
20
-135.8006549
11
197.8777856
21
-144.1121299
0
LINE
8
0
10
197.8777856
20
-144.1121299
11
190.0280592
21
-129.0329457
0
LINE
8
0
10
181.9474585
20
-113.5102561
11
197.9136535
21
-105.1987811
0
LINE
8
0
10
197.9136535
20
-105.1987811
11
205.7633799
21
-120.2779653
0
LINE
8
0
10
205.7633799
20
-120.2779653
11
189.7971849
21
-128.5894403
0
LINE
8
0
10
189.7971849
20
-128.5894403
11
181.9474585
21
-113.5102561
0
LINE
8
0
10
121.8578075
20
-154.5439505
11
137.0388535
21
-164.2153435
0
LINE
8
0
10
137.0388535
20
-164.2153435
11
127.9047601
21
-178.5529981
0
LINE
8
0
10
127.9047601
20
-178.5529981
11
112.7237141
21
-168.8816051
0
LINE
8
0
10
112.7237141
20
-168.8816051
11
121.8578075
21
-154.5439505
0
LINE
8
0
10
138.716487
20
-165.390035
11
152.9968471
21
-176.3477408
0
LINE
8
0
10
152.9968471
20
-176.3477408
11
142.6479028
21
-189.8347476
0
LINE
8
0
10
142.6479028
20
-189.8347476
11
128.3675427
21
-178.8770418
0
LINE
8
0
10
128.3675427
20
-178.8770418
11
138.716487
21
-165.390035
0
LINE
8
0
10
161.7990451
20
-187.8189885
11
168.6873469
21
-204.4488201
0
LINE
8
0
10
168.6873469
20
-204.4488201
11
152.9813949
21
-210.9544385
0
LINE
8
0
10
152.9813949
20
-210.9544385
11
146.0930931
21
-194.3246069
0
LINE
8
0
10
146.0930931
20
-194.3246069
11
161.7990451
21
-187.8189885
0
LINE
8
0
10
208.6736569
20
-164.2153435
11
223.8547029
21
-154.5439505
0
LINE
8
0
10
223.8547029
20
-154.5439505
11
232.9887963
21
-168.8816051
0
LINE
8
0
10
232.9887963
20
-168.8816051
11
217.8077503
21
-178.5529981
0
LINE
8
0
10
217.8077503
20
-178.5529981
11
208.6736569
21
-164.2153435
0
LINE
8
0
10
192.7156633
20
-176.3477408
11
206.9960234
21
-165.390035
0
LINE
8
0
10
206.9960234
20
-165.390035
11
217.3449677
21
-178.8770418
0
LINE
8
0
10
217.3449677
20
-178.8770418
11
203.0646076
21
-189.8347476
0
LINE
8
0
10
203.0646076
20
-189.8347476
11
192.7156633
21
-176.3477408
0
LINE
8
0
10
177.0251635
20
-204.4488201
11
183.9134653
21
-187.8189885
0
LINE
8
0
10
183.9134653
20
-187.8189885
11
199.6194173
21
-194.3246069
0
LINE
8
0
10
199.6194173
20
-194.3246069
11
192.7311155
21
-210.9544385
0
LINE
8
0
10
192.7311155
20
-210.9544385
11
177.0251635
21
-204.4488201
0
ENDSEC
0
EOF