<svg width="268.8mm" height="132.941mm" viewBox="0 0 268.8 132.941" xmlns="http://www.w3.org/2000/svg"><g id="svgGroup" stroke-linecap="round" fill-rule="evenodd" font-size="9pt" stroke="#000" stroke-width="0.25mm" fill="none" style="stroke:#000;stroke-width:0.25mm;fill:none"><path d="M 234.345 42.869 L 251.415 37.157 L 256.809 53.279 L 239.739 58.99 L 234.345 42.869 Z M 246.336 20.403 L 263.406 14.692 L 268.8 30.813 L 251.73 36.525 L 246.336 20.403 Z M 228.792 26.273 L 245.862 20.562 L 251.256 36.683 L 234.186 42.395 L 228.792 26.273 Z M 17.385 37.157 L 34.455 42.869 L 29.061 58.99 L 11.991 53.279 L 17.385 37.157 Z M 22.938 20.562 L 40.008 26.273 L 34.614 42.395 L 17.544 36.683 L 22.938 20.562 Z M 5.394 14.692 L 22.464 20.403 L 17.07 36.525 L 0 30.813 L 5.394 14.692 Z M 170.217 86.202 L 185.398 76.531 L 194.533 90.869 L 179.351 100.54 L 170.217 86.202 Z M 83.402 76.531 L 98.583 86.202 L 89.449 100.54 L 74.267 90.869 L 83.402 76.531 Z M 100.26 87.377 L 114.541 98.335 L 104.192 111.822 L 89.911 100.864 L 100.26 87.377 Z M 154.259 98.335 L 168.54 87.377 L 178.889 100.864 L 164.608 111.822 L 154.259 98.335 Z M 43.68 31.849 L 60.059 39.313 L 53.01 54.782 L 36.63 47.318 L 43.68 31.849 Z M 50.937 15.924 L 67.316 23.389 L 60.267 38.858 L 43.887 31.394 L 50.937 15.924 Z M 58.194 0 L 74.574 7.464 L 67.524 22.934 L 51.144 15.469 L 58.194 0 Z M 208.741 39.313 L 225.12 31.849 L 232.17 47.318 L 215.79 54.782 L 208.741 39.313 Z M 194.226 7.464 L 210.606 0 L 217.656 15.469 L 201.276 22.934 L 194.226 7.464 Z M 201.484 23.389 L 217.863 15.924 L 224.913 31.394 L 208.533 38.858 L 201.484 23.389 Z M 63.363 35.381 L 79.33 43.692 L 71.48 58.771 L 55.514 50.46 L 63.363 35.381 Z M 77.695 47.915 L 93.661 56.226 L 85.812 71.305 L 69.845 62.994 L 77.695 47.915 Z M 85.776 32.392 L 101.742 40.704 L 93.892 55.783 L 77.926 47.471 L 85.776 32.392 Z M 93.856 16.869 L 109.823 25.181 L 101.973 40.26 L 86.007 31.949 L 93.856 16.869 Z M 93.181 58.231 L 109.148 66.543 L 101.298 81.622 L 85.332 73.31 L 93.181 58.231 Z M 101.262 42.708 L 117.228 51.02 L 109.378 66.099 L 93.412 57.788 L 101.262 42.708 Z M 109.343 27.186 L 125.309 35.497 L 117.459 50.576 L 101.493 42.265 L 109.343 27.186 Z M 189.47 43.692 L 205.437 35.381 L 213.286 50.46 L 197.32 58.771 L 189.47 43.692 Z M 175.139 56.226 L 191.105 47.915 L 198.955 62.994 L 182.988 71.305 L 175.139 56.226 Z M 167.058 40.704 L 183.024 32.392 L 190.874 47.471 L 174.908 55.783 L 167.058 40.704 Z M 158.977 25.181 L 174.944 16.869 L 182.793 31.949 L 166.827 40.26 L 158.977 25.181 Z M 159.652 66.543 L 175.619 58.231 L 183.468 73.31 L 167.502 81.622 L 159.652 66.543 Z M 151.572 51.02 L 167.538 42.708 L 175.388 57.788 L 159.422 66.099 L 151.572 51.02 Z M 143.491 35.497 L 159.457 27.186 L 167.307 42.265 L 151.341 50.576 L 143.491 35.497 Z M 71.444 19.858 L 87.41 28.17 L 79.56 43.249 L 63.594 34.937 L 71.444 19.858 Z M 79.525 4.335 L 95.491 12.647 L 87.641 27.726 L 71.675 19.415 L 79.525 4.335 Z M 181.39 28.17 L 197.356 19.858 L 205.206 34.937 L 189.24 43.249 L 181.39 28.17 Z M 173.309 12.647 L 189.275 4.335 L 197.125 19.415 L 181.159 27.726 L 173.309 12.647 Z M 123.343 109.806 L 130.231 126.436 L 114.525 132.941 L 107.637 116.312 L 123.343 109.806 Z M 138.569 126.436 L 145.457 109.806 L 161.163 116.312 L 154.275 132.941 L 138.569 126.436 Z" vector-effect="non-scaling-stroke"/></g></svg>