<svg width="275.497mm" height="134.87mm" viewBox="0 0 275.497 134.87" xmlns="http://www.w3.org/2000/svg"><g id="svgGroup" stroke-linecap="round" fill-rule="evenodd" font-size="9pt" stroke="#000" stroke-width="0.25mm" fill="none" style="stroke:#000;stroke-width:0.25mm;fill:none"><path d="M 0 33.917 L 7.781 12.539 L 47.33 26.933 L 61.006 0 L 82.422 4.821 L 103.457 16.481 L 132.667 40.104 L 122.629 58.213 L 152.868 58.213 L 142.83 40.104 L 172.04 16.481 L 193.075 4.821 L 214.491 0 L 228.167 26.933 L 267.716 12.539 L 275.497 33.917 L 258.113 40.244 L 264.098 56.689 L 241.498 64.914 L 228.999 57.177 L 196.556 74.065 L 206.659 95.334 L 180.303 110.494 L 161.827 134.87 L 144.533 125.674 L 130.964 125.674 L 113.67 134.87 L 95.194 110.494 L 68.838 95.334 L 78.941 74.065 L 46.498 57.177 L 33.999 64.914 L 11.399 56.689 L 17.384 40.244 L 0 33.917 Z" vector-effect="non-scaling-stroke"/></g></svg>