<svg width="276.362mm" height="140.707mm" viewBox="0 0 276.362 140.707" xmlns="http://www.w3.org/2000/svg"><g id="svgGroup" stroke-linecap="round" fill-rule="evenodd" font-size="9pt" stroke="#000" stroke-width="0.25mm" fill="none" style="stroke:#000;stroke-width:0.25mm;fill:none"><path d="M 0 36.45 L 7.219 14.876 L 30.026 22.507 L 60.415 0 L 81.95 4.259 L 103.282 15.364 L 133.1 38.214 L 123.064 57.493 L 153.297 57.493 L 143.261 38.214 L 173.079 15.364 L 194.412 4.259 L 215.947 0 L 246.336 22.507 L 269.143 14.876 L 276.362 36.45 L 258.818 42.32 L 264.371 58.916 L 241.564 66.547 L 218.011 62.524 L 206.746 68.018 L 202.409 95.539 L 177.28 112.494 L 159.554 140.707 L 138.181 131.854 L 116.808 140.707 L 99.082 112.494 L 73.952 95.539 L 69.616 68.018 L 58.351 62.524 L 34.798 66.547 L 11.991 58.916 L 17.544 42.32 L 0 36.45 Z" vector-effect="non-scaling-stroke"/></g></svg>