0
SECTION
2
HEADER
9
$INSUNITS
70
4
0
ENDSEC
0
SECTION
2
TABLES
0
TABLE
2
LTYPE
0
LTYPE
72
65
70
64
2
CONTINUOUS
3
______
73
0
40
0
0
ENDTAB
0
TABLE
2
LAYER
0
ENDTAB
0
ENDSEC
0
SECTION
2
ENTITIES
0
LINE
8
0
10
39.466307
20
-108.974891
11
45.7370568
21
-87.1061874
0
LINE
8
0
10
45.7370568
20
-87.1061874
11
68.8554006
21
-93.7352658
0
LINE
8
0
10
68.8554006
20
-93.7352658
11
98.2336683
21
-69.9241377
0
LINE
8
0
10
98.2336683
20
-69.9241377
11
119.9339684
21
-73.2398281
0
LINE
8
0
10
119.9339684
20
-73.2398281
11
141.7306707
21
-83.4037973
0
LINE
8
0
10
141.7306707
20
-83.4037973
11
172.5170403
21
-104.9316736
0
LINE
8
0
10
172.5170403
20
-104.9316736
11
162.631594
21
-126.1310817
0
LINE
8
0
10
174.2599877
20
-205.6494802
11
154.8286025
21
-214.7104839
0
LINE
8
0
10
154.8286025
20
-214.7104839
11
137.5463048
21
-184.661477
0
LINE
8
0
10
137.5463048
20
-184.661477
11
115.5648446
21
-164.1621803
0
LINE
8
0
10
115.5648446
20
-164.1621803
11
110.3926757
21
-137.4759259
0
LINE
8
0
10
110.3926757
20
-137.4759259
11
98.8989094
21
-132.4782939
0
LINE
8
0
10
98.8989094
20
-132.4782939
11
75.5443385
21
-137.5253401
0
LINE
8
0
10
75.5443385
20
-137.5253401
11
52.4259947
21
-130.8962617
0
LINE
8
0
10
52.4259947
20
-130.8962617
11
57.2496484
21
-114.074182
0
LINE
8
0
10
57.2496484
20
-114.074182
11
39.466307
21
-108.974891
0
LINE
8
0
10
315.7284158
20
-108.974891
11
309.457666
21
-87.1061874
0
LINE
8
0
10
309.457666
20
-87.1061874
11
286.3393222
21
-93.7352658
0
LINE
8
0
10
286.3393222
20
-93.7352658
11
256.9610545
21
-69.9241377
0
LINE
8
0
10
256.9610545
20
-69.9241377
11
235.2607544
21
-73.2398281
0
LINE
8
0
10
235.2607544
20
-73.2398281
11
213.4640521
21
-83.4037973
0
LINE
8
0
10
213.4640521
20
-83.4037973
11
182.6776825
21
-104.9316736
0
LINE
8
0
10
182.6776825
20
-104.9316736
11
192.5631288
21
-126.1310817
0
LINE
8
0
10
180.9347351
20
-205.6494802
11
200.3661203
21
-214.7104839
0
LINE
8
0
10
200.3661203
20
-214.7104839
11
217.648418
21
-184.661477
0
LINE
8
0
10
217.648418
20
-184.661477
11
239.6298782
21
-164.1621803
0
LINE
8
0
10
239.6298782
20
-164.1621803
11
244.8020471
21
-137.4759259
0
LINE
8
0
10
244.8020471
20
-137.4759259
11
256.2958134
21
-132.4782939
0
LINE
8
0
10
256.2958134
20
-132.4782939
11
279.6503843
21
-137.5253401
0
LINE
8
0
10
279.6503843
20
-137.5253401
11
302.7687281
21
-130.8962617
0
LINE
8
0
10
302.7687281
20
-130.8962617
11
297.9450744
21
-114.074182
0
LINE
8
0
10
297.9450744
20
-114.074182
11
315.7284158
21
-108.974891
0
LINE
8
0
10
162.631594
20
-126.1310817
11
192.5631288
21
-126.1310817
0
LINE
8
0
10
180.9347351
20
-205.6494802
11
174.2599877
21
-205.6494802
0
ENDSEC
0
EOF