0
SECTION
2
HEADER
9
$INSUNITS
70
4
0
ENDSEC
0
SECTION
2
TABLES
0
TABLE
2
LTYPE
0
LTYPE
72
65
70
64
2
CONTINUOUS
3
______
73
0
40
0
0
ENDTAB
0
TABLE
2
LAYER
0
ENDTAB
0
ENDSEC
0
SECTION
2
ENTITIES
0
LINE
8
0
10
166.5709141
20
-126.1310817
11
188.6238087
21
-126.1310817
0
LINE
8
0
10
179.836795
20
-205.6494802
11
175.3579278
21
-205.6494802
0
LINE
8
0
10
43.1966992
20
-111.4749754
11
51.367424
21
-113.8178931
0
LINE
8
0
10
50.2254521
20
-86.9628023
11
82.0515405
21
-96.0887863
0
LINE
8
0
10
44.0409568
20
-90.3909238
11
39.7685777
21
-105.2904801
0
LINE
8
0
10
56.1563869
20
-133.3963461
11
71.0559432
21
-137.6687252
0
LINE
8
0
10
77.2404385
20
-134.2406037
11
78.0302625
21
-131.48616
0
LINE
8
0
10
54.7955455
20
-120.0023884
11
52.7282654
21
-127.2118508
0
LINE
8
0
10
84.7096039
20
-128.2284277
11
97.2016659
21
-133.2755483
0
LINE
8
0
10
99.8052468
20
-132.1703938
11
100.0627011
21
-131.5331721
0
LINE
8
0
10
88.0656467
20
-93.1555108
11
96.2035111
21
-73.0135894
0
LINE
8
0
10
117.7035439
20
-76.3074927
11
102.7124634
21
-70.2507031
0
LINE
8
0
10
102.7623053
20
-130.4697697
11
109.2436691
21
-133.4920793
0
LINE
8
0
10
141.9122983
20
-84.7297919
11
142.1236074
21
-84.276638
0
LINE
8
0
10
141.1562284
20
-81.6187859
11
124.3895343
21
-73.800348
0
LINE
8
0
10
117.7449042
20
-76.2187955
11
117.7035439
21
-76.3074927
0
LINE
8
0
10
110.967118
20
-139.2609373
11
125.9211967
21
-146.2341387
0
LINE
8
0
10
110.2110481
20
-136.1499314
11
109.9997391
21
-136.6030852
0
LINE
8
0
10
156.9885194
20
-96.1734608
11
157.8337558
21
-94.3608454
0
LINE
8
0
10
157.8337558
20
-94.3608454
11
142.8796772
21
-87.387644
0
LINE
8
0
10
125.0759602
20
-148.0467542
11
127.2789067
21
-149.074005
0
LINE
8
0
10
164.7582986
20
-123.2858451
11
171.6421222
21
-108.5234376
0
LINE
8
0
10
125.9211967
20
-146.2341387
11
125.0759602
21
-148.0467542
0
LINE
8
0
10
169.2236747
20
-101.8788075
11
156.9885194
21
-96.1734608
0
LINE
8
0
10
303.8272988
20
-113.8178931
11
311.9980236
21
-111.4749754
0
LINE
8
0
10
315.4261451
20
-105.2904801
11
311.153766
21
-90.3909238
0
LINE
8
0
10
273.1431823
20
-96.0887863
11
304.9692707
21
-86.9628023
0
LINE
8
0
10
284.1387796
20
-137.6687252
11
299.0383359
21
-133.3963461
0
LINE
8
0
10
302.4664574
20
-127.2118508
11
300.3991773
21
-120.0023884
0
LINE
8
0
10
277.1644603
20
-131.48616
11
277.9542843
21
-134.2406037
0
LINE
8
0
10
257.9930569
20
-133.2755483
11
270.4851189
21
-128.2284277
0
LINE
8
0
10
255.1320217
20
-131.5331721
11
255.389476
21
-132.1703938
0
LINE
8
0
10
258.9912117
20
-73.0135894
11
267.1290761
21
-93.1555108
0
LINE
8
0
10
252.4822594
20
-70.2507031
11
241.8905019
21
-74.5300509
0
LINE
8
0
10
245.9510537
20
-133.4920793
11
252.4324175
21
-130.4697697
0
LINE
8
0
10
235.4859301
20
-72.007223
11
235.3367274
21
-71.6872567
0
LINE
8
0
10
235.3367274
20
-71.6872567
11
214.0384944
21
-81.6187859
0
LINE
8
0
10
213.0711154
20
-84.276638
11
213.2824245
21
-84.7297919
0
LINE
8
0
10
229.2735261
20
-146.2341387
11
244.2276048
21
-139.2609373
0
LINE
8
0
10
245.1949837
20
-136.6030852
11
244.9836747
21
-136.1499314
0
LINE
8
0
10
212.3150456
20
-87.387644
11
197.360967
21
-94.3608454
0
LINE
8
0
10
197.360967
20
-94.3608454
11
198.2062034
21
-96.1734608
0
LINE
8
0
10
227.9158161
20
-149.074005
11
230.1187626
21
-148.0467542
0
LINE
8
0
10
230.1187626
20
-148.0467542
11
229.2735261
21
-146.2341387
0
LINE
8
0
10
183.5526006
20
-108.5234376
11
190.4364242
21
-123.2858451
0
LINE
8
0
10
198.2062034
20
-96.1734608
11
185.9710481
21
-101.8788075
0
LINE
8
0
10
117.9558516
20
-167.9634084
11
130.4089358
21
-178.4127868
0
LINE
8
0
10
127.2789067
20
-149.074005
11
117.3395675
21
-160.9192482
0
LINE
8
0
10
131.0252198
20
-179.0290708
11
143.3142842
21
-193.6746074
0
LINE
8
0
10
144.0156009
20
-194.7754541
11
151.7757364
21
-211.4171183
0
LINE
8
0
10
158.4203665
20
-213.8355658
11
172.4681373
21
-207.2849826
0
LINE
8
0
10
224.785787
20
-178.4127868
11
237.2388712
21
-167.9634084
0
LINE
8
0
10
237.8551553
20
-160.9192482
11
227.9158161
21
-149.074005
0
LINE
8
0
10
211.8804386
20
-193.6746074
11
224.169503
21
-179.0290708
0
LINE
8
0
10
203.4189864
20
-211.4171183
11
211.1791219
21
-194.7754541
0
LINE
8
0
10
182.7265855
20
-207.2849826
11
196.7743563
21
-213.8355658
0
ARC
8
0
10
49.989237
20
-118.6242015
40
5
50
343.9999995
51
73.9999976
0
ARC
8
0
10
57.5345739
20
-128.5900377
40
5
50
163.9999995
51
253.9999976
0
ARC
8
0
10
72.4341301
20
-132.8624167
40
5
50
253.9999995
51
343.9999976
0
ARC
8
0
10
82.836571
20
-132.864347
40
5
50
68.0000006
51
163.9999976
0
ARC
8
0
10
121.1697897
20
-164.1331862
40
5
50
140.0000001
51
229.9999988
0
ARC
8
0
10
127.1949976
20
-182.243009
40
5
50
40.0000012
51
49.9999988
0
ARC
8
0
10
139.484062
20
-196.8885456
40
5
50
25.0000017
51
40.0000012
0
ARC
8
0
10
156.3072752
20
-209.3040269
40
5
50
205.0000017
51
294.9999999
0
ARC
8
0
10
170.3550459
20
-202.7534438
40
5
50
295.0000017
51
315.6184068
0
ARC
8
0
10
167.1105833
20
-106.4103463
40
5
50
335.0000001
51
64.9999983
0
ARC
8
0
10
122.276443
20
-78.3318869
40
5
50
65.0000001
51
154.9999983
0
ARC
8
0
10
100.8394304
20
-74.8866224
40
5
50
68.0000006
51
157.9999999
0
ARC
8
0
10
83.4297273
20
-91.2824779
40
5
50
253.9999995
51
337.9999999
0
ARC
8
0
10
48.8472652
20
-91.7691108
40
5
50
73.9999995
51
163.9999976
0
ARC
8
0
10
44.5748862
20
-106.668667
40
5
50
163.9999995
51
253.9999976
0
ARC
8
0
10
310.6198366
20
-106.668667
40
5
50
286.0000024
51
16.0000005
0
ARC
8
0
10
306.3474576
20
-91.7691108
40
5
50
16.0000024
51
106.0000005
0
ARC
8
0
10
271.7649955
20
-91.2824779
40
5
50
202.0000001
51
286.0000005
0
ARC
8
0
10
254.3552924
20
-74.8866224
40
5
50
22.0000001
51
111.9999994
0
ARC
8
0
10
240.017469
20
-69.8941315
40
5
50
205.0000017
51
291.9999994
0
ARC
8
0
10
188.0841395
20
-106.4103463
40
5
50
115.0000017
51
204.9999999
0
ARC
8
0
10
184.8396769
20
-202.7534438
40
5
50
224.3815932
51
244.9999983
0
ARC
8
0
10
198.8874476
20
-209.3040269
40
5
50
245.0000001
51
334.9999983
0
ARC
8
0
10
215.7106608
20
-196.8885456
40
5
50
139.9999988
51
154.9999983
0
ARC
8
0
10
227.9997252
20
-182.243009
40
5
50
130.0000012
51
139.9999988
0
ARC
8
0
10
234.0249331
20
-164.1331862
40
5
50
310.0000012
51
39.9999999
0
ARC
8
0
10
272.3581518
20
-132.864347
40
5
50
16.0000024
51
111.9999994
0
ARC
8
0
10
282.7605927
20
-132.8624167
40
5
50
196.0000024
51
286.0000005
0
ARC
8
0
10
297.6601489
20
-128.5900377
40
5
50
286.0000024
51
16.0000005
0
ARC
8
0
10
305.2054858
20
-118.6242015
40
5
50
106.0000024
51
196.0000005
0
ARC
8
0
10
188.6238087
20
-124.1310817
40
2
50
270
51
25.0000017
0
ARC
8
0
10
185.3652161
20
-107.6782011
40
2
50
204.9999999
51
205.0000017
0
ARC
8
0
10
211.469809
20
-85.5750284
40
2
50
295.0000017
51
25.0000017
0
ARC
8
0
10
214.883731
20
-83.4314015
40
2
50
115.0000017
51
205.0000017
0
ARC
8
0
10
257.136844
20
-73.7628026
40
2
50
21.9999994
51
22.0000001
0
ARC
8
0
10
268.9834439
20
-92.4062977
40
2
50
201.9999994
51
202.0000001
0
ARC
8
0
10
272.5919076
20
-94.166263
40
2
50
286.0000005
51
286.0000024
0
ARC
8
0
10
305.5205455
20
-88.8853257
40
2
50
106.0000005
51
106.0000024
0
ARC
8
0
10
313.5036217
20
-105.8417549
40
2
50
16.0000005
51
16.0000024
0
ARC
8
0
10
302.3217007
20
-119.4511136
40
2
50
196.0000005
51
196.0000024
0
ARC
8
0
10
300.543934
20
-127.7631256
40
2
50
16.0000005
51
16.0000024
0
ARC
8
0
10
283.5875048
20
-135.7462018
40
2
50
286.0000005
51
286.0000024
0
ARC
8
0
10
257.2438437
20
-131.4211806
40
2
50
201.9999994
51
291.9999994
0
ARC
8
0
10
253.277654
20
-132.2823853
40
2
50
21.9999994
51
115.0000017
0
ARC
8
0
10
246.7962902
20
-135.3046948
40
2
50
115.0000017
51
205.0000017
0
ARC
8
0
10
243.3823682
20
-137.4483217
40
2
50
295.0000017
51
25.0000017
0
ARC
8
0
10
236.3230664
20
-162.2048234
40
2
50
39.9999999
51
40.0000012
0
ARC
8
0
10
197.6195928
20
-212.0229503
40
2
50
244.9999983
51
245.0000001
0
ARC
8
0
10
179.836795
20
-207.6494802
40
2
50
44.3815932
51
90
0
ARC
8
0
10
175.3579278
20
-207.6494802
40
2
50
90
51
135.6184068
0
ARC
8
0
10
157.57513
20
-212.0229503
40
2
50
294.9999999
51
295.0000017
0
ARC
8
0
10
118.8716564
20
-162.2048234
40
2
50
139.9999988
51
140.0000001
0
ARC
8
0
10
111.8123546
20
-137.4483217
40
2
50
154.9999983
51
244.9999983
0
ARC
8
0
10
108.3984326
20
-135.3046948
40
2
50
334.9999983
51
64.9999983
0
ARC
8
0
10
101.9170688
20
-132.2823853
40
2
50
64.9999983
51
158.0000006
0
ARC
8
0
10
97.9508791
20
-131.4211806
40
2
50
248.0000006
51
338.0000006
0
ARC
8
0
10
71.607218
20
-135.7462018
40
2
50
253.9999976
51
253.9999995
0
ARC
8
0
10
54.6507888
20
-127.7631256
40
2
50
163.9999976
51
163.9999995
0
ARC
8
0
10
52.8730221
20
-119.4511136
40
2
50
343.9999976
51
343.9999995
0
ARC
8
0
10
41.6911011
20
-105.8417549
40
2
50
163.9999976
51
163.9999995
0
ARC
8
0
10
49.6741773
20
-88.8853257
40
2
50
73.9999976
51
73.9999995
0
ARC
8
0
10
82.6028152
20
-94.166263
40
2
50
253.9999976
51
253.9999995
0
ARC
8
0
10
86.2112789
20
-92.4062977
40
2
50
337.9999999
51
338.0000006
0
ARC
8
0
10
98.0578788
20
-73.7628026
40
2
50
157.9999999
51
158.0000006
0
ARC
8
0
10
123.5442978
20
-75.6129635
40
2
50
64.9999983
51
65.0000001
0
ARC
8
0
10
140.3109918
20
-83.4314015
40
2
50
334.9999983
51
64.9999983
0
ARC
8
0
10
143.7249138
20
-85.5750284
40
2
50
154.9999983
51
244.9999983
0
ARC
8
0
10
169.8295067
20
-107.6782011
40
2
50
334.9999983
51
335.0000001
0
ARC
8
0
10
166.5709141
20
-124.1310817
40
2
50
154.9999983
51
270
0
ENDSEC
0
EOF