<svg width="274.983mm" height="134.261mm" viewBox="0 0 274.983 134.261" xmlns="http://www.w3.org/2000/svg"><g id="svgGroup" stroke-linecap="round" fill-rule="evenodd" font-size="9pt" stroke="#000" stroke-width="0.25mm" fill="none" style="stroke:#000;stroke-width:0.25mm;fill:none"><path d="M 126.596 58.081 L 148.387 58.081 A 2 2 0 0 0 150.136 55.111 L 143.697 43.494 A 5 5 0 0 1 145.646 36.697 L 157.453 30.152 L 156.483 28.403 L 170.915 20.403 A 2 2 0 0 0 171.694 17.684 L 171.452 17.247 A 2 2 0 0 1 172.232 14.528 L 192.785 3.135 L 192.956 3.444 A 5 5 0 0 0 199.521 5.514 L 209.789 0.506 A 5 5 0 0 1 216.474 2.808 L 226.741 23.857 A 2 2 0 0 0 229.223 24.86 L 262.972 12.576 A 5 5 0 0 1 269.38 15.565 L 274.681 30.13 A 5 5 0 0 1 271.693 36.539 L 263.706 39.446 A 5 5 0 0 0 260.717 45.854 L 263.282 52.902 A 5 5 0 0 1 260.294 59.311 L 245.729 64.612 A 5 5 0 0 1 239.32 61.624 L 238.682 59.871 A 5 5 0 0 0 231.792 57.087 L 219.682 62.993 A 2 2 0 0 1 217.008 62.072 L 216.707 61.454 A 2 2 0 0 0 213.94 60.582 L 207.685 64.049 A 2 2 0 0 0 206.905 66.768 L 207.148 67.205 A 2 2 0 0 1 206.368 69.924 L 200.683 73.075 A 5 5 0 0 0 198.734 79.872 L 205.279 91.68 A 5 5 0 0 1 203.33 98.477 L 188.656 106.611 A 5 5 0 0 0 188.43 106.744 L 173.965 115.783 A 5 5 0 0 0 172.2 117.676 L 164.791 131.609 A 5 5 0 0 1 158.029 133.676 L 144.343 126.399 A 5 5 0 0 1 143.177 125.542 L 131.806 125.542 A 5 5 0 0 1 130.64 126.399 L 116.954 133.676 A 5 5 0 0 1 110.192 131.609 L 102.783 117.676 A 5 5 0 0 0 101.018 115.783 L 86.553 106.744 A 5 5 0 0 0 86.327 106.611 L 71.653 98.477 A 5 5 0 0 1 69.704 91.68 L 76.249 79.872 A 5 5 0 0 0 74.3 73.075 L 68.615 69.924 A 2 2 0 0 1 67.835 67.205 L 68.078 66.768 A 2 2 0 0 0 67.298 64.049 L 61.043 60.582 A 2 2 0 0 0 58.276 61.454 L 57.975 62.072 A 2 2 0 0 1 55.301 62.993 L 43.191 57.087 A 5 5 0 0 0 36.301 59.871 L 35.663 61.624 A 5 5 0 0 1 29.254 64.612 L 14.689 59.311 A 5 5 0 0 1 11.7 52.902 L 14.266 45.854 A 5 5 0 0 0 11.277 39.446 L 3.29 36.539 A 5 5 0 0 1 0.302 30.13 L 5.603 15.565 A 5 5 0 0 1 12.011 12.576 L 45.76 24.86 A 2 2 0 0 0 48.242 23.857 L 58.508 2.808 A 5 5 0 0 1 65.194 0.506 L 79.726 7.594 L 79.774 7.508 A 5 5 0 0 1 86.571 5.559 L 102.751 14.528 A 2 2 0 0 1 103.531 17.247 L 103.289 17.684 A 2 2 0 0 0 104.068 20.403 L 118.5 28.403 L 117.53 30.152 L 129.337 36.697 A 5 5 0 0 1 131.286 43.494 L 124.847 55.111 A 2 2 0 0 0 126.596 58.081 Z" vector-effect="non-scaling-stroke"/></g></svg>