0
SECTION
2
HEADER
9
$INSUNITS
70
4
0
ENDSEC
0
SECTION
2
TABLES
0
TABLE
2
LTYPE
0
LTYPE
72
65
70
64
2
CONTINUOUS
3
______
73
0
40
0
0
ENDTAB
0
TABLE
2
LAYER
0
ENDTAB
0
ENDSEC
0
SECTION
2
ENTITIES
0
LINE
8
0
10
156.8071929
20
-80.5807766
11
159.5756336
21
-66.4011843
0
LINE
8
0
10
164.4829765
20
-62.3592998
11
221.4875187
21
-62.3592998
0
LINE
8
0
10
226.3948616
20
-66.4011843
11
229.1633023
21
-80.5807766
0
LINE
8
0
10
226.1581245
20
-143.769442
11
159.8123707
21
-143.769442
0
ARC
8
0
10
164.4829765
20
-67.3592998
40
5
50
90
51
168.9524785
0
ARC
8
0
10
221.4875187
20
-67.3592998
40
5
50
11.0475215
51
90
0
LINE
8
0
10
57.5982794
20
-133.8098022
11
72.4978357
21
-138.0821813
0
LINE
8
0
10
78.682331
20
-134.6540598
11
82.9746342
21
-119.6850199
0
LINE
8
0
10
54.1701579
20
-127.6253069
11
68.0898445
21
-79.0815912
0
LINE
8
0
10
89.1379772
20
-79.9155492
11
74.2743398
21
-75.6534697
0
LINE
8
0
10
85.6463707
20
-118.381927
11
101.2276586
21
-124.6771759
0
LINE
8
0
10
103.8312395
20
-123.5720214
11
104.0713164
21
-122.9778101
0
LINE
8
0
10
95.1520834
20
-76.9822737
11
100.2295039
21
-64.415217
0
LINE
8
0
10
121.3666573
20
-67.5625075
11
106.7384562
21
-61.6523307
0
LINE
8
0
10
106.7709207
20
-121.9144077
11
115.9730737
21
-126.2054421
0
LINE
8
0
10
147.3350684
20
-76.6959388
11
147.4935501
21
-76.3560735
0
LINE
8
0
10
146.5261712
20
-73.6982214
11
127.0405538
21
-64.6119288
0
LINE
8
0
10
124.3827017
20
-65.5793077
11
123.928486
21
-66.5533764
0
LINE
8
0
10
117.7493498
20
-131.8610117
11
132.7034283
21
-138.8342131
0
LINE
8
0
10
116.9404526
20
-128.8632943
11
116.7819709
21
-129.2031596
0
LINE
8
0
10
153.9990191
20
-82.010146
11
148.3024474
21
-79.3537909
0
LINE
8
0
10
131.9638464
20
-140.4202516
11
134.7547152
21
-141.7216551
0
LINE
8
0
10
150.2407685
20
-148.9429204
11
150.5431559
21
-149.083926
0
LINE
8
0
10
157.1877861
20
-146.6654785
11
157.9997551
21
-144.9242054
0
LINE
8
0
10
132.7034283
20
-138.8342131
11
131.9638464
21
-140.4202516
0
LINE
8
0
10
313.4726595
20
-138.0821813
11
328.3722158
21
-133.8098022
0
LINE
8
0
10
317.8806507
20
-79.0815912
11
331.8003373
21
-127.6253069
0
LINE
8
0
10
302.995861
20
-119.6850199
11
307.2881642
21
-134.6540598
0
LINE
8
0
10
311.6961554
20
-75.6534697
11
296.832518
21
-79.9155492
0
LINE
8
0
10
284.7428366
20
-124.6771759
11
300.3241245
21
-118.381927
0
LINE
8
0
10
281.8991788
20
-122.9778101
11
282.1392557
21
-123.5720214
0
LINE
8
0
10
285.7409913
20
-64.415217
11
290.8184118
21
-76.9822737
0
LINE
8
0
10
279.232039
20
-61.6523307
11
264.6038379
21
-67.5625075
0
LINE
8
0
10
269.9974215
20
-126.2054421
11
279.1995745
21
-121.9144077
0
LINE
8
0
10
262.0420092
20
-66.5533764
11
261.5877935
21
-65.5793077
0
LINE
8
0
10
258.9299414
20
-64.6119288
11
239.444324
21
-73.6982214
0
LINE
8
0
10
238.4769451
20
-76.3560735
11
238.6354268
21
-76.6959388
0
LINE
8
0
10
253.2670669
20
-138.8342131
11
268.2211454
21
-131.8610117
0
LINE
8
0
10
269.1885243
20
-129.2031596
11
269.0300426
21
-128.8632943
0
LINE
8
0
10
237.6680478
20
-79.3537909
11
231.9714761
21
-82.010146
0
LINE
8
0
10
235.4273394
20
-149.0839259
11
235.7297267
21
-148.9429204
0
LINE
8
0
10
251.21578
20
-141.7216551
11
254.0066488
21
-140.4202516
0
LINE
8
0
10
254.0066488
20
-140.4202516
11
253.2670669
21
-138.8342131
0
LINE
8
0
10
227.9707401
20
-144.9242054
11
228.7827091
21
-146.6654785
0
LINE
8
0
10
122.3962454
20
-160.1413455
11
131.6865069
21
-173.409214
0
LINE
8
0
10
154.8068517
20
-162.4730737
11
155.0429394
21
-162.3077633
0
LINE
8
0
10
155.0429394
20
-162.3077633
11
154.1054176
21
-160.9688435
0
LINE
8
0
10
153.1534328
20
-159.6092682
11
147.7572278
21
-151.9026888
0
LINE
8
0
10
135.0566315
20
-145.1725748
11
123.6241234
21
-153.1777031
0
LINE
8
0
10
132.1222855
20
-174.1640048
11
139.2620623
21
-189.4753054
0
LINE
8
0
10
163.9301985
20
-182.7201167
11
164.1914054
21
-182.5983139
0
LINE
8
0
10
164.1914054
20
-182.5983139
11
163.5006274
21
-181.1169358
0
LINE
8
0
10
162.7991935
20
-179.6127059
11
154.8068517
21
-162.4730737
0
LINE
8
0
10
154.1054176
20
-160.9688435
11
153.4146397
21
-159.4874654
0
LINE
8
0
10
153.4146397
20
-159.4874654
11
153.1534328
21
-159.6092682
0
LINE
8
0
10
139.5601526
20
-190.2943018
11
143.7522645
21
-205.9394766
0
LINE
8
0
10
149.8759887
20
-209.4750107
11
164.8478391
21
-205.4633156
0
LINE
8
0
10
168.3833732
20
-199.3395914
11
163.9301985
21
-182.7201167
0
LINE
8
0
10
163.5006274
20
-181.1169358
11
163.0775828
21
-179.5381117
0
LINE
8
0
10
163.0775828
20
-179.5381117
11
162.7991935
21
-179.6127059
0
LINE
8
0
10
254.2839883
20
-173.409214
11
263.5742498
21
-160.1413455
0
LINE
8
0
10
262.3463718
20
-153.1777031
11
250.9138637
21
-145.1725748
0
LINE
8
0
10
238.2132674
20
-151.9026888
11
232.8170624
21
-159.6092682
0
LINE
8
0
10
231.8650776
20
-160.9688435
11
230.9275558
21
-162.3077633
0
LINE
8
0
10
230.9275558
20
-162.3077633
11
231.1636435
21
-162.4730737
0
LINE
8
0
10
246.7084329
20
-189.4753054
11
253.8482097
21
-174.1640048
0
LINE
8
0
10
232.8170624
20
-159.6092682
11
232.5558555
21
-159.4874654
0
LINE
8
0
10
232.5558555
20
-159.4874654
11
231.8650776
21
-160.9688435
0
LINE
8
0
10
231.1636435
20
-162.4730737
11
223.1713017
21
-179.6127059
0
LINE
8
0
10
222.4698678
20
-181.1169358
11
221.7790898
21
-182.5983139
0
LINE
8
0
10
221.7790898
20
-182.5983139
11
222.0402967
21
-182.7201167
0
LINE
8
0
10
242.2182307
20
-205.9394766
11
246.4103426
21
-190.2943018
0
LINE
8
0
10
223.1713017
20
-179.6127059
11
222.8929124
21
-179.5381117
0
LINE
8
0
10
222.8929124
20
-179.5381117
11
222.4698678
21
-181.1169358
0
LINE
8
0
10
222.0402967
20
-182.7201167
11
217.587122
21
-199.3395914
0
LINE
8
0
10
221.1226561
20
-205.4633156
11
236.0945065
21
-209.4750107
0
ARC
8
0
10
73.8760226
20
-133.2758728
40
5
50
253.9999995
51
343.9999976
0
ARC
8
0
10
126.4920056
20
-157.2734633
40
5
50
125.0000002
51
214.9999997
0
ARC
8
0
10
127.5907467
20
-176.2770962
40
5
50
25.0000017
51
34.9999997
0
ARC
8
0
10
134.7305235
20
-191.5883968
40
5
50
14.9999979
51
25.0000017
0
ARC
8
0
10
148.5818937
20
-204.6453816
40
5
50
194.9999979
51
284.9999979
0
ARC
8
0
10
163.5537441
20
-200.6336864
40
5
50
284.9999979
51
14.9999979
0
ARC
8
0
10
152.6562473
20
-144.5523871
40
5
50
245.0000001
51
334.9999983
0
ARC
8
0
10
104.8654232
20
-66.28825
40
5
50
68.0000006
51
157.9999999
0
ARC
8
0
10
90.5161641
20
-75.1092407
40
5
50
253.9999995
51
337.9999999
0
ARC
8
0
10
72.8961529
20
-80.4597782
40
5
50
73.9999995
51
163.9999976
0
ARC
8
0
10
58.9764664
20
-129.0034938
40
5
50
163.9999995
51
253.9999976
0
ARC
8
0
10
326.9940288
20
-129.0034938
40
5
50
286.0000024
51
16.0000005
0
ARC
8
0
10
313.0743423
20
-80.4597782
40
5
50
16.0000024
51
106.0000005
0
ARC
8
0
10
295.4543311
20
-75.1092407
40
5
50
202.0000001
51
286.0000005
0
ARC
8
0
10
281.105072
20
-66.28825
40
5
50
22.0000001
51
111.9999994
0
ARC
8
0
10
233.3142479
20
-144.5523871
40
5
50
205.0000017
51
295.0000017
0
ARC
8
0
10
222.4167511
20
-200.6336864
40
5
50
165.0000021
51
255.0000021
0
ARC
8
0
10
237.3886015
20
-204.6453816
40
5
50
255.0000021
51
345.0000021
0
ARC
8
0
10
251.2399717
20
-191.5883968
40
5
50
154.9999983
51
165.0000021
0
ARC
8
0
10
258.3797485
20
-176.2770962
40
5
50
145.0000003
51
154.9999983
0
ARC
8
0
10
259.4784896
20
-157.2734633
40
5
50
325.0000003
51
54.9999998
0
ARC
8
0
10
312.0944726
20
-133.2758728
40
5
50
196.0000024
51
286.0000005
0
ARC
8
0
10
231.1262395
20
-80.1975304
40
2
50
191.0475215
51
295.0000017
0
ARC
8
0
10
236.8228113
20
-77.5411754
40
2
50
295.0000017
51
25.0000017
0
ARC
8
0
10
240.2895606
20
-75.510837
40
2
50
115.0000017
51
205.0000017
0
ARC
8
0
10
259.7751779
20
-66.4245443
40
2
50
25.0000017
51
115.0000017
0
ARC
8
0
10
263.8546247
20
-65.7081398
40
2
50
205.0000017
51
291.9999994
0
ARC
8
0
10
283.8866236
20
-65.1644302
40
2
50
21.9999994
51
22.0000001
0
ARC
8
0
10
292.6727795
20
-76.2330605
40
2
50
201.9999994
51
202.0000001
0
ARC
8
0
10
296.2812432
20
-77.9930258
40
2
50
286.0000005
51
286.0000024
0
ARC
8
0
10
312.2474302
20
-77.5759931
40
2
50
106.0000005
51
106.0000024
0
ARC
8
0
10
329.8778139
20
-128.1765817
40
2
50
16.0000005
51
16.0000024
0
ARC
8
0
10
312.9213847
20
-136.1596579
40
2
50
286.0000005
51
286.0000024
0
ARC
8
0
10
301.0733377
20
-120.2362947
40
2
50
16.0000024
51
111.9999994
0
ARC
8
0
10
283.9936234
20
-122.8228082
40
2
50
201.9999994
51
291.9999994
0
ARC
8
0
10
280.0448111
20
-123.7270233
40
2
50
21.9999994
51
115.0000017
0
ARC
8
0
10
270.8426581
20
-128.0180577
40
2
50
115.0000017
51
205.0000017
0
ARC
8
0
10
267.3759088
20
-130.0483961
40
2
50
295.0000017
51
25.0000017
0
ARC
8
0
10
252.0610166
20
-143.5342707
40
2
50
115.0000017
51
235.0000003
0
ARC
8
0
10
261.1992189
20
-154.8160072
40
2
50
54.9999998
51
55.0000003
0
ARC
8
0
10
236.5749633
20
-150.755536
40
2
50
325.0000003
51
115.0000017
0
ARC
8
0
10
226.1581245
20
-145.769442
40
2
50
25.0000017
51
90
0
ARC
8
0
10
159.8123707
20
-145.769442
40
2
50
90
51
154.9999983
0
ARC
8
0
10
151.3883925
20
-147.2713105
40
2
50
244.9999983
51
245.0000001
0
ARC
8
0
10
149.3955319
20
-150.755536
40
2
50
64.9999983
51
214.9999997
0
ARC
8
0
10
124.7712763
20
-154.8160072
40
2
50
124.9999997
51
125.0000002
0
ARC
8
0
10
133.9094786
20
-143.5342707
40
2
50
304.9999997
51
64.9999983
0
ARC
8
0
10
118.5945864
20
-130.0483961
40
2
50
154.9999983
51
244.9999983
0
ARC
8
0
10
115.1278371
20
-128.0180577
40
2
50
334.9999983
51
64.9999983
0
ARC
8
0
10
105.9256841
20
-123.7270233
40
2
50
64.9999983
51
158.0000006
0
ARC
8
0
10
101.9768718
20
-122.8228082
40
2
50
248.0000006
51
338.0000006
0
ARC
8
0
10
84.8971575
20
-120.2362947
40
2
50
68.0000006
51
163.9999976
0
ARC
8
0
10
73.0491105
20
-136.1596579
40
2
50
253.9999976
51
253.9999995
0
ARC
8
0
10
56.0926813
20
-128.1765817
40
2
50
163.9999976
51
163.9999995
0
ARC
8
0
10
73.723065
20
-77.5759931
40
2
50
73.9999976
51
73.9999995
0
ARC
8
0
10
89.689252
20
-77.9930258
40
2
50
253.9999976
51
253.9999995
0
ARC
8
0
10
93.2977157
20
-76.2330605
40
2
50
337.9999999
51
338.0000006
0
ARC
8
0
10
102.0838716
20
-65.1644302
40
2
50
157.9999999
51
158.0000006
0
ARC
8
0
10
122.1158705
20
-65.7081398
40
2
50
248.0000006
51
334.9999983
0
ARC
8
0
10
126.1953173
20
-66.4245443
40
2
50
64.9999983
51
154.9999983
0
ARC
8
0
10
145.6809346
20
-75.510837
40
2
50
334.9999983
51
64.9999983
0
ARC
8
0
10
149.1476839
20
-77.5411754
40
2
50
154.9999983
51
244.9999983
0
ARC
8
0
10
154.8442557
20
-80.1975304
40
2
50
244.9999983
51
348.9524785
0
ENDSEC
0
EOF