0
SECTION
2
HEADER
9
$INSUNITS
70
4
0
ENDSEC
0
SECTION
2
TABLES
0
TABLE
2
LTYPE
0
LTYPE
72
65
70
64
2
CONTINUOUS
3
______
73
0
40
0
0
ENDTAB
0
TABLE
2
LAYER
0
ENDTAB
0
ENDSEC
0
SECTION
2
ENTITIES
0
LINE
8
0
10
161.8530736
20
-131.6357957
11
183.8594368
21
-131.6357957
0
LINE
8
0
10
38.2931155
20
-113.2530896
11
46.3538667
21
-115.9501792
0
LINE
8
0
10
46.3843845
20
-89.0708364
11
77.7821117
21
-99.576369
0
LINE
8
0
10
40.0562428
20
-92.2259313
11
35.1380206
21
-106.9249479
0
LINE
8
0
10
50.2842716
20
-135.7188897
11
64.9832882
21
-140.6371119
0
LINE
8
0
10
71.3114299
20
-137.482017
11
72.2206493
21
-134.7646467
0
LINE
8
0
10
49.5089616
20
-122.2783208
11
47.1291767
21
-129.390748
0
LINE
8
0
10
79.0357335
20
-131.8013636
11
91.2957538
21
-137.3885767
0
LINE
8
0
10
93.9450627
20
-136.3980405
11
94.2300671
21
-135.7726554
0
LINE
8
0
10
83.9184414
20
-96.9082171
11
92.9271386
21
-77.1404351
0
LINE
8
0
10
114.2630302
20
-81.3690214
11
99.5504111
21
-74.6640946
0
LINE
8
0
10
96.9734869
20
-134.8280201
11
103.3168506
21
-138.1301662
0
LINE
8
0
10
138.0813676
20
-90.8392754
11
138.3122419
21
-90.39577
0
LINE
8
0
10
137.4617174
20
-87.6982511
11
121.0520171
21
-79.1559018
0
LINE
8
0
10
114.3082198
20
-81.2822129
11
114.2630302
21
-81.3690214
0
LINE
8
0
10
104.7870252
20
-143.9687095
11
114.4867174
21
-149.0180497
0
LINE
8
0
10
104.1673751
20
-140.8276851
11
103.9365007
21
-141.2711906
0
LINE
8
0
10
152.6440735
20
-102.929668
11
153.5675707
21
-101.1556464
0
LINE
8
0
10
153.5675707
20
-101.1556464
11
138.931892
21
-93.5367943
0
LINE
8
0
10
160.0790519
20
-128.7122985
11
166.745031
21
-115.9070716
0
LINE
8
0
10
164.6187199
20
-109.1632743
11
152.6440735
21
-102.929668
0
LINE
8
0
10
299.3586437
20
-115.9501792
11
307.4193949
21
-113.2530896
0
LINE
8
0
10
310.5744898
20
-106.9249479
11
305.6562676
21
-92.2259313
0
LINE
8
0
10
267.9303987
20
-99.576369
11
299.3281259
21
-89.0708364
0
LINE
8
0
10
280.7292222
20
-140.6371119
11
295.4282388
21
-135.7188897
0
LINE
8
0
10
298.5833337
20
-129.390748
11
296.2035488
21
-122.2783208
0
LINE
8
0
10
273.4918611
20
-134.7646467
11
274.4010805
21
-137.482017
0
LINE
8
0
10
254.4167566
20
-137.3885767
11
266.6767769
21
-131.8013636
0
LINE
8
0
10
251.4824433
20
-135.7726554
11
251.7674477
21
-136.3980405
0
LINE
8
0
10
252.7853718
20
-77.1404351
11
261.794069
21
-96.9082171
0
LINE
8
0
10
246.1620993
20
-74.6640946
11
235.767085
21
-79.4013755
0
LINE
8
0
10
242.3956598
20
-138.1301662
11
248.7390235
21
-134.8280201
0
LINE
8
0
10
229.2585649
20
-77.1603121
11
229.0955475
21
-76.8471587
0
LINE
8
0
10
229.0955475
20
-76.8471587
11
208.250793
21
-87.6982511
0
LINE
8
0
10
207.4002685
20
-90.39577
11
207.6311428
21
-90.8392754
0
LINE
8
0
10
231.225793
20
-149.0180497
11
240.9254852
21
-143.9687095
0
LINE
8
0
10
241.7760097
20
-141.2711906
11
241.5451353
21
-140.8276851
0
LINE
8
0
10
206.7806184
20
-93.5367943
11
192.1449397
21
-101.1556464
0
LINE
8
0
10
192.1449397
20
-101.1556464
11
193.0684369
21
-102.929668
0
LINE
8
0
10
178.9674794
20
-115.9070716
11
185.6334585
21
-128.7122985
0
LINE
8
0
10
193.0684369
20
-102.929668
11
181.0937905
21
-109.1632743
0
LINE
8
0
10
111.49443
20
-173.1376432
11
125.5190869
21
-182.072335
0
LINE
8
0
10
116.3949315
20
-156.139602
11
109.9639709
21
-166.234188
0
LINE
8
0
10
125.876396
20
-182.3225255
11
140.4184388
21
-193.4810274
0
LINE
8
0
10
141.9940294
20
-195.5343769
11
148.5765525
21
-211.4259936
0
LINE
8
0
10
155.1093673
20
-214.1319742
11
170.9428381
21
-207.5735358
0
LINE
8
0
10
220.1934235
20
-182.072335
11
234.2180804
21
-173.1376432
0
LINE
8
0
10
235.7485395
20
-166.234188
11
229.3175789
21
-156.139602
0
LINE
8
0
10
205.2940716
20
-193.4810274
11
219.8361144
21
-182.3225255
0
LINE
8
0
10
197.1359579
20
-211.4259936
11
203.718481
21
-195.5343769
0
LINE
8
0
10
174.7696723
20
-207.5735358
11
190.6031431
21
-214.1319742
0
ARC
8
0
10
44.7673433
20
-120.6917975
40
5
50
341.4999997
51
71.4999984
0
ARC
8
0
10
51.870795
20
-130.9772714
40
5
50
161.4999997
51
251.4999984
0
ARC
8
0
10
66.5698116
20
-135.8954936
40
5
50
251.4999997
51
341.4999984
0
ARC
8
0
10
76.9622675
20
-136.3511701
40
5
50
65.5000029
51
161.4999984
0
ARC
8
0
10
112.1779743
20
-153.4531039
40
5
50
327.5
51
62.4999998
0
ARC
8
0
10
114.1809281
20
-168.920686
40
5
50
147.5
51
237.499999
0
ARC
8
0
10
122.8325889
20
-186.2892922
40
5
50
52.4999999
51
57.499999
0
ARC
8
0
10
137.3746317
20
-197.4477941
40
5
50
22.5
51
52.4999999
0
ARC
8
0
10
153.1959502
20
-209.5125764
40
5
50
202.5
51
292.499999
0
ARC
8
0
10
172.8562552
20
-212.1929336
40
5
50
67.500001
51
112.499999
0
ARC
8
0
10
192.5165602
20
-209.5125764
40
5
50
247.500001
51
337.5
0
ARC
8
0
10
208.3378787
20
-197.4477941
40
5
50
127.5000001
51
157.5
0
ARC
8
0
10
222.8799215
20
-186.2892922
40
5
50
122.500001
51
127.5000001
0
ARC
8
0
10
231.5315823
20
-168.920686
40
5
50
302.500001
51
32.5
0
ARC
8
0
10
233.5345361
20
-153.4531039
40
5
50
117.5000002
51
212.5
0
ARC
8
0
10
268.7502429
20
-136.3511701
40
5
50
18.5000016
51
114.4999971
0
ARC
8
0
10
279.1426988
20
-135.8954936
40
5
50
198.5000016
51
288.5000003
0
ARC
8
0
10
293.8417154
20
-130.9772714
40
5
50
288.5000016
51
18.5000003
0
ARC
8
0
10
300.9451671
20
-120.6917975
40
5
50
108.5000016
51
198.5000003
0
ARC
8
0
10
305.8328715
20
-108.5114713
40
5
50
288.5000016
51
18.5000003
0
ARC
8
0
10
300.9146493
20
-93.8124547
40
5
50
18.5000016
51
108.5000003
0
ARC
8
0
10
266.3438753
20
-94.8347508
40
5
50
204.5000023
51
288.5000003
0
ARC
8
0
10
248.2355653
20
-79.2139011
40
5
50
24.4999971
51
114.4999971
0
ARC
8
0
10
233.6936191
20
-74.851569
40
5
50
207.5000002
51
294.4999971
0
ARC
8
0
10
183.4025336
20
-113.5983285
40
5
50
117.5000002
51
207.4999993
0
ARC
8
0
10
162.3099768
20
-113.5983285
40
5
50
332.5000007
51
62.4999998
0
ARC
8
0
10
118.743274
20
-83.590956
40
5
50
62.5000007
51
152.4999998
0
ARC
8
0
10
97.4769451
20
-79.2139011
40
5
50
65.5000029
51
155.5000029
0
ARC
8
0
10
79.3686351
20
-94.8347508
40
5
50
251.4999997
51
335.4999977
0
ARC
8
0
10
44.7978611
20
-93.8124547
40
5
50
71.4999997
51
161.4999984
0
ARC
8
0
10
39.8796389
20
-108.5114713
40
5
50
161.4999997
51
251.4999984
0
ARC
8
0
10
183.8594368
20
-129.6357957
40
2
50
270
51
27.5000002
0
ARC
8
0
10
180.7415011
20
-114.9835743
40
2
50
207.4999993
51
207.5000002
0
ARC
8
0
10
205.8571212
20
-91.7627726
40
2
50
297.5000002
51
27.5000002
0
ARC
8
0
10
209.1742902
20
-89.4722728
40
2
50
117.5000002
51
207.5000002
0
ARC
8
0
10
267.2957893
20
-97.6797218
40
2
50
288.5000003
51
288.5000016
0
ARC
8
0
10
299.9627353
20
-90.9674837
40
2
50
108.5000003
51
108.5000016
0
ARC
8
0
10
308.6778425
20
-107.5595573
40
2
50
18.5000003
51
18.5000016
0
ARC
8
0
10
298.1001961
20
-121.6437115
40
2
50
198.5000003
51
198.5000016
0
ARC
8
0
10
296.6866864
20
-130.0253574
40
2
50
18.5000003
51
18.5000016
0
ARC
8
0
10
280.0946128
20
-138.7404646
40
2
50
288.5000003
51
288.5000016
0
ARC
8
0
10
253.5873703
20
-135.5686541
40
2
50
204.4999971
51
294.4999971
0
ARC
8
0
10
249.6625207
20
-136.6020417
40
2
50
24.4999971
51
117.5000002
0
ARC
8
0
10
243.319157
20
-139.9041879
40
2
50
117.5000002
51
207.5000002
0
ARC
8
0
10
240.001988
20
-142.1946879
40
2
50
297.5000002
51
27.5000002
0
ARC
8
0
10
231.0043618
20
-155.0650027
40
2
50
212.5
51
212.500001
0
ARC
8
0
10
234.0617566
20
-167.3087872
40
2
50
32.5
51
32.500001
0
ARC
8
0
10
205.5662401
20
-196.2997438
40
2
50
157.5
51
157.500001
0
ARC
8
0
10
195.2881988
20
-210.6606267
40
2
50
337.5
51
337.500001
0
ARC
8
0
10
150.4243116
20
-210.6606267
40
2
50
202.499999
51
202.5
0
ARC
8
0
10
140.1462703
20
-196.2997438
40
2
50
22.499999
51
22.5
0
ARC
8
0
10
111.6507538
20
-167.3087872
40
2
50
147.499999
51
147.5
0
ARC
8
0
10
114.7081486
20
-155.0650027
40
2
50
327.499999
51
327.5
0
ARC
8
0
10
105.7105224
20
-142.1946879
40
2
50
152.4999998
51
242.4999998
0
ARC
8
0
10
102.3933534
20
-139.9041879
40
2
50
332.4999998
51
62.4999998
0
ARC
8
0
10
96.0499897
20
-136.6020417
40
2
50
62.4999998
51
155.5000029
0
ARC
8
0
10
92.1251401
20
-135.5686541
40
2
50
245.5000029
51
335.5000029
0
ARC
8
0
10
65.6178976
20
-138.7404646
40
2
50
251.4999984
51
251.4999997
0
ARC
8
0
10
49.025824
20
-130.0253574
40
2
50
161.4999984
51
161.4999997
0
ARC
8
0
10
47.6123143
20
-121.6437115
40
2
50
341.4999984
51
341.4999997
0
ARC
8
0
10
37.0346679
20
-107.5595573
40
2
50
161.4999984
51
161.4999997
0
ARC
8
0
10
45.7497751
20
-90.9674837
40
2
50
71.4999984
51
71.4999997
0
ARC
8
0
10
78.4167211
20
-97.6797218
40
2
50
251.4999984
51
251.4999997
0
ARC
8
0
10
120.1285198
20
-80.9299235
40
2
50
62.4999998
51
62.5000007
0
ARC
8
0
10
136.5382202
20
-89.4722728
40
2
50
332.4999998
51
62.4999998
0
ARC
8
0
10
139.8553892
20
-91.7627726
40
2
50
152.4999998
51
242.4999998
0
ARC
8
0
10
164.9710093
20
-114.9835743
40
2
50
332.4999998
51
332.5000007
0
ARC
8
0
10
161.8530736
20
-129.6357957
40
2
50
152.4999998
51
270
0
ENDSEC
0
EOF