<svg width="276.045mm" height="144.417mm" viewBox="0 0 276.045 144.417" xmlns="http://www.w3.org/2000/svg"><g id="svgGroup" stroke-linecap="round" fill-rule="evenodd" font-size="9pt" stroke="#000" stroke-width="0.25mm" fill="none" style="stroke:#000;stroke-width:0.25mm;fill:none"><path d="M 126.996 56.244 L 149.049 56.244 A 2 2 0 0 0 150.862 53.399 L 143.978 38.637 A 5 5 0 0 1 146.396 31.992 L 158.631 26.287 L 157.786 24.474 L 172.74 17.501 A 2 2 0 0 0 173.708 14.843 L 173.496 14.39 A 2 2 0 0 1 174.464 11.732 L 195.762 1.801 L 195.911 2.121 A 5 5 0 0 0 202.316 4.643 L 212.907 0.364 A 5 5 0 0 1 219.416 3.127 L 227.554 23.269 A 5 5 0 0 0 233.568 26.202 L 265.394 17.076 A 5 5 0 0 1 271.579 20.504 L 275.851 35.404 A 5 5 0 0 1 272.423 41.588 L 264.252 43.931 A 5 5 0 0 0 260.824 50.116 L 262.892 57.325 A 5 5 0 0 1 259.463 63.51 L 244.564 67.782 A 5 5 0 0 1 238.379 64.354 L 237.59 61.6 A 5 5 0 0 0 230.91 58.342 L 218.418 63.389 A 2 2 0 0 1 215.815 62.284 L 215.557 61.647 A 2 2 0 0 0 212.858 60.583 L 206.376 63.605 A 2 2 0 0 0 205.409 66.263 L 205.62 66.716 A 2 2 0 0 1 204.653 69.374 L 189.699 76.348 L 190.544 78.16 L 188.341 79.187 L 198.28 91.033 A 5 5 0 0 1 197.664 98.077 L 185.211 108.526 A 5 5 0 0 0 184.595 109.142 L 172.306 123.788 A 5 5 0 0 0 171.604 124.889 L 163.844 141.53 A 5 5 0 0 1 157.199 143.949 L 143.152 137.398 A 5 5 0 0 1 141.691 136.364 A 2 2 0 0 0 140.262 135.763 L 135.783 135.763 A 2 2 0 0 0 134.354 136.364 A 5 5 0 0 1 132.893 137.398 L 118.845 143.949 A 5 5 0 0 1 112.201 141.53 L 104.441 124.889 A 5 5 0 0 0 103.739 123.788 L 91.45 109.142 A 5 5 0 0 0 90.834 108.526 L 78.381 98.077 A 5 5 0 0 1 77.765 91.033 L 87.704 79.187 L 85.501 78.16 L 86.346 76.348 L 71.392 69.374 A 2 2 0 0 1 70.425 66.716 L 70.636 66.263 A 2 2 0 0 0 69.669 63.605 L 63.187 60.583 A 2 2 0 0 0 60.488 61.647 L 60.23 62.284 A 2 2 0 0 1 57.627 63.389 L 45.135 58.342 A 5 5 0 0 0 38.455 61.6 L 37.666 64.354 A 5 5 0 0 1 31.481 67.782 L 16.582 63.51 A 5 5 0 0 1 13.153 57.325 L 15.221 50.116 A 5 5 0 0 0 11.793 43.931 L 3.622 41.588 A 5 5 0 0 1 0.194 35.404 L 4.466 20.504 A 5 5 0 0 1 10.651 17.076 L 42.477 26.202 A 5 5 0 0 0 48.491 23.269 L 56.629 3.127 A 5 5 0 0 1 63.138 0.364 L 78.129 6.421 L 78.17 6.332 A 5 5 0 0 1 84.815 3.914 L 101.581 11.732 A 2 2 0 0 1 102.549 14.39 L 102.337 14.843 A 2 2 0 0 0 103.305 17.501 L 118.259 24.474 L 117.414 26.287 L 129.649 31.992 A 5 5 0 0 1 132.067 38.637 L 125.183 53.399 A 2 2 0 0 0 126.996 56.244 Z" vector-effect="non-scaling-stroke"/></g></svg>