<svg width="276.262mm" height="144.786mm" viewBox="0 0 276.262 144.786" xmlns="http://www.w3.org/2000/svg"><g id="svgGroup" stroke-linecap="round" fill-rule="evenodd" font-size="9pt" stroke="#000" stroke-width="0.25mm" fill="none" style="stroke:#000;stroke-width:0.25mm;fill:none"><path d="M 0 39.051 L 6.271 17.182 L 29.389 23.811 L 58.767 0 L 80.468 3.316 L 102.264 13.48 L 133.051 35.008 L 123.165 56.207 L 153.097 56.207 L 143.211 35.008 L 173.998 13.48 L 195.794 3.316 L 217.495 0 L 246.873 23.811 L 269.991 17.182 L 276.262 39.051 L 258.479 44.15 L 263.302 60.972 L 240.184 67.601 L 216.83 62.554 L 205.336 67.552 L 200.164 94.238 L 178.182 114.737 L 160.9 144.786 L 141.468 135.725 L 134.794 135.725 L 115.362 144.786 L 98.08 114.737 L 76.099 94.238 L 70.926 67.552 L 59.433 62.554 L 36.078 67.601 L 12.96 60.972 L 17.783 44.15 L 0 39.051 Z" vector-effect="non-scaling-stroke"/></g></svg>