<svg width="277.704mm" height="147.316mm" viewBox="0 0 277.704 147.316" xmlns="http://www.w3.org/2000/svg"><g id="svgGroup" stroke-linecap="round" fill-rule="evenodd" font-size="9pt" stroke="#000" stroke-width="0.25mm" fill="none" style="stroke:#000;stroke-width:0.25mm;fill:none"><path d="M 0 68.329 L 15.436 14.498 L 38.506 21.114 L 47.822 0 L 70.824 3.976 L 92.575 14.119 L 102.242 20.649 L 106.232 0.213 L 171.473 0.213 L 175.463 20.649 L 185.129 14.119 L 206.881 3.976 L 229.882 0 L 239.198 21.114 L 262.269 14.498 L 277.704 68.329 L 254.634 74.944 L 233.506 61.074 L 211.754 71.217 L 210.036 93.223 L 184.812 147.316 L 157.766 140.069 L 179.45 93.039 L 174.127 81.623 L 103.578 81.623 L 98.254 93.039 L 119.938 140.069 L 92.892 147.316 L 67.669 93.223 L 65.95 71.217 L 44.199 61.074 L 23.07 74.944 L 0 68.329 Z" vector-effect="non-scaling-stroke"/></g></svg>