0
SECTION
2
HEADER
9
$INSUNITS
70
4
0
ENDSEC
0
SECTION
2
TABLES
0
TABLE
2
LTYPE
0
LTYPE
72
65
70
64
2
CONTINUOUS
3
______
73
0
40
0
0
ENDTAB
0
TABLE
2
LAYER
0
ENDTAB
0
ENDSEC
0
SECTION
2
ENTITIES
0
LINE
8
0
10
54.1331014
20
-130.4755047
11
69.5687934
21
-76.6448497
0
LINE
8
0
10
69.5687934
20
-76.6448497
11
92.6390741
21
-83.2601463
0
LINE
8
0
10
92.6390741
20
-83.2601463
11
101.95506
21
-62.1464163
0
LINE
8
0
10
101.95506
20
-62.1464163
11
124.9567779
21
-66.1228484
0
LINE
8
0
10
124.9567779
20
-66.1228484
11
146.7081648
21
-76.2656867
0
LINE
8
0
10
146.7081648
20
-76.2656867
11
156.37477
21
-82.7955907
0
LINE
8
0
10
157.7106968
20
-143.769442
11
152.3875274
21
-155.1850156
0
LINE
8
0
10
152.3875274
20
-155.1850156
11
174.0715018
21
-202.2153854
0
LINE
8
0
10
174.0715018
20
-202.2153854
11
147.0255787
21
-209.4623187
0
LINE
8
0
10
147.0255787
20
-209.4623187
11
121.8016376
21
-155.3694024
0
LINE
8
0
10
121.8016376
20
-155.3694024
11
120.0832143
21
-133.3630773
0
LINE
8
0
10
120.0832143
20
-133.3630773
11
98.3318274
21
-123.220239
0
LINE
8
0
10
98.3318274
20
-123.220239
11
77.2033821
21
-137.0908013
0
LINE
8
0
10
77.2033821
20
-137.0908013
11
54.1331014
21
-130.4755047
0
LINE
8
0
10
331.8373938
20
-130.4755047
11
316.4017018
21
-76.6448497
0
LINE
8
0
10
316.4017018
20
-76.6448497
11
293.3314211
21
-83.2601463
0
LINE
8
0
10
293.3314211
20
-83.2601463
11
284.0154352
21
-62.1464163
0
LINE
8
0
10
284.0154352
20
-62.1464163
11
261.0137173
21
-66.1228484
0
LINE
8
0
10
261.0137173
20
-66.1228484
11
239.2623304
21
-76.2656867
0
LINE
8
0
10
239.2623304
20
-76.2656867
11
229.5957252
21
-82.7955907
0
LINE
8
0
10
228.2597984
20
-143.769442
11
233.5829678
21
-155.1850156
0
LINE
8
0
10
233.5829678
20
-155.1850156
11
211.8989934
21
-202.2153854
0
LINE
8
0
10
211.8989934
20
-202.2153854
11
238.9449165
21
-209.4623187
0
LINE
8
0
10
238.9449165
20
-209.4623187
11
264.1688576
21
-155.3694024
0
LINE
8
0
10
264.1688576
20
-155.3694024
11
265.8872809
21
-133.3630773
0
LINE
8
0
10
265.8872809
20
-133.3630773
11
287.6386678
21
-123.220239
0
LINE
8
0
10
287.6386678
20
-123.220239
11
308.7671131
21
-137.0908013
0
LINE
8
0
10
308.7671131
20
-137.0908013
11
331.8373938
21
-130.4755047
0
LINE
8
0
10
156.37477
20
-82.7955907
11
160.364776
21
-62.3592998
0
LINE
8
0
10
160.364776
20
-62.3592998
11
225.6057192
21
-62.3592998
0
LINE
8
0
10
225.6057192
20
-62.3592998
11
229.5957252
21
-82.7955907
0
LINE
8
0
10
228.2597984
20
-143.769442
11
157.7106968
21
-143.769442
0
ENDSEC
0
EOF