0
SECTION
2
HEADER
9
$INSUNITS
70
4
0
ENDSEC
0
SECTION
2
TABLES
0
TABLE
2
LTYPE
0
LTYPE
72
65
70
64
2
CONTINUOUS
3
______
73
0
40
0
0
ENDTAB
0
TABLE
2
LAYER
0
ENDTAB
0
ENDSEC
0
SECTION
2
ENTITIES
0
LINE
8
0
10
158.621526
20
-135.7586912
11
180.4124092
21
-135.7586912
0
LINE
8
0
10
175.2029405
20
-203.2204086
11
163.8309947
21
-203.2204086
0
LINE
8
0
10
35.3153733
20
-114.2166775
11
43.3027604
21
-117.1238487
0
LINE
8
0
10
44.0368866
20
-90.2545156
11
77.7859271
21
-102.5381617
0
LINE
8
0
10
37.628323
20
-93.2428782
11
32.3270108
21
-107.8081139
0
LINE
8
0
10
46.7143343
20
-136.988671
11
61.27957
21
-142.2899832
0
LINE
8
0
10
67.6881337
20
-139.3016207
11
68.3261536
21
-137.5486752
0
LINE
8
0
10
46.2911229
20
-123.5324124
11
43.7259718
21
-130.5801074
0
LINE
8
0
10
75.2164724
20
-134.7648055
11
87.326035
21
-140.6710338
0
LINE
8
0
10
90.0003654
20
-139.750188
11
90.3016429
21
-139.1324776
0
LINE
8
0
10
80.2675555
20
-101.5355188
11
90.5339735
21
-80.4862423
0
LINE
8
0
10
111.7518623
20
-85.2718883
11
97.2197994
21
-78.1841277
0
LINE
8
0
10
93.0688502
20
-138.2599804
11
99.3236002
21
-141.7270449
0
LINE
8
0
10
135.3141353
20
-95.3623886
11
135.5565402
21
-94.9250786
0
LINE
8
0
10
134.77692
20
-92.20622
11
118.5964553
21
-83.237242
0
LINE
8
0
10
111.7993088
20
-85.1862925
11
111.7518623
21
-85.2718883
0
LINE
8
0
10
100.6404356
20
-147.6020722
11
106.3254638
21
-150.7533348
0
LINE
8
0
10
100.1032204
20
-144.4459035
11
99.8608154
21
-144.8832136
0
LINE
8
0
10
149.5553615
20
-107.8298453
11
150.5249807
21
-106.0806059
0
LINE
8
0
10
150.5249807
20
-106.0806059
11
136.0937555
21
-98.0812472
0
LINE
8
0
10
156.8722866
20
-132.789072
11
163.3117782
21
-121.1719218
0
LINE
8
0
10
161.3627277
20
-114.3747752
11
149.5553615
21
-107.8298453
0
LINE
8
0
10
295.7311748
20
-117.1238487
11
303.7185619
21
-114.2166775
0
LINE
8
0
10
306.7069244
20
-107.8081139
11
301.4056122
21
-93.2428782
0
LINE
8
0
10
261.2480081
20
-102.5381617
11
294.9970486
21
-90.2545156
0
LINE
8
0
10
277.7543652
20
-142.2899832
11
292.3196009
21
-136.988671
0
LINE
8
0
10
295.3079634
20
-130.5801074
11
292.7428123
21
-123.5324124
0
LINE
8
0
10
270.7077816
20
-137.5486752
11
271.3458015
21
-139.3016207
0
LINE
8
0
10
251.7079002
20
-140.6710338
11
263.8174628
21
-134.7648055
0
LINE
8
0
10
248.7322923
20
-139.1324776
11
249.0335698
21
-139.750188
0
LINE
8
0
10
248.4999617
20
-80.4862423
11
258.7663797
21
-101.5355188
0
LINE
8
0
10
241.8141358
20
-78.1841277
11
231.5466913
21
-83.1918949
0
LINE
8
0
10
239.710335
20
-141.7270449
11
245.965085
21
-138.2599804
0
LINE
8
0
10
224.9817372
20
-81.1219727
11
224.8105783
21
-80.8131939
0
LINE
8
0
10
224.8105783
20
-80.8131939
11
204.2570152
21
-92.20622
0
LINE
8
0
10
203.477395
20
-94.9250786
11
203.7197999
21
-95.3623886
0
LINE
8
0
10
232.7084714
20
-150.7533348
11
238.3934996
21
-147.6020722
0
LINE
8
0
10
239.1731198
20
-144.8832136
11
238.9307148
21
-144.4459035
0
LINE
8
0
10
202.9401797
20
-98.0812472
11
188.5089545
21
-106.0806059
0
LINE
8
0
10
188.5089545
20
-106.0806059
11
189.4785737
21
-107.8298453
0
LINE
8
0
10
175.722157
20
-121.1719218
11
182.1616486
21
-132.789072
0
LINE
8
0
10
189.4785737
20
-107.8298453
11
177.6712075
21
-114.3747752
0
LINE
8
0
10
103.6786348
20
-176.154994
11
118.3524961
21
-184.2888481
0
LINE
8
0
10
108.2745143
20
-157.5504814
11
101.7295844
21
-169.3578475
0
LINE
8
0
10
118.5780445
20
-184.4217063
11
133.0437742
21
-193.4608974
0
LINE
8
0
10
134.8089157
20
-195.3537799
11
142.2172973
21
-209.2869191
0
LINE
8
0
10
148.979393
20
-211.3542991
11
162.6650807
21
-204.0774899
0
LINE
8
0
10
220.6814391
20
-184.2888481
11
235.3553004
21
-176.154994
0
LINE
8
0
10
237.3043508
20
-169.3578475
11
230.7594209
21
-157.5504814
0
LINE
8
0
10
205.990161
20
-193.4608974
11
220.4558907
21
-184.4217063
0
LINE
8
0
10
196.8166379
20
-209.2869191
11
204.2250195
21
-195.3537799
0
LINE
8
0
10
176.3688545
20
-204.0774899
11
190.0545422
21
-211.3542991
0
ARC
8
0
10
302.0084613
20
-109.5182144
40
5
50
289.9999992
51
19.9999981
0
ARC
8
0
10
296.7071491
20
-94.9529788
40
5
50
19.9999992
51
109.9999981
0
ARC
8
0
10
244.0059914
20
-82.6780979
40
5
50
25.9999988
51
115.9999988
0
ARC
8
0
10
229.3548357
20
-78.6979247
40
5
50
208.9999992
51
295.9999988
0
ARC
8
0
10
180.0952556
20
-118.7478737
40
5
50
119.0000009
51
208.9999992
0
ARC
8
0
10
178.7162124
20
-199.662752
40
5
50
225.3596448
51
241.9999983
0
ARC
8
0
10
192.4019
20
-206.9395612
40
5
50
242
51
331.9999983
0
ARC
8
0
10
208.6397574
20
-197.7011378
40
5
50
122.0000016
51
151.9999983
0
ARC
8
0
10
223.1054871
20
-188.6619467
40
5
50
118.9999992
51
122.0000016
0
ARC
8
0
10
232.9312523
20
-171.7818955
40
5
50
299.0000009
51
28.9999992
0
ARC
8
0
10
235.1325195
20
-155.1264333
40
5
50
119.0000009
51
208.9999992
0
ARC
8
0
10
266.0093184
20
-139.2587758
40
5
50
19.9999981
51
115.9999988
0
ARC
8
0
10
276.0442647
20
-137.5915201
40
5
50
199.9999981
51
289.9999981
0
ARC
8
0
10
290.6095003
20
-132.2902079
40
5
50
289.9999992
51
19.9999981
0
ARC
8
0
10
297.4412754
20
-121.8223118
40
5
50
109.9999992
51
199.9999981
0
ARC
8
0
10
41.5926598
20
-121.8223118
40
5
50
340.0000019
51
70.0000008
0
ARC
8
0
10
48.4244349
20
-132.2902079
40
5
50
160.0000019
51
250.0000008
0
ARC
8
0
10
62.9896705
20
-137.5915201
40
5
50
250.0000019
51
340.0000019
0
ARC
8
0
10
73.0246168
20
-139.2587758
40
5
50
64.0000012
51
160.0000019
0
ARC
8
0
10
103.9014157
20
-155.1264333
40
5
50
331.0000008
51
60.9999991
0
ARC
8
0
10
106.1026829
20
-171.7818955
40
5
50
151.0000008
51
240.9999991
0
ARC
8
0
10
115.9284481
20
-188.6619467
40
5
50
57.9999984
51
61.0000008
0
ARC
8
0
10
130.3941778
20
-197.7011378
40
5
50
28.0000017
51
57.9999984
0
ARC
8
0
10
146.6320352
20
-206.9395612
40
5
50
208.0000017
51
298
0
ARC
8
0
10
160.3177228
20
-199.662752
40
5
50
298.0000017
51
314.6403552
0
ARC
8
0
10
158.9386796
20
-118.7478737
40
5
50
331.0000008
51
60.9999991
0
ARC
8
0
10
116.1724073
20
-87.6103405
40
5
50
61.0000008
51
151.0000008
0
ARC
8
0
10
95.0279438
20
-82.6780979
40
5
50
64.0000012
51
154.0000012
0
ARC
8
0
10
42.3267861
20
-94.9529788
40
5
50
70.0000019
51
160.0000008
0
ARC
8
0
10
37.0254739
20
-109.5182144
40
5
50
160.0000019
51
250.0000008
0
ARC
8
0
10
180.4124092
20
-133.7586912
40
2
50
270
51
28.9999992
0
ARC
8
0
10
178.6408267
20
-116.1240146
40
2
50
118.9999992
51
119.0000009
0
ARC
8
0
10
201.9705605
20
-96.3320078
40
2
50
298.9999992
51
28.9999992
0
ARC
8
0
10
205.2266344
20
-93.9554594
40
2
50
118.9999992
51
208.9999992
0
ARC
8
0
10
260.5639678
20
-100.6587765
40
2
50
205.9999988
51
289.9999981
0
ARC
8
0
10
299.526227
20
-93.9269184
40
2
50
19.9999981
51
19.9999992
0
ARC
8
0
10
303.0345217
20
-112.3372923
40
2
50
289.9999981
51
289.9999992
0
ARC
8
0
10
296.415215
20
-119.0032339
40
2
50
109.9999981
51
109.9999992
0
ARC
8
0
10
291.6355607
20
-135.1092858
40
2
50
289.9999981
51
289.9999992
0
ARC
8
0
10
250.8311579
20
-138.8734457
40
2
50
205.9999988
51
295.9999988
0
ARC
8
0
10
246.9347042
20
-140.0092198
40
2
50
25.9999988
51
118.9999992
0
ARC
8
0
10
240.6799542
20
-143.4762843
40
2
50
118.9999992
51
208.9999992
0
ARC
8
0
10
237.4238804
20
-145.8528328
40
2
50
298.9999992
51
28.9999992
0
ARC
8
0
10
233.6780906
20
-152.5025742
40
2
50
118.9999992
51
119.0000009
0
ARC
8
0
10
234.3856812
20
-174.4057546
40
2
50
298.9999992
51
299.0000009
0
ARC
8
0
10
190.9934853
20
-209.588404
40
2
50
241.9999983
51
242
0
ARC
8
0
10
148.0404499
20
-209.588404
40
2
50
298
51
298.0000017
0
ARC
8
0
10
104.648254
20
-174.4057546
40
2
50
240.9999991
51
241.0000008
0
ARC
8
0
10
105.3558446
20
-152.5025742
40
2
50
60.9999991
51
61.0000008
0
ARC
8
0
10
101.6100548
20
-145.8528328
40
2
50
151.0000008
51
241.0000008
0
ARC
8
0
10
98.353981
20
-143.4762843
40
2
50
331.0000008
51
61.0000008
0
ARC
8
0
10
92.099231
20
-140.0092198
40
2
50
61.0000008
51
154.0000012
0
ARC
8
0
10
88.2027773
20
-138.8734457
40
2
50
244.0000012
51
334.0000012
0
ARC
8
0
10
47.3983745
20
-135.1092858
40
2
50
250.0000008
51
250.0000019
0
ARC
8
0
10
42.6187202
20
-119.0032339
40
2
50
70.0000008
51
70.0000019
0
ARC
8
0
10
35.9994135
20
-112.3372923
40
2
50
250.0000008
51
250.0000019
0
ARC
8
0
10
39.5077082
20
-93.9269184
40
2
50
160.0000008
51
160.0000019
0
ARC
8
0
10
78.4699674
20
-100.6587765
40
2
50
250.0000019
51
334.0000012
0
ARC
8
0
10
133.8073008
20
-93.9554594
40
2
50
331.0000008
51
61.0000008
0
ARC
8
0
10
137.0633747
20
-96.3320078
40
2
50
151.0000008
51
241.0000008
0
ARC
8
0
10
160.3931085
20
-116.1240146
40
2
50
60.9999991
51
61.0000008
0
ARC
8
0
10
158.621526
20
-133.7586912
40
2
50
151.0000008
51
270
0
ENDSEC
0
EOF