<svg width="278.018mm" height="148.357mm" viewBox="0 0 278.018 148.357" xmlns="http://www.w3.org/2000/svg"><g id="svgGroup" stroke-linecap="round" fill-rule="evenodd" font-size="9pt" stroke="#000" stroke-width="0.25mm" fill="none" style="stroke:#000;stroke-width:0.25mm;fill:none"><path d="M 102.831 19.293 L 105.599 5.113 A 5 5 0 0 1 110.507 1.071 L 167.511 1.071 A 5 5 0 0 1 172.418 5.113 L 175.187 19.293 A 2 2 0 0 0 177.995 20.722 L 183.692 18.066 A 2 2 0 0 0 184.659 15.408 L 184.5 15.068 A 2 2 0 0 1 185.468 12.41 L 204.953 3.324 A 2 2 0 0 1 207.611 4.291 L 208.066 5.265 A 2 2 0 0 0 210.627 6.274 L 225.256 0.364 A 5 5 0 0 1 231.765 3.127 L 236.842 15.694 A 5 5 0 0 0 242.856 18.627 L 257.72 14.365 A 5 5 0 0 1 263.904 17.793 L 277.824 66.337 A 5 5 0 0 1 274.396 72.522 L 259.496 76.794 A 5 5 0 0 1 253.312 73.366 L 249.019 58.397 A 2 2 0 0 0 246.348 57.094 L 230.766 63.389 A 2 2 0 0 1 228.163 62.284 L 227.923 61.69 A 2 2 0 0 0 225.223 60.626 L 216.021 64.917 A 2 2 0 0 0 215.054 67.575 L 215.212 67.915 A 2 2 0 0 1 214.245 70.573 L 199.291 77.546 L 200.03 79.132 L 197.239 80.433 A 2 2 0 0 0 196.937 83.884 L 208.37 91.889 A 5 5 0 0 1 209.598 98.853 L 200.308 112.121 A 5 5 0 0 0 199.872 112.876 L 192.732 128.187 A 5 5 0 0 0 192.434 129.006 L 188.242 144.651 A 5 5 0 0 1 182.118 148.187 L 167.146 144.175 A 5 5 0 0 1 163.611 138.051 L 168.064 121.432 L 167.803 121.31 L 168.493 119.829 L 168.916 118.25 L 169.195 118.324 L 177.187 101.185 L 176.951 101.02 L 177.889 99.681 L 178.579 98.199 L 178.841 98.321 L 184.237 90.614 A 2 2 0 0 0 181.753 87.655 L 181.451 87.796 A 5 5 0 0 1 174.806 85.377 L 173.994 83.636 A 2 2 0 0 0 172.182 82.481 L 105.836 82.481 A 2 2 0 0 0 104.023 83.636 L 103.211 85.377 A 5 5 0 0 1 96.567 87.796 L 96.264 87.655 A 2 2 0 0 0 93.781 90.614 L 99.177 98.321 L 99.438 98.199 L 100.129 99.681 L 101.066 101.02 L 100.83 101.185 L 108.823 118.324 L 109.101 118.25 L 109.524 119.829 L 110.215 121.31 L 109.954 121.432 L 114.407 138.051 A 5 5 0 0 1 110.871 144.175 L 95.9 148.187 A 5 5 0 0 1 89.776 144.651 L 85.584 129.006 A 5 5 0 0 0 85.286 128.187 L 78.146 112.876 A 5 5 0 0 0 77.71 112.121 L 68.42 98.853 A 5 5 0 0 1 69.648 91.889 L 81.08 83.884 A 2 2 0 0 0 80.778 80.433 L 77.987 79.132 L 78.727 77.546 L 63.773 70.573 A 2 2 0 0 1 62.806 67.915 L 62.964 67.575 A 2 2 0 0 0 61.997 64.917 L 52.794 60.626 A 2 2 0 0 0 50.095 61.69 L 49.855 62.284 A 2 2 0 0 1 47.251 63.389 L 31.67 57.094 A 2 2 0 0 0 28.998 58.397 L 24.706 73.366 A 5 5 0 0 1 18.521 76.794 L 3.622 72.522 A 5 5 0 0 1 0.194 66.337 L 14.113 17.793 A 5 5 0 0 1 20.298 14.365 L 35.162 18.627 A 5 5 0 0 0 41.176 15.694 L 46.253 3.127 A 5 5 0 0 1 52.762 0.364 L 67.39 6.274 A 2 2 0 0 0 69.952 5.265 L 70.406 4.291 A 2 2 0 0 1 73.064 3.324 L 92.55 12.41 A 2 2 0 0 1 93.517 15.068 L 93.359 15.408 A 2 2 0 0 0 94.326 18.066 L 100.023 20.722 A 2 2 0 0 0 102.831 19.293 Z" vector-effect="non-scaling-stroke"/></g></svg>