0
SECTION
2
HEADER
9
$INSUNITS
70
4
0
ENDSEC
0
SECTION
2
TABLES
0
TABLE
2
LTYPE
0
LTYPE
72
65
70
64
2
CONTINUOUS
3
______
73
0
40
0
0
ENDTAB
0
TABLE
2
LAYER
0
ENDTAB
0
ENDSEC
0
SECTION
2
ENTITIES
0
LINE
8
0
10
31.7684649
20
-111.462464
11
39.5494232
21
-90.0844569
0
LINE
8
0
10
39.5494232
20
-90.0844569
11
79.0987363
21
-104.4792297
0
LINE
8
0
10
79.0987363
20
-104.4792297
11
92.7746947
21
-77.5459329
0
LINE
8
0
10
92.7746947
20
-77.5459329
11
114.190843
21
-82.3672829
0
LINE
8
0
10
114.190843
20
-82.3672829
11
135.2254469
21
-94.0269543
0
LINE
8
0
10
135.2254469
20
-94.0269543
11
164.4351137
21
-117.6499384
0
LINE
8
0
10
164.4351137
20
-117.6499384
11
154.3972681
21
-135.7586912
0
LINE
8
0
10
162.7327269
20
-203.2204086
11
145.4383411
21
-212.4159966
0
LINE
8
0
10
145.4383411
20
-212.4159966
11
126.96237
21
-188.039444
0
LINE
8
0
10
126.96237
20
-188.039444
11
100.6062488
21
-172.8798308
0
LINE
8
0
10
100.6062488
20
-172.8798308
11
110.7092107
21
-151.6111736
0
LINE
8
0
10
110.7092107
20
-151.6111736
11
78.2667593
21
-134.7227022
0
LINE
8
0
10
78.2667593
20
-134.7227022
11
65.7670334
21
-142.460042
0
LINE
8
0
10
65.7670334
20
-142.460042
11
43.1674259
21
-134.2344575
0
LINE
8
0
10
43.1674259
20
-134.2344575
11
49.1527784
21
-117.7898367
0
LINE
8
0
10
49.1527784
20
-117.7898367
11
31.7684649
21
-111.462464
0
LINE
8
0
10
307.2654703
20
-111.462464
11
299.484512
21
-90.0844569
0
LINE
8
0
10
299.484512
20
-90.0844569
11
259.9351989
21
-104.4792297
0
LINE
8
0
10
259.9351989
20
-104.4792297
11
246.2592405
21
-77.5459329
0
LINE
8
0
10
246.2592405
20
-77.5459329
11
224.8430922
21
-82.3672829
0
LINE
8
0
10
224.8430922
20
-82.3672829
11
203.8084883
21
-94.0269543
0
LINE
8
0
10
203.8084883
20
-94.0269543
11
174.5988215
21
-117.6499384
0
LINE
8
0
10
174.5988215
20
-117.6499384
11
184.6366671
21
-135.7586912
0
LINE
8
0
10
176.3012083
20
-203.2204086
11
193.5955941
21
-212.4159966
0
LINE
8
0
10
193.5955941
20
-212.4159966
11
212.0715652
21
-188.039444
0
LINE
8
0
10
212.0715652
20
-188.039444
11
238.4276864
21
-172.8798308
0
LINE
8
0
10
238.4276864
20
-172.8798308
11
228.3247245
21
-151.6111736
0
LINE
8
0
10
228.3247245
20
-151.6111736
11
260.7671759
21
-134.7227022
0
LINE
8
0
10
260.7671759
20
-134.7227022
11
273.2669018
21
-142.460042
0
LINE
8
0
10
273.2669018
20
-142.460042
11
295.8665093
21
-134.2344575
0
LINE
8
0
10
295.8665093
20
-134.2344575
11
289.8811568
21
-117.7898367
0
LINE
8
0
10
289.8811568
20
-117.7898367
11
307.2654703
21
-111.462464
0
LINE
8
0
10
154.3972681
20
-135.7586912
11
184.6366671
21
-135.7586912
0
LINE
8
0
10
176.3012083
20
-203.2204086
11
162.7327269
21
-203.2204086
0
ENDSEC
0
EOF