0
SECTION
2
HEADER
9
$INSUNITS
70
4
0
ENDSEC
0
SECTION
2
TABLES
0
TABLE
2
LTYPE
0
LTYPE
72
65
70
64
2
CONTINUOUS
3
______
73
0
40
0
0
ENDTAB
0
TABLE
2
LAYER
0
ENDTAB
0
ENDSEC
0
SECTION
2
ENTITIES
0
LINE
8
0
10
34.6753259
20
-110.5926672
11
41.8940068
21
-89.018304
0
LINE
8
0
10
41.8940068
20
-89.018304
11
64.7011907
21
-96.649481
0
LINE
8
0
10
64.7011907
20
-96.649481
11
95.0901237
21
-74.1424778
0
LINE
8
0
10
95.0901237
20
-74.1424778
11
116.6251414
21
-78.4015663
0
LINE
8
0
10
116.6251414
20
-78.4015663
11
137.9577519
21
-89.5066204
0
LINE
8
0
10
137.9577519
20
-89.5066204
11
167.7757869
21
-112.3568895
0
LINE
8
0
10
167.7757869
20
-112.3568895
11
157.7398236
21
-131.6357957
0
LINE
8
0
10
172.8562552
20
-205.9962382
11
151.4828586
21
-214.8493889
0
LINE
8
0
10
151.4828586
20
-214.8493889
11
133.7575336
21
-186.6367855
0
LINE
8
0
10
133.7575336
20
-186.6367855
11
108.6277186
21
-169.6810242
0
LINE
8
0
10
108.6277186
20
-169.6810242
11
104.2909907
21
-142.1603402
0
LINE
8
0
10
104.2909907
20
-142.1603402
11
93.0261574
21
-136.6661138
0
LINE
8
0
10
93.0261574
20
-136.6661138
11
69.4736659
21
-140.6896443
0
LINE
8
0
10
69.4736659
20
-140.6896443
11
46.666482
21
-133.0584673
0
LINE
8
0
10
46.666482
20
-133.0584673
11
52.2193135
21
-116.4628033
0
LINE
8
0
10
52.2193135
20
-116.4628033
11
34.6753259
21
-110.5926672
0
LINE
8
0
10
311.0371845
20
-110.5926672
11
303.8185036
21
-89.018304
0
LINE
8
0
10
303.8185036
20
-89.018304
11
281.0113197
21
-96.649481
0
LINE
8
0
10
281.0113197
20
-96.649481
11
250.6223867
21
-74.1424778
0
LINE
8
0
10
250.6223867
20
-74.1424778
11
229.087369
21
-78.4015663
0
LINE
8
0
10
229.087369
20
-78.4015663
11
207.7547585
21
-89.5066204
0
LINE
8
0
10
207.7547585
20
-89.5066204
11
177.9367235
21
-112.3568895
0
LINE
8
0
10
177.9367235
20
-112.3568895
11
187.9726868
21
-131.6357957
0
LINE
8
0
10
172.8562552
20
-205.9962382
11
194.2296518
21
-214.8493889
0
LINE
8
0
10
194.2296518
20
-214.8493889
11
211.9549768
21
-186.6367855
0
LINE
8
0
10
211.9549768
20
-186.6367855
11
237.0847918
21
-169.6810242
0
LINE
8
0
10
237.0847918
20
-169.6810242
11
241.4215197
21
-142.1603402
0
LINE
8
0
10
241.4215197
20
-142.1603402
11
252.686353
21
-136.6661138
0
LINE
8
0
10
252.686353
20
-136.6661138
11
276.2388445
21
-140.6896443
0
LINE
8
0
10
276.2388445
20
-140.6896443
11
299.0460284
21
-133.0584673
0
LINE
8
0
10
299.0460284
20
-133.0584673
11
293.4931969
21
-116.4628033
0
LINE
8
0
10
293.4931969
20
-116.4628033
11
311.0371845
21
-110.5926672
0
LINE
8
0
10
157.7398236
20
-131.6357957
11
187.9726868
21
-131.6357957
0
ENDSEC
0
EOF