0
SECTION
2
HEADER
9
$INSUNITS
70
4
0
ENDSEC
0
SECTION
2
TABLES
0
TABLE
2
LTYPE
0
LTYPE
72
65
70
64
2
CONTINUOUS
3
______
73
0
40
0
0
ENDTAB
0
TABLE
2
LAYER
0
ENDTAB
0
ENDSEC
0
SECTION
2
ENTITIES
0
LINE
8
0
10
35.594343
20
-109.7954587
11
52.5088102
21
-115.9518213
0
LINE
8
0
10
52.5088102
20
-115.9518213
11
58.3231526
21
-99.9770467
0
LINE
8
0
10
58.3231526
20
-99.9770467
11
41.4086854
21
-93.8206841
0
LINE
8
0
10
41.4086854
20
-93.8206841
11
35.594343
21
-109.7954587
0
LINE
8
0
10
46.993304
20
-132.5674522
11
63.9077712
21
-138.7238148
0
LINE
8
0
10
63.9077712
20
-138.7238148
11
69.7221136
21
-122.7490402
0
LINE
8
0
10
69.7221136
20
-122.7490402
11
52.8076464
21
-116.5926776
0
LINE
8
0
10
52.8076464
20
-116.5926776
11
46.993304
21
-132.5674522
0
LINE
8
0
10
52.9786565
20
-116.1228313
11
69.8931237
21
-122.2791939
0
LINE
8
0
10
69.8931237
20
-122.2791939
11
75.7074661
21
-106.3044193
0
LINE
8
0
10
75.7074661
20
-106.3044193
11
58.7929989
21
-100.1480567
0
LINE
8
0
10
58.7929989
20
-100.1480567
11
52.9786565
21
-116.1228313
0
LINE
8
0
10
71.4379299
20
-128.193329
11
87.6162228
21
-136.0840096
0
LINE
8
0
10
87.6162228
20
-136.0840096
11
95.0685323
21
-120.8045108
0
LINE
8
0
10
95.0685323
20
-120.8045108
11
78.8902394
21
-112.9138302
0
LINE
8
0
10
78.8902394
20
-112.9138302
11
71.4379299
21
-128.193329
0
LINE
8
0
10
79.109425
20
-112.4644332
11
95.2877179
21
-120.3551138
0
LINE
8
0
10
95.2877179
20
-120.3551138
11
102.7400274
21
-105.075615
0
LINE
8
0
10
102.7400274
20
-105.075615
11
86.5617345
21
-97.1849344
0
LINE
8
0
10
86.5617345
20
-97.1849344
11
79.109425
21
-112.4644332
0
LINE
8
0
10
86.7809201
20
-96.7355373
11
102.959213
21
-104.6262179
0
LINE
8
0
10
102.959213
20
-104.6262179
11
110.4115225
21
-89.3467191
0
LINE
8
0
10
110.4115225
20
-89.3467191
11
94.2332296
21
-81.4560385
0
LINE
8
0
10
94.2332296
20
-81.4560385
11
86.7809201
21
-96.7355373
0
LINE
8
0
10
90.2326398
20
-131.8285885
11
105.9757945
21
-140.5551617
0
LINE
8
0
10
105.9757945
20
-140.5551617
11
114.217558
21
-125.6866267
0
LINE
8
0
10
114.217558
20
-125.6866267
11
98.4744033
21
-116.9600535
0
LINE
8
0
10
98.4744033
20
-116.9600535
11
90.2326398
21
-131.8285885
0
LINE
8
0
10
98.7168081
20
-116.5227436
11
114.4599628
21
-125.2493168
0
LINE
8
0
10
114.4599628
20
-125.2493168
11
122.7017263
21
-110.3807818
0
LINE
8
0
10
122.7017263
20
-110.3807818
11
106.9585716
21
-101.6542086
0
LINE
8
0
10
106.9585716
20
-101.6542086
11
98.7168081
21
-116.5227436
0
LINE
8
0
10
107.2009764
20
-101.2168987
11
122.9441311
21
-109.9434719
0
LINE
8
0
10
122.9441311
20
-109.9434719
11
131.1858946
21
-95.0749369
0
LINE
8
0
10
131.1858946
20
-95.0749369
11
115.4427399
21
-86.3483637
0
LINE
8
0
10
115.4427399
20
-86.3483637
11
107.2009764
21
-101.2168987
0
LINE
8
0
10
104.231461
20
-144.7333553
11
119.9746157
21
-153.4599285
0
LINE
8
0
10
119.9746157
20
-153.4599285
11
128.2163792
21
-138.5913935
0
LINE
8
0
10
128.2163792
20
-138.5913935
11
112.4732245
21
-129.8648203
0
LINE
8
0
10
112.4732245
20
-129.8648203
11
104.231461
21
-144.7333553
0
LINE
8
0
10
112.7156294
20
-129.4275103
11
128.4587841
21
-138.1540835
0
LINE
8
0
10
128.4587841
20
-138.1540835
11
136.7005476
21
-123.2855485
0
LINE
8
0
10
136.7005476
20
-123.2855485
11
120.9573929
21
-114.5589753
0
LINE
8
0
10
120.9573929
20
-114.5589753
11
112.7156294
21
-129.4275103
0
LINE
8
0
10
121.1997977
20
-114.1216654
11
136.9429524
21
-122.8482386
0
LINE
8
0
10
136.9429524
20
-122.8482386
11
145.1847159
21
-107.9797036
0
LINE
8
0
10
145.1847159
20
-107.9797036
11
129.4415612
21
-99.2531304
0
LINE
8
0
10
129.4415612
20
-99.2531304
11
121.1997977
21
-114.1216654
0
LINE
8
0
10
119.4423065
20
-155.4515726
11
135.1854612
21
-164.1781458
0
LINE
8
0
10
135.1854612
20
-164.1781458
11
143.4272247
21
-149.3096108
0
LINE
8
0
10
143.4272247
20
-149.3096108
11
127.68407
21
-140.5830376
0
LINE
8
0
10
127.68407
20
-140.5830376
11
119.4423065
21
-155.4515726
0
LINE
8
0
10
127.9264749
20
-140.1457277
11
143.6696296
21
-148.8723009
0
LINE
8
0
10
143.6696296
20
-148.8723009
11
151.9113931
21
-134.0037659
0
LINE
8
0
10
151.9113931
20
-134.0037659
11
136.1682384
21
-125.2771927
0
LINE
8
0
10
136.1682384
20
-125.2771927
11
127.9264749
21
-140.1457277
0
LINE
8
0
10
136.4106432
20
-124.8398828
11
152.1537979
21
-133.566456
0
LINE
8
0
10
152.1537979
20
-133.566456
11
160.3955614
21
-118.697921
0
LINE
8
0
10
160.3955614
20
-118.697921
11
144.6524067
21
-109.9713478
0
LINE
8
0
10
144.6524067
20
-109.9713478
11
136.4106432
21
-124.8398828
0
LINE
8
0
10
286.525125
20
-115.9518213
11
303.4395922
21
-109.7954587
0
LINE
8
0
10
303.4395922
20
-109.7954587
11
297.6252498
21
-93.8206841
0
LINE
8
0
10
297.6252498
20
-93.8206841
11
280.7107826
21
-99.9770467
0
LINE
8
0
10
280.7107826
20
-99.9770467
11
286.525125
21
-115.9518213
0
LINE
8
0
10
275.126164
20
-138.7238148
11
292.0406312
21
-132.5674522
0
LINE
8
0
10
292.0406312
20
-132.5674522
11
286.2262888
21
-116.5926776
0
LINE
8
0
10
286.2262888
20
-116.5926776
11
269.3118216
21
-122.7490402
0
LINE
8
0
10
269.3118216
20
-122.7490402
11
275.126164
21
-138.7238148
0
LINE
8
0
10
269.1408115
20
-122.2791939
11
286.0552787
21
-116.1228313
0
LINE
8
0
10
286.0552787
20
-116.1228313
11
280.2409363
21
-100.1480567
0
LINE
8
0
10
280.2409363
20
-100.1480567
11
263.3264691
21
-106.3044193
0
LINE
8
0
10
263.3264691
20
-106.3044193
11
269.1408115
21
-122.2791939
0
LINE
8
0
10
251.4177124
20
-136.0840096
11
267.5960053
21
-128.193329
0
LINE
8
0
10
267.5960053
20
-128.193329
11
260.1436958
21
-112.9138302
0
LINE
8
0
10
260.1436958
20
-112.9138302
11
243.9654029
21
-120.8045108
0
LINE
8
0
10
243.9654029
20
-120.8045108
11
251.4177124
21
-136.0840096
0
LINE
8
0
10
243.7462173
20
-120.3551138
11
259.9245102
21
-112.4644332
0
LINE
8
0
10
259.9245102
20
-112.4644332
11
252.4722007
21
-97.1849344
0
LINE
8
0
10
252.4722007
20
-97.1849344
11
236.2939078
21
-105.075615
0
LINE
8
0
10
236.2939078
20
-105.075615
11
243.7462173
21
-120.3551138
0
LINE
8
0
10
236.0747222
20
-104.6262179
11
252.2530151
21
-96.7355373
0
LINE
8
0
10
252.2530151
20
-96.7355373
11
244.8007056
21
-81.4560385
0
LINE
8
0
10
244.8007056
20
-81.4560385
11
228.6224127
21
-89.3467191
0
LINE
8
0
10
228.6224127
20
-89.3467191
11
236.0747222
21
-104.6262179
0
LINE
8
0
10
233.0581407
20
-140.5551617
11
248.8012954
21
-131.8285885
0
LINE
8
0
10
248.8012954
20
-131.8285885
11
240.5595319
21
-116.9600535
0
LINE
8
0
10
240.5595319
20
-116.9600535
11
224.8163772
21
-125.6866267
0
LINE
8
0
10
224.8163772
20
-125.6866267
11
233.0581407
21
-140.5551617
0
LINE
8
0
10
224.5739724
20
-125.2493168
11
240.3171271
21
-116.5227436
0
LINE
8
0
10
240.3171271
20
-116.5227436
11
232.0753636
21
-101.6542086
0
LINE
8
0
10
232.0753636
20
-101.6542086
11
216.3322089
21
-110.3807818
0
LINE
8
0
10
216.3322089
20
-110.3807818
11
224.5739724
21
-125.2493168
0
LINE
8
0
10
216.0898041
20
-109.9434719
11
231.8329588
21
-101.2168987
0
LINE
8
0
10
231.8329588
20
-101.2168987
11
223.5911953
21
-86.3483637
0
LINE
8
0
10
223.5911953
20
-86.3483637
11
207.8480406
21
-95.0749369
0
LINE
8
0
10
207.8480406
20
-95.0749369
11
216.0898041
21
-109.9434719
0
LINE
8
0
10
219.0593195
20
-153.4599285
11
234.8024742
21
-144.7333553
0
LINE
8
0
10
234.8024742
20
-144.7333553
11
226.5607107
21
-129.8648203
0
LINE
8
0
10
226.5607107
20
-129.8648203
11
210.817556
21
-138.5913935
0
LINE
8
0
10
210.817556
20
-138.5913935
11
219.0593195
21
-153.4599285
0
LINE
8
0
10
210.5751511
20
-138.1540835
11
226.3183058
21
-129.4275103
0
LINE
8
0
10
226.3183058
20
-129.4275103
11
218.0765423
21
-114.5589753
0
LINE
8
0
10
218.0765423
20
-114.5589753
11
202.3333876
21
-123.2855485
0
LINE
8
0
10
202.3333876
20
-123.2855485
11
210.5751511
21
-138.1540835
0
LINE
8
0
10
202.0909828
20
-122.8482386
11
217.8341375
21
-114.1216654
0
LINE
8
0
10
217.8341375
20
-114.1216654
11
209.592374
21
-99.2531304
0
LINE
8
0
10
209.592374
20
-99.2531304
11
193.8492193
21
-107.9797036
0
LINE
8
0
10
193.8492193
20
-107.9797036
11
202.0909828
21
-122.8482386
0
LINE
8
0
10
203.848474
20
-164.1781458
11
219.5916287
21
-155.4515726
0
LINE
8
0
10
219.5916287
20
-155.4515726
11
211.3498652
21
-140.5830376
0
LINE
8
0
10
211.3498652
20
-140.5830376
11
195.6067105
21
-149.3096108
0
LINE
8
0
10
195.6067105
20
-149.3096108
11
203.848474
21
-164.1781458
0
LINE
8
0
10
195.3643056
20
-148.8723009
11
211.1074603
21
-140.1457277
0
LINE
8
0
10
211.1074603
20
-140.1457277
11
202.8656968
21
-125.2771927
0
LINE
8
0
10
202.8656968
20
-125.2771927
11
187.1225421
21
-134.0037659
0
LINE
8
0
10
187.1225421
20
-134.0037659
11
195.3643056
21
-148.8723009
0
LINE
8
0
10
186.8801373
20
-133.566456
11
202.623292
21
-124.8398828
0
LINE
8
0
10
202.623292
20
-124.8398828
11
194.3815285
21
-109.9713478
0
LINE
8
0
10
194.3815285
20
-109.9713478
11
178.6383738
21
-118.697921
0
LINE
8
0
10
178.6383738
20
-118.697921
11
186.8801373
21
-133.566456
0
LINE
8
0
10
104.6458011
20
-171.8318482
11
120.3889558
21
-180.5584214
0
LINE
8
0
10
120.3889558
20
-180.5584214
11
128.6307193
21
-165.6898864
0
LINE
8
0
10
128.6307193
20
-165.6898864
11
112.8875646
21
-156.9633132
0
LINE
8
0
10
112.8875646
20
-156.9633132
11
104.6458011
21
-171.8318482
0
LINE
8
0
10
120.853455
20
-180.8320323
11
136.1183207
21
-190.3705791
0
LINE
8
0
10
136.1183207
20
-190.3705791
11
145.1269482
21
-175.9537615
0
LINE
8
0
10
145.1269482
20
-175.9537615
11
129.8620825
21
-166.4152147
0
LINE
8
0
10
129.8620825
20
-166.4152147
11
120.853455
21
-180.8320323
0
LINE
8
0
10
138.1061758
20
-192.5022927
11
146.5566639
21
-208.3953494
0
LINE
8
0
10
146.5566639
20
-208.3953494
11
161.566773
21
-200.4143329
0
LINE
8
0
10
161.566773
20
-200.4143329
11
153.1162849
21
-184.5212762
0
LINE
8
0
10
153.1162849
20
-184.5212762
11
138.1061758
21
-192.5022927
0
LINE
8
0
10
218.6449794
20
-180.5584214
11
234.3881341
21
-171.8318482
0
LINE
8
0
10
234.3881341
20
-171.8318482
11
226.1463706
21
-156.9633132
0
LINE
8
0
10
226.1463706
20
-156.9633132
11
210.4032159
21
-165.6898864
0
LINE
8
0
10
210.4032159
20
-165.6898864
11
218.6449794
21
-180.5584214
0
LINE
8
0
10
202.9156145
20
-190.3705791
11
218.1804802
21
-180.8320323
0
LINE
8
0
10
218.1804802
20
-180.8320323
11
209.1718527
21
-166.4152147
0
LINE
8
0
10
209.1718527
20
-166.4152147
11
193.906987
21
-175.9537615
0
LINE
8
0
10
193.906987
20
-175.9537615
11
202.9156145
21
-190.3705791
0
LINE
8
0
10
192.4772713
20
-208.3953494
11
200.9277594
21
-192.5022927
0
LINE
8
0
10
200.9277594
20
-192.5022927
11
185.9176503
21
-184.5212762
0
LINE
8
0
10
185.9176503
20
-184.5212762
11
177.4671622
21
-200.4143329
0
LINE
8
0
10
177.4671622
20
-200.4143329
11
192.4772713
21
-208.3953494
0
ENDSEC
0
EOF