0
SECTION
2
HEADER
9
$INSUNITS
70
4
0
ENDSEC
0
SECTION
2
TABLES
0
TABLE
2
LTYPE
0
LTYPE
72
65
70
64
2
CONTINUOUS
3
______
73
0
40
0
0
ENDTAB
0
TABLE
2
LAYER
0
ENDTAB
0
ENDSEC
0
SECTION
2
ENTITIES
0
LINE
8
0
10
38.2931155
20
-113.2530896
11
46.3538667
21
-115.9501792
0
LINE
8
0
10
46.3843845
20
-89.0708364
11
77.7821117
21
-99.576369
0
LINE
8
0
10
40.0562428
20
-92.2259313
11
35.1380206
21
-106.9249479
0
LINE
8
0
10
50.2842716
20
-135.7188897
11
64.9832882
21
-140.6371119
0
LINE
8
0
10
71.3114299
20
-137.482017
11
72.2206493
21
-134.7646467
0
LINE
8
0
10
49.5089616
20
-122.2783209
11
47.1291767
21
-129.390748
0
LINE
8
0
10
79.0357335
20
-131.8013636
11
93.1156762
21
-138.2179631
0
LINE
8
0
10
93.1156762
20
-138.2179631
11
95.1040582
21
-133.8548571
0
LINE
8
0
10
83.9184414
20
-96.9082171
11
92.9271386
21
-77.1404351
0
LINE
8
0
10
114.2630302
20
-81.3690214
11
99.5504111
21
-74.6640946
0
LINE
8
0
10
95.1040582
20
-133.8548571
11
105.0908723
21
-139.0536634
0
LINE
8
0
10
137.1578703
20
-92.6132971
11
139.2357391
21
-88.6217483
0
LINE
8
0
10
139.2357391
20
-88.6217483
11
121.0520171
21
-79.1559018
0
LINE
8
0
10
114.3082198
20
-81.2822129
11
114.2630302
21
-81.3690214
0
LINE
8
0
10
103.0130035
20
-143.0452123
11
114.4867174
21
-149.0180497
0
LINE
8
0
10
105.0908723
20
-139.0536634
11
103.0130035
21
-143.0452123
0
LINE
8
0
10
152.6440735
20
-102.929668
11
153.5675707
21
-101.1556464
0
LINE
8
0
10
153.5675707
20
-101.1556464
11
137.1578703
21
-92.6132971
0
LINE
8
0
10
142.4319967
20
-162.6119762
11
166.745031
21
-115.9070716
0
LINE
8
0
10
164.6187199
20
-109.1632743
11
152.6440735
21
-102.929668
0
LINE
8
0
10
299.3586437
20
-115.9501792
11
307.4193949
21
-113.2530896
0
LINE
8
0
10
310.5744898
20
-106.9249479
11
305.6562676
21
-92.2259313
0
LINE
8
0
10
267.9303987
20
-99.576369
11
299.3281259
21
-89.0708364
0
LINE
8
0
10
280.7292222
20
-140.6371119
11
295.4282388
21
-135.7188897
0
LINE
8
0
10
298.5833337
20
-129.390748
11
296.2035488
21
-122.2783209
0
LINE
8
0
10
273.4918611
20
-134.7646467
11
274.4010805
21
-137.482017
0
LINE
8
0
10
252.5968342
20
-138.2179631
11
266.6767769
21
-131.8013636
0
LINE
8
0
10
250.6084522
20
-133.8548571
11
252.5968342
21
-138.2179631
0
LINE
8
0
10
252.7853718
20
-77.1404351
11
261.794069
21
-96.9082171
0
LINE
8
0
10
246.1620993
20
-74.6640946
11
235.767085
21
-79.4013755
0
LINE
8
0
10
240.6216381
20
-139.0536634
11
250.6084522
21
-133.8548571
0
LINE
8
0
10
229.2585649
20
-77.1603121
11
229.0955475
21
-76.8471587
0
LINE
8
0
10
229.0955475
20
-76.8471587
11
206.4767713
21
-88.6217483
0
LINE
8
0
10
206.4767713
20
-88.6217483
11
208.5546401
21
-92.6132971
0
LINE
8
0
10
231.225793
20
-149.0180497
11
242.6995069
21
-143.0452123
0
LINE
8
0
10
242.6995069
20
-143.0452123
11
240.6216381
21
-139.0536634
0
LINE
8
0
10
208.5546401
20
-92.6132971
11
192.1449397
21
-101.1556464
0
LINE
8
0
10
192.1449397
20
-101.1556464
11
193.0684369
21
-102.929668
0
LINE
8
0
10
178.9674794
20
-115.9070716
11
203.2805137
21
-162.6119762
0
LINE
8
0
10
193.0684369
20
-102.929668
11
181.0937905
21
-109.1632743
0
LINE
8
0
10
111.49443
20
-173.1376432
11
125.5190869
21
-182.072335
0
LINE
8
0
10
142.3657208
20
-162.8331829
11
142.4850947
21
-162.6458034
0
LINE
8
0
10
142.4850947
20
-162.6458034
11
142.4319967
21
-162.6119762
0
LINE
8
0
10
116.3949315
20
-156.139602
11
109.963971
21
-166.2341879
0
LINE
8
0
10
125.876396
20
-182.3225255
11
140.4184388
21
-193.4810274
0
LINE
8
0
10
147.4871136
20
-189.6882139
11
155.5153511
21
-179.2256111
0
LINE
8
0
10
154.5923915
20
-172.2150373
11
142.3657208
21
-162.8331829
0
LINE
8
0
10
141.9940294
20
-195.534377
11
148.5765525
21
-211.4259935
0
LINE
8
0
10
155.1093673
20
-214.1319742
11
170.9428381
21
-207.5735358
0
LINE
8
0
10
168.2368575
20
-192.2554571
11
166.2038875
21
-187.3474335
0
LINE
8
0
10
159.6710727
20
-184.6414528
11
147.4871136
21
-189.6882139
0
LINE
8
0
10
220.1934235
20
-182.072335
11
234.2180804
21
-173.1376432
0
LINE
8
0
10
235.7485394
20
-166.2341879
11
229.3175789
21
-156.139602
0
LINE
8
0
10
203.2805137
20
-162.6119762
11
203.2274157
21
-162.6458034
0
LINE
8
0
10
203.2274157
20
-162.6458034
11
203.3467896
21
-162.8331829
0
LINE
8
0
10
205.2940716
20
-193.4810274
11
219.8361144
21
-182.3225255
0
LINE
8
0
10
203.3467896
20
-162.8331829
11
191.1201189
21
-172.2150373
0
LINE
8
0
10
190.1971593
20
-179.2256111
11
198.2253968
21
-189.6882139
0
LINE
8
0
10
197.1359579
20
-211.4259935
11
203.718481
21
-195.534377
0
LINE
8
0
10
198.2253968
20
-189.6882139
11
186.0414377
21
-184.6414528
0
LINE
8
0
10
179.5086229
20
-187.3474335
11
177.4756529
21
-192.2554571
0
LINE
8
0
10
174.7696723
20
-207.5735358
11
190.6031431
21
-214.1319742
0
ARC
8
0
10
44.7673433
20
-120.6917975
40
5
50
341.4999984
51
71.4999984
0
ARC
8
0
10
51.870795
20
-130.9772714
40
5
50
161.4999984
51
251.4999984
0
ARC
8
0
10
66.5698116
20
-135.8954936
40
5
50
251.4999984
51
341.4999984
0
ARC
8
0
10
76.9622675
20
-136.3511701
40
5
50
65.5000029
51
161.4999984
0
ARC
8
0
10
112.1779743
20
-153.4531039
40
5
50
327.499999
51
62.4999998
0
ARC
8
0
10
114.1809281
20
-168.920686
40
5
50
147.499999
51
237.499999
0
ARC
8
0
10
122.8325889
20
-186.2892922
40
5
50
52.4999999
51
57.499999
0
ARC
8
0
10
137.3746317
20
-197.4477941
40
5
50
22.499999
51
52.4999999
0
ARC
8
0
10
153.1959502
20
-209.5125764
40
5
50
202.499999
51
292.499999
0
ARC
8
0
10
172.8562552
20
-212.1929336
40
5
50
67.500001
51
112.499999
0
ARC
8
0
10
192.5165602
20
-209.5125764
40
5
50
247.500001
51
337.500001
0
ARC
8
0
10
208.3378787
20
-197.4477941
40
5
50
127.5000001
51
157.500001
0
ARC
8
0
10
222.8799215
20
-186.2892922
40
5
50
122.500001
51
127.5000001
0
ARC
8
0
10
231.5315823
20
-168.920686
40
5
50
302.500001
51
32.500001
0
ARC
8
0
10
233.5345361
20
-153.4531039
40
5
50
117.5000002
51
212.500001
0
ARC
8
0
10
268.7502429
20
-136.3511701
40
5
50
18.5000016
51
114.4999971
0
ARC
8
0
10
279.1426988
20
-135.8954936
40
5
50
198.5000016
51
288.5000016
0
ARC
8
0
10
293.8417154
20
-130.9772714
40
5
50
288.5000016
51
18.5000016
0
ARC
8
0
10
300.9451671
20
-120.6917975
40
5
50
108.5000016
51
198.5000016
0
ARC
8
0
10
305.8328715
20
-108.5114713
40
5
50
288.5000016
51
18.5000016
0
ARC
8
0
10
300.9146493
20
-93.8124547
40
5
50
18.5000016
51
108.5000016
0
ARC
8
0
10
266.3438753
20
-94.8347508
40
5
50
204.5000023
51
288.5000016
0
ARC
8
0
10
248.2355653
20
-79.2139011
40
5
50
24.4999971
51
114.4999971
0
ARC
8
0
10
233.6936191
20
-74.851569
40
5
50
207.5000002
51
294.4999971
0
ARC
8
0
10
183.4025336
20
-113.5983285
40
5
50
117.5000002
51
207.5000002
0
ARC
8
0
10
194.163926
20
-176.181804
40
5
50
127.5000001
51
217.5000001
0
ARC
8
0
10
184.1280206
20
-189.2608506
40
5
50
67.500001
51
157.500001
0
ARC
8
0
10
172.8562552
20
-190.34204
40
5
50
202.499999
51
337.500001
0
ARC
8
0
10
161.5844898
20
-189.2608506
40
5
50
22.499999
51
112.499999
0
ARC
8
0
10
151.5485844
20
-176.181804
40
5
50
322.4999999
51
52.4999999
0
ARC
8
0
10
162.3099768
20
-113.5983285
40
5
50
332.4999998
51
62.4999998
0
ARC
8
0
10
118.743274
20
-83.590956
40
5
50
62.4999998
51
152.4999998
0
ARC
8
0
10
97.4769451
20
-79.2139011
40
5
50
65.5000029
51
155.5000029
0
ARC
8
0
10
79.3686351
20
-94.8347508
40
5
50
251.4999984
51
335.4999977
0
ARC
8
0
10
44.7978611
20
-93.8124547
40
5
50
71.4999984
51
161.4999984
0
ARC
8
0
10
39.8796389
20
-108.5114713
40
5
50
161.4999984
51
251.4999984
0
ENDSEC
0
EOF