<svg width="276.045mm" height="144.417mm" viewBox="0 0 276.045 144.417" xmlns="http://www.w3.org/2000/svg"><g id="svgGroup" stroke-linecap="round" fill-rule="evenodd" font-size="9pt" stroke="#000" stroke-width="0.25mm" fill="none" style="stroke:#000;stroke-width:0.25mm;fill:none"><path d="M 264.252 43.931 L 272.423 41.588 A 5 5 0 0 0 275.851 35.404 L 271.579 20.504 A 5 5 0 0 0 265.394 17.076 L 233.568 26.202 A 5 5 0 0 1 227.554 23.269 L 219.416 3.127 A 5 5 0 0 0 212.907 0.364 L 202.316 4.643 A 5 5 0 0 1 195.911 2.121 L 195.762 1.801 L 172.651 12.577 L 174.553 16.656 L 157.786 24.474 L 158.631 26.287 L 146.396 31.992 A 5 5 0 0 0 143.978 38.637 L 167.433 88.937 L 170.702 87.412 L 168.001 89.679 L 167.788 89.501 L 166.776 90.707 L 165.569 91.72 L 165.748 91.933 L 154.611 105.204 A 5 5 0 0 0 155.227 112.249 L 162.321 118.201 L 153.928 114.288 A 5 5 0 0 0 147.284 116.706 L 140.733 130.754 A 5 5 0 0 0 143.152 137.398 L 157.199 143.949 A 5 5 0 0 0 163.844 141.53 L 171.604 124.889 A 5 5 0 0 1 172.306 123.788 L 184.595 109.142 A 5 5 0 0 1 185.211 108.526 L 197.664 98.077 A 5 5 0 0 0 198.28 91.033 L 188.341 79.187 L 190.544 78.16 L 189.699 76.348 L 206.465 68.529 L 204.564 64.451 L 214.768 59.692 L 216.564 64.138 L 230.91 58.342 A 5 5 0 0 1 237.59 61.6 L 238.379 64.354 A 5 5 0 0 0 244.564 67.782 L 259.463 63.51 A 5 5 0 0 0 262.892 57.325 L 260.824 50.116 A 5 5 0 0 1 264.252 43.931 Z M 3.622 41.588 L 11.793 43.931 A 5 5 0 0 1 15.221 50.116 L 13.153 57.325 A 5 5 0 0 0 16.582 63.51 L 31.481 67.782 A 5 5 0 0 0 37.666 64.354 L 38.455 61.6 A 5 5 0 0 1 45.135 58.342 L 59.481 64.138 L 61.277 59.692 L 71.481 64.451 L 69.58 68.529 L 86.346 76.348 L 85.501 78.16 L 87.704 79.187 L 77.765 91.033 A 5 5 0 0 0 78.381 98.077 L 90.834 108.526 A 5 5 0 0 1 91.45 109.142 L 103.739 123.788 A 5 5 0 0 1 104.441 124.889 L 112.201 141.53 A 5 5 0 0 0 118.845 143.949 L 132.893 137.398 A 5 5 0 0 0 135.312 130.754 L 128.761 116.706 A 5 5 0 0 0 122.116 114.288 L 113.724 118.201 L 120.818 112.249 A 5 5 0 0 0 121.434 105.204 L 110.297 91.933 L 110.476 91.72 L 109.269 90.707 L 108.257 89.501 L 108.044 89.679 L 105.343 87.412 L 108.612 88.937 L 132.067 38.637 A 5 5 0 0 0 129.649 31.992 L 117.414 26.287 L 118.259 24.474 L 101.492 16.656 L 103.394 12.577 L 84.815 3.914 A 5 5 0 0 0 78.17 6.332 L 78.129 6.421 L 63.138 0.364 A 5 5 0 0 0 56.629 3.127 L 48.491 23.269 A 5 5 0 0 1 42.477 26.202 L 10.651 17.076 A 5 5 0 0 0 4.466 20.504 L 0.194 35.404 A 5 5 0 0 0 3.622 41.588 Z" vector-effect="non-scaling-stroke"/></g></svg>