<svg width="275.953mm" height="140.299mm" viewBox="0 0 275.953 140.299" xmlns="http://www.w3.org/2000/svg"><g id="svgGroup" stroke-linecap="round" fill-rule="evenodd" font-size="9pt" stroke="#000" stroke-width="0.25mm" fill="none" style="stroke:#000;stroke-width:0.25mm;fill:none"><path d="M 3.413 39.039 L 11.474 41.736 A 5 5 0 0 1 14.629 48.064 L 12.25 55.177 A 5 5 0 0 0 15.405 61.505 L 30.104 66.423 A 5 5 0 0 0 36.432 63.268 L 37.341 60.551 A 5 5 0 0 1 44.156 57.587 L 58.236 64.004 L 60.224 59.641 L 70.211 64.84 L 68.133 68.831 L 79.607 74.804 A 5 5 0 0 1 81.515 81.926 L 75.084 92.02 A 5 5 0 0 0 76.615 98.924 L 90.639 107.858 A 5 5 0 0 1 90.997 108.109 L 105.539 119.267 A 5 5 0 0 1 107.114 121.32 L 113.697 137.212 A 5 5 0 0 0 120.23 139.918 L 136.063 133.36 A 5 5 0 0 1 139.89 133.36 L 155.724 139.918 A 5 5 0 0 0 162.256 137.212 L 168.839 121.32 A 5 5 0 0 1 170.414 119.267 L 184.956 108.109 A 5 5 0 0 1 185.314 107.858 L 199.338 98.924 A 5 5 0 0 0 200.869 92.02 L 194.438 81.926 A 5 5 0 0 1 196.346 74.804 L 207.82 68.831 L 205.742 64.84 L 215.729 59.641 L 217.717 64.004 L 231.797 57.587 A 5 5 0 0 1 238.612 60.551 L 239.521 63.268 A 5 5 0 0 0 245.85 66.423 L 260.549 61.505 A 5 5 0 0 0 263.704 55.177 L 261.324 48.064 A 5 5 0 0 1 264.479 41.736 L 272.54 39.039 A 5 5 0 0 0 275.695 32.711 L 270.777 18.012 A 5 5 0 0 0 264.448 14.857 L 233.051 25.362 A 5 5 0 0 1 226.914 22.694 L 217.906 2.927 A 5 5 0 0 0 211.282 0.45 L 200.887 5.187 A 5 5 0 0 1 194.379 2.946 L 194.216 2.633 L 171.597 14.408 L 173.675 18.399 L 157.265 26.942 L 158.189 28.716 L 146.214 34.949 A 5 5 0 0 0 144.088 41.693 L 168.401 88.398 L 168.348 88.432 L 168.467 88.619 L 156.24 98.001 A 5 5 0 0 0 155.318 105.012 L 163.346 115.474 L 151.162 110.428 A 5 5 0 0 0 144.629 113.134 L 142.596 118.042 A 5 5 0 0 1 133.357 118.042 L 131.324 113.134 A 5 5 0 0 0 124.791 110.428 L 112.607 115.474 L 120.636 105.012 A 5 5 0 0 0 119.713 98.001 L 107.486 88.619 L 107.605 88.432 L 107.552 88.398 L 131.865 41.693 A 5 5 0 0 0 129.739 34.949 L 117.764 28.716 L 118.688 26.942 L 102.278 18.399 L 104.356 14.408 L 86.172 4.942 A 5 5 0 0 0 79.429 7.068 L 79.383 7.155 L 64.671 0.45 A 5 5 0 0 0 58.047 2.927 L 49.039 22.694 A 5 5 0 0 1 42.902 25.362 L 11.505 14.857 A 5 5 0 0 0 5.177 18.012 L 0.258 32.711 A 5 5 0 0 0 3.413 39.039 Z" vector-effect="non-scaling-stroke"/></g></svg>