0
SECTION
2
HEADER
9
$INSUNITS
70
4
0
ENDSEC
0
SECTION
2
TABLES
0
TABLE
2
LTYPE
0
LTYPE
72
65
70
64
2
CONTINUOUS
3
______
73
0
40
0
0
ENDTAB
0
TABLE
2
LAYER
0
ENDTAB
0
ENDSEC
0
SECTION
2
ENTITIES
0
LINE
8
0
10
57.5681612
20
-129.3798934
11
74.8708717
21
-134.3413658
0
LINE
8
0
10
74.8708717
20
-134.3413658
11
79.5567068
21
-117.999917
0
LINE
8
0
10
79.5567068
20
-117.999917
11
62.2539963
21
-113.0384446
0
LINE
8
0
10
62.2539963
20
-113.0384446
11
57.5681612
21
-129.3798934
0
LINE
8
0
10
62.3918149
20
-112.5578137
11
79.6945254
21
-117.5192861
0
LINE
8
0
10
79.6945254
20
-117.5192861
11
84.3803605
21
-101.1778373
0
LINE
8
0
10
84.3803605
20
-101.1778373
11
67.07765
21
-96.2163649
0
LINE
8
0
10
67.07765
20
-96.2163649
11
62.3918149
21
-112.5578137
0
LINE
8
0
10
67.2154687
20
-95.735734
11
84.5181792
21
-100.6972064
0
LINE
8
0
10
84.5181792
20
-100.6972064
11
89.2040143
21
-84.3557576
0
LINE
8
0
10
89.2040143
20
-84.3557576
11
71.9013038
21
-79.3942852
0
LINE
8
0
10
71.9013038
20
-79.3942852
11
67.2154687
21
-95.735734
0
LINE
8
0
10
84.5078555
20
-113.3381643
11
101.1971648
21
-120.081083
0
LINE
8
0
10
101.1971648
20
-120.081083
11
107.5654769
21
-104.3189575
0
LINE
8
0
10
107.5654769
20
-104.3189575
11
90.8761676
21
-97.5760388
0
LINE
8
0
10
90.8761676
20
-97.5760388
11
84.5078555
21
-113.3381643
0
LINE
8
0
10
91.0634709
20
-97.1124468
11
107.7527802
21
-103.8553655
0
LINE
8
0
10
107.7527802
20
-103.8553655
11
114.1210923
21
-88.09324
0
LINE
8
0
10
114.1210923
20
-88.09324
11
97.431783
21
-81.3503213
0
LINE
8
0
10
97.431783
20
-81.3503213
11
91.0634709
21
-97.1124468
0
LINE
8
0
10
97.6190863
20
-80.8867293
11
114.3083956
21
-87.629648
0
LINE
8
0
10
114.3083956
20
-87.629648
11
120.6767077
21
-71.8675225
0
LINE
8
0
10
120.6767077
20
-71.8675225
11
103.9873984
21
-65.1246038
0
LINE
8
0
10
103.9873984
20
-65.1246038
11
97.6190863
21
-80.8867293
0
LINE
8
0
10
104.8543151
20
-116.3313237
11
121.1678553
21
-123.9384524
0
LINE
8
0
10
121.1678553
20
-123.9384524
11
128.3523657
21
-108.5312201
0
LINE
8
0
10
128.3523657
20
-108.5312201
11
112.0388255
21
-100.9240914
0
LINE
8
0
10
112.0388255
20
-100.9240914
11
104.8543151
21
-116.3313237
0
LINE
8
0
10
112.2501347
20
-100.4709374
11
128.5636749
21
-108.0780661
0
LINE
8
0
10
128.5636749
20
-108.0780661
11
135.7481853
21
-92.6708338
0
LINE
8
0
10
135.7481853
20
-92.6708338
11
119.4346451
21
-85.0637051
0
LINE
8
0
10
119.4346451
20
-85.0637051
11
112.2501347
21
-100.4709374
0
LINE
8
0
10
119.6459543
20
-84.6105511
11
135.9594945
21
-92.2176798
0
LINE
8
0
10
135.9594945
20
-92.2176798
11
143.1440049
21
-76.8104475
0
LINE
8
0
10
143.1440049
20
-76.8104475
11
126.8304647
21
-69.2033188
0
LINE
8
0
10
126.8304647
20
-69.2033188
11
119.6459543
21
-84.6105511
0
LINE
8
0
10
121.1315161
20
-128.7487856
11
137.4450563
21
-136.3559143
0
LINE
8
0
10
137.4450563
20
-136.3559143
11
144.6295667
21
-120.948682
0
LINE
8
0
10
144.6295667
20
-120.948682
11
128.3160265
21
-113.3415533
0
LINE
8
0
10
128.3160265
20
-113.3415533
11
121.1315161
21
-128.7487856
0
LINE
8
0
10
128.5273356
20
-112.8883992
11
144.8408758
21
-120.4955279
0
LINE
8
0
10
144.8408758
20
-120.4955279
11
152.0253862
21
-105.0882956
0
LINE
8
0
10
152.0253862
20
-105.0882956
11
135.711846
21
-97.4811669
0
LINE
8
0
10
135.711846
20
-97.4811669
11
128.5273356
21
-112.8883992
0
LINE
8
0
10
135.9231552
20
-97.0280129
11
152.2366954
21
-104.6351416
0
LINE
8
0
10
152.2366954
20
-104.6351416
11
159.4212058
21
-89.2279093
0
LINE
8
0
10
159.4212058
20
-89.2279093
11
143.1076656
21
-81.6207806
0
LINE
8
0
10
143.1076656
20
-81.6207806
11
135.9231552
21
-97.0280129
0
LINE
8
0
10
137.1586282
20
-138.153262
11
153.4721684
21
-145.7603907
0
LINE
8
0
10
153.4721684
20
-145.7603907
11
160.6566788
21
-130.3531584
0
LINE
8
0
10
160.6566788
20
-130.3531584
11
144.3431386
21
-122.7460297
0
LINE
8
0
10
144.3431386
20
-122.7460297
11
137.1586282
21
-138.153262
0
LINE
8
0
10
144.5544477
20
-122.2928757
11
160.8679879
21
-129.9000044
0
LINE
8
0
10
160.8679879
20
-129.9000044
11
168.0524983
21
-114.4927721
0
LINE
8
0
10
168.0524983
20
-114.4927721
11
151.7389581
21
-106.8856434
0
LINE
8
0
10
151.7389581
20
-106.8856434
11
144.5544477
21
-122.2928757
0
LINE
8
0
10
151.9502673
20
-106.4324894
11
168.2638075
21
-114.0396181
0
LINE
8
0
10
168.2638075
20
-114.0396181
11
175.4483179
21
-98.6323858
0
LINE
8
0
10
175.4483179
20
-98.6323858
11
159.1347777
21
-91.0252571
0
LINE
8
0
10
159.1347777
20
-91.0252571
11
151.9502673
21
-106.4324894
0
LINE
8
0
10
311.0996235
20
-134.3413658
11
328.402334
21
-129.3798934
0
LINE
8
0
10
328.402334
20
-129.3798934
11
323.7164989
21
-113.0384446
0
LINE
8
0
10
323.7164989
20
-113.0384446
11
306.4137884
21
-117.999917
0
LINE
8
0
10
306.4137884
20
-117.999917
11
311.0996235
21
-134.3413658
0
LINE
8
0
10
306.2759698
20
-117.5192861
11
323.5786803
21
-112.5578137
0
LINE
8
0
10
323.5786803
20
-112.5578137
11
318.8928452
21
-96.2163649
0
LINE
8
0
10
318.8928452
20
-96.2163649
11
301.5901347
21
-101.1778373
0
LINE
8
0
10
301.5901347
20
-101.1778373
11
306.2759698
21
-117.5192861
0
LINE
8
0
10
301.452316
20
-100.6972064
11
318.7550265
21
-95.735734
0
LINE
8
0
10
318.7550265
20
-95.735734
11
314.0691914
21
-79.3942852
0
LINE
8
0
10
314.0691914
20
-79.3942852
11
296.7664809
21
-84.3557576
0
LINE
8
0
10
296.7664809
20
-84.3557576
11
301.452316
21
-100.6972064
0
LINE
8
0
10
284.7733304
20
-120.081083
11
301.4626397
21
-113.3381643
0
LINE
8
0
10
301.4626397
20
-113.3381643
11
295.0943276
21
-97.5760388
0
LINE
8
0
10
295.0943276
20
-97.5760388
11
278.4050183
21
-104.3189575
0
LINE
8
0
10
278.4050183
20
-104.3189575
11
284.7733304
21
-120.081083
0
LINE
8
0
10
278.217715
20
-103.8553655
11
294.9070243
21
-97.1124468
0
LINE
8
0
10
294.9070243
20
-97.1124468
11
288.5387122
21
-81.3503213
0
LINE
8
0
10
288.5387122
20
-81.3503213
11
271.8494029
21
-88.09324
0
LINE
8
0
10
271.8494029
20
-88.09324
11
278.217715
21
-103.8553655
0
LINE
8
0
10
271.6620996
20
-87.629648
11
288.3514089
21
-80.8867293
0
LINE
8
0
10
288.3514089
20
-80.8867293
11
281.9830968
21
-65.1246038
0
LINE
8
0
10
281.9830968
20
-65.1246038
11
265.2937875
21
-71.8675225
0
LINE
8
0
10
265.2937875
20
-71.8675225
11
271.6620996
21
-87.629648
0
LINE
8
0
10
264.8026399
20
-123.9384524
11
281.1161801
21
-116.3313237
0
LINE
8
0
10
281.1161801
20
-116.3313237
11
273.9316697
21
-100.9240914
0
LINE
8
0
10
273.9316697
20
-100.9240914
11
257.6181295
21
-108.5312201
0
LINE
8
0
10
257.6181295
20
-108.5312201
11
264.8026399
21
-123.9384524
0
LINE
8
0
10
257.4068203
20
-108.0780661
11
273.7203605
21
-100.4709374
0
LINE
8
0
10
273.7203605
20
-100.4709374
11
266.5358501
21
-85.0637051
0
LINE
8
0
10
266.5358501
20
-85.0637051
11
250.2223099
21
-92.6708338
0
LINE
8
0
10
250.2223099
20
-92.6708338
11
257.4068203
21
-108.0780661
0
LINE
8
0
10
250.0110007
20
-92.2176798
11
266.3245409
21
-84.6105511
0
LINE
8
0
10
266.3245409
20
-84.6105511
11
259.1400305
21
-69.2033188
0
LINE
8
0
10
259.1400305
20
-69.2033188
11
242.8264903
21
-76.8104475
0
LINE
8
0
10
242.8264903
20
-76.8104475
11
250.0110007
21
-92.2176798
0
LINE
8
0
10
248.5254389
20
-136.3559143
11
264.8389791
21
-128.7487856
0
LINE
8
0
10
264.8389791
20
-128.7487856
11
257.6544687
21
-113.3415533
0
LINE
8
0
10
257.6544687
20
-113.3415533
11
241.3409285
21
-120.948682
0
LINE
8
0
10
241.3409285
20
-120.948682
11
248.5254389
21
-136.3559143
0
LINE
8
0
10
241.1296194
20
-120.4955279
11
257.4431596
21
-112.8883992
0
LINE
8
0
10
257.4431596
20
-112.8883992
11
250.2586492
21
-97.4811669
0
LINE
8
0
10
250.2586492
20
-97.4811669
11
233.945109
21
-105.0882956
0
LINE
8
0
10
233.945109
20
-105.0882956
11
241.1296194
21
-120.4955279
0
LINE
8
0
10
233.7337998
20
-104.6351416
11
250.04734
21
-97.0280129
0
LINE
8
0
10
250.04734
20
-97.0280129
11
242.8628296
21
-81.6207806
0
LINE
8
0
10
242.8628296
20
-81.6207806
11
226.5492894
21
-89.2279093
0
LINE
8
0
10
226.5492894
20
-89.2279093
11
233.7337998
21
-104.6351416
0
LINE
8
0
10
232.4983268
20
-145.7603907
11
248.811867
21
-138.153262
0
LINE
8
0
10
248.811867
20
-138.153262
11
241.6273566
21
-122.7460297
0
LINE
8
0
10
241.6273566
20
-122.7460297
11
225.3138164
21
-130.3531584
0
LINE
8
0
10
225.3138164
20
-130.3531584
11
232.4983268
21
-145.7603907
0
LINE
8
0
10
225.1025073
20
-129.9000044
11
241.4160475
21
-122.2928757
0
LINE
8
0
10
241.4160475
20
-122.2928757
11
234.2315371
21
-106.8856434
0
LINE
8
0
10
234.2315371
20
-106.8856434
11
217.9179969
21
-114.4927721
0
LINE
8
0
10
217.9179969
20
-114.4927721
11
225.1025073
21
-129.9000044
0
LINE
8
0
10
217.7066877
20
-114.0396181
11
234.0202279
21
-106.4324894
0
LINE
8
0
10
234.0202279
20
-106.4324894
11
226.8357175
21
-91.0252571
0
LINE
8
0
10
226.8357175
20
-91.0252571
11
210.5221773
21
-98.6323858
0
LINE
8
0
10
210.5221773
20
-98.6323858
11
217.7066877
21
-114.0396181
0
LINE
8
0
10
125.160671
20
-156.6797056
11
135.4850469
21
-171.4244424
0
LINE
8
0
10
135.4850469
20
-171.4244424
11
149.4106316
21
-161.673643
0
LINE
8
0
10
149.4106316
20
-161.673643
11
139.0862557
21
-146.9289062
0
LINE
8
0
10
139.0862557
20
-146.9289062
11
125.160671
21
-156.6797056
0
LINE
8
0
10
135.7404178
20
-171.8667576
11
143.3475465
21
-188.1802978
0
LINE
8
0
10
143.3475465
20
-188.1802978
11
158.7547788
21
-180.9957874
0
LINE
8
0
10
158.7547788
20
-180.9957874
11
151.1476501
21
-164.6822472
0
LINE
8
0
10
151.1476501
20
-164.6822472
11
135.7404178
21
-171.8667576
0
LINE
8
0
10
143.5222304
20
-188.6602382
11
148.1809732
21
-206.0469031
0
LINE
8
0
10
148.1809732
20
-206.0469031
11
164.6017122
21
-201.6469794
0
LINE
8
0
10
164.6017122
20
-201.6469794
11
159.9429694
21
-184.2603145
0
LINE
8
0
10
159.9429694
20
-184.2603145
11
143.5222304
21
-188.6602382
0
LINE
8
0
10
250.4854483
20
-171.4244424
11
260.8098242
21
-156.6797056
0
LINE
8
0
10
260.8098242
20
-156.6797056
11
246.8842395
21
-146.9289062
0
LINE
8
0
10
246.8842395
20
-146.9289062
11
236.5598636
21
-161.673643
0
LINE
8
0
10
236.5598636
20
-161.673643
11
250.4854483
21
-171.4244424
0
LINE
8
0
10
242.6229487
20
-188.1802978
11
250.2300774
21
-171.8667576
0
LINE
8
0
10
250.2300774
20
-171.8667576
11
234.8228451
21
-164.6822472
0
LINE
8
0
10
234.8228451
20
-164.6822472
11
227.2157164
21
-180.9957874
0
LINE
8
0
10
227.2157164
20
-180.9957874
11
242.6229487
21
-188.1802978
0
LINE
8
0
10
237.789522
20
-206.0469031
11
242.4482648
21
-188.6602382
0
LINE
8
0
10
242.4482648
20
-188.6602382
11
226.0275258
21
-184.2603145
0
LINE
8
0
10
226.0275258
20
-184.2603145
11
221.368783
21
-201.6469794
0
LINE
8
0
10
221.368783
20
-201.6469794
11
237.789522
21
-206.0469031
0
ENDSEC
0
EOF