<svg width="278.018mm" height="148.357mm" viewBox="0 0 278.018 148.357" xmlns="http://www.w3.org/2000/svg"><g id="svgGroup" stroke-linecap="round" fill-rule="evenodd" font-size="9pt" stroke="#000" stroke-width="0.25mm" fill="none" style="stroke:#000;stroke-width:0.25mm;fill:none"><path d="M 3.622 72.522 L 18.521 76.794 A 5 5 0 0 0 24.706 73.366 L 29.61 56.262 L 49.106 64.138 L 50.884 59.735 L 63.809 65.762 L 61.96 69.728 L 78.727 77.546 L 77.987 79.132 L 83.918 81.897 L 69.648 91.889 A 5 5 0 0 0 68.42 98.853 L 77.71 112.121 A 5 5 0 0 1 78.146 112.876 L 85.286 128.187 A 5 5 0 0 1 85.584 129.006 L 89.776 144.651 A 5 5 0 0 0 95.9 148.187 L 110.871 144.175 A 5 5 0 0 0 114.407 138.051 L 109.954 121.432 L 110.215 121.31 L 109.524 119.829 L 109.101 118.25 L 108.823 118.324 L 100.83 101.185 L 101.066 101.02 L 100.129 99.681 L 99.438 98.199 L 99.177 98.321 L 89.5 84.5 L 96.567 87.796 A 5 5 0 0 0 103.211 85.377 L 124.554 39.609 A 5 5 0 0 0 122.135 32.964 L 109.9 27.259 L 110.64 25.673 L 92.513 17.22 L 94.362 13.255 L 71.251 2.478 L 69.15 6.985 L 52.762 0.364 A 5 5 0 0 0 46.253 3.127 L 41.176 15.694 A 5 5 0 0 1 35.162 18.627 L 20.298 14.365 A 5 5 0 0 0 14.113 17.793 L 0.194 66.337 A 5 5 0 0 0 3.622 72.522 Z M 259.496 76.794 L 274.396 72.522 A 5 5 0 0 0 277.824 66.337 L 263.904 17.793 A 5 5 0 0 0 257.72 14.365 L 242.856 18.627 A 5 5 0 0 1 236.842 15.694 L 231.765 3.127 A 5 5 0 0 0 225.256 0.364 L 208.868 6.985 L 206.766 2.478 L 183.655 13.255 L 185.504 17.22 L 167.378 25.673 L 168.118 27.259 L 155.882 32.964 A 5 5 0 0 0 153.464 39.609 L 174.806 85.377 A 5 5 0 0 0 181.451 87.796 L 188.518 84.5 L 178.841 98.321 L 178.579 98.199 L 177.889 99.681 L 176.951 101.02 L 177.187 101.185 L 169.195 118.324 L 168.916 118.25 L 168.493 119.829 L 167.803 121.31 L 168.064 121.432 L 163.611 138.051 A 5 5 0 0 0 167.146 144.175 L 182.118 148.187 A 5 5 0 0 0 188.242 144.651 L 192.434 129.006 A 5 5 0 0 1 192.732 128.187 L 199.872 112.876 A 5 5 0 0 1 200.308 112.121 L 209.598 98.853 A 5 5 0 0 0 208.37 91.889 L 194.1 81.897 L 200.03 79.132 L 199.291 77.546 L 216.057 69.728 L 214.208 65.762 L 227.133 59.735 L 228.912 64.138 L 248.407 56.262 L 253.312 73.366 A 5 5 0 0 0 259.496 76.794 Z" vector-effect="non-scaling-stroke"/></g></svg>