0
SECTION
2
HEADER
9
$INSUNITS
70
4
0
ENDSEC
0
SECTION
2
TABLES
0
TABLE
2
LTYPE
0
LTYPE
72
65
70
64
2
CONTINUOUS
3
______
73
0
40
0
0
ENDTAB
0
TABLE
2
LAYER
0
ENDTAB
0
ENDSEC
0
SECTION
2
ENTITIES
0
LINE
8
0
10
57.5982794
20
-133.8098022
11
72.4978356
21
-138.0821812
0
LINE
8
0
10
78.682331
20
-134.6540598
11
83.5868867
21
-117.5498415
0
LINE
8
0
10
54.1701579
20
-127.6253068
11
68.0898445
21
-79.0815912
0
LINE
8
0
10
89.1379771
20
-79.9155492
11
74.2743399
21
-75.6534697
0
LINE
8
0
10
83.5868867
20
-117.5498415
11
103.0820263
21
-125.4263891
0
LINE
8
0
10
103.0820263
20
-125.4263891
11
104.8608224
21
-121.0237143
0
LINE
8
0
10
95.1520835
20
-76.9822737
11
100.2295039
21
-64.4152171
0
LINE
8
0
10
123.1263865
20
-68.2734843
11
106.7384562
21
-61.6523307
0
LINE
8
0
10
104.8608224
20
-121.0237143
11
117.7856892
21
-127.0506787
0
LINE
8
0
10
146.4898318
20
-78.5085544
11
148.3387867
21
-74.5434579
0
LINE
8
0
10
148.3387867
20
-74.5434579
11
125.2279382
21
-63.7666922
0
LINE
8
0
10
125.2279382
20
-63.7666922
11
123.1263865
21
-68.2734843
0
LINE
8
0
10
115.9367343
20
-131.0157752
11
132.7034283
21
-138.8342131
0
LINE
8
0
10
117.7856892
20
-127.0506787
11
115.9367343
21
-131.0157752
0
LINE
8
0
10
163.8764056
20
-88.5469583
11
164.6159876
21
-86.9609197
0
LINE
8
0
10
164.6159876
20
-86.9609197
11
146.4898318
21
-78.5085544
0
LINE
8
0
10
131.9638464
20
-140.4202516
11
137.8942575
21
-143.1856477
0
LINE
8
0
10
143.475995
20
-145.7884547
11
150.5431558
21
-149.0839259
0
LINE
8
0
10
157.1877861
20
-146.6654785
11
178.5300083
21
-100.8969352
0
LINE
8
0
10
132.7034283
20
-138.8342131
11
131.9638464
21
-140.4202516
0
LINE
8
0
10
176.1115609
20
-94.252305
11
163.8764056
21
-88.5469583
0
LINE
8
0
10
313.4726596
20
-138.0821812
11
328.3722158
21
-133.8098022
0
LINE
8
0
10
317.8806507
20
-79.0815912
11
331.8003373
21
-127.6253068
0
LINE
8
0
10
302.3836085
20
-117.5498415
11
307.2881642
21
-134.6540598
0
LINE
8
0
10
311.6961553
20
-75.6534697
11
296.8325181
21
-79.9155492
0
LINE
8
0
10
282.8884689
20
-125.4263891
11
302.3836085
21
-117.5498415
0
LINE
8
0
10
281.1096728
20
-121.0237143
11
282.8884689
21
-125.4263891
0
LINE
8
0
10
285.7409913
20
-64.4152171
11
290.8184117
21
-76.9822737
0
LINE
8
0
10
279.232039
20
-61.6523307
11
262.8441087
21
-68.2734843
0
LINE
8
0
10
268.184806
20
-127.0506787
11
281.1096728
21
-121.0237143
0
LINE
8
0
10
262.8441087
20
-68.2734843
11
260.742557
21
-63.7666922
0
LINE
8
0
10
260.742557
20
-63.7666922
11
237.6317085
21
-74.5434579
0
LINE
8
0
10
237.6317085
20
-74.5434579
11
239.4806634
21
-78.5085544
0
LINE
8
0
10
253.2670669
20
-138.8342131
11
270.0337609
21
-131.0157752
0
LINE
8
0
10
270.0337609
20
-131.0157752
11
268.184806
21
-127.0506787
0
LINE
8
0
10
239.4806634
20
-78.5085544
11
221.3545076
21
-86.9609197
0
LINE
8
0
10
221.3545076
20
-86.9609197
11
222.0940896
21
-88.5469583
0
LINE
8
0
10
235.4273394
20
-149.0839259
11
242.4945002
21
-145.7884547
0
LINE
8
0
10
248.0762377
20
-143.1856477
11
254.0066488
21
-140.4202516
0
LINE
8
0
10
254.0066488
20
-140.4202516
11
253.2670669
21
-138.8342131
0
LINE
8
0
10
207.4404869
20
-100.8969352
11
228.7827091
21
-146.6654785
0
LINE
8
0
10
222.0940896
20
-88.5469583
11
209.8589343
21
-94.252305
0
LINE
8
0
10
122.3962454
20
-160.1413455
11
131.6865069
21
-173.409214
0
LINE
8
0
10
154.8068517
20
-162.4730737
11
155.0429394
21
-162.3077633
0
LINE
8
0
10
155.0429394
20
-162.3077633
11
154.1054176
21
-160.9688435
0
LINE
8
0
10
153.1534328
20
-159.6092682
11
143.475995
21
-145.7884547
0
LINE
8
0
10
137.8942575
20
-143.1856477
11
123.6241234
21
-153.1777031
0
LINE
8
0
10
132.1222855
20
-174.1640048
11
139.2620623
21
-189.4753054
0
LINE
8
0
10
163.9301985
20
-182.7201167
11
164.1914054
21
-182.5983139
0
LINE
8
0
10
164.1914054
20
-182.5983139
11
163.5006274
21
-181.1169358
0
LINE
8
0
10
162.7991935
20
-179.6127059
11
154.8068517
21
-162.4730737
0
LINE
8
0
10
154.1054176
20
-160.9688435
11
153.4146397
21
-159.4874654
0
LINE
8
0
10
153.4146397
20
-159.4874654
11
153.1534328
21
-159.6092682
0
LINE
8
0
10
139.5601526
20
-190.2943018
11
143.7522645
21
-205.9394766
0
LINE
8
0
10
149.8759887
20
-209.4750107
11
164.8478391
21
-205.4633156
0
LINE
8
0
10
168.3833732
20
-199.3395914
11
163.9301985
21
-182.7201167
0
LINE
8
0
10
163.5006274
20
-181.1169358
11
163.0775828
21
-179.5381117
0
LINE
8
0
10
163.0775828
20
-179.5381117
11
162.7991935
21
-179.6127059
0
LINE
8
0
10
254.2839883
20
-173.409214
11
263.5742498
21
-160.1413455
0
LINE
8
0
10
262.3463718
20
-153.1777031
11
248.0762377
21
-143.1856477
0
LINE
8
0
10
242.4945002
20
-145.7884547
11
232.8170624
21
-159.6092682
0
LINE
8
0
10
231.8650776
20
-160.9688435
11
230.9275558
21
-162.3077633
0
LINE
8
0
10
230.9275558
20
-162.3077633
11
231.1636435
21
-162.4730737
0
LINE
8
0
10
246.7084329
20
-189.4753054
11
253.8482097
21
-174.1640048
0
LINE
8
0
10
232.8170624
20
-159.6092682
11
232.5558555
21
-159.4874654
0
LINE
8
0
10
232.5558555
20
-159.4874654
11
231.8650776
21
-160.9688435
0
LINE
8
0
10
231.1636435
20
-162.4730737
11
223.1713017
21
-179.6127059
0
LINE
8
0
10
222.4698678
20
-181.1169358
11
221.7790898
21
-182.5983139
0
LINE
8
0
10
221.7790898
20
-182.5983139
11
222.0402967
21
-182.7201167
0
LINE
8
0
10
242.2182307
20
-205.9394766
11
246.4103426
21
-190.2943018
0
LINE
8
0
10
223.1713017
20
-179.6127059
11
222.8929124
21
-179.5381117
0
LINE
8
0
10
222.8929124
20
-179.5381117
11
222.4698678
21
-181.1169358
0
LINE
8
0
10
222.0402967
20
-182.7201167
11
217.587122
21
-199.3395914
0
LINE
8
0
10
221.1226561
20
-205.4633156
11
236.0945065
21
-209.4750107
0
ARC
8
0
10
73.8760226
20
-133.2758728
40
5
50
253.9999976
51
343.9999976
0
ARC
8
0
10
126.4920056
20
-157.2734633
40
5
50
124.9999997
51
214.9999997
0
ARC
8
0
10
127.5907467
20
-176.2770962
40
5
50
25.0000017
51
34.9999997
0
ARC
8
0
10
134.7305235
20
-191.5883968
40
5
50
14.9999979
51
25.0000017
0
ARC
8
0
10
148.5818937
20
-204.6453816
40
5
50
194.9999979
51
284.9999979
0
ARC
8
0
10
163.5537441
20
-200.6336864
40
5
50
284.9999979
51
14.9999979
0
ARC
8
0
10
152.6562473
20
-144.5523871
40
5
50
244.9999983
51
334.9999983
0
ARC
8
0
10
173.9984695
20
-98.7838438
40
5
50
334.9999983
51
64.9999983
0
ARC
8
0
10
104.8654232
20
-66.28825
40
5
50
68.0000006
51
158.0000006
0
ARC
8
0
10
90.5161641
20
-75.1092407
40
5
50
253.9999976
51
338.0000006
0
ARC
8
0
10
72.8961529
20
-80.4597782
40
5
50
73.9999976
51
163.9999976
0
ARC
8
0
10
58.9764664
20
-129.0034938
40
5
50
163.9999976
51
253.9999976
0
ARC
8
0
10
326.9940288
20
-129.0034938
40
5
50
286.0000024
51
16.0000024
0
ARC
8
0
10
313.0743423
20
-80.4597782
40
5
50
16.0000024
51
106.0000024
0
ARC
8
0
10
295.4543311
20
-75.1092407
40
5
50
201.9999994
51
286.0000024
0
ARC
8
0
10
281.105072
20
-66.28825
40
5
50
21.9999994
51
111.9999994
0
ARC
8
0
10
211.9720257
20
-98.7838438
40
5
50
115.0000017
51
205.0000017
0
ARC
8
0
10
233.3142479
20
-144.5523871
40
5
50
205.0000017
51
295.0000017
0
ARC
8
0
10
222.4167511
20
-200.6336864
40
5
50
165.0000021
51
255.0000021
0
ARC
8
0
10
237.3886015
20
-204.6453816
40
5
50
255.0000021
51
345.0000021
0
ARC
8
0
10
251.2399717
20
-191.5883968
40
5
50
154.9999983
51
165.0000021
0
ARC
8
0
10
258.3797485
20
-176.2770962
40
5
50
145.0000003
51
154.9999983
0
ARC
8
0
10
259.4784896
20
-157.2734633
40
5
50
325.0000003
51
55.0000003
0
ARC
8
0
10
312.0944726
20
-133.2758728
40
5
50
196.0000024
51
286.0000024
0
ENDSEC
0
EOF