<svg width="268.862mm" height="137.031mm" viewBox="0 0 268.862 137.031" xmlns="http://www.w3.org/2000/svg"><g id="svgGroup" stroke-linecap="round" fill-rule="evenodd" font-size="9pt" stroke="#000" stroke-width="0.25mm" fill="none" style="stroke:#000;stroke-width:0.25mm;fill:none"><path d="M 90.797 102.196 L 102.367 115.985 L 115.39 105.057 L 103.82 91.269 L 90.797 102.196 Z M 178.509 101.751 L 192.298 90.181 L 181.371 77.159 L 167.582 88.729 L 178.509 101.751 Z M 166.494 115.985 L 178.065 102.196 L 165.042 91.269 L 153.472 105.057 L 166.494 115.985 Z M 76.564 90.181 L 90.352 101.751 L 101.28 88.729 L 87.491 77.159 L 76.564 90.181 Z M 12.96 55.243 L 30.262 60.205 L 34.948 43.863 L 17.646 38.902 L 12.96 55.243 Z M 0 33.322 L 17.303 38.284 L 21.989 21.942 L 4.686 16.981 L 0 33.322 Z M 17.783 38.421 L 35.086 43.383 L 39.772 27.041 L 22.469 22.08 L 17.783 38.421 Z M 251.559 38.284 L 268.862 33.322 L 264.176 16.981 L 246.873 21.942 L 251.559 38.284 Z M 238.599 60.205 L 255.902 55.243 L 251.216 38.902 L 233.913 43.863 L 238.599 60.205 Z M 233.776 43.383 L 251.078 38.421 L 246.392 22.08 L 229.09 27.041 L 233.776 43.383 Z M 63.714 34.669 L 80.027 42.276 L 87.212 26.868 L 70.898 19.261 L 63.714 34.669 Z M 71.183 62.426 L 87.496 70.033 L 94.681 54.626 L 78.367 47.019 L 71.183 62.426 Z M 78.579 46.565 L 94.892 54.172 L 102.077 38.765 L 85.763 31.158 L 78.579 46.565 Z M 85.974 30.705 L 102.288 38.312 L 109.472 22.905 L 93.159 15.298 L 85.974 30.705 Z M 87.104 72.057 L 103.418 79.664 L 110.602 64.257 L 94.289 56.65 L 87.104 72.057 Z M 94.5 56.196 L 110.814 63.804 L 117.998 48.396 L 101.684 40.789 L 94.5 56.196 Z M 101.896 40.336 L 118.209 47.943 L 125.394 32.536 L 109.08 24.929 L 101.896 40.336 Z M 196.23 58.136 L 212.544 50.529 L 205.359 35.122 L 189.046 42.729 L 196.23 58.136 Z M 188.834 42.276 L 205.148 34.669 L 197.963 19.261 L 181.65 26.868 L 188.834 42.276 Z M 181.439 26.415 L 197.752 18.808 L 190.568 3.401 L 174.254 11.008 L 181.439 26.415 Z M 181.365 70.033 L 197.679 62.426 L 190.494 47.019 L 174.181 54.626 L 181.365 70.033 Z M 173.969 54.172 L 190.283 46.565 L 183.099 31.158 L 166.785 38.765 L 173.969 54.172 Z M 166.574 38.312 L 182.887 30.705 L 175.703 15.298 L 159.389 22.905 L 166.574 38.312 Z M 165.444 79.664 L 181.757 72.057 L 174.573 56.65 L 158.259 64.257 L 165.444 79.664 Z M 158.048 63.804 L 174.362 56.196 L 167.177 40.789 L 150.864 48.396 L 158.048 63.804 Z M 150.652 47.943 L 166.966 40.336 L 159.781 24.929 L 143.468 32.536 L 150.652 47.943 Z M 105.382 120.717 L 112.989 137.031 L 128.396 129.846 L 120.789 113.533 L 105.382 120.717 Z M 155.872 137.031 L 163.479 120.717 L 148.072 113.533 L 140.465 129.846 L 155.872 137.031 Z M 56.318 50.529 L 72.631 58.136 L 79.816 42.729 L 63.502 35.122 L 56.318 50.529 Z M 71.109 18.808 L 87.423 26.415 L 94.607 11.008 L 78.294 3.401 L 71.109 18.808 Z M 201.746 22.505 L 218.435 15.762 L 212.067 0 L 195.377 6.743 L 201.746 22.505 Z M 214.857 54.956 L 231.546 48.214 L 225.178 32.451 L 208.489 39.194 L 214.857 54.956 Z M 208.301 38.731 L 224.991 31.988 L 218.622 16.226 L 201.933 22.969 L 208.301 38.731 Z M 37.315 48.214 L 54.005 54.956 L 60.373 39.194 L 43.684 32.451 L 37.315 48.214 Z M 43.871 31.988 L 60.56 38.731 L 66.929 22.969 L 50.239 16.226 L 43.871 31.988 Z M 50.427 15.762 L 67.116 22.505 L 73.484 6.743 L 56.795 0 L 50.427 15.762 Z" vector-effect="non-scaling-stroke"/></g></svg>