<svg width="274.983mm" height="134.261mm" viewBox="0 0 274.983 134.261" xmlns="http://www.w3.org/2000/svg"><g id="svgGroup" stroke-linecap="round" fill-rule="evenodd" font-size="9pt" stroke="#000" stroke-width="0.25mm" fill="none" style="stroke:#000;stroke-width:0.25mm;fill:none"><path d="M 263.706 39.446 L 271.693 36.539 A 5 5 0 0 0 274.681 30.13 L 269.38 15.565 A 5 5 0 0 0 262.972 12.576 L 227.53 25.476 L 216.474 2.808 A 5 5 0 0 0 209.789 0.506 L 199.521 5.514 A 5 5 0 0 1 192.956 3.444 L 192.785 3.135 L 170.482 15.498 L 172.664 19.434 L 156.483 28.403 L 157.453 30.152 L 145.646 36.697 A 5 5 0 0 0 143.697 43.494 L 166.565 84.75 A 5 5 0 0 1 164.842 91.414 L 160.689 94.009 A 5 5 0 0 0 159.099 100.899 L 163.278 107.586 L 156.315 103.884 A 5 5 0 0 0 149.553 105.952 L 142.276 119.637 A 5 5 0 0 0 144.343 126.399 L 158.029 133.676 A 5 5 0 0 0 164.791 131.609 L 172.2 117.676 A 5 5 0 0 1 173.965 115.783 L 188.43 106.744 A 5 5 0 0 1 188.656 106.611 L 203.33 98.477 A 5 5 0 0 0 205.279 91.68 L 198.734 79.872 A 5 5 0 0 1 200.683 73.075 L 208.117 68.954 L 205.936 65.019 L 215.783 59.56 L 217.885 63.87 L 231.792 57.087 A 5 5 0 0 1 238.682 59.871 L 239.32 61.624 A 5 5 0 0 0 245.729 64.612 L 260.294 59.311 A 5 5 0 0 0 263.282 52.902 L 260.717 45.854 A 5 5 0 0 1 263.706 39.446 Z M 3.29 36.539 L 11.277 39.446 A 5 5 0 0 1 14.266 45.854 L 11.7 52.902 A 5 5 0 0 0 14.689 59.311 L 29.254 64.612 A 5 5 0 0 0 35.663 61.624 L 36.301 59.871 A 5 5 0 0 1 43.191 57.087 L 57.098 63.87 L 59.2 59.56 L 69.047 65.019 L 66.866 68.954 L 74.3 73.075 A 5 5 0 0 1 76.249 79.872 L 69.704 91.68 A 5 5 0 0 0 71.653 98.477 L 86.327 106.611 A 5 5 0 0 1 86.553 106.744 L 101.018 115.783 A 5 5 0 0 1 102.783 117.676 L 110.192 131.609 A 5 5 0 0 0 116.954 133.676 L 130.64 126.399 A 5 5 0 0 0 132.707 119.637 L 125.43 105.952 A 5 5 0 0 0 118.668 103.884 L 111.705 107.586 L 115.884 100.899 A 5 5 0 0 0 114.294 94.009 L 110.141 91.414 A 5 5 0 0 1 108.418 84.75 L 131.286 43.494 A 5 5 0 0 0 129.337 36.697 L 117.53 30.152 L 118.5 28.403 L 102.319 19.434 L 104.501 15.498 L 86.571 5.559 A 5 5 0 0 0 79.774 7.508 L 79.726 7.594 L 65.194 0.506 A 5 5 0 0 0 58.508 2.808 L 47.453 25.476 L 12.011 12.576 A 5 5 0 0 0 5.603 15.565 L 0.302 30.13 A 5 5 0 0 0 3.29 36.539 Z" vector-effect="non-scaling-stroke"/></g></svg>