0
SECTION
2
HEADER
9
$INSUNITS
70
4
0
ENDSEC
0
SECTION
2
TABLES
0
TABLE
2
LTYPE
0
LTYPE
72
65
70
64
2
CONTINUOUS
3
______
73
0
40
0
0
ENDTAB
0
TABLE
2
LAYER
0
ENDTAB
0
ENDSEC
0
SECTION
2
ENTITIES
0
LINE
8
0
10
43.1966992
20
-111.4749754
11
51.367424
21
-113.8178931
0
LINE
8
0
10
50.2254522
20
-86.9628023
11
82.0515404
21
-96.0887863
0
LINE
8
0
10
44.0409568
20
-90.3909238
11
39.7685777
21
-105.29048
0
LINE
8
0
10
56.1563869
20
-133.3963461
11
71.0559431
21
-137.6687251
0
LINE
8
0
10
77.2404385
20
-134.2406037
11
78.0302625
21
-131.48616
0
LINE
8
0
10
54.7955455
20
-120.0023885
11
52.7282654
21
-127.2118507
0
LINE
8
0
10
84.7096039
20
-128.2284277
11
99.0560336
21
-134.0247615
0
LINE
8
0
10
99.0560336
20
-134.0247615
11
100.852207
21
-129.5790762
0
LINE
8
0
10
88.0656467
20
-93.1555108
11
96.2035111
21
-73.0135895
0
LINE
8
0
10
117.7035439
20
-76.3074927
11
102.7124634
21
-70.2507031
0
LINE
8
0
10
100.852207
20
-129.5790762
11
111.0562847
21
-134.3373158
0
LINE
8
0
10
141.0670617
20
-86.5424075
11
142.9688439
21
-82.4640224
0
LINE
8
0
10
142.9688439
20
-82.4640224
11
124.3895344
21
-73.8003481
0
LINE
8
0
10
117.7449042
20
-76.2187955
11
117.7035439
21
-76.3074927
0
LINE
8
0
10
109.1545025
20
-138.4157008
11
125.9211967
21
-146.2341387
0
LINE
8
0
10
111.0562847
20
-134.3373158
11
109.1545025
21
-138.4157008
0
LINE
8
0
10
156.9885194
20
-96.1734608
11
157.8337558
21
-94.3608454
0
LINE
8
0
10
157.8337558
20
-94.3608454
11
141.0670617
21
-86.5424075
0
LINE
8
0
10
125.0759602
20
-148.0467542
11
127.2789067
21
-149.074005
0
LINE
8
0
10
144.9174582
20
-157.2989967
11
148.1868087
21
-158.8235199
0
LINE
8
0
10
148.1868087
20
-158.8235199
11
171.6421222
21
-108.5234377
0
LINE
8
0
10
125.9211967
20
-146.2341387
11
125.0759602
21
-148.0467542
0
LINE
8
0
10
169.2236747
20
-101.8788075
11
156.9885194
21
-96.1734608
0
LINE
8
0
10
303.8272988
20
-113.8178931
11
311.9980236
21
-111.4749754
0
LINE
8
0
10
315.4261451
20
-105.29048
11
311.153766
21
-90.3909238
0
LINE
8
0
10
273.1431824
20
-96.0887863
11
304.9692706
21
-86.9628023
0
LINE
8
0
10
284.1387797
20
-137.6687251
11
299.0383359
21
-133.3963461
0
LINE
8
0
10
302.4664574
20
-127.2118507
11
300.3991773
21
-120.0023885
0
LINE
8
0
10
277.1644603
20
-131.48616
11
277.9542843
21
-134.2406037
0
LINE
8
0
10
256.1386892
20
-134.0247615
11
270.4851189
21
-128.2284277
0
LINE
8
0
10
254.3425158
20
-129.5790762
11
256.1386892
21
-134.0247615
0
LINE
8
0
10
258.9912117
20
-73.0135895
11
267.1290761
21
-93.1555108
0
LINE
8
0
10
252.4822594
20
-70.2507031
11
241.8905019
21
-74.5300509
0
LINE
8
0
10
244.1384381
20
-134.3373158
11
254.3425158
21
-129.5790762
0
LINE
8
0
10
235.4859301
20
-72.007223
11
235.3367274
21
-71.6872567
0
LINE
8
0
10
235.3367274
20
-71.6872567
11
212.2258789
21
-82.4640224
0
LINE
8
0
10
212.2258789
20
-82.4640224
11
214.1276611
21
-86.5424075
0
LINE
8
0
10
229.2735261
20
-146.2341387
11
246.0402203
21
-138.4157008
0
LINE
8
0
10
246.0402203
20
-138.4157008
11
244.1384381
21
-134.3373158
0
LINE
8
0
10
214.1276611
20
-86.5424075
11
197.360967
21
-94.3608454
0
LINE
8
0
10
197.360967
20
-94.3608454
11
198.2062034
21
-96.1734608
0
LINE
8
0
10
207.0079141
20
-158.8235199
11
210.2772646
21
-157.2989967
0
LINE
8
0
10
227.9158161
20
-149.074005
11
230.1187626
21
-148.0467542
0
LINE
8
0
10
230.1187626
20
-148.0467542
11
229.2735261
21
-146.2341387
0
LINE
8
0
10
183.5526006
20
-108.5234377
11
207.0079141
21
-158.8235199
0
LINE
8
0
10
198.2062034
20
-96.1734608
11
185.9710481
21
-101.8788075
0
LINE
8
0
10
117.9558516
20
-167.9634084
11
130.4089358
21
-178.4127868
0
LINE
8
0
10
149.8723068
20
-161.8191969
11
150.0508468
21
-161.6064212
0
LINE
8
0
10
150.0508468
20
-161.6064212
11
148.844136
21
-160.5938706
0
LINE
8
0
10
147.6188091
20
-159.5656993
11
144.9174582
21
-157.2989967
0
LINE
8
0
10
127.2789067
20
-149.074005
11
117.3395675
21
-160.9192481
0
LINE
8
0
10
131.0252198
20
-179.0290708
11
143.3142842
21
-193.6746074
0
LINE
8
0
10
153.298404
20
-188.0878392
11
160.3924468
21
-182.1352305
0
LINE
8
0
10
161.0087309
20
-175.0910702
11
149.8723068
21
-161.8191969
0
LINE
8
0
10
148.844136
20
-160.5938706
11
147.8315849
21
-159.3871592
0
LINE
8
0
10
147.8315849
20
-159.3871592
11
147.6188091
21
-159.5656993
0
LINE
8
0
10
144.0156009
20
-194.7754541
11
151.7757364
21
-211.4171183
0
LINE
8
0
10
158.4203666
20
-213.8355657
11
172.4681373
21
-207.2849826
0
LINE
8
0
10
174.8865847
20
-200.6403524
11
168.3360016
21
-186.5925817
0
LINE
8
0
10
161.6913714
20
-184.1741343
11
153.298404
21
-188.0878392
0
LINE
8
0
10
224.785787
20
-178.4127868
11
237.2388712
21
-167.9634084
0
LINE
8
0
10
237.8551553
20
-160.9192481
11
227.9158161
21
-149.074005
0
LINE
8
0
10
210.2772646
20
-157.2989967
11
207.5759137
21
-159.5656993
0
LINE
8
0
10
206.3505868
20
-160.5938706
11
205.143876
21
-161.6064212
0
LINE
8
0
10
205.143876
20
-161.6064212
11
205.322416
21
-161.8191969
0
LINE
8
0
10
211.8804386
20
-193.6746074
11
224.169503
21
-179.0290708
0
LINE
8
0
10
207.5759137
20
-159.5656993
11
207.3631379
21
-159.3871592
0
LINE
8
0
10
207.3631379
20
-159.3871592
11
206.3505868
21
-160.5938706
0
LINE
8
0
10
205.322416
20
-161.8191969
11
194.1859919
21
-175.0910702
0
LINE
8
0
10
194.802276
20
-182.1352305
11
201.8963188
21
-188.0878392
0
LINE
8
0
10
203.4189864
20
-211.4171183
11
211.1791219
21
-194.7754541
0
LINE
8
0
10
201.8963188
20
-188.0878392
11
193.5033514
21
-184.1741343
0
LINE
8
0
10
186.8587212
20
-186.5925817
11
180.3081381
21
-200.6403524
0
LINE
8
0
10
182.7265855
20
-207.2849826
11
196.7743562
21
-213.8355657
0
ARC
8
0
10
49.989237
20
-118.6242015
40
5
50
343.9999976
51
73.9999976
0
ARC
8
0
10
57.5345739
20
-128.5900377
40
5
50
163.9999976
51
253.9999976
0
ARC
8
0
10
72.4341301
20
-132.8624167
40
5
50
253.9999976
51
343.9999976
0
ARC
8
0
10
82.836571
20
-132.864347
40
5
50
68.0000006
51
163.9999976
0
ARC
8
0
10
121.1697897
20
-164.1331862
40
5
50
139.9999988
51
229.9999988
0
ARC
8
0
10
127.1949976
20
-182.243009
40
5
50
40.0000012
51
49.9999988
0
ARC
8
0
10
139.484062
20
-196.8885456
40
5
50
25.0000017
51
40.0000012
0
ARC
8
0
10
156.3072752
20
-209.3040269
40
5
50
205.0000017
51
295.0000017
0
ARC
8
0
10
170.3550459
20
-202.7534438
40
5
50
295.0000017
51
25.0000017
0
ARC
8
0
10
163.8044628
20
-188.7056731
40
5
50
25.0000017
51
115.0000017
0
ARC
8
0
10
157.1785087
20
-178.3050083
40
5
50
310.0000012
51
40.0000012
0
ARC
8
0
10
167.1105833
20
-106.4103463
40
5
50
334.9999983
51
64.9999983
0
ARC
8
0
10
122.276443
20
-78.3318869
40
5
50
64.9999983
51
154.9999983
0
ARC
8
0
10
100.8394304
20
-74.8866224
40
5
50
68.0000006
51
158.0000006
0
ARC
8
0
10
83.4297273
20
-91.2824779
40
5
50
253.9999976
51
338.0000006
0
ARC
8
0
10
48.8472652
20
-91.7691108
40
5
50
73.9999976
51
163.9999976
0
ARC
8
0
10
44.5748862
20
-106.668667
40
5
50
163.9999976
51
253.9999976
0
ARC
8
0
10
310.6198366
20
-106.668667
40
5
50
286.0000024
51
16.0000024
0
ARC
8
0
10
306.3474576
20
-91.7691108
40
5
50
16.0000024
51
106.0000024
0
ARC
8
0
10
271.7649955
20
-91.2824779
40
5
50
201.9999994
51
286.0000024
0
ARC
8
0
10
254.3552924
20
-74.8866224
40
5
50
21.9999994
51
111.9999994
0
ARC
8
0
10
240.017469
20
-69.8941315
40
5
50
205.0000017
51
291.9999994
0
ARC
8
0
10
188.0841395
20
-106.4103463
40
5
50
115.0000017
51
205.0000017
0
ARC
8
0
10
198.0162141
20
-178.3050083
40
5
50
139.9999988
51
229.9999988
0
ARC
8
0
10
191.39026
20
-188.7056731
40
5
50
64.9999983
51
154.9999983
0
ARC
8
0
10
184.8396769
20
-202.7534438
40
5
50
154.9999983
51
244.9999983
0
ARC
8
0
10
198.8874476
20
-209.3040269
40
5
50
244.9999983
51
334.9999983
0
ARC
8
0
10
215.7106608
20
-196.8885456
40
5
50
139.9999988
51
154.9999983
0
ARC
8
0
10
227.9997252
20
-182.243009
40
5
50
130.0000012
51
139.9999988
0
ARC
8
0
10
234.0249331
20
-164.1331862
40
5
50
310.0000012
51
40.0000012
0
ARC
8
0
10
272.3581518
20
-132.864347
40
5
50
16.0000024
51
111.9999994
0
ARC
8
0
10
282.7605927
20
-132.8624167
40
5
50
196.0000024
51
286.0000024
0
ARC
8
0
10
297.6601489
20
-128.5900377
40
5
50
286.0000024
51
16.0000024
0
ARC
8
0
10
305.2054858
20
-118.6242015
40
5
50
106.0000024
51
196.0000024
0
ENDSEC
0
EOF