0
SECTION
2
HEADER
9
$INSUNITS
70
4
0
ENDSEC
0
SECTION
2
TABLES
0
TABLE
2
LTYPE
0
LTYPE
72
65
70
64
2
CONTINUOUS
3
______
73
0
40
0
0
ENDTAB
0
TABLE
2
LAYER
0
ENDTAB
0
ENDSEC
0
SECTION
2
ENTITIES
0
LINE
8
0
10
35.3153733
20
-114.2166776
11
43.3027603
21
-117.1238487
0
LINE
8
0
10
44.0368866
20
-90.2545156
11
79.4781332
21
-103.1540744
0
LINE
8
0
10
37.6283229
20
-93.2428782
11
32.3270108
21
-107.8081139
0
LINE
8
0
10
46.7143343
20
-136.9886711
11
61.27957
21
-142.2899832
0
LINE
8
0
10
67.6881337
20
-139.3016207
11
68.3261536
21
-137.5486752
0
LINE
8
0
10
46.2911229
20
-123.5324124
11
43.7259718
21
-130.5801074
0
LINE
8
0
10
75.2164724
20
-134.7648055
11
89.1236231
21
-141.5477761
0
LINE
8
0
10
89.1236231
20
-141.5477761
11
91.2255365
21
-137.238215
0
LINE
8
0
10
79.4781332
20
-103.1540744
11
90.5339735
21
-80.4862423
0
LINE
8
0
10
111.7518623
20
-85.2718883
11
97.2197994
21
-78.1841277
0
LINE
8
0
10
91.2255365
20
-137.238215
11
101.0728396
21
-142.6966642
0
LINE
8
0
10
134.3445161
20
-97.1116279
11
136.5261594
21
-93.1758392
0
LINE
8
0
10
136.5261594
20
-93.1758392
11
118.5964553
21
-83.237242
0
LINE
8
0
10
111.7993088
20
-85.1862925
11
111.7518623
21
-85.2718883
0
LINE
8
0
10
98.8911962
20
-146.632453
11
106.3254637
21
-150.7533348
0
LINE
8
0
10
101.0728396
20
-142.6966642
11
98.8911962
21
-146.632453
0
LINE
8
0
10
149.5553615
20
-107.8298453
11
150.5249807
21
-106.0806059
0
LINE
8
0
10
150.5249807
20
-106.0806059
11
134.3445161
21
-97.1116279
0
LINE
8
0
10
140.4430893
20
-162.4281286
11
163.3117782
21
-121.1719218
0
LINE
8
0
10
161.3627276
20
-114.3747752
11
149.5553615
21
-107.8298453
0
LINE
8
0
10
295.7311749
20
-117.1238487
11
303.7185619
21
-114.2166776
0
LINE
8
0
10
306.7069244
20
-107.8081139
11
301.4056123
21
-93.2428782
0
LINE
8
0
10
259.555802
20
-103.1540744
11
294.9970486
21
-90.2545156
0
LINE
8
0
10
277.7543652
20
-142.2899832
11
292.3196009
21
-136.9886711
0
LINE
8
0
10
295.3079634
20
-130.5801074
11
292.7428123
21
-123.5324124
0
LINE
8
0
10
270.7077816
20
-137.5486752
11
271.3458015
21
-139.3016207
0
LINE
8
0
10
249.9103121
20
-141.5477761
11
263.8174628
21
-134.7648055
0
LINE
8
0
10
247.8083987
20
-137.238215
11
249.9103121
21
-141.5477761
0
LINE
8
0
10
248.4999617
20
-80.4862423
11
259.555802
21
-103.1540744
0
LINE
8
0
10
241.8141358
20
-78.1841277
11
231.5466913
21
-83.1918949
0
LINE
8
0
10
237.9610956
20
-142.6966642
11
247.8083987
21
-137.238215
0
LINE
8
0
10
224.9817372
20
-81.1219727
11
224.8105783
21
-80.8131939
0
LINE
8
0
10
224.8105783
20
-80.8131939
11
202.5077758
21
-93.1758392
0
LINE
8
0
10
202.5077758
20
-93.1758392
11
204.6894191
21
-97.1116279
0
LINE
8
0
10
232.7084715
20
-150.7533348
11
240.142739
21
-146.632453
0
LINE
8
0
10
240.142739
20
-146.632453
11
237.9610956
21
-142.6966642
0
LINE
8
0
10
204.6894191
20
-97.1116279
11
188.5089545
21
-106.0806059
0
LINE
8
0
10
188.5089545
20
-106.0806059
11
189.4785737
21
-107.8298453
0
LINE
8
0
10
175.722157
20
-121.1719218
11
198.5908459
21
-162.4281286
0
LINE
8
0
10
189.4785737
20
-107.8298453
11
177.6712076
21
-114.3747752
0
LINE
8
0
10
103.6786349
20
-176.154994
11
118.3524961
21
-184.2888481
0
LINE
8
0
10
108.2745143
20
-157.5504814
11
101.7295844
21
-169.3578475
0
LINE
8
0
10
118.5780445
20
-184.4217063
11
133.0437742
21
-193.4608974
0
LINE
8
0
10
143.7309178
20
-185.2644267
11
147.909689
21
-178.5769949
0
LINE
8
0
10
146.319045
20
-171.6871581
11
142.1665914
21
-169.092417
0
LINE
8
0
10
134.8089157
20
-195.3537799
11
142.2172973
21
-209.2869191
0
LINE
8
0
10
148.9793931
20
-211.3542991
11
162.6650807
21
-204.0774899
0
LINE
8
0
10
164.7324607
20
-197.3153941
11
157.4556515
21
-183.6297065
0
LINE
8
0
10
150.6935557
20
-181.5623265
11
143.7309178
21
-185.2644267
0
LINE
8
0
10
220.6814391
20
-184.2888481
11
235.3553003
21
-176.154994
0
LINE
8
0
10
237.3043508
20
-169.3578475
11
230.7594209
21
-157.5504814
0
LINE
8
0
10
205.990161
20
-193.4608974
11
220.4558907
21
-184.4217063
0
LINE
8
0
10
196.8673438
20
-169.092417
11
192.7148902
21
-171.6871581
0
LINE
8
0
10
191.1242462
20
-178.5769949
11
195.3030174
21
-185.2644267
0
LINE
8
0
10
196.8166379
20
-209.2869191
11
204.2250195
21
-195.3537799
0
LINE
8
0
10
195.3030174
20
-185.2644267
11
188.3403795
21
-181.5623265
0
LINE
8
0
10
181.5782837
20
-183.6297065
11
174.3014745
21
-197.3153941
0
LINE
8
0
10
176.3688545
20
-204.0774899
11
190.0545421
21
-211.3542991
0
ARC
8
0
10
302.0084613
20
-109.5182144
40
5
50
289.9999981
51
19.9999981
0
ARC
8
0
10
296.7071491
20
-94.9529788
40
5
50
19.9999981
51
109.9999981
0
ARC
8
0
10
244.0059914
20
-82.6780979
40
5
50
25.9999988
51
115.9999988
0
ARC
8
0
10
229.3548357
20
-78.6979247
40
5
50
208.9999992
51
295.9999988
0
ARC
8
0
10
180.0952556
20
-118.7478737
40
5
50
118.9999992
51
208.9999992
0
ARC
8
0
10
194.2177474
20
-164.8521766
40
5
50
302.0000016
51
28.9999992
0
ARC
8
0
10
195.3644866
20
-175.9273985
40
5
50
122.0000016
51
212.0000016
0
ARC
8
0
10
185.9930216
20
-185.9770644
40
5
50
61.9999983
51
151.9999983
0
ARC
8
0
10
178.7162124
20
-199.662752
40
5
50
151.9999983
51
241.9999983
0
ARC
8
0
10
192.4019
20
-206.9395612
40
5
50
241.9999983
51
331.9999983
0
ARC
8
0
10
208.6397574
20
-197.7011378
40
5
50
122.0000016
51
151.9999983
0
ARC
8
0
10
223.1054871
20
-188.6619467
40
5
50
118.9999992
51
122.0000016
0
ARC
8
0
10
232.9312523
20
-171.7818955
40
5
50
298.9999992
51
28.9999992
0
ARC
8
0
10
235.1325195
20
-155.1264333
40
5
50
118.9999992
51
208.9999992
0
ARC
8
0
10
266.0093184
20
-139.2587758
40
5
50
19.9999981
51
115.9999988
0
ARC
8
0
10
276.0442647
20
-137.5915201
40
5
50
199.9999981
51
289.9999981
0
ARC
8
0
10
290.6095003
20
-132.2902079
40
5
50
289.9999981
51
19.9999981
0
ARC
8
0
10
297.4412754
20
-121.8223118
40
5
50
109.9999981
51
199.9999981
0
ARC
8
0
10
41.5926598
20
-121.8223118
40
5
50
340.0000019
51
70.0000019
0
ARC
8
0
10
48.4244349
20
-132.2902079
40
5
50
160.0000019
51
250.0000019
0
ARC
8
0
10
62.9896705
20
-137.5915201
40
5
50
250.0000019
51
340.0000019
0
ARC
8
0
10
73.0246168
20
-139.2587758
40
5
50
64.0000012
51
160.0000019
0
ARC
8
0
10
103.9014157
20
-155.1264333
40
5
50
331.0000008
51
61.0000008
0
ARC
8
0
10
106.1026829
20
-171.7818955
40
5
50
151.0000008
51
241.0000008
0
ARC
8
0
10
115.9284481
20
-188.6619467
40
5
50
57.9999984
51
61.0000008
0
ARC
8
0
10
130.3941778
20
-197.7011378
40
5
50
28.0000017
51
57.9999984
0
ARC
8
0
10
146.6320352
20
-206.9395612
40
5
50
208.0000017
51
298.0000017
0
ARC
8
0
10
160.3177228
20
-199.662752
40
5
50
298.0000017
51
28.0000017
0
ARC
8
0
10
153.0409136
20
-185.9770644
40
5
50
28.0000017
51
118.0000017
0
ARC
8
0
10
143.6694486
20
-175.9273985
40
5
50
327.9999984
51
57.9999984
0
ARC
8
0
10
144.8161878
20
-164.8521766
40
5
50
151.0000008
51
237.9999984
0
ARC
8
0
10
158.9386796
20
-118.7478737
40
5
50
331.0000008
51
61.0000008
0
ARC
8
0
10
116.1724073
20
-87.6103405
40
5
50
61.0000008
51
151.0000008
0
ARC
8
0
10
95.0279438
20
-82.6780979
40
5
50
64.0000012
51
154.0000012
0
ARC
8
0
10
42.3267861
20
-94.9529788
40
5
50
70.0000019
51
160.0000019
0
ARC
8
0
10
37.0254739
20
-109.5182144
40
5
50
160.0000019
51
250.0000019
0
ENDSEC
0
EOF