0
SECTION
2
HEADER
9
$INSUNITS
70
4
0
ENDSEC
0
SECTION
2
TABLES
0
TABLE
2
LTYPE
0
LTYPE
72
65
70
64
2
CONTINUOUS
3
______
73
0
40
0
0
ENDTAB
0
TABLE
2
LAYER
0
ENDTAB
0
ENDSEC
0
SECTION
2
ENTITIES
0
LINE
8
0
10
33.4785656
20
-106.7640011
11
37.8393224
21
-94.7829202
0
LINE
8
0
10
44.2478861
20
-91.7945576
11
74.9360478
21
-102.964135
0
LINE
8
0
10
81.1043399
20
-100.5294139
11
91.0134616
21
-81.0144879
0
LINE
8
0
10
96.5698032
20
-78.4003137
11
113.4917176
21
-82.209891
0
LINE
8
0
10
114.8176156
20
-82.7147086
11
134.8442417
21
-93.8156488
0
LINE
8
0
10
135.5643402
20
-94.3010304
11
161.1708387
21
-115.0099933
0
LINE
8
0
10
162.3997907
20
-121.3217583
11
158.5124851
21
-128.3346432
0
LINE
8
0
10
161.632009
20
-203.8056707
11
149.1982388
21
-210.4168235
0
LINE
8
0
10
142.8661192
20
-209.0222967
11
127.5750067
21
-188.8477355
0
LINE
8
0
10
126.0831991
20
-187.5337591
11
104.6128478
21
-175.1843616
0
LINE
8
0
10
102.5894431
20
-168.7048295
11
108.6407839
21
-155.9656056
0
LINE
8
0
10
106.4331683
20
-149.3852068
11
80.7891671
21
-136.0357846
0
LINE
8
0
10
75.8487951
20
-136.2194239
11
67.8294631
21
-141.1833965
0
LINE
8
0
10
63.4877336
20
-141.6304447
11
47.8658892
21
-135.9445583
0
LINE
8
0
10
44.8775266
20
-129.5359946
11
47.4426777
21
-122.4882996
0
LINE
8
0
10
44.4543151
20
-116.0797359
11
36.4669282
21
-113.1725648
0
LINE
8
0
10
305.5553696
20
-106.7640011
11
301.1946128
21
-94.7829202
0
LINE
8
0
10
294.7860491
20
-91.7945576
11
264.0978874
21
-102.964135
0
LINE
8
0
10
257.9295953
20
-100.5294139
11
248.0204736
21
-81.0144879
0
LINE
8
0
10
242.464132
20
-78.4003137
11
225.5422176
21
-82.209891
0
LINE
8
0
10
224.2163196
20
-82.7147086
11
204.1896935
21
-93.8156488
0
LINE
8
0
10
203.469595
20
-94.3010304
11
177.8630965
21
-115.0099933
0
LINE
8
0
10
176.6341445
20
-121.3217583
11
180.5214501
21
-128.3346432
0
LINE
8
0
10
177.4019262
20
-203.8056707
11
189.8356964
21
-210.4168235
0
LINE
8
0
10
196.167816
20
-209.0222967
11
211.4589285
21
-188.8477355
0
LINE
8
0
10
212.9507361
20
-187.5337591
11
234.4210874
21
-175.1843616
0
LINE
8
0
10
236.4444921
20
-168.7048295
11
230.3931513
21
-155.9656056
0
LINE
8
0
10
232.6007669
20
-149.3852068
11
258.2447681
21
-136.0357846
0
LINE
8
0
10
263.1851401
20
-136.2194239
11
271.2044721
21
-141.1833965
0
LINE
8
0
10
275.5462016
20
-141.6304447
11
291.168046
21
-135.9445583
0
LINE
8
0
10
294.1564086
20
-129.5359946
11
291.5912575
21
-122.4882996
0
LINE
8
0
10
294.5796201
20
-116.0797359
11
302.567007
21
-113.1725648
0
LINE
8
0
10
162.8855837
20
-135.7586912
11
176.1483515
21
-135.7586912
0
LINE
8
0
10
175.0545683
20
-203.2204086
11
163.9793669
21
-203.2204086
0
ARC
8
0
10
42.5377856
20
-96.4930207
40
5
50
70.0000019
51
160.0000019
0
ARC
8
0
10
76.6461483
20
-98.2656718
40
5
50
250.0000019
51
333.0798439
0
ARC
8
0
10
95.4716532
20
-83.2782299
40
5
50
77.3126974
51
153.0798439
0
ARC
8
0
10
112.3935676
20
-87.0878072
40
5
50
61.0000008
51
77.3126974
0
ARC
8
0
10
132.4201937
20
-98.1887474
40
5
50
51.0361975
51
61.0000008
0
ARC
8
0
10
158.0266922
20
-118.8977103
40
5
50
331.0000008
51
51.0361975
0
ARC
8
0
10
162.8855837
20
-130.7586912
40
5
50
151.0000008
51
270
0
ARC
8
0
10
176.1483515
20
-130.7586912
40
5
50
270
51
28.9999992
0
ARC
8
0
10
181.007243
20
-118.8977103
40
5
50
128.9638025
51
208.9999992
0
ARC
8
0
10
206.6137415
20
-98.1887474
40
5
50
118.9999992
51
128.9638025
0
ARC
8
0
10
226.6403676
20
-87.0878072
40
5
50
102.6873026
51
118.9999992
0
ARC
8
0
10
243.562282
20
-83.2782299
40
5
50
26.9201561
51
102.6873026
0
ARC
8
0
10
262.3877869
20
-98.2656718
40
5
50
206.9201561
51
289.9999981
0
ARC
8
0
10
296.4961496
20
-96.4930207
40
5
50
19.9999981
51
109.9999981
0
ARC
8
0
10
300.8569065
20
-108.4741016
40
5
50
289.9999981
51
19.9999981
0
ARC
8
0
10
296.2897206
20
-120.7781991
40
5
50
109.9999981
51
199.9999981
0
ARC
8
0
10
289.4579455
20
-131.2460951
40
5
50
289.9999981
51
19.9999981
0
ARC
8
0
10
273.8361011
20
-136.9319815
40
5
50
238.2424621
51
289.9999981
0
ARC
8
0
10
260.5535112
20
-140.4708388
40
5
50
58.2424621
51
117.5000002
0
ARC
8
0
10
234.90951
20
-153.820261
40
5
50
117.5000002
51
205.4084863
0
ARC
8
0
10
231.9281334
20
-170.8501741
40
5
50
299.9068112
51
25.4084863
0
ARC
8
0
10
215.4436901
20
-191.8679466
40
5
50
119.9068112
51
142.8400481
0
ARC
8
0
10
192.1830544
20
-206.0020856
40
5
50
241.9999983
51
322.8400481
0
ARC
8
0
10
175.0545683
20
-208.2204086
40
5
50
61.9999983
51
90
0
ARC
8
0
10
163.9793669
20
-208.2204086
40
5
50
90
51
118.0000017
0
ARC
8
0
10
146.8508808
20
-206.0020856
40
5
50
217.1599519
51
298.0000017
0
ARC
8
0
10
123.5902451
20
-191.8679466
40
5
50
37.1599519
51
60.0931888
0
ARC
8
0
10
107.1058018
20
-170.8501741
40
5
50
154.5915137
51
240.0931888
0
ARC
8
0
10
104.1244252
20
-153.820261
40
5
50
334.5915137
51
62.4999998
0
ARC
8
0
10
78.480424
20
-140.4708388
40
5
50
62.4999998
51
121.7575379
0
ARC
8
0
10
65.1978341
20
-136.9319815
40
5
50
250.0000019
51
301.7575379
0
ARC
8
0
10
49.5759897
20
-131.2460951
40
5
50
160.0000019
51
250.0000019
0
ARC
8
0
10
42.7442146
20
-120.7781991
40
5
50
340.0000019
51
70.0000019
0
ARC
8
0
10
38.1770287
20
-108.4741016
40
5
50
160.0000019
51
250.0000019
0
ENDSEC
0
EOF