0
SECTION
2
HEADER
9
$INSUNITS
70
4
0
ENDSEC
0
SECTION
2
TABLES
0
TABLE
2
LTYPE
0
LTYPE
72
65
70
64
2
CONTINUOUS
3
______
73
0
40
0
0
ENDTAB
0
TABLE
2
LAYER
0
ENDTAB
0
ENDSEC
0
SECTION
2
ENTITIES
0
LINE
8
0
10
36.2618492
20
-105.8510488
11
40.3074836
21
-93.7599222
0
LINE
8
0
10
46.6356252
20
-90.6048273
11
62.231555
21
-95.8231525
0
LINE
8
0
10
66.7939329
20
-95.0995301
11
93.3132785
21
-75.4584654
0
LINE
8
0
10
97.2592174
20
-74.5714704
11
115.9221351
21
-78.2625292
0
LINE
8
0
10
117.2607937
20
-78.732466
11
137.5711467
21
-89.3053665
0
LINE
8
0
10
138.303704
20
-89.7717317
11
164.4435246
21
-109.8032977
0
LINE
8
0
10
165.8372784
20
-116.0807297
11
161.5445145
21
-124.3270526
0
LINE
8
0
10
170.9428381
20
-206.7888015
11
155.3837755
21
-213.2335762
0
LINE
8
0
10
149.2366138
20
-211.274142
11
134.3193175
21
-187.5309517
0
LINE
8
0
10
132.8821593
20
-186.046147
11
110.4314781
21
-170.8980692
0
LINE
8
0
10
108.2890109
20
-167.5316004
11
104.6965356
21
-144.7339105
0
LINE
8
0
10
101.9493381
20
-141.0182399
11
94.4730983
21
-137.3718341
0
LINE
8
0
10
91.4392773
20
-136.9372045
11
70.7113886
21
-140.4782011
0
LINE
8
0
10
68.2829001
20
-140.2912196
11
51.4081002
21
-134.6449906
0
LINE
8
0
10
48.2530053
20
-128.3168489
11
50.6327902
21
-121.2044217
0
LINE
8
0
10
47.4776953
20
-114.8762801
11
39.4169441
21
-112.1791904
0
LINE
8
0
10
309.4506612
20
-105.8510488
11
305.4050268
21
-93.7599222
0
LINE
8
0
10
299.0768852
20
-90.6048273
11
283.4809554
21
-95.8231525
0
LINE
8
0
10
278.9185775
20
-95.0995301
11
252.3992319
21
-75.4584654
0
LINE
8
0
10
248.453293
20
-74.5714704
11
229.7903753
21
-78.2625292
0
LINE
8
0
10
228.4517167
20
-78.732466
11
208.1413637
21
-89.3053665
0
LINE
8
0
10
207.4088064
20
-89.7717317
11
181.2689858
21
-109.8032977
0
LINE
8
0
10
179.875232
20
-116.0807297
11
184.167996
21
-124.3270526
0
LINE
8
0
10
174.7696723
20
-206.7888015
11
190.3287349
21
-213.2335762
0
LINE
8
0
10
196.4758966
20
-211.274142
11
211.3931929
21
-187.5309517
0
LINE
8
0
10
212.8303511
20
-186.046147
11
235.2810323
21
-170.8980692
0
LINE
8
0
10
237.4234995
20
-167.5316004
11
241.0159748
21
-144.7339105
0
LINE
8
0
10
243.7631723
20
-141.0182399
11
251.2394121
21
-137.3718341
0
LINE
8
0
10
254.2732331
20
-136.9372045
11
275.0011218
21
-140.4782011
0
LINE
8
0
10
277.4296103
20
-140.2912196
11
294.3044102
21
-134.6449906
0
LINE
8
0
10
297.4595051
20
-128.3168489
11
295.0797202
21
-121.2044217
0
LINE
8
0
10
298.2348151
20
-114.8762801
11
306.2955663
21
-112.1791904
0
LINE
8
0
10
165.9795686
20
-131.6357957
11
179.7329418
21
-131.6357957
0
ARC
8
0
10
45.0491018
20
-95.3464456
40
5
50
71.4999984
51
161.4999984
0
ARC
8
0
10
63.8180785
20
-91.0815342
40
5
50
251.4999984
51
306.5248146
0
ARC
8
0
10
96.2891329
20
-79.4764613
40
5
50
78.8127008
51
126.5248146
0
ARC
8
0
10
114.9520506
20
-83.1675202
40
5
50
62.4999998
51
78.8127008
0
ARC
8
0
10
135.2624036
20
-93.7404207
40
5
50
52.5361981
51
62.4999998
0
ARC
8
0
10
161.4022242
20
-113.7719866
40
5
50
332.4999998
51
52.5361981
0
ARC
8
0
10
165.9795686
20
-126.6357957
40
5
50
152.4999998
51
270
0
ARC
8
0
10
179.7329418
20
-126.6357957
40
5
50
270
51
27.5000002
0
ARC
8
0
10
184.3102862
20
-113.7719866
40
5
50
127.4638019
51
207.5000002
0
ARC
8
0
10
210.4501068
20
-93.7404207
40
5
50
117.5000002
51
127.4638019
0
ARC
8
0
10
230.7604598
20
-83.1675202
40
5
50
101.1872992
51
117.5000002
0
ARC
8
0
10
249.4233775
20
-79.4764613
40
5
50
53.4751854
51
101.1872992
0
ARC
8
0
10
281.8944319
20
-91.0815342
40
5
50
233.4751854
51
288.5000016
0
ARC
8
0
10
300.6634086
20
-95.3464456
40
5
50
18.5000016
51
108.5000016
0
ARC
8
0
10
304.7090429
20
-107.4375722
40
5
50
288.5000016
51
18.5000016
0
ARC
8
0
10
299.8213385
20
-119.6178983
40
5
50
108.5000016
51
198.5000016
0
ARC
8
0
10
292.7178868
20
-129.9033723
40
5
50
288.5000016
51
18.5000016
0
ARC
8
0
10
275.8430868
20
-135.5496014
40
5
50
260.3056018
51
288.5000016
0
ARC
8
0
10
253.4312681
20
-141.8658041
40
5
50
80.3056018
51
116.0000039
0
ARC
8
0
10
245.9550283
20
-145.51221
40
5
50
116.0000039
51
171.0449296
0
ARC
8
0
10
232.4844459
20
-166.7533008
40
5
50
304.0085961
51
351.0449296
0
ARC
8
0
10
215.6269375
20
-190.1909153
40
5
50
124.0085961
51
147.8598061
0
ARC
8
0
10
192.242152
20
-208.6141785
40
5
50
247.500001
51
327.8598061
0
ARC
8
0
10
172.8562552
20
-211.4081992
40
5
50
67.500001
51
112.499999
0
ARC
8
0
10
153.4703584
20
-208.6141785
40
5
50
212.1401939
51
292.499999
0
ARC
8
0
10
130.0855729
20
-190.1909153
40
5
50
32.1401939
51
55.9914039
0
ARC
8
0
10
113.2280645
20
-166.7533008
40
5
50
188.9550704
51
235.9914039
0
ARC
8
0
10
99.7574821
20
-145.51221
40
5
50
8.9550704
51
63.9999961
0
ARC
8
0
10
92.2812423
20
-141.8658041
40
5
50
63.9999961
51
99.6943982
0
ARC
8
0
10
69.8694236
20
-135.5496014
40
5
50
251.4999984
51
279.6943982
0
ARC
8
0
10
52.9946236
20
-129.9033723
40
5
50
161.4999984
51
251.4999984
0
ARC
8
0
10
45.8911719
20
-119.6178983
40
5
50
341.4999984
51
71.4999984
0
ARC
8
0
10
41.0034675
20
-107.4375722
40
5
50
161.4999984
51
251.4999984
0
ENDSEC
0
EOF