0
SECTION
2
HEADER
9
$INSUNITS
70
4
0
ENDSEC
0
SECTION
2
TABLES
0
TABLE
2
LTYPE
0
LTYPE
72
65
70
64
2
CONTINUOUS
3
______
73
0
40
0
0
ENDTAB
0
TABLE
2
LAYER
0
ENDTAB
0
ENDSEC
0
SECTION
2
ENTITIES
0
LINE
8
0
10
55.5112882
20
-125.669196
11
68.1906067
21
-81.451158
0
LINE
8
0
10
74.3751021
20
-78.0230366
11
88.4468881
21
-82.0580563
0
LINE
8
0
10
94.3995757
20
-79.2701494
11
100.3781223
21
-65.7203845
0
LINE
8
0
10
105.8043664
20
-62.8118668
11
124.2997408
21
-66.0092628
0
LINE
8
0
10
125.5610887
20
-66.4046431
11
146.3499537
21
-76.0986501
0
LINE
8
0
10
147.0356828
20
-76.4869289
11
150.1159406
21
-78.5676788
0
LINE
8
0
10
156.3645092
20
-146.6563506
11
153.3673316
21
-153.0838187
0
LINE
8
0
10
153.3582529
20
-157.2904221
11
171.5874587
21
-196.8277447
0
LINE
8
0
10
168.3409363
20
-203.7508858
11
151.0781185
21
-208.3764439
0
LINE
8
0
10
145.2524846
20
-205.6599062
11
122.1844127
21
-156.1902662
0
LINE
8
0
10
121.7311264
20
-154.4664283
11
120.3103794
21
-136.2721801
0
LINE
8
0
10
117.4386458
20
-132.1298947
11
100.8584233
21
-124.39841
0
LINE
8
0
10
96.0013554
20
-124.7501649
11
79.1207619
21
-135.8320652
0
LINE
8
0
10
74.9985985
20
-136.4585898
11
58.9394097
21
-131.8536914
0
LINE
8
0
10
330.459207
20
-125.669196
11
317.7798885
21
-81.451158
0
LINE
8
0
10
311.5953931
20
-78.0230366
11
297.5236071
21
-82.0580563
0
LINE
8
0
10
291.5709195
20
-79.2701494
11
285.5923729
21
-65.7203845
0
LINE
8
0
10
280.1661288
20
-62.8118668
11
261.6707544
21
-66.0092628
0
LINE
8
0
10
260.4094065
20
-66.4046431
11
239.2623304
21
-76.2656867
0
LINE
8
0
10
239.2623304
20
-76.2656867
11
235.8545546
21
-78.5676788
0
LINE
8
0
10
229.605986
20
-146.6563506
11
232.6031636
21
-153.0838187
0
LINE
8
0
10
232.6122423
20
-157.2904221
11
214.3830365
21
-196.8277447
0
LINE
8
0
10
217.6295589
20
-203.7508858
11
234.8923767
21
-208.3764439
0
LINE
8
0
10
240.7180106
20
-205.6599062
11
263.7860825
21
-156.1902662
0
LINE
8
0
10
264.2393688
20
-154.4664283
11
265.6601158
21
-136.2721801
0
LINE
8
0
10
268.5318494
20
-132.1298947
11
285.1120719
21
-124.39841
0
LINE
8
0
10
289.9691398
20
-124.7501649
11
306.8497333
21
-135.8320652
0
LINE
8
0
10
310.9718967
20
-136.4585898
11
327.0310855
21
-131.8536914
0
LINE
8
0
10
157.822104
20
-75.3825342
11
159.5756336
21
-66.4011843
0
LINE
8
0
10
164.4829765
20
-62.3592998
11
221.4875187
21
-62.3592998
0
LINE
8
0
10
226.3948616
20
-66.4011843
11
228.1483912
21
-75.3825342
0
LINE
8
0
10
225.0744472
20
-143.769442
11
160.896048
21
-143.769442
0
ARC
8
0
10
72.9969151
20
-82.829345
40
5
50
73.9999976
51
163.9999976
0
ARC
8
0
10
89.8250751
20
-77.2517479
40
5
50
253.9999976
51
336.1915454
0
ARC
8
0
10
104.9526228
20
-67.738786
40
5
50
80.1919057
51
156.1915454
0
ARC
8
0
10
123.4479972
20
-70.936182
40
5
50
64.9999983
51
80.1919057
0
ARC
8
0
10
144.2368623
20
-80.630189
40
5
50
55.9605144
51
64.9999983
0
ARC
8
0
10
152.9147611
20
-74.4244187
40
5
50
235.9605144
51
348.9524785
0
ARC
8
0
10
164.4829765
20
-67.3592998
40
5
50
90
51
168.9524785
0
ARC
8
0
10
221.4875187
20
-67.3592998
40
5
50
11.0475215
51
90
0
ARC
8
0
10
233.0557341
20
-74.4244187
40
5
50
191.0475215
51
304.0394856
0
ARC
8
0
10
262.522498
20
-70.936182
40
5
50
99.8080943
51
115.0000017
0
ARC
8
0
10
281.0178724
20
-67.738786
40
5
50
23.8084546
51
99.8080943
0
ARC
8
0
10
296.1454201
20
-77.2517479
40
5
50
203.8084546
51
286.0000024
0
ARC
8
0
10
312.9735801
20
-82.829345
40
5
50
16.0000024
51
106.0000024
0
ARC
8
0
10
325.6528985
20
-127.047383
40
5
50
286.0000024
51
16.0000024
0
ARC
8
0
10
309.5937097
20
-131.6522813
40
5
50
236.7155963
51
286.0000024
0
ARC
8
0
10
287.2251633
20
-128.9299489
40
5
50
56.7155963
51
115.0000017
0
ARC
8
0
10
270.6449409
20
-136.6614336
40
5
50
115.0000017
51
175.5349653
0
ARC
8
0
10
259.2545437
20
-154.0771748
40
5
50
334.9999983
51
355.5349653
0
ARC
8
0
10
236.1864717
20
-203.5468148
40
5
50
255.0000021
51
334.9999983
0
ARC
8
0
10
218.923654
20
-198.9212567
40
5
50
155.2473082
51
255.0000021
0
ARC
8
0
10
228.0716248
20
-155.1969101
40
5
50
335.2473082
51
25.0000017
0
ARC
8
0
10
225.0744472
20
-148.769442
40
5
50
25.0000017
51
90
0
ARC
8
0
10
160.896048
20
-148.769442
40
5
50
90
51
154.9999983
0
ARC
8
0
10
157.8988704
20
-155.1969101
40
5
50
154.9999983
51
204.7526918
0
ARC
8
0
10
167.0468412
20
-198.9212567
40
5
50
284.9999979
51
24.7526918
0
ARC
8
0
10
149.7840235
20
-203.5468148
40
5
50
205.0000017
51
284.9999979
0
ARC
8
0
10
126.7159515
20
-154.0771748
40
5
50
184.4650347
51
205.0000017
0
ARC
8
0
10
115.3255543
20
-136.6614336
40
5
50
4.4650347
51
64.9999983
0
ARC
8
0
10
98.7453319
20
-128.9299489
40
5
50
64.9999983
51
123.2844037
0
ARC
8
0
10
76.3767855
20
-131.6522813
40
5
50
253.9999976
51
303.2844037
0
ARC
8
0
10
60.3175967
20
-127.047383
40
5
50
163.9999976
51
253.9999976
0
ENDSEC
0
EOF