<svg width="272.68mm" height="132.724mm" viewBox="0 0 272.68 132.724" xmlns="http://www.w3.org/2000/svg"><g id="svgGroup" stroke-linecap="round" fill-rule="evenodd" font-size="9pt" stroke="#000" stroke-width="0.25mm" fill="none" style="stroke:#000;stroke-width:0.25mm;fill:none"><path d="M 0.302 28.486 L 4.662 16.505 A 5 5 0 0 1 11.071 13.516 L 41.759 24.686 A 5 5 0 0 0 47.927 22.251 L 57.836 2.736 A 5 5 0 0 1 63.393 0.122 L 80.315 3.932 A 5 5 0 0 1 81.641 4.436 L 101.667 15.537 A 5 5 0 0 1 102.387 16.023 L 127.994 36.732 A 5 5 0 0 1 129.223 43.044 L 125.335 50.056 A 5 5 0 0 0 129.709 57.48 L 142.971 57.48 A 5 5 0 0 0 147.344 50.056 L 143.457 43.044 A 5 5 0 0 1 144.686 36.732 L 170.293 16.023 A 5 5 0 0 1 171.013 15.537 L 191.039 4.436 A 5 5 0 0 1 192.365 3.932 L 209.287 0.122 A 5 5 0 0 1 214.843 2.736 L 224.753 22.251 A 5 5 0 0 0 230.921 24.686 L 261.609 13.516 A 5 5 0 0 1 268.018 16.505 L 272.378 28.486 A 5 5 0 0 1 269.39 34.894 L 261.403 37.802 A 5 5 0 0 0 258.414 44.21 L 260.979 51.258 A 5 5 0 0 1 257.991 57.666 L 242.369 63.352 A 5 5 0 0 1 238.027 62.905 L 230.008 57.941 A 5 5 0 0 0 225.068 57.758 L 199.424 71.107 A 5 5 0 0 0 197.216 77.687 L 203.267 90.427 A 5 5 0 0 1 201.244 96.906 L 179.774 109.256 A 5 5 0 0 0 178.282 110.57 L 162.991 130.744 A 5 5 0 0 1 156.659 132.139 L 144.225 125.527 A 5 5 0 0 0 141.878 124.942 L 130.802 124.942 A 5 5 0 0 0 128.455 125.527 L 116.021 132.139 A 5 5 0 0 1 109.689 130.744 L 94.398 110.57 A 5 5 0 0 0 92.906 109.256 L 71.436 96.906 A 5 5 0 0 1 69.412 90.427 L 75.464 77.687 A 5 5 0 0 0 73.256 71.107 L 47.612 57.758 A 5 5 0 0 0 42.672 57.941 L 34.652 62.905 A 5 5 0 0 1 30.311 63.352 L 14.689 57.666 A 5 5 0 0 1 11.7 51.258 L 14.266 44.21 A 5 5 0 0 0 11.277 37.802 L 3.29 34.894 A 5 5 0 0 1 0.302 28.486 Z" vector-effect="non-scaling-stroke"/></g></svg>