0
SECTION
2
HEADER
9
$INSUNITS
70
4
0
ENDSEC
0
SECTION
2
TABLES
0
TABLE
2
LTYPE
0
LTYPE
72
65
70
64
2
CONTINUOUS
3
______
73
0
40
0
0
ENDTAB
0
TABLE
2
LAYER
0
ENDTAB
0
ENDSEC
0
SECTION
2
ENTITIES
0
LINE
8
0
10
-13.0511458
20
-1.9792908
11
-0.3718273
21
42.2387472
0
LINE
8
0
10
5.8126681
20
45.6668686
11
19.8844542
21
41.6318489
0
LINE
8
0
10
25.8371417
20
44.4197558
11
31.8156882
21
57.9695206
0
LINE
8
0
10
37.2419323
20
60.8780383
11
55.7373069
21
57.6806423
0
LINE
8
0
10
56.9986549
20
57.2852619
11
77.7920564
21
47.5891395
0
LINE
8
0
10
78.4695349
20
47.2064221
11
81.5919905
21
45.1062036
0
LINE
8
0
10
88.2804747
20
-48.5780439
11
98.7987962
21
-74.8663032
0
LINE
8
0
10
95.4506916
20
-81.5533454
11
82.9688383
21
-84.8978479
0
LINE
8
0
10
77.1432044
20
-82.1813102
11
54.0538884
21
-32.666112
0
LINE
8
0
10
53.6091408
20
-31.0394086
11
51.79831
21
-12.5126075
0
LINE
8
0
10
48.935115
20
-8.4674567
11
32.2959893
21
-0.7085049
0
LINE
8
0
10
27.4389214
20
-1.0602598
11
10.5583279
21
-12.14216
0
LINE
8
0
10
6.4361645
20
-12.7686846
11
-9.6230243
21
-8.1637862
0
LINE
8
0
10
262.8030806
20
-1.9792908
11
250.1237621
21
42.2387472
0
LINE
8
0
10
243.9392667
20
45.6668686
11
229.8674806
21
41.6318489
0
LINE
8
0
10
223.9147931
20
44.4197558
11
217.9362466
21
57.9695206
0
LINE
8
0
10
212.5100025
20
60.8780383
11
194.0146279
21
57.6806423
0
LINE
8
0
10
192.7532799
20
57.2852619
11
171.6062041
21
47.4242185
0
LINE
8
0
10
171.6062041
20
47.4242185
11
168.1599443
21
45.1062036
0
LINE
8
0
10
161.4714601
20
-48.5780439
11
150.9531386
21
-74.8663032
0
LINE
8
0
10
154.3012432
20
-81.5533454
11
166.7830965
21
-84.8978479
0
LINE
8
0
10
172.6087304
20
-82.1813102
11
195.6980464
21
-32.666112
0
LINE
8
0
10
196.142794
20
-31.0394086
11
197.9536248
21
-12.5126075
0
LINE
8
0
10
200.8168198
20
-8.4674567
11
217.4559455
21
-0.7085049
0
LINE
8
0
10
222.3130134
20
-1.0602598
11
239.1936069
21
-12.14216
0
LINE
8
0
10
243.3157703
20
-12.7686846
11
259.3749591
21
-8.1637862
0
LINE
8
0
10
89.1455331
20
47.733811
11
94.8423393
21
65.5707033
0
LINE
8
0
10
99.6053119
20
69.0494893
11
150.1466229
21
69.0494893
0
LINE
8
0
10
154.9095955
20
65.5707033
11
160.6064017
21
47.733811
0
LINE
8
0
10
156.8292605
20
-41.7206309
11
92.9226743
21
-41.7206309
0
ARC
8
0
10
4.4344811
20
40.8605602
40
5
50
73.9999976
51
163.9999976
0
ARC
8
0
10
21.2626411
20
46.4381573
40
5
50
253.9999976
51
336.1915454
0
ARC
8
0
10
36.3901888
20
55.951119
40
5
50
80.1919067
51
156.1915454
0
ARC
8
0
10
54.8855635
20
52.7537231
40
5
50
64.9999983
51
80.1919067
0
ARC
8
0
10
75.678965
20
43.0576007
40
5
50
56.0745322
51
64.9999983
0
ARC
8
0
10
84.3825604
20
49.255025
40
5
50
236.0745322
51
342.2873849
0
ARC
8
0
10
99.6053119
20
64.0494893
40
5
50
90
51
162.2873849
0
ARC
8
0
10
150.1466229
20
64.0494893
40
5
50
17.7126151
51
90
0
ARC
8
0
10
165.3693744
20
49.255025
40
5
50
197.7126151
51
303.9254678
0
ARC
8
0
10
194.8663713
20
52.7537231
40
5
50
99.8080933
51
115.0000017
0
ARC
8
0
10
213.361746
20
55.951119
40
5
50
23.8084546
51
99.8080933
0
ARC
8
0
10
228.4892937
20
46.4381573
40
5
50
203.8084546
51
286.0000024
0
ARC
8
0
10
245.3174537
20
40.8605602
40
5
50
16.0000024
51
106.0000024
0
ARC
8
0
10
257.9967721
20
-3.3574778
40
5
50
286.0000024
51
16.0000024
0
ARC
8
0
10
241.9375833
20
-7.9623761
40
5
50
236.7155963
51
286.0000024
0
ARC
8
0
10
219.5690369
20
-5.2400438
40
5
50
56.7155963
51
115.0000017
0
ARC
8
0
10
202.9299112
20
-12.9989955
40
5
50
115.0000017
51
174.4175761
0
ARC
8
0
10
191.1665076
20
-30.5530206
40
5
50
334.9999983
51
354.4175761
0
ARC
8
0
10
168.0771915
20
-80.0682188
40
5
50
255.0000021
51
334.9999983
0
ARC
8
0
10
155.5953382
20
-76.7237162
40
5
50
158.1929175
51
255.0000021
0
ARC
8
0
10
156.8292605
20
-46.7206309
40
5
50
338.1929175
51
90
0
ARC
8
0
10
92.9226743
20
-46.7206309
40
5
50
90
51
201.8070825
0
ARC
8
0
10
94.1565966
20
-76.7237162
40
5
50
284.9999979
51
21.8070825
0
ARC
8
0
10
81.6747433
20
-80.0682188
40
5
50
205.0000017
51
284.9999979
0
ARC
8
0
10
58.5854272
20
-30.5530206
40
5
50
185.5824239
51
205.0000017
0
ARC
8
0
10
46.8220236
20
-12.9989955
40
5
50
5.5824239
51
64.9999983
0
ARC
8
0
10
30.1828979
20
-5.2400438
40
5
50
64.9999983
51
123.2844037
0
ARC
8
0
10
7.8143515
20
-7.9623761
40
5
50
253.9999976
51
303.2844037
0
ARC
8
0
10
-8.2448373
20
-3.3574778
40
5
50
163.9999976
51
253.9999976
0
ENDSEC
0
EOF