<svg width="275.335mm" height="146.188mm" viewBox="0 0 275.335 146.188" xmlns="http://www.w3.org/2000/svg"><g id="svgGroup" stroke-linecap="round" fill-rule="evenodd" font-size="9pt" stroke="#000" stroke-width="0.25mm" fill="none" style="stroke:#000;stroke-width:0.25mm;fill:none"><path d="M 0.194 63.31 L 12.873 19.092 A 5 5 0 0 1 19.058 15.664 L 33.129 19.699 A 5 5 0 0 0 39.082 16.911 L 45.061 3.361 A 5 5 0 0 1 50.487 0.453 L 68.982 3.65 A 5 5 0 0 1 70.243 4.045 L 91.032 13.739 A 5 5 0 0 1 91.718 14.128 L 94.798 16.208 A 5 5 0 0 0 102.505 13.023 L 104.258 4.042 A 5 5 0 0 1 109.165 0 L 166.17 0 A 5 5 0 0 1 171.077 4.042 L 172.831 13.023 A 5 5 0 0 0 180.537 16.208 L 183.945 13.906 L 205.092 4.045 A 5 5 0 0 1 206.353 3.65 L 224.849 0.453 A 5 5 0 0 1 230.275 3.361 L 236.253 16.911 A 5 5 0 0 0 242.206 19.699 L 256.278 15.664 A 5 5 0 0 1 262.462 19.092 L 275.142 63.31 A 5 5 0 0 1 271.713 69.494 L 255.654 74.099 A 5 5 0 0 1 251.532 73.473 L 234.652 62.391 A 5 5 0 0 0 229.794 62.039 L 213.214 69.771 A 5 5 0 0 0 210.343 73.913 L 208.922 92.107 A 5 5 0 0 1 208.468 93.831 L 185.4 143.301 A 5 5 0 0 1 179.575 146.017 L 162.312 141.392 A 5 5 0 0 1 159.065 134.468 L 177.295 94.931 A 5 5 0 0 0 177.286 90.725 L 174.288 84.297 A 5 5 0 0 0 169.757 81.41 L 105.578 81.41 A 5 5 0 0 0 101.047 84.297 L 98.05 90.725 A 5 5 0 0 0 98.041 94.931 L 116.27 134.468 A 5 5 0 0 1 113.023 141.392 L 95.761 146.017 A 5 5 0 0 1 89.935 143.301 L 66.867 93.831 A 5 5 0 0 1 66.414 92.107 L 64.993 73.913 A 5 5 0 0 0 62.121 69.771 L 45.541 62.039 A 5 5 0 0 0 40.684 62.391 L 23.803 73.473 A 5 5 0 0 1 19.681 74.099 L 3.622 69.494 A 5 5 0 0 1 0.194 63.31 Z" vector-effect="non-scaling-stroke"/></g></svg>