<svg width="273.706mm" height="139.138mm" viewBox="0 0 273.706 139.138" xmlns="http://www.w3.org/2000/svg"><g id="svgGroup" stroke-linecap="round" fill-rule="evenodd" font-size="9pt" stroke="#000" stroke-width="0.25mm" fill="none" style="stroke:#000;stroke-width:0.25mm;fill:none"><path d="M 0.258 31.375 L 4.304 19.283 A 5 5 0 0 1 10.632 16.128 L 26.228 21.347 A 5 5 0 0 0 30.79 20.623 L 57.31 0.982 A 5 5 0 0 1 61.256 0.095 L 79.919 3.786 A 5 5 0 0 1 81.257 4.256 L 101.568 14.829 A 5 5 0 0 1 102.3 15.295 L 128.44 35.327 A 5 5 0 0 1 129.834 41.604 L 125.541 49.851 A 5 5 0 0 0 129.976 57.159 L 143.729 57.159 A 5 5 0 0 0 148.165 49.851 L 143.872 41.604 A 5 5 0 0 1 145.266 35.327 L 171.405 15.295 A 5 5 0 0 1 172.138 14.829 L 192.448 4.256 A 5 5 0 0 1 193.787 3.786 L 212.45 0.095 A 5 5 0 0 1 216.396 0.982 L 242.915 20.623 A 5 5 0 0 0 247.477 21.347 L 263.073 16.128 A 5 5 0 0 1 269.402 19.283 L 273.447 31.375 A 5 5 0 0 1 270.292 37.703 L 262.231 40.4 A 5 5 0 0 0 259.076 46.728 L 261.456 53.84 A 5 5 0 0 1 258.301 60.169 L 241.426 65.815 A 5 5 0 0 1 238.998 66.002 L 218.27 62.461 A 5 5 0 0 0 215.236 62.895 L 207.76 66.542 A 5 5 0 0 0 205.013 70.257 L 201.42 93.055 A 5 5 0 0 1 199.278 96.422 L 176.827 111.57 A 5 5 0 0 0 175.39 113.054 L 160.472 136.798 A 5 5 0 0 1 154.325 138.757 L 138.766 132.312 A 5 5 0 0 0 134.939 132.312 L 119.38 138.757 A 5 5 0 0 1 113.233 136.798 L 98.316 113.054 A 5 5 0 0 0 96.879 111.57 L 74.428 96.422 A 5 5 0 0 1 72.286 93.055 L 68.693 70.257 A 5 5 0 0 0 65.946 66.542 L 58.47 62.895 A 5 5 0 0 0 55.436 62.461 L 34.708 66.002 A 5 5 0 0 1 32.279 65.815 L 15.405 60.169 A 5 5 0 0 1 12.25 53.84 L 14.629 46.728 A 5 5 0 0 0 11.474 40.4 L 3.413 37.703 A 5 5 0 0 1 0.258 31.375 Z" vector-effect="non-scaling-stroke"/></g></svg>