<svg width="273.893mm" height="143.039mm" viewBox="0 0 273.893 143.039" xmlns="http://www.w3.org/2000/svg"><g id="svgGroup" stroke-linecap="round" fill-rule="evenodd" font-size="9pt" stroke="#000" stroke-width="0.25mm" fill="none" style="stroke:#000;stroke-width:0.25mm;fill:none"><path d="M 0.194 33.968 L 3.708 21.712 A 5 5 0 0 1 9.893 18.284 L 25.701 22.817 A 5 5 0 0 0 30.228 21.895 L 55.865 1.116 A 5 5 0 0 1 59.769 0.057 L 78.575 2.931 A 5 5 0 0 1 79.933 3.342 L 100.685 13.019 A 5 5 0 0 1 101.437 13.453 L 128.426 32.325 A 5 5 0 0 1 130.092 38.536 L 125.298 48.817 A 5 5 0 0 0 129.829 55.93 L 144.064 55.93 A 5 5 0 0 0 148.595 48.817 L 143.801 38.536 A 5 5 0 0 1 145.467 32.325 L 172.456 13.453 A 5 5 0 0 1 173.208 13.019 L 193.96 3.342 A 5 5 0 0 1 195.318 2.931 L 214.125 0.057 A 5 5 0 0 1 218.028 1.116 L 243.665 21.895 A 5 5 0 0 0 248.192 22.817 L 264.001 18.284 A 5 5 0 0 1 270.185 21.712 L 273.699 33.968 A 5 5 0 0 1 270.271 40.152 L 262.101 42.495 A 5 5 0 0 0 258.672 48.68 L 260.74 55.889 A 5 5 0 0 1 257.312 62.074 L 240.207 66.978 A 5 5 0 0 1 237.772 67.059 L 217.219 62.618 A 5 5 0 0 0 214.169 62.919 L 206.565 66.226 A 5 5 0 0 0 203.65 69.859 L 199.288 92.365 A 5 5 0 0 1 197.79 95.07 L 177.547 113.948 A 5 5 0 0 0 176.623 115.112 L 162.003 140.531 A 5 5 0 0 1 155.556 142.57 L 141.289 135.917 A 5 5 0 0 0 139.175 135.449 L 134.718 135.449 A 5 5 0 0 0 132.605 135.917 L 118.337 142.57 A 5 5 0 0 1 111.89 140.531 L 97.27 115.112 A 5 5 0 0 0 96.346 113.948 L 76.103 95.07 A 5 5 0 0 1 74.605 92.365 L 70.243 69.859 A 5 5 0 0 0 67.328 66.226 L 59.724 62.919 A 5 5 0 0 0 56.675 62.618 L 36.121 67.059 A 5 5 0 0 1 33.687 66.978 L 16.582 62.074 A 5 5 0 0 1 13.153 55.889 L 15.221 48.68 A 5 5 0 0 0 11.793 42.495 L 3.622 40.152 A 5 5 0 0 1 0.194 33.968 Z" vector-effect="non-scaling-stroke"/></g></svg>