0
SECTION
2
HEADER
9
$INSUNITS
70
4
0
ENDSEC
0
SECTION
2
TABLES
0
TABLE
2
LTYPE
0
LTYPE
72
65
70
64
2
CONTINUOUS
3
______
73
0
40
0
0
ENDTAB
0
TABLE
2
LAYER
0
ENDTAB
0
ENDSEC
0
SECTION
2
ENTITIES
0
LINE
8
0
10
40.8444938
20
-104.1685823
11
44.3588701
21
-91.9124957
0
LINE
8
0
10
50.5433655
20
-88.4843742
11
66.3520715
21
-93.0174477
0
LINE
8
0
10
70.8785431
20
-92.0955059
11
96.5159169
21
-71.3163777
0
LINE
8
0
10
100.41941
20
-70.2581074
11
119.2255667
21
-73.1315881
0
LINE
8
0
10
120.5834496
20
-73.5426862
11
141.3356543
21
-83.2195981
0
LINE
8
0
10
142.0878571
20
-83.6535658
11
169.0765637
21
-102.5258636
0
LINE
8
0
10
170.7428084
20
-108.7365263
11
165.948483
21
-119.0179903
0
LINE
8
0
10
173.2553695
20
-206.1179414
11
158.9879239
21
-212.7709605
0
LINE
8
0
10
152.5405575
20
-210.7322236
11
137.9209351
21
-185.3128527
0
LINE
8
0
10
136.9967636
20
-184.1489902
11
116.7540085
21
-165.2711614
0
LINE
8
0
10
115.255456
20
-162.565863
11
110.8935451
21
-140.0602052
0
LINE
8
0
10
107.9786346
20
-136.4262709
11
100.3752561
21
-133.1202277
0
LINE
8
0
10
97.3253647
20
-132.8183452
11
76.7716599
21
-137.2601095
0
LINE
8
0
10
74.3373269
20
-137.1792351
11
57.232303
21
-132.2744484
0
LINE
8
0
10
53.8041815
20
-126.089953
11
55.8714616
21
-118.8804907
0
LINE
8
0
10
52.4433401
20
-112.6959953
11
44.2726153
21
-110.3530777
0
LINE
8
0
10
314.350229
20
-104.1685823
11
310.8358527
21
-91.9124957
0
LINE
8
0
10
304.6513573
20
-88.4843742
11
288.8426513
21
-93.0174477
0
LINE
8
0
10
284.3161797
20
-92.0955059
11
258.6788059
21
-71.3163777
0
LINE
8
0
10
254.7753128
20
-70.2581074
11
235.9691561
21
-73.1315881
0
LINE
8
0
10
234.6112732
20
-73.5426862
11
213.8590685
21
-83.2195981
0
LINE
8
0
10
213.1068657
20
-83.6535658
11
186.1181591
21
-102.5258636
0
LINE
8
0
10
184.4519144
20
-108.7365263
11
189.2462398
21
-119.0179903
0
LINE
8
0
10
181.9393533
20
-206.1179414
11
196.2067989
21
-212.7709605
0
LINE
8
0
10
202.6541653
20
-210.7322236
11
217.2737877
21
-185.3128527
0
LINE
8
0
10
218.1979592
20
-184.1489902
11
238.4407143
21
-165.2711614
0
LINE
8
0
10
239.9392668
20
-162.565863
11
244.3011777
21
-140.0602052
0
LINE
8
0
10
247.2160882
20
-136.4262709
11
254.8194667
21
-133.1202277
0
LINE
8
0
10
257.8693581
20
-132.8183452
11
278.4230629
21
-137.2601095
0
LINE
8
0
10
280.8573959
20
-137.1792351
11
297.9624198
21
-132.2744484
0
LINE
8
0
10
301.3905413
20
-126.089953
11
299.3232612
21
-118.8804907
0
LINE
8
0
10
302.7513827
20
-112.6959953
11
310.9221075
21
-110.3530777
0
LINE
8
0
10
170.4800218
20
-126.1310817
11
184.714701
21
-126.1310817
0
LINE
8
0
10
179.8262619
20
-205.6494802
11
175.3684609
21
-205.6494802
0
ARC
8
0
10
49.1651785
20
-93.2906827
40
5
50
73.9999976
51
163.9999976
0
ARC
8
0
10
67.7302584
20
-88.2111393
40
5
50
253.9999976
51
309.0248153
0
ARC
8
0
10
99.6642015
20
-75.2007443
40
5
50
81.3127007
51
129.0248153
0
ARC
8
0
10
118.4703582
20
-78.074225
40
5
50
64.9999983
51
81.3127007
0
ARC
8
0
10
139.2225629
20
-87.751137
40
5
50
55.0361964
51
64.9999983
0
ARC
8
0
10
166.2112695
20
-106.6234349
40
5
50
334.9999983
51
55.0361964
0
ARC
8
0
10
170.4800218
20
-121.1310817
40
5
50
154.9999983
51
270
0
ARC
8
0
10
184.714701
20
-121.1310817
40
5
50
270
51
25.0000017
0
ARC
8
0
10
188.9834533
20
-106.6234349
40
5
50
124.9638036
51
205.0000017
0
ARC
8
0
10
215.9721599
20
-87.751137
40
5
50
115.0000017
51
124.9638036
0
ARC
8
0
10
236.7243646
20
-78.074225
40
5
50
98.6872993
51
115.0000017
0
ARC
8
0
10
255.5305213
20
-75.2007443
40
5
50
50.9751847
51
98.6872993
0
ARC
8
0
10
287.4644644
20
-88.2111393
40
5
50
230.9751847
51
286.0000024
0
ARC
8
0
10
306.0295443
20
-93.2906827
40
5
50
16.0000024
51
106.0000024
0
ARC
8
0
10
309.5439205
20
-105.5467693
40
5
50
286.0000024
51
16.0000024
0
ARC
8
0
10
304.1295697
20
-117.5023037
40
5
50
106.0000024
51
196.0000024
0
ARC
8
0
10
296.5842328
20
-127.46814
40
5
50
286.0000024
51
16.0000024
0
ARC
8
0
10
279.4792089
20
-132.3729267
40
5
50
257.8056043
51
286.0000024
0
ARC
8
0
10
256.8132121
20
-137.705528
40
5
50
77.8056043
51
113.500001
0
ARC
8
0
10
249.2098336
20
-141.0115712
40
5
50
113.500001
51
169.031272
0
ARC
8
0
10
235.0306109
20
-161.614497
40
5
50
313.001749
51
349.031272
0
ARC
8
0
10
221.6080626
20
-187.8056546
40
5
50
133.001749
51
150.0951986
0
ARC
8
0
10
198.3198904
20
-208.2394217
40
5
50
244.9999983
51
330.0951986
0
ARC
8
0
10
179.8262619
20
-210.6494802
40
5
50
64.9999983
51
90
0
ARC
8
0
10
175.3684609
20
-210.6494802
40
5
50
90
51
115.0000017
0
ARC
8
0
10
156.8748324
20
-208.2394217
40
5
50
209.9048014
51
295.0000017
0
ARC
8
0
10
133.5866602
20
-187.8056546
40
5
50
29.9048014
51
46.998251
0
ARC
8
0
10
120.1641119
20
-161.614497
40
5
50
190.968728
51
226.998251
0
ARC
8
0
10
105.9848892
20
-141.0115712
40
5
50
10.968728
51
66.499999
0
ARC
8
0
10
98.3815107
20
-137.705528
40
5
50
66.499999
51
102.1943957
0
ARC
8
0
10
75.7155139
20
-132.3729267
40
5
50
253.9999976
51
282.1943957
0
ARC
8
0
10
58.61049
20
-127.46814
40
5
50
163.9999976
51
253.9999976
0
ARC
8
0
10
51.0651531
20
-117.5023037
40
5
50
343.9999976
51
73.9999976
0
ARC
8
0
10
45.6508023
20
-105.5467693
40
5
50
163.9999976
51
253.9999976
0
ENDSEC
0
EOF