0
SECTION
2
HEADER
9
$INSUNITS
70
4
0
ENDSEC
0
SECTION
2
TABLES
0
TABLE
2
LTYPE
0
LTYPE
72
65
70
64
2
CONTINUOUS
3
______
73
0
40
0
0
ENDTAB
0
TABLE
2
LAYER
0
ENDTAB
0
ENDSEC
0
SECTION
2
ENTITIES
0
LINE
8
0
10
40.8444938
20
-104.1685823
11
44.3588701
21
-91.9124957
0
LINE
8
0
10
50.5433655
20
-88.4843742
11
66.3520715
21
-93.0174477
0
LINE
8
0
10
70.8785431
20
-92.0955059
11
96.5159169
21
-71.3163777
0
LINE
8
0
10
100.41941
20
-70.2581074
11
119.2255667
21
-73.1315881
0
LINE
8
0
10
120.5834496
20
-73.5426862
11
141.3356543
21
-83.2195981
0
LINE
8
0
10
142.0878571
20
-83.6535658
11
169.0765637
21
-102.5258636
0
LINE
8
0
10
170.7428084
20
-108.7365263
11
165.948483
21
-119.0179903
0
LINE
8
0
10
173.2553695
20
-206.1179414
11
158.9879239
21
-212.7709605
0
LINE
8
0
10
152.5405575
20
-210.7322236
11
137.9209351
21
-185.3128527
0
LINE
8
0
10
136.9967636
20
-184.1489902
11
116.7540085
21
-165.2711614
0
LINE
8
0
10
115.255456
20
-162.565863
11
110.8935451
21
-140.0602052
0
LINE
8
0
10
107.9786346
20
-136.4262709
11
100.3752561
21
-133.1202277
0
LINE
8
0
10
97.3253647
20
-132.8183452
11
76.7716599
21
-137.2601095
0
LINE
8
0
10
74.3373269
20
-137.1792351
11
57.232303
21
-132.2744484
0
LINE
8
0
10
53.8041815
20
-126.089953
11
55.8714616
21
-118.8804907
0
LINE
8
0
10
52.4433401
20
-112.6959953
11
44.2726153
21
-110.3530777
0
LINE
8
0
10
314.350229
20
-104.1685823
11
310.8358527
21
-91.9124957
0
LINE
8
0
10
304.6513573
20
-88.4843742
11
288.8426513
21
-93.0174477
0
LINE
8
0
10
284.3161797
20
-92.0955059
11
258.6788059
21
-71.3163777
0
LINE
8
0
10
254.7753128
20
-70.2581074
11
235.9691561
21
-73.1315881
0
LINE
8
0
10
234.6112732
20
-73.5426862
11
213.8590685
21
-83.2195981
0
LINE
8
0
10
213.1068657
20
-83.6535658
11
186.1181591
21
-102.5258636
0
LINE
8
0
10
184.4519144
20
-108.7365263
11
189.2462398
21
-119.0179903
0
LINE
8
0
10
181.9393533
20
-206.1179414
11
196.2067989
21
-212.7709605
0
LINE
8
0
10
202.6541653
20
-210.7322236
11
217.2737877
21
-185.3128527
0
LINE
8
0
10
218.1979592
20
-184.1489902
11
238.4407143
21
-165.2711614
0
LINE
8
0
10
239.9392668
20
-162.565863
11
244.3011777
21
-140.0602052
0
LINE
8
0
10
247.2160882
20
-136.4262709
11
254.8194667
21
-133.1202277
0
LINE
8
0
10
257.8693581
20
-132.8183452
11
278.4230629
21
-137.2601095
0
LINE
8
0
10
280.8573959
20
-137.1792351
11
297.9624198
21
-132.2744484
0
LINE
8
0
10
301.3905413
20
-126.089953
11
299.3232612
21
-118.8804907
0
LINE
8
0
10
302.7513827
20
-112.6959953
11
310.9221075
21
-110.3530777
0
LINE
8
0
10
170.4800218
20
-126.1310817
11
184.714701
21
-126.1310817
0
LINE
8
0
10
179.8262619
20
-205.6494802
11
175.3684609
21
-205.6494802
0
ARC
8
0
10
49.1651785
20
-93.2906827
40
5
50
73.9999976
51
163.9999976
0
ARC
8
0
10
67.7302584
20
-88.2111393
40
5
50
253.9999976
51
309.0248153
0
ARC
8
0
10
99.6642015
20
-75.2007443
40
5
50
81.3127007
51
129.0248153
0
ARC
8
0
10
118.4703582
20
-78.074225
40
5
50
64.9999983
51
81.3127007
0
ARC
8
0
10
139.2225629
20
-87.751137
40
5
50
55.0361964
51
64.9999983
0
ARC
8
0
10
166.2112695
20
-106.6234349
40
5
50
334.9999983
51
55.0361964
0
ARC
8
0
10
170.4800218
20
-121.1310817
40
5
50
154.9999983
51
270
0
ARC
8
0
10
184.714701
20
-121.1310817
40
5
50
270
51
25.0000017
0
ARC
8
0
10
188.9834533
20
-106.6234349
40
5
50
124.9638036
51
205.0000017
0
ARC
8
0
10
215.9721599
20
-87.751137
40
5
50
115.0000017
51
124.9638036
0
ARC
8
0
10
236.7243646
20
-78.074225
40
5
50
98.6872993
51
115.0000017
0
ARC
8
0
10
255.5305213
20
-75.2007443
40
5
50
50.9751847
51
98.6872993
0
ARC
8
0
10
287.4644644
20
-88.2111393
40
5
50
230.9751847
51
286.0000024
0
ARC
8
0
10
306.0295443
20
-93.2906827
40
5
50
16.0000024
51
106.0000024
0
ARC
8
0
10
309.5439205
20
-105.5467693
40
5
50
286.0000024
51
16.0000024
0
ARC
8
0
10
304.1295697
20
-117.5023037
40
5
50
106.0000024
51
196.0000024
0
ARC
8
0
10
296.5842328
20
-127.46814
40
5
50
286.0000024
51
16.0000024
0
ARC
8
0
10
279.4792089
20
-132.3729267
40
5
50
257.8056043
51
286.0000024
0
ARC
8
0
10
256.8132121
20
-137.705528
40
5
50
77.8056043
51
113.500001
0
ARC
8
0
10
249.2098336
20
-141.0115712
40
5
50
113.500001
51
169.031272
0
ARC
8
0
10
235.0306109
20
-161.614497
40
5
50
313.001749
51
349.031272
0
ARC
8
0
10
221.6080626
20
-187.8056546
40
5
50
133.001749
51
150.0951986
0
ARC
8
0
10
198.3198904
20
-208.2394217
40
5
50
244.9999983
51
330.0951986
0
ARC
8
0
10
179.8262619
20
-210.6494802
40
5
50
64.9999983
51
90
0
ARC
8
0
10
175.3684609
20
-210.6494802
40
5
50
90
51
115.0000017
0
ARC
8
0
10
156.8748324
20
-208.2394217
40
5
50
209.9048014
51
295.0000017
0
ARC
8
0
10
133.5866602
20
-187.8056546
40
5
50
29.9048014
51
46.998251
0
ARC
8
0
10
120.1641119
20
-161.614497
40
5
50
190.968728
51
226.998251
0
ARC
8
0
10
105.9848892
20
-141.0115712
40
5
50
10.968728
51
66.499999
0
ARC
8
0
10
98.3815107
20
-137.705528
40
5
50
66.499999
51
102.1943957
0
ARC
8
0
10
75.7155139
20
-132.3729267
40
5
50
253.9999976
51
282.1943957
0
ARC
8
0
10
58.61049
20
-127.46814
40
5
50
163.9999976
51
253.9999976
0
ARC
8
0
10
51.0651531
20
-117.5023037
40
5
50
343.9999976
51
73.9999976
0
ARC
8
0
10
45.6508023
20
-105.5467693
40
5
50
163.9999976
51
253.9999976
0
LINE
8
0
10
43.166581
20
-107.0450666
11
60.4692915
21
-112.006539
0
LINE
8
0
10
60.4692915
20
-112.006539
11
65.1551266
21
-95.6650902
0
LINE
8
0
10
65.1551266
20
-95.6650902
11
47.8524161
21
-90.7036178
0
LINE
8
0
10
47.8524161
20
-90.7036178
11
43.166581
21
-107.0450666
0
LINE
8
0
10
56.1262687
20
-128.9664373
11
73.4289792
21
-133.9279097
0
LINE
8
0
10
73.4289792
20
-133.9279097
11
78.1148143
21
-117.5864609
0
LINE
8
0
10
78.1148143
20
-117.5864609
11
60.8121038
21
-112.6249885
0
LINE
8
0
10
60.8121038
20
-112.6249885
11
56.1262687
21
-128.9664373
0
LINE
8
0
10
60.9499224
20
-112.1443577
11
78.2526329
21
-117.1058301
0
LINE
8
0
10
78.2526329
20
-117.1058301
11
82.938468
21
-100.7643813
0
LINE
8
0
10
82.938468
20
-100.7643813
11
65.6357575
21
-95.8029089
0
LINE
8
0
10
65.6357575
20
-95.8029089
11
60.9499224
21
-112.1443577
0
LINE
8
0
10
80.4818628
20
-121.9365367
11
97.1711721
21
-128.6794554
0
LINE
8
0
10
97.1711721
20
-128.6794554
11
103.5394842
21
-112.9173299
0
LINE
8
0
10
103.5394842
20
-112.9173299
11
86.8501749
21
-106.1744112
0
LINE
8
0
10
86.8501749
20
-106.1744112
11
80.4818628
21
-121.9365367
0
LINE
8
0
10
87.0374781
20
-105.7108192
11
103.7267874
21
-112.4537379
0
LINE
8
0
10
103.7267874
20
-112.4537379
11
110.0950995
21
-96.6916124
0
LINE
8
0
10
110.0950995
20
-96.6916124
11
93.4057902
21
-89.9486937
0
LINE
8
0
10
93.4057902
20
-89.9486937
11
87.0374781
21
-105.7108192
0
LINE
8
0
10
93.5930935
20
-89.4851017
11
110.2824028
21
-96.2280204
0
LINE
8
0
10
110.2824028
20
-96.2280204
11
116.6507149
21
-80.4658949
0
LINE
8
0
10
116.6507149
20
-80.4658949
11
99.9614056
21
-73.7229762
0
LINE
8
0
10
99.9614056
20
-73.7229762
11
93.5930935
21
-89.4851017
0
LINE
8
0
10
99.4843724
20
-124.2518883
11
115.7979126
21
-131.859017
0
LINE
8
0
10
115.7979126
20
-131.859017
11
122.982423
21
-116.4517847
0
LINE
8
0
10
122.982423
20
-116.4517847
11
106.6688828
21
-108.844656
0
LINE
8
0
10
106.6688828
20
-108.844656
11
99.4843724
21
-124.2518883
0
LINE
8
0
10
106.880192
20
-108.3915019
11
123.1937322
21
-115.9986306
0
LINE
8
0
10
123.1937322
20
-115.9986306
11
130.3782426
21
-100.5913983
0
LINE
8
0
10
130.3782426
20
-100.5913983
11
114.0647024
21
-92.9842696
0
LINE
8
0
10
114.0647024
20
-92.9842696
11
106.880192
21
-108.3915019
0
LINE
8
0
10
114.2760115
20
-92.5311156
11
130.5895517
21
-100.1382443
0
LINE
8
0
10
130.5895517
20
-100.1382443
11
137.7740621
21
-84.731012
0
LINE
8
0
10
137.7740621
20
-84.731012
11
121.4605219
21
-77.1238833
0
LINE
8
0
10
121.4605219
20
-77.1238833
11
114.2760115
21
-92.5311156
0
LINE
8
0
10
114.3492843
20
-136.1487112
11
130.6628245
21
-143.7558399
0
LINE
8
0
10
130.6628245
20
-143.7558399
11
137.8473349
21
-128.3486076
0
LINE
8
0
10
137.8473349
20
-128.3486076
11
121.5337947
21
-120.7414789
0
LINE
8
0
10
121.5337947
20
-120.7414789
11
114.3492843
21
-136.1487112
0
LINE
8
0
10
121.7451038
20
-120.2883249
11
138.058644
21
-127.8954536
0
LINE
8
0
10
138.058644
20
-127.8954536
11
145.2431544
21
-112.4882213
0
LINE
8
0
10
145.2431544
20
-112.4882213
11
128.9296142
21
-104.8810926
0
LINE
8
0
10
128.9296142
20
-104.8810926
11
121.7451038
21
-120.2883249
0
LINE
8
0
10
129.1409234
20
-104.4279386
11
145.4544636
21
-112.0350673
0
LINE
8
0
10
145.4544636
20
-112.0350673
11
152.638974
21
-96.627835
0
LINE
8
0
10
152.638974
20
-96.627835
11
136.3254338
21
-89.0207063
0
LINE
8
0
10
136.3254338
20
-89.0207063
11
129.1409234
21
-104.4279386
0
LINE
8
0
10
130.270742
20
-145.7797646
11
146.5842822
21
-153.3868933
0
LINE
8
0
10
146.5842822
20
-153.3868933
11
153.7687926
21
-137.979661
0
LINE
8
0
10
153.7687926
20
-137.979661
11
137.4552524
21
-130.3725323
0
LINE
8
0
10
137.4552524
20
-130.3725323
11
130.270742
21
-145.7797646
0
LINE
8
0
10
137.6665615
20
-129.9193783
11
153.9801017
21
-137.526507
0
LINE
8
0
10
153.9801017
20
-137.526507
11
161.1646121
21
-122.1192747
0
LINE
8
0
10
161.1646121
20
-122.1192747
11
144.8510719
21
-114.512146
0
LINE
8
0
10
144.8510719
20
-114.512146
11
137.6665615
21
-129.9193783
0
LINE
8
0
10
145.0623811
20
-114.0589919
11
161.3759213
21
-121.6661206
0
LINE
8
0
10
161.3759213
20
-121.6661206
11
168.5604317
21
-106.2588883
0
LINE
8
0
10
168.5604317
20
-106.2588883
11
152.2468915
21
-98.6517596
0
LINE
8
0
10
152.2468915
20
-98.6517596
11
145.0623811
21
-114.0589919
0
LINE
8
0
10
294.7254313
20
-112.006539
11
312.0281418
21
-107.0450666
0
LINE
8
0
10
312.0281418
20
-107.0450666
11
307.3423067
21
-90.7036178
0
LINE
8
0
10
307.3423067
20
-90.7036178
11
290.0395962
21
-95.6650902
0
LINE
8
0
10
290.0395962
20
-95.6650902
11
294.7254313
21
-112.006539
0
LINE
8
0
10
281.7657436
20
-133.9279097
11
299.0684541
21
-128.9664373
0
LINE
8
0
10
299.0684541
20
-128.9664373
11
294.382619
21
-112.6249885
0
LINE
8
0
10
294.382619
20
-112.6249885
11
277.0799085
21
-117.5864609
0
LINE
8
0
10
277.0799085
20
-117.5864609
11
281.7657436
21
-133.9279097
0
LINE
8
0
10
276.9420899
20
-117.1058301
11
294.2448004
21
-112.1443577
0
LINE
8
0
10
294.2448004
20
-112.1443577
11
289.5589653
21
-95.8029089
0
LINE
8
0
10
289.5589653
20
-95.8029089
11
272.2562548
21
-100.7643813
0
LINE
8
0
10
272.2562548
20
-100.7643813
11
276.9420899
21
-117.1058301
0
LINE
8
0
10
258.0235507
20
-128.6794554
11
274.71286
21
-121.9365367
0
LINE
8
0
10
274.71286
20
-121.9365367
11
268.3445479
21
-106.1744112
0
LINE
8
0
10
268.3445479
20
-106.1744112
11
251.6552386
21
-112.9173299
0
LINE
8
0
10
251.6552386
20
-112.9173299
11
258.0235507
21
-128.6794554
0
LINE
8
0
10
251.4679354
20
-112.4537379
11
268.1572447
21
-105.7108192
0
LINE
8
0
10
268.1572447
20
-105.7108192
11
261.7889326
21
-89.9486937
0
LINE
8
0
10
261.7889326
20
-89.9486937
11
245.0996233
21
-96.6916124
0
LINE
8
0
10
245.0996233
20
-96.6916124
11
251.4679354
21
-112.4537379
0
LINE
8
0
10
244.91232
20
-96.2280204
11
261.6016293
21
-89.4851017
0
LINE
8
0
10
261.6016293
20
-89.4851017
11
255.2333172
21
-73.7229762
0
LINE
8
0
10
255.2333172
20
-73.7229762
11
238.5440079
21
-80.4658949
0
LINE
8
0
10
238.5440079
20
-80.4658949
11
244.91232
21
-96.2280204
0
LINE
8
0
10
239.3968102
20
-131.859017
11
255.7103504
21
-124.2518883
0
LINE
8
0
10
255.7103504
20
-124.2518883
11
248.52584
21
-108.844656
0
LINE
8
0
10
248.52584
20
-108.844656
11
232.2122998
21
-116.4517847
0
LINE
8
0
10
232.2122998
20
-116.4517847
11
239.3968102
21
-131.859017
0
LINE
8
0
10
232.0009906
20
-115.9986306
11
248.3145308
21
-108.3915019
0
LINE
8
0
10
248.3145308
20
-108.3915019
11
241.1300204
21
-92.9842696
0
LINE
8
0
10
241.1300204
20
-92.9842696
11
224.8164802
21
-100.5913983
0
LINE
8
0
10
224.8164802
20
-100.5913983
11
232.0009906
21
-115.9986306
0
LINE
8
0
10
224.6051711
20
-100.1382443
11
240.9187113
21
-92.5311156
0
LINE
8
0
10
240.9187113
20
-92.5311156
11
233.7342009
21
-77.1238833
0
LINE
8
0
10
233.7342009
20
-77.1238833
11
217.4206607
21
-84.731012
0
LINE
8
0
10
217.4206607
20
-84.731012
11
224.6051711
21
-100.1382443
0
LINE
8
0
10
224.5318983
20
-143.7558399
11
240.8454385
21
-136.1487112
0
LINE
8
0
10
240.8454385
20
-136.1487112
11
233.6609281
21
-120.7414789
0
LINE
8
0
10
233.6609281
20
-120.7414789
11
217.3473879
21
-128.3486076
0
LINE
8
0
10
217.3473879
20
-128.3486076
11
224.5318983
21
-143.7558399
0
LINE
8
0
10
217.1360788
20
-127.8954536
11
233.449619
21
-120.2883249
0
LINE
8
0
10
233.449619
20
-120.2883249
11
226.2651086
21
-104.8810926
0
LINE
8
0
10
226.2651086
20
-104.8810926
11
209.9515684
21
-112.4882213
0
LINE
8
0
10
209.9515684
20
-112.4882213
11
217.1360788
21
-127.8954536
0
LINE
8
0
10
209.7402592
20
-112.0350673
11
226.0537994
21
-104.4279386
0
LINE
8
0
10
226.0537994
20
-104.4279386
11
218.869289
21
-89.0207063
0
LINE
8
0
10
218.869289
20
-89.0207063
11
202.5557488
21
-96.627835
0
LINE
8
0
10
202.5557488
20
-96.627835
11
209.7402592
21
-112.0350673
0
LINE
8
0
10
208.6104406
20
-153.3868933
11
224.9239808
21
-145.7797646
0
LINE
8
0
10
224.9239808
20
-145.7797646
11
217.7394704
21
-130.3725323
0
LINE
8
0
10
217.7394704
20
-130.3725323
11
201.4259302
21
-137.979661
0
LINE
8
0
10
201.4259302
20
-137.979661
11
208.6104406
21
-153.3868933
0
LINE
8
0
10
201.2146211
20
-137.526507
11
217.5281613
21
-129.9193783
0
LINE
8
0
10
217.5281613
20
-129.9193783
11
210.3436509
21
-114.512146
0
LINE
8
0
10
210.3436509
20
-114.512146
11
194.0301107
21
-122.1192747
0
LINE
8
0
10
194.0301107
20
-122.1192747
11
201.2146211
21
-137.526507
0
LINE
8
0
10
193.8188015
20
-121.6661206
11
210.1323417
21
-114.0589919
0
LINE
8
0
10
210.1323417
20
-114.0589919
11
202.9478313
21
-98.6517596
0
LINE
8
0
10
202.9478313
20
-98.6517596
11
186.6342911
21
-106.2588883
0
LINE
8
0
10
186.6342911
20
-106.2588883
11
193.8188015
21
-121.6661206
0
LINE
8
0
10
119.7301434
20
-163.9042351
11
133.5189434
21
-175.4744121
0
LINE
8
0
10
133.5189434
20
-175.4744121
11
144.4463328
21
-162.4516565
0
LINE
8
0
10
144.4463328
20
-162.4516565
11
130.6575328
21
-150.8814795
0
LINE
8
0
10
130.6575328
20
-150.8814795
11
119.7301434
21
-163.9042351
0
LINE
8
0
10
133.963594
20
-175.9190626
11
145.533771
21
-189.7078626
0
LINE
8
0
10
145.533771
20
-189.7078626
11
158.5565266
21
-178.7804732
0
LINE
8
0
10
158.5565266
20
-178.7804732
11
146.9863496
21
-164.9916732
0
LINE
8
0
10
146.9863496
20
-164.9916732
11
133.963594
21
-175.9190626
0
LINE
8
0
10
148.5486885
20
-194.4403351
11
156.1558172
21
-210.7538753
0
LINE
8
0
10
156.1558172
20
-210.7538753
11
171.5630495
21
-203.5693649
0
LINE
8
0
10
171.5630495
20
-203.5693649
11
163.9559208
21
-187.2558247
0
LINE
8
0
10
163.9559208
20
-187.2558247
11
148.5486885
21
-194.4403351
0
LINE
8
0
10
221.6757794
20
-175.4744121
11
235.4645794
21
-163.9042351
0
LINE
8
0
10
235.4645794
20
-163.9042351
11
224.53719
21
-150.8814795
0
LINE
8
0
10
224.53719
20
-150.8814795
11
210.74839
21
-162.4516565
0
LINE
8
0
10
210.74839
20
-162.4516565
11
221.6757794
21
-175.4744121
0
LINE
8
0
10
209.6609518
20
-189.7078626
11
221.2311288
21
-175.9190626
0
LINE
8
0
10
221.2311288
20
-175.9190626
11
208.2083732
21
-164.9916732
0
LINE
8
0
10
208.2083732
20
-164.9916732
11
196.6381962
21
-178.7804732
0
LINE
8
0
10
196.6381962
20
-178.7804732
11
209.6609518
21
-189.7078626
0
LINE
8
0
10
199.0389056
20
-210.7538753
11
206.6460343
21
-194.4403351
0
LINE
8
0
10
206.6460343
20
-194.4403351
11
191.238802
21
-187.2558247
0
LINE
8
0
10
191.238802
20
-187.2558247
11
183.6316733
21
-203.5693649
0
LINE
8
0
10
183.6316733
20
-203.5693649
11
199.0389056
21
-210.7538753
0
ENDSEC
0
EOF