<svg width="273.706mm" height="139.138mm" viewBox="0 0 273.706 139.138" xmlns="http://www.w3.org/2000/svg"><g id="svgGroup" stroke-linecap="round" fill-rule="evenodd" font-size="9pt" stroke="#000" stroke-width="0.25mm" fill="none" style="stroke:#000;stroke-width:0.25mm;fill:none"><path d="M 0.258 31.375 L 4.304 19.283 A 5 5 0 0 1 10.632 16.128 L 26.228 21.347 A 5 5 0 0 0 30.79 20.623 L 57.31 0.982 A 5 5 0 0 1 61.256 0.095 L 79.919 3.786 A 5 5 0 0 1 81.257 4.256 L 101.568 14.829 A 5 5 0 0 1 102.3 15.295 L 128.44 35.327 A 5 5 0 0 1 129.834 41.604 L 125.541 49.851 A 5 5 0 0 0 129.976 57.159 L 143.729 57.159 A 5 5 0 0 0 148.165 49.851 L 143.872 41.604 A 5 5 0 0 1 145.266 35.327 L 171.405 15.295 A 5 5 0 0 1 172.138 14.829 L 192.448 4.256 A 5 5 0 0 1 193.787 3.786 L 212.45 0.095 A 5 5 0 0 1 216.396 0.982 L 242.915 20.623 A 5 5 0 0 0 247.477 21.347 L 263.073 16.128 A 5 5 0 0 1 269.402 19.283 L 273.447 31.375 A 5 5 0 0 1 270.292 37.703 L 262.231 40.4 A 5 5 0 0 0 259.076 46.728 L 261.456 53.84 A 5 5 0 0 1 258.301 60.169 L 241.426 65.815 A 5 5 0 0 1 238.998 66.002 L 218.27 62.461 A 5 5 0 0 0 215.236 62.895 L 207.76 66.542 A 5 5 0 0 0 205.013 70.257 L 201.42 93.055 A 5 5 0 0 1 199.278 96.422 L 176.827 111.57 A 5 5 0 0 0 175.39 113.054 L 160.472 136.798 A 5 5 0 0 1 154.325 138.757 L 138.766 132.312 A 5 5 0 0 0 134.939 132.312 L 119.38 138.757 A 5 5 0 0 1 113.233 136.798 L 98.316 113.054 A 5 5 0 0 0 96.879 111.57 L 74.428 96.422 A 5 5 0 0 1 72.286 93.055 L 68.693 70.257 A 5 5 0 0 0 65.946 66.542 L 58.47 62.895 A 5 5 0 0 0 55.436 62.461 L 34.708 66.002 A 5 5 0 0 1 32.279 65.815 L 15.405 60.169 A 5 5 0 0 1 12.25 53.84 L 14.629 46.728 A 5 5 0 0 0 11.474 40.4 L 3.413 37.703 A 5 5 0 0 1 0.258 31.375 Z M 254.183 40.061 L 271.253 34.35 L 265.859 18.228 L 248.789 23.94 L 254.183 40.061 Z M 242.192 62.527 L 259.262 56.815 L 253.867 40.694 L 236.798 46.405 L 242.192 62.527 Z M 236.639 45.931 L 253.709 40.22 L 248.315 24.098 L 231.245 29.81 L 236.639 45.931 Z M 14.444 56.815 L 31.514 62.527 L 36.908 46.405 L 19.838 40.694 L 14.444 56.815 Z M 19.997 40.22 L 37.067 45.931 L 42.461 29.81 L 25.391 24.098 L 19.997 40.22 Z M 2.453 34.35 L 19.523 40.061 L 24.917 23.94 L 7.847 18.228 L 2.453 34.35 Z M 181.804 104.077 L 196.985 94.405 L 187.851 80.067 L 172.67 89.739 L 181.804 104.077 Z M 76.72 94.405 L 91.901 104.077 L 101.035 89.739 L 85.854 80.067 L 76.72 94.405 Z M 92.364 104.401 L 106.644 115.358 L 116.993 101.871 L 102.713 90.914 L 92.364 104.401 Z M 167.061 115.358 L 181.342 104.401 L 170.993 90.914 L 156.712 101.871 L 167.061 115.358 Z M 39.083 50.855 L 55.462 58.319 L 62.512 42.85 L 46.133 35.385 L 39.083 50.855 Z M 46.34 34.93 L 62.719 42.395 L 69.769 26.925 L 53.39 19.461 L 46.34 34.93 Z M 53.597 19.006 L 69.977 26.47 L 77.026 11.001 L 60.647 3.537 L 53.597 19.006 Z M 218.243 58.319 L 234.623 50.855 L 227.573 35.385 L 211.193 42.85 L 218.243 58.319 Z M 203.729 26.47 L 220.108 19.006 L 213.059 3.537 L 196.679 11.001 L 203.729 26.47 Z M 210.986 42.395 L 227.365 34.93 L 220.316 19.461 L 203.936 26.925 L 210.986 42.395 Z M 57.966 53.997 L 73.933 62.308 L 81.782 47.229 L 65.816 38.917 L 57.966 53.997 Z M 72.298 66.531 L 88.264 74.842 L 96.114 59.763 L 80.148 51.451 L 72.298 66.531 Z M 80.379 51.008 L 96.345 59.319 L 104.195 44.24 L 88.229 35.929 L 80.379 51.008 Z M 88.459 35.485 L 104.426 43.797 L 112.275 28.717 L 96.309 20.406 L 88.459 35.485 Z M 87.784 76.847 L 103.751 85.158 L 111.6 70.079 L 95.634 61.768 L 87.784 76.847 Z M 95.865 61.324 L 111.831 69.636 L 119.681 54.556 L 103.715 46.245 L 95.865 61.324 Z M 103.946 45.802 L 119.912 54.113 L 127.762 39.034 L 111.795 30.722 L 103.946 45.802 Z M 199.773 62.308 L 215.739 53.997 L 207.889 38.917 L 191.923 47.229 L 199.773 62.308 Z M 185.441 74.842 L 201.407 66.531 L 193.558 51.451 L 177.591 59.763 L 185.441 74.842 Z M 177.361 59.319 L 193.327 51.008 L 185.477 35.929 L 169.511 44.24 L 177.361 59.319 Z M 169.28 43.797 L 185.246 35.485 L 177.396 20.406 L 161.43 28.717 L 169.28 43.797 Z M 169.955 85.158 L 185.921 76.847 L 178.071 61.768 L 162.105 70.079 L 169.955 85.158 Z M 161.874 69.636 L 177.841 61.324 L 169.991 46.245 L 154.025 54.556 L 161.874 69.636 Z M 153.794 54.113 L 169.76 45.802 L 161.91 30.722 L 145.944 39.034 L 153.794 54.113 Z M 66.047 38.474 L 82.013 46.785 L 89.863 31.706 L 73.897 23.395 L 66.047 38.474 Z M 74.128 22.951 L 90.094 31.263 L 97.944 16.184 L 81.977 7.872 L 74.128 22.951 Z M 191.692 46.785 L 207.659 38.474 L 199.809 23.395 L 183.843 31.706 L 191.692 46.785 Z M 183.612 31.263 L 199.578 22.951 L 191.728 7.872 L 175.762 16.184 L 183.612 31.263 Z M 110.09 119.848 L 116.978 136.478 L 132.684 129.972 L 125.796 113.343 L 110.09 119.848 Z M 156.728 136.478 L 163.616 119.848 L 147.91 113.343 L 141.022 129.972 L 156.728 136.478 Z" vector-effect="non-scaling-stroke"/></g></svg>