0
SECTION
2
HEADER
9
$INSUNITS
70
4
0
ENDSEC
0
SECTION
2
TABLES
0
TABLE
2
LTYPE
0
LTYPE
72
65
70
64
2
CONTINUOUS
3
______
73
0
40
0
0
ENDTAB
0
TABLE
2
LAYER
0
ENDTAB
0
ENDSEC
0
SECTION
2
ENTITIES
0
LINE
8
0
10
-13.0511458
20
-1.9792908
11
-0.3718273
21
42.2387472
0
LINE
8
0
10
5.8126681
20
45.6668686
11
19.8844542
21
41.6318489
0
LINE
8
0
10
25.8371417
20
44.4197558
11
31.8156882
21
57.9695206
0
LINE
8
0
10
37.2419323
20
60.8780383
11
55.7373069
21
57.6806423
0
LINE
8
0
10
56.9986549
20
57.2852619
11
77.7920564
21
47.5891395
0
LINE
8
0
10
78.4695349
20
47.2064221
11
81.5919905
21
45.1062036
0
LINE
8
0
10
88.2804747
20
-48.5780439
11
98.7987962
21
-74.8663032
0
LINE
8
0
10
95.4506916
20
-81.5533454
11
82.9688383
21
-84.8978479
0
LINE
8
0
10
77.1432044
20
-82.1813102
11
54.0538884
21
-32.666112
0
LINE
8
0
10
53.6091408
20
-31.0394086
11
51.79831
21
-12.5126075
0
LINE
8
0
10
48.935115
20
-8.4674567
11
32.2959893
21
-0.7085049
0
LINE
8
0
10
27.4389214
20
-1.0602598
11
10.5583279
21
-12.14216
0
LINE
8
0
10
6.4361645
20
-12.7686846
11
-9.6230243
21
-8.1637862
0
LINE
8
0
10
262.8030806
20
-1.9792908
11
250.1237621
21
42.2387472
0
LINE
8
0
10
243.9392667
20
45.6668686
11
229.8674806
21
41.6318489
0
LINE
8
0
10
223.9147931
20
44.4197558
11
217.9362466
21
57.9695206
0
LINE
8
0
10
212.5100025
20
60.8780383
11
194.0146279
21
57.6806423
0
LINE
8
0
10
192.7532799
20
57.2852619
11
171.6062041
21
47.4242185
0
LINE
8
0
10
171.6062041
20
47.4242185
11
168.1599443
21
45.1062036
0
LINE
8
0
10
161.4714601
20
-48.5780439
11
150.9531386
21
-74.8663032
0
LINE
8
0
10
154.3012432
20
-81.5533454
11
166.7830965
21
-84.8978479
0
LINE
8
0
10
172.6087304
20
-82.1813102
11
195.6980464
21
-32.666112
0
LINE
8
0
10
196.142794
20
-31.0394086
11
197.9536248
21
-12.5126075
0
LINE
8
0
10
200.8168198
20
-8.4674567
11
217.4559455
21
-0.7085049
0
LINE
8
0
10
222.3130134
20
-1.0602598
11
239.1936069
21
-12.14216
0
LINE
8
0
10
243.3157703
20
-12.7686846
11
259.3749591
21
-8.1637862
0
LINE
8
0
10
89.1455331
20
47.733811
11
94.8423393
21
65.5707033
0
LINE
8
0
10
99.6053119
20
69.0494893
11
150.1466229
21
69.0494893
0
LINE
8
0
10
154.9095955
20
65.5707033
11
160.6064017
21
47.733811
0
LINE
8
0
10
156.8292605
20
-41.7206309
11
92.9226743
21
-41.7206309
0
ARC
8
0
10
4.4344811
20
40.8605602
40
5
50
73.9999976
51
163.9999976
0
ARC
8
0
10
21.2626411
20
46.4381573
40
5
50
253.9999976
51
336.1915454
0
ARC
8
0
10
36.3901888
20
55.951119
40
5
50
80.1919067
51
156.1915454
0
ARC
8
0
10
54.8855635
20
52.7537231
40
5
50
64.9999983
51
80.1919067
0
ARC
8
0
10
75.678965
20
43.0576007
40
5
50
56.0745322
51
64.9999983
0
ARC
8
0
10
84.3825604
20
49.255025
40
5
50
236.0745322
51
342.2873849
0
ARC
8
0
10
99.6053119
20
64.0494893
40
5
50
90
51
162.2873849
0
ARC
8
0
10
150.1466229
20
64.0494893
40
5
50
17.7126151
51
90
0
ARC
8
0
10
165.3693744
20
49.255025
40
5
50
197.7126151
51
303.9254678
0
ARC
8
0
10
194.8663713
20
52.7537231
40
5
50
99.8080933
51
115.0000017
0
ARC
8
0
10
213.361746
20
55.951119
40
5
50
23.8084546
51
99.8080933
0
ARC
8
0
10
228.4892937
20
46.4381573
40
5
50
203.8084546
51
286.0000024
0
ARC
8
0
10
245.3174537
20
40.8605602
40
5
50
16.0000024
51
106.0000024
0
ARC
8
0
10
257.9967721
20
-3.3574778
40
5
50
286.0000024
51
16.0000024
0
ARC
8
0
10
241.9375833
20
-7.9623761
40
5
50
236.7155963
51
286.0000024
0
ARC
8
0
10
219.5690369
20
-5.2400438
40
5
50
56.7155963
51
115.0000017
0
ARC
8
0
10
202.9299112
20
-12.9989955
40
5
50
115.0000017
51
174.4175761
0
ARC
8
0
10
191.1665076
20
-30.5530206
40
5
50
334.9999983
51
354.4175761
0
ARC
8
0
10
168.0771915
20
-80.0682188
40
5
50
255.0000021
51
334.9999983
0
ARC
8
0
10
155.5953382
20
-76.7237162
40
5
50
158.1929175
51
255.0000021
0
ARC
8
0
10
156.8292605
20
-46.7206309
40
5
50
338.1929175
51
90
0
ARC
8
0
10
92.9226743
20
-46.7206309
40
5
50
90
51
201.8070825
0
ARC
8
0
10
94.1565966
20
-76.7237162
40
5
50
284.9999979
51
21.8070825
0
ARC
8
0
10
81.6747433
20
-80.0682188
40
5
50
205.0000017
51
284.9999979
0
ARC
8
0
10
58.5854272
20
-30.5530206
40
5
50
185.5824239
51
205.0000017
0
ARC
8
0
10
46.8220236
20
-12.9989955
40
5
50
5.5824239
51
64.9999983
0
ARC
8
0
10
30.1828979
20
-5.2400438
40
5
50
64.9999983
51
123.2844037
0
ARC
8
0
10
7.8143515
20
-7.9623761
40
5
50
253.9999976
51
303.2844037
0
ARC
8
0
10
-8.2448373
20
-3.3574778
40
5
50
163.9999976
51
253.9999976
0
LINE
8
0
10
-12.0244438
20
-5.6546663
11
7.2007901
21
-11.1674134
0
LINE
8
0
10
7.2007901
20
-11.1674134
11
16.8480975
21
22.476746
0
LINE
8
0
10
-12.0244438
20
-5.6546663
11
-2.3771364
21
27.9894931
0
LINE
8
0
10
16.8480976
20
22.476746
11
21.6717513
21
39.2988257
0
LINE
8
0
10
21.6717513
20
39.2988257
11
2.4465174
21
44.8115728
0
LINE
8
0
10
2.4465174
20
44.8115728
11
-2.3771363
21
27.9894931
0
LINE
8
0
10
14.924586
20
10.4945515
11
33.4682631
21
3.0024196
0
LINE
8
0
10
33.4682631
20
3.0024196
11
35.3031043
21
7.5438111
0
LINE
8
0
10
35.486217
20
7.9970307
11
40.0238784
21
19.2281371
0
LINE
8
0
10
21.4802013
20
26.720269
11
14.924586
21
10.4945515
0
LINE
8
0
10
40.0238785
20
19.228137
11
46.5794938
21
35.4538545
0
LINE
8
0
10
28.0358167
20
42.9459864
11
21.4802014
21
26.7202689
0
LINE
8
0
10
46.5794939
20
35.4538545
11
53.1351092
21
51.679572
0
LINE
8
0
10
53.1351092
20
51.679572
11
34.5914321
21
59.1717039
0
LINE
8
0
10
34.5914321
20
59.1717039
11
28.0358168
21
42.9459864
0
LINE
8
0
10
35.3031043
20
7.5438111
11
53.4060745
21
-0.8977426
0
LINE
8
0
10
42.6757383
20
23.415009
11
35.486217
21
7.9970307
0
LINE
8
0
10
42.6757383
20
23.4150091
11
57.4673774
21
55.1357817
0
LINE
8
0
10
73.7445784
20
42.7183198
11
75.5935332
21
46.6834164
0
LINE
8
0
10
75.5935332
20
46.6834164
11
57.4673774
21
55.1357817
0
LINE
8
0
10
51.5571196
20
-4.8628391
11
68.7769675
21
-12.8925861
0
LINE
8
0
10
53.4060745
20
-0.8977426
11
51.5571196
21
-4.8628391
0
LINE
8
0
10
91.1311522
20
32.6799159
11
91.8707342
21
34.2659545
0
LINE
8
0
10
91.8707342
20
34.2659545
11
73.7445784
21
42.7183198
0
LINE
8
0
10
68.0373856
20
-14.4786247
11
86.1635414
21
-22.93099
0
LINE
8
0
10
86.1635414
20
-22.93099
11
108.3510001
21
24.6501689
0
LINE
8
0
10
68.7769675
20
-12.8925861
11
68.0373856
21
-14.4786247
0
LINE
8
0
10
108.3510001
20
24.6501689
11
91.1311522
21
32.6799159
0
LINE
8
0
10
242.5511447
20
-11.1674134
11
261.7763786
21
-5.6546663
0
LINE
8
0
10
252.1290712
20
27.9894931
11
261.7763786
21
-5.6546663
0
LINE
8
0
10
232.9038373
20
22.476746
11
242.5511447
21
-11.1674134
0
LINE
8
0
10
252.1290711
20
27.9894931
11
247.3054174
21
44.8115728
0
LINE
8
0
10
247.3054174
20
44.8115728
11
228.0801835
21
39.2988257
0
LINE
8
0
10
228.0801835
20
39.2988257
11
232.9038372
21
22.476746
0
LINE
8
0
10
216.2836717
20
3.0024196
11
234.8273488
21
10.4945515
0
LINE
8
0
10
234.8273488
20
10.4945515
11
228.2717335
21
26.720269
0
LINE
8
0
10
209.7280564
20
19.2281371
11
214.2657178
21
7.9970307
0
LINE
8
0
10
214.4488305
20
7.5438111
11
216.2836717
21
3.0024196
0
LINE
8
0
10
228.2717334
20
26.7202689
11
221.7161181
21
42.9459864
0
LINE
8
0
10
203.172441
20
35.4538545
11
209.7280563
21
19.228137
0
LINE
8
0
10
221.716118
20
42.9459864
11
215.1605027
21
59.1717039
0
LINE
8
0
10
215.1605027
20
59.1717039
11
196.6168256
21
51.679572
0
LINE
8
0
10
196.6168256
20
51.679572
11
203.1724409
21
35.4538545
0
LINE
8
0
10
196.3458603
20
-0.8977426
11
214.4488305
21
7.5438111
0
LINE
8
0
10
214.2657178
20
7.9970307
11
207.0761965
21
23.415009
0
LINE
8
0
10
192.2845574
20
55.1357817
11
207.0761965
21
23.4150091
0
LINE
8
0
10
192.2845574
20
55.1357817
11
174.1584016
21
46.6834164
0
LINE
8
0
10
174.1584016
20
46.6834164
11
176.0073564
21
42.7183198
0
LINE
8
0
10
180.9749673
20
-12.8925861
11
198.1948152
21
-4.8628391
0
LINE
8
0
10
198.1948152
20
-4.8628391
11
196.3458603
21
-0.8977426
0
LINE
8
0
10
176.0073564
20
42.7183198
11
157.8812006
21
34.2659545
0
LINE
8
0
10
157.8812006
20
34.2659545
11
158.6207826
21
32.6799159
0
LINE
8
0
10
163.5883934
20
-22.93099
11
181.7145492
21
-14.4786247
0
LINE
8
0
10
181.7145492
20
-14.4786247
11
180.9749673
21
-12.8925861
0
LINE
8
0
10
141.4009347
20
24.6501689
11
163.5883934
21
-22.93099
0
LINE
8
0
10
158.6207826
20
32.6799159
11
141.4009347
21
24.6501689
0
LINE
8
0
10
56.2730263
20
-32.5253517
11
67.3054676
21
-48.2813107
0
LINE
8
0
10
74.9121362
20
-43.8895982
11
82.0797159
21
-38.8708049
0
LINE
8
0
10
82.0797159
20
-38.8708049
11
70.6081871
21
-22.487764
0
LINE
8
0
10
70.6081871
20
-22.487764
11
56.2730263
21
-32.5253517
0
LINE
8
0
10
67.3054676
20
-48.2813107
11
75.1107822
21
-65.0198617
0
LINE
8
0
10
83.3645001
20
-62.0157547
11
91.2946939
21
-58.3178446
0
LINE
8
0
10
91.2946939
20
-58.3178446
11
82.8423286
21
-40.1916888
0
LINE
8
0
10
82.8423286
20
-40.1916888
11
74.9121362
21
-43.8895982
0
LINE
8
0
10
75.1107822
20
-65.0198617
11
80.0890306
21
-83.5989377
0
LINE
8
0
10
80.0890306
20
-83.5989377
11
96.9927325
21
-79.0696044
0
LINE
8
0
10
96.9927325
20
-79.0696044
11
91.8163516
21
-59.7510879
0
LINE
8
0
10
91.8163516
20
-59.7510879
11
83.3645001
21
-62.0157547
0
LINE
8
0
10
182.4464672
20
-48.2813107
11
193.4789085
21
-32.5253517
0
LINE
8
0
10
193.4789085
20
-32.5253517
11
179.1437477
21
-22.487764
0
LINE
8
0
10
179.1437477
20
-22.487764
11
167.6722189
21
-38.8708049
0
LINE
8
0
10
167.6722189
20
-38.8708049
11
174.8397986
21
-43.8895982
0
LINE
8
0
10
174.6411526
20
-65.0198617
11
182.4464672
21
-48.2813107
0
LINE
8
0
10
174.8397986
20
-43.8895982
11
166.9096062
21
-40.1916888
0
LINE
8
0
10
166.9096062
20
-40.1916888
11
158.4572409
21
-58.3178446
0
LINE
8
0
10
158.4572409
20
-58.3178446
11
166.3874347
21
-62.0157547
0
LINE
8
0
10
169.6629042
20
-83.5989377
11
174.6411526
21
-65.0198617
0
LINE
8
0
10
166.3874347
20
-62.0157547
11
157.9355832
21
-59.7510879
0
LINE
8
0
10
157.9355832
20
-59.7510879
11
152.7592023
21
-79.0696044
0
LINE
8
0
10
152.7592023
20
-79.0696044
11
169.6629042
21
-83.5989377
0
ENDSEC
0
EOF