<svg width="273.893mm" height="143.039mm" viewBox="0 0 273.893 143.039" xmlns="http://www.w3.org/2000/svg"><g id="svgGroup" stroke-linecap="round" fill-rule="evenodd" font-size="9pt" stroke="#000" stroke-width="0.25mm" fill="none" style="stroke:#000;stroke-width:0.25mm;fill:none"><path d="M 0.194 33.968 L 3.708 21.712 A 5 5 0 0 1 9.893 18.284 L 25.701 22.817 A 5 5 0 0 0 30.228 21.895 L 55.865 1.116 A 5 5 0 0 1 59.769 0.057 L 78.575 2.931 A 5 5 0 0 1 79.933 3.342 L 100.685 13.019 A 5 5 0 0 1 101.437 13.453 L 128.426 32.325 A 5 5 0 0 1 130.092 38.536 L 125.298 48.817 A 5 5 0 0 0 129.829 55.93 L 144.064 55.93 A 5 5 0 0 0 148.595 48.817 L 143.801 38.536 A 5 5 0 0 1 145.467 32.325 L 172.456 13.453 A 5 5 0 0 1 173.208 13.019 L 193.96 3.342 A 5 5 0 0 1 195.318 2.931 L 214.125 0.057 A 5 5 0 0 1 218.028 1.116 L 243.665 21.895 A 5 5 0 0 0 248.192 22.817 L 264.001 18.284 A 5 5 0 0 1 270.185 21.712 L 273.699 33.968 A 5 5 0 0 1 270.271 40.152 L 262.101 42.495 A 5 5 0 0 0 258.672 48.68 L 260.74 55.889 A 5 5 0 0 1 257.312 62.074 L 240.207 66.978 A 5 5 0 0 1 237.772 67.059 L 217.219 62.618 A 5 5 0 0 0 214.169 62.919 L 206.565 66.226 A 5 5 0 0 0 203.65 69.859 L 199.288 92.365 A 5 5 0 0 1 197.79 95.07 L 177.547 113.948 A 5 5 0 0 0 176.623 115.112 L 162.003 140.531 A 5 5 0 0 1 155.556 142.57 L 141.289 135.917 A 5 5 0 0 0 139.175 135.449 L 134.718 135.449 A 5 5 0 0 0 132.605 135.917 L 118.337 142.57 A 5 5 0 0 1 111.89 140.531 L 97.27 115.112 A 5 5 0 0 0 96.346 113.948 L 76.103 95.07 A 5 5 0 0 1 74.605 92.365 L 70.243 69.859 A 5 5 0 0 0 67.328 66.226 L 59.724 62.919 A 5 5 0 0 0 56.675 62.618 L 36.121 67.059 A 5 5 0 0 1 33.687 66.978 L 16.582 62.074 A 5 5 0 0 1 13.153 55.889 L 15.221 48.68 A 5 5 0 0 0 11.793 42.495 L 3.622 40.152 A 5 5 0 0 1 0.194 33.968 Z M 93.313 105.718 L 104.883 119.507 L 117.906 108.58 L 106.336 94.791 L 93.313 105.718 Z M 181.025 105.274 L 194.814 93.703 L 183.886 80.681 L 170.098 92.251 L 181.025 105.274 Z M 169.01 119.507 L 180.58 105.718 L 167.558 94.791 L 155.987 108.58 L 169.01 119.507 Z M 79.079 93.703 L 92.868 105.274 L 103.796 92.251 L 90.007 80.681 L 79.079 93.703 Z M 15.475 58.766 L 32.778 63.727 L 37.464 47.386 L 20.161 42.424 L 15.475 58.766 Z M 2.516 36.844 L 19.818 41.806 L 24.504 25.464 L 7.202 20.503 L 2.516 36.844 Z M 20.299 41.944 L 37.602 46.905 L 42.288 30.564 L 24.985 25.602 L 20.299 41.944 Z M 254.075 41.806 L 271.377 36.844 L 266.692 20.503 L 249.389 25.464 L 254.075 41.806 Z M 241.115 63.727 L 258.418 58.766 L 253.732 42.424 L 236.429 47.386 L 241.115 63.727 Z M 236.291 46.905 L 253.594 41.944 L 248.908 25.602 L 231.605 30.564 L 236.291 46.905 Z M 66.229 38.191 L 82.543 45.798 L 89.727 30.391 L 73.414 22.784 L 66.229 38.191 Z M 73.698 65.948 L 90.012 73.555 L 97.197 58.148 L 80.883 50.541 L 73.698 65.948 Z M 81.094 50.088 L 97.408 57.695 L 104.592 42.287 L 88.279 34.68 L 81.094 50.088 Z M 88.49 34.227 L 104.804 41.834 L 111.988 26.427 L 95.675 18.82 L 88.49 34.227 Z M 89.62 75.579 L 105.933 83.186 L 113.118 67.779 L 96.804 60.172 L 89.62 75.579 Z M 97.016 59.719 L 113.329 67.326 L 120.514 51.919 L 104.2 44.311 L 97.016 59.719 Z M 104.412 43.858 L 120.725 51.465 L 127.91 36.058 L 111.596 28.451 L 104.412 43.858 Z M 198.746 61.658 L 215.06 54.051 L 207.875 38.644 L 191.561 46.251 L 198.746 61.658 Z M 191.35 45.798 L 207.664 38.191 L 200.479 22.784 L 184.166 30.391 L 191.35 45.798 Z M 183.954 29.937 L 200.268 22.33 L 193.083 6.923 L 176.77 14.53 L 183.954 29.937 Z M 183.881 73.555 L 200.195 65.948 L 193.01 50.541 L 176.697 58.148 L 183.881 73.555 Z M 176.485 57.695 L 192.799 50.088 L 185.614 34.68 L 169.301 42.287 L 176.485 57.695 Z M 169.089 41.834 L 185.403 34.227 L 178.218 18.82 L 161.905 26.427 L 169.089 41.834 Z M 167.96 83.186 L 184.273 75.579 L 177.089 60.172 L 160.775 67.779 L 167.96 83.186 Z M 160.564 67.326 L 176.877 59.719 L 169.693 44.311 L 153.379 51.919 L 160.564 67.326 Z M 153.168 51.465 L 169.482 43.858 L 162.297 28.451 L 145.983 36.058 L 153.168 51.465 Z M 107.898 124.24 L 115.505 140.553 L 130.912 133.369 L 123.305 117.055 L 107.898 124.24 Z M 158.388 140.553 L 165.995 124.24 L 150.588 117.055 L 142.981 133.369 L 158.388 140.553 Z M 58.834 54.051 L 75.147 61.658 L 82.332 46.251 L 66.018 38.644 L 58.834 54.051 Z M 73.625 22.33 L 89.939 29.937 L 97.123 14.53 L 80.81 6.923 L 73.625 22.33 Z M 204.262 26.027 L 220.951 19.284 L 214.583 3.522 L 197.893 10.265 L 204.262 26.027 Z M 217.373 58.479 L 234.062 51.736 L 227.694 35.974 L 211.004 42.717 L 217.373 58.479 Z M 210.817 42.253 L 227.506 35.51 L 221.138 19.748 L 204.449 26.491 L 210.817 42.253 Z M 39.831 51.736 L 56.52 58.479 L 62.889 42.717 L 46.199 35.974 L 39.831 51.736 Z M 46.387 35.51 L 63.076 42.253 L 69.444 26.491 L 52.755 19.748 L 46.387 35.51 Z M 52.942 19.284 L 69.632 26.027 L 76 10.265 L 59.311 3.522 L 52.942 19.284 Z" vector-effect="non-scaling-stroke"/></g></svg>