<svg width="272.68mm" height="132.724mm" viewBox="0 0 272.68 132.724" xmlns="http://www.w3.org/2000/svg"><g id="svgGroup" stroke-linecap="round" fill-rule="evenodd" font-size="9pt" stroke="#000" stroke-width="0.25mm" fill="none" style="stroke:#000;stroke-width:0.25mm;fill:none"><path d="M 0.302 28.486 L 4.662 16.505 A 5 5 0 0 1 11.071 13.516 L 41.759 24.686 A 5 5 0 0 0 47.927 22.251 L 57.836 2.736 A 5 5 0 0 1 63.393 0.122 L 80.315 3.932 A 5 5 0 0 1 81.641 4.436 L 101.667 15.537 A 5 5 0 0 1 102.387 16.023 L 127.994 36.732 A 5 5 0 0 1 129.223 43.044 L 125.335 50.056 A 5 5 0 0 0 129.709 57.48 L 142.971 57.48 A 5 5 0 0 0 147.344 50.056 L 143.457 43.044 A 5 5 0 0 1 144.686 36.732 L 170.293 16.023 A 5 5 0 0 1 171.013 15.537 L 191.039 4.436 A 5 5 0 0 1 192.365 3.932 L 209.287 0.122 A 5 5 0 0 1 214.843 2.736 L 224.753 22.251 A 5 5 0 0 0 230.921 24.686 L 261.609 13.516 A 5 5 0 0 1 268.018 16.505 L 272.378 28.486 A 5 5 0 0 1 269.39 34.894 L 261.403 37.802 A 5 5 0 0 0 258.414 44.21 L 260.979 51.258 A 5 5 0 0 1 257.991 57.666 L 242.369 63.352 A 5 5 0 0 1 238.027 62.905 L 230.008 57.941 A 5 5 0 0 0 225.068 57.758 L 199.424 71.107 A 5 5 0 0 0 197.216 77.687 L 203.267 90.427 A 5 5 0 0 1 201.244 96.906 L 179.774 109.256 A 5 5 0 0 0 178.282 110.57 L 162.991 130.744 A 5 5 0 0 1 156.659 132.139 L 144.225 125.527 A 5 5 0 0 0 141.878 124.942 L 130.802 124.942 A 5 5 0 0 0 128.455 125.527 L 116.021 132.139 A 5 5 0 0 1 109.689 130.744 L 94.398 110.57 A 5 5 0 0 0 92.906 109.256 L 71.436 96.906 A 5 5 0 0 1 69.412 90.427 L 75.464 77.687 A 5 5 0 0 0 73.256 71.107 L 47.612 57.758 A 5 5 0 0 0 42.672 57.941 L 34.652 62.905 A 5 5 0 0 1 30.311 63.352 L 14.689 57.666 A 5 5 0 0 1 11.7 51.258 L 14.266 44.21 A 5 5 0 0 0 11.277 37.802 L 3.29 34.894 A 5 5 0 0 1 0.302 28.486 Z M 13.816 54.289 L 30.731 60.446 L 36.545 44.471 L 19.631 38.314 L 13.816 54.289 Z M 2.417 31.517 L 19.332 37.674 L 25.146 21.699 L 8.232 15.542 L 2.417 31.517 Z M 19.802 37.845 L 36.716 44.001 L 42.53 28.026 L 25.616 21.87 L 19.802 37.845 Z M 253.348 37.674 L 270.263 31.517 L 264.448 15.542 L 247.534 21.699 L 253.348 37.674 Z M 241.949 60.446 L 258.864 54.289 L 253.049 38.314 L 236.135 44.471 L 241.949 60.446 Z M 235.964 44.001 L 252.878 37.845 L 247.064 21.87 L 230.149 28.026 L 235.964 44.001 Z M 218.241 57.806 L 234.419 49.915 L 226.967 34.636 L 210.788 42.526 L 218.241 57.806 Z M 210.569 42.077 L 226.747 34.186 L 219.295 18.907 L 203.117 26.797 L 210.569 42.077 Z M 45.932 34.186 L 62.111 42.077 L 69.563 26.797 L 53.385 18.907 L 45.932 34.186 Z M 202.898 26.348 L 219.076 18.457 L 211.624 3.178 L 195.445 11.068 L 202.898 26.348 Z M 38.261 49.915 L 54.439 57.806 L 61.892 42.526 L 45.713 34.636 L 38.261 49.915 Z M 53.604 18.457 L 69.782 26.348 L 77.234 11.068 L 61.056 3.178 L 53.604 18.457 Z M 104.929 114.224 L 113.38 130.117 L 128.39 122.136 L 119.939 106.243 L 104.929 114.224 Z M 159.3 130.117 L 167.751 114.224 L 152.741 106.243 L 144.29 122.136 L 159.3 130.117 Z M 169.739 112.092 L 185.003 102.554 L 175.995 88.137 L 160.73 97.676 L 169.739 112.092 Z M 87.676 102.554 L 102.941 112.092 L 111.95 97.676 L 96.685 88.137 L 87.676 102.554 Z M 74.024 22.939 L 89.767 31.665 L 98.009 16.797 L 82.266 8.07 L 74.024 22.939 Z M 79.539 51.149 L 95.282 59.876 L 103.524 45.007 L 87.78 36.281 L 79.539 51.149 Z M 94.749 61.867 L 110.493 70.594 L 118.734 55.726 L 102.991 46.999 L 94.749 61.867 Z M 65.54 38.245 L 81.283 46.971 L 89.525 32.103 L 73.782 23.376 L 65.54 38.245 Z M 88.023 35.843 L 103.766 44.57 L 112.008 29.701 L 96.265 20.975 L 88.023 35.843 Z M 57.056 53.55 L 72.799 62.277 L 81.041 47.408 L 65.297 38.682 L 57.056 53.55 Z M 103.234 46.562 L 118.977 55.288 L 127.219 40.42 L 111.475 31.693 L 103.234 46.562 Z M 177.398 59.876 L 193.141 51.149 L 184.9 36.281 L 169.156 45.007 L 177.398 59.876 Z M 162.187 70.594 L 177.93 61.867 L 169.689 46.999 L 153.946 55.726 L 162.187 70.594 Z M 153.703 55.288 L 169.446 46.562 L 161.204 31.693 L 145.461 40.42 L 153.703 55.288 Z M 71.054 66.455 L 86.798 75.182 L 95.039 60.313 L 79.296 51.587 L 71.054 66.455 Z M 191.397 46.971 L 207.14 38.245 L 198.898 23.376 L 183.155 32.103 L 191.397 46.971 Z M 182.913 31.665 L 198.656 22.939 L 190.414 8.07 L 174.671 16.797 L 182.913 31.665 Z M 168.914 44.57 L 184.657 35.843 L 176.415 20.975 L 160.672 29.701 L 168.914 44.57 Z M 86.265 77.173 L 102.008 85.9 L 110.25 71.031 L 94.507 62.305 L 86.265 77.173 Z M 71.469 93.554 L 87.212 102.28 L 95.454 87.412 L 79.711 78.685 L 71.469 93.554 Z M 199.881 62.277 L 215.624 53.55 L 207.383 38.682 L 191.639 47.408 L 199.881 62.277 Z M 185.882 75.182 L 201.625 66.455 L 193.384 51.587 L 177.641 60.313 L 185.882 75.182 Z M 170.671 85.9 L 186.415 77.173 L 178.173 62.305 L 162.43 71.031 L 170.671 85.9 Z M 185.468 102.28 L 201.211 93.554 L 192.969 78.685 L 177.226 87.412 L 185.468 102.28 Z" vector-effect="non-scaling-stroke"/></g></svg>