<svg width="275.335mm" height="146.188mm" viewBox="0 0 275.335 146.188" xmlns="http://www.w3.org/2000/svg"><g id="svgGroup" stroke-linecap="round" fill-rule="evenodd" font-size="9pt" stroke="#000" stroke-width="0.25mm" fill="none" style="stroke:#000;stroke-width:0.25mm;fill:none"><path d="M 0.194 63.31 L 12.873 19.092 A 5 5 0 0 1 19.058 15.664 L 33.129 19.699 A 5 5 0 0 0 39.082 16.911 L 45.061 3.361 A 5 5 0 0 1 50.487 0.453 L 68.982 3.65 A 5 5 0 0 1 70.243 4.045 L 91.032 13.739 A 5 5 0 0 1 91.718 14.128 L 94.798 16.208 A 5 5 0 0 0 102.505 13.023 L 104.258 4.042 A 5 5 0 0 1 109.165 0 L 166.17 0 A 5 5 0 0 1 171.077 4.042 L 172.831 13.023 A 5 5 0 0 0 180.537 16.208 L 183.945 13.906 L 205.092 4.045 A 5 5 0 0 1 206.353 3.65 L 224.849 0.453 A 5 5 0 0 1 230.275 3.361 L 236.253 16.911 A 5 5 0 0 0 242.206 19.699 L 256.278 15.664 A 5 5 0 0 1 262.462 19.092 L 275.142 63.31 A 5 5 0 0 1 271.713 69.494 L 255.654 74.099 A 5 5 0 0 1 251.532 73.473 L 234.652 62.391 A 5 5 0 0 0 229.794 62.039 L 213.214 69.771 A 5 5 0 0 0 210.343 73.913 L 208.922 92.107 A 5 5 0 0 1 208.468 93.831 L 185.4 143.301 A 5 5 0 0 1 179.575 146.017 L 162.312 141.392 A 5 5 0 0 1 159.065 134.468 L 177.295 94.931 A 5 5 0 0 0 177.286 90.725 L 174.288 84.297 A 5 5 0 0 0 169.757 81.41 L 105.578 81.41 A 5 5 0 0 0 101.047 84.297 L 98.05 90.725 A 5 5 0 0 0 98.041 94.931 L 116.27 134.468 A 5 5 0 0 1 113.023 141.392 L 95.761 146.017 A 5 5 0 0 1 89.935 143.301 L 66.867 93.831 A 5 5 0 0 1 66.414 92.107 L 64.993 73.913 A 5 5 0 0 0 62.121 69.771 L 45.541 62.039 A 5 5 0 0 0 40.684 62.391 L 23.803 73.473 A 5 5 0 0 1 19.681 74.099 L 3.622 69.494 A 5 5 0 0 1 0.194 63.31 Z M 69.843 94.32 L 80.167 109.065 L 94.093 99.314 L 83.769 84.57 L 69.843 94.32 Z M 195.168 109.065 L 205.492 94.32 L 191.567 84.57 L 181.242 99.314 L 195.168 109.065 Z M 88.205 126.301 L 92.863 143.688 L 109.284 139.288 L 104.625 121.901 L 88.205 126.301 Z M 182.472 143.688 L 187.131 126.301 L 170.71 121.901 L 166.051 139.288 L 182.472 143.688 Z M 2.251 67.021 L 19.553 71.982 L 24.239 55.641 L 6.936 50.679 L 2.251 67.021 Z M 11.898 33.376 L 29.201 38.338 L 33.886 21.996 L 16.584 17.035 L 11.898 33.376 Z M 7.074 50.199 L 24.377 55.16 L 29.063 38.819 L 11.76 33.857 L 7.074 50.199 Z M 255.782 71.982 L 273.085 67.021 L 268.399 50.679 L 251.096 55.641 L 255.782 71.982 Z M 250.958 55.16 L 268.261 50.199 L 263.575 33.857 L 246.273 38.819 L 250.958 55.16 Z M 246.135 38.338 L 263.437 33.376 L 258.752 17.035 L 241.449 21.996 L 246.135 38.338 Z M 209.485 61.579 L 225.799 53.972 L 218.614 38.565 L 202.301 46.172 L 209.485 61.579 Z M 185.812 58.136 L 202.126 50.529 L 194.941 35.122 L 178.628 42.729 L 185.812 58.136 Z M 49.537 53.972 L 65.85 61.579 L 73.035 46.172 L 56.721 38.565 L 49.537 53.972 Z M 64.328 22.251 L 80.642 29.858 L 87.826 14.451 L 71.513 6.844 L 64.328 22.251 Z M 65.814 66.389 L 82.127 73.997 L 89.312 58.589 L 72.998 50.982 L 65.814 66.389 Z M 73.21 50.529 L 89.523 58.136 L 96.708 42.729 L 80.394 35.122 L 73.21 50.529 Z M 80.606 34.669 L 96.919 42.276 L 104.104 26.869 L 87.79 19.261 L 80.606 34.669 Z M 81.841 75.794 L 98.155 83.401 L 105.339 67.994 L 89.026 60.387 L 81.841 75.794 Z M 89.237 59.934 L 105.55 67.541 L 112.735 52.133 L 96.421 44.526 L 89.237 59.934 Z M 96.633 44.073 L 112.946 51.68 L 120.131 36.273 L 103.817 28.666 L 96.633 44.073 Z M 178.416 42.276 L 194.73 34.669 L 187.545 19.261 L 171.232 26.869 L 178.416 42.276 Z M 177.181 83.401 L 193.494 75.794 L 186.31 60.387 L 169.996 67.994 L 177.181 83.401 Z M 169.785 67.541 L 186.098 59.934 L 178.914 44.526 L 162.6 52.133 L 169.785 67.541 Z M 162.389 51.68 L 178.703 44.073 L 171.518 28.666 L 155.205 36.273 L 162.389 51.68 Z M 80.423 109.507 L 88.03 125.821 L 103.437 118.636 L 95.83 102.323 L 80.423 109.507 Z M 187.305 125.821 L 194.912 109.507 L 179.505 102.323 L 171.898 118.636 L 187.305 125.821 Z M 193.208 73.997 L 209.521 66.389 L 202.337 50.982 L 186.023 58.589 L 193.208 73.997 Z M 56.933 38.112 L 73.246 45.719 L 80.431 30.312 L 64.117 22.704 L 56.933 38.112 Z M 202.089 45.719 L 218.403 38.112 L 211.218 22.704 L 194.905 30.312 L 202.089 45.719 Z M 194.693 29.858 L 211.007 22.251 L 203.822 6.844 L 187.509 14.451 L 194.693 29.858 Z M 35.746 34.753 L 52.435 41.496 L 58.803 25.734 L 42.114 18.991 L 35.746 34.753 Z M 42.301 18.527 L 58.991 25.27 L 65.359 9.508 L 48.67 2.765 L 42.301 18.527 Z M 229.456 57.722 L 246.145 50.979 L 239.777 35.217 L 223.087 41.96 L 229.456 57.722 Z M 222.9 41.496 L 239.589 34.753 L 233.221 18.991 L 216.532 25.734 L 222.9 41.496 Z M 216.345 25.27 L 233.034 18.527 L 226.666 2.765 L 209.976 9.508 L 216.345 25.27 Z M 29.19 50.979 L 45.88 57.722 L 52.248 41.96 L 35.559 35.217 L 29.19 50.979 Z" vector-effect="non-scaling-stroke"/></g></svg>