<svg width="274.174mm" height="136.946mm" viewBox="0 0 274.174 136.946" xmlns="http://www.w3.org/2000/svg"><g id="svgGroup" stroke-linecap="round" fill-rule="evenodd" font-size="9pt" stroke="#000" stroke-width="0.25mm" fill="none" style="stroke:#000;stroke-width:0.25mm;fill:none"><path d="M 0 31.545 L 17.544 37.416 L 11.991 54.011 L 34.277 61.468 L 38.575 48.622 L 58.095 57.518 L 60.108 53.102 L 72.056 59.322 L 69.978 63.314 L 86.388 71.856 L 85.464 73.63 L 106.309 84.481 L 114.39 68.959 L 130.551 37.913 L 114.141 29.371 L 115.065 27.597 L 98.655 19.054 L 100.733 15.063 L 79.888 4.212 L 77.556 8.692 L 58.483 0 L 51.226 15.924 L 44.791 30.043 L 45.382 28.277 L 5.553 14.95 L 0 31.545 Z M 256.63 37.416 L 274.174 31.545 L 268.622 14.95 L 228.792 28.277 L 229.383 30.043 L 222.949 15.924 L 215.692 0 L 196.619 8.692 L 194.286 4.212 L 173.442 15.063 L 175.52 19.054 L 159.11 27.597 L 160.033 29.371 L 143.624 37.913 L 159.785 68.959 L 167.866 84.481 L 188.71 73.63 L 187.787 71.856 L 204.196 63.314 L 202.119 59.322 L 214.067 53.102 L 216.079 57.518 L 235.6 48.622 L 239.898 61.468 L 262.183 54.011 L 256.63 37.416 Z M 181.944 102.265 L 199.673 90.97 L 190.271 76.21 L 173.348 86.991 L 173.257 86.872 L 171.897 87.916 L 170.451 88.837 L 170.532 88.963 L 154.613 101.178 L 165.266 115.062 L 181.944 102.265 Z M 74.501 90.97 L 92.231 102.265 L 108.908 115.062 L 119.562 101.178 L 103.643 88.963 L 103.723 88.837 L 102.278 87.916 L 100.918 86.872 L 100.827 86.991 L 83.904 76.21 L 74.501 90.97 Z M 156.141 136.946 L 165.134 115.234 L 148.966 108.537 L 139.973 130.249 L 156.141 136.946 Z M 109.041 115.234 L 118.034 136.946 L 134.202 130.249 L 125.209 108.537 L 109.041 115.234 Z" vector-effect="non-scaling-stroke"/></g></svg>