0
SECTION
2
HEADER
9
$INSUNITS
70
4
0
ENDSEC
0
SECTION
2
TABLES
0
TABLE
2
LTYPE
0
LTYPE
72
65
70
64
2
CONTINUOUS
3
______
73
0
40
0
0
ENDTAB
0
TABLE
2
LAYER
0
ENDTAB
0
ENDSEC
0
SECTION
2
ENTITIES
0
LINE
8
0
10
32.9246833
20
-109.0898264
11
50.3089968
21
-115.4171991
0
LINE
8
0
10
38.9100358
20
-92.6452056
11
78.3771258
21
-107.0100516
0
LINE
8
0
10
38.9100358
20
-92.6452056
11
32.9246833
21
-109.0898264
0
LINE
8
0
10
44.3236443
20
-131.8618199
11
66.4064208
21
-139.8992933
0
LINE
8
0
10
66.4064208
20
-139.8992933
11
70.6972844
21
-128.1102425
0
LINE
8
0
10
50.3089968
20
-115.4171991
11
44.3236443
21
-131.8618199
0
LINE
8
0
10
77.3980377
20
-109.7000741
11
78.3771258
21
-107.0100516
0
LINE
8
0
10
70.6972844
20
-128.1102425
11
89.9783136
21
-137.5142288
0
LINE
8
0
10
89.9783136
20
-137.5142288
11
92.1056075
21
-133.15263
0
LINE
8
0
10
84.1996437
20
-95.7547152
11
77.3980377
21
-109.7000741
0
LINE
8
0
10
110.7099899
20
-89.214141
11
91.8711388
21
-80.0258193
0
LINE
8
0
10
91.8711388
20
-80.0258193
11
84.1996437
21
-95.7547151
0
LINE
8
0
10
92.1056075
20
-133.15263
11
103.8866977
21
-139.682995
0
LINE
8
0
10
131.5306579
20
-100.1252971
11
133.7123012
21
-96.1895084
0
LINE
8
0
10
133.7123012
20
-96.1895084
11
113.1587381
21
-84.7964823
0
LINE
8
0
10
113.1587381
20
-84.7964823
11
110.7099899
21
-89.214141
0
LINE
8
0
10
101.7050544
20
-143.6187838
11
117.885519
21
-152.5877618
0
LINE
8
0
10
103.8866977
20
-139.682995
11
101.7050544
21
-143.6187838
0
LINE
8
0
10
146.7415033
20
-110.8435144
11
147.7111225
21
-109.0942751
0
LINE
8
0
10
147.7111225
20
-109.0942751
11
131.5306579
21
-100.1252971
0
LINE
8
0
10
116.9158999
20
-154.3370011
11
137.469463
21
-165.7300272
0
LINE
8
0
10
137.469463
20
-165.7300272
11
145.9536313
21
-150.4241823
0
LINE
8
0
10
117.885519
20
-152.5877618
11
116.9158999
21
-154.3370011
0
LINE
8
0
10
145.9536314
20
-150.4241823
11
162.921968
21
-119.8124925
0
LINE
8
0
10
162.921968
20
-119.8124925
11
146.7415033
21
-110.8435144
0
LINE
8
0
10
288.7249384
20
-115.4171991
11
306.1092519
21
-109.0898264
0
LINE
8
0
10
306.1092519
20
-109.0898264
11
300.1238994
21
-92.6452056
0
LINE
8
0
10
260.6568094
20
-107.0100516
11
300.1238994
21
-92.6452056
0
LINE
8
0
10
272.6275144
20
-139.8992933
11
294.7102909
21
-131.8618199
0
LINE
8
0
10
294.7102909
20
-131.8618199
11
288.7249384
21
-115.4171991
0
LINE
8
0
10
268.3366508
20
-128.1102425
11
272.6275144
21
-139.8992933
0
LINE
8
0
10
260.6568094
20
-107.0100516
11
261.6358975
21
-109.7000741
0
LINE
8
0
10
249.0556216
20
-137.5142288
11
268.3366508
21
-128.1102425
0
LINE
8
0
10
246.9283277
20
-133.15263
11
249.0556216
21
-137.5142288
0
LINE
8
0
10
261.6358975
20
-109.7000741
11
254.8342915
21
-95.7547152
0
LINE
8
0
10
254.8342915
20
-95.7547151
11
247.1627964
21
-80.0258193
0
LINE
8
0
10
247.1627964
20
-80.0258193
11
228.3239453
21
-89.214141
0
LINE
8
0
10
235.1472375
20
-139.682995
11
246.9283277
21
-133.15263
0
LINE
8
0
10
228.3239453
20
-89.214141
11
225.8751971
21
-84.7964823
0
LINE
8
0
10
225.8751971
20
-84.7964823
11
205.321634
21
-96.1895084
0
LINE
8
0
10
205.321634
20
-96.1895084
11
207.5032773
21
-100.1252971
0
LINE
8
0
10
221.1484162
20
-152.5877618
11
237.3288808
21
-143.6187838
0
LINE
8
0
10
237.3288808
20
-143.6187838
11
235.1472375
21
-139.682995
0
LINE
8
0
10
207.5032773
20
-100.1252971
11
191.3228127
21
-109.0942751
0
LINE
8
0
10
191.3228127
20
-109.0942751
11
192.2924319
21
-110.8435144
0
LINE
8
0
10
201.5644722
20
-165.7300272
11
222.1180353
21
-154.3370011
0
LINE
8
0
10
222.1180353
20
-154.3370011
11
221.1484162
21
-152.5877618
0
LINE
8
0
10
193.0803039
20
-150.4241823
11
201.5644722
21
-165.7300272
0
LINE
8
0
10
176.1119672
20
-119.8124925
11
193.0803038
21
-150.4241823
0
LINE
8
0
10
192.2924319
20
-110.8435144
11
176.1119672
21
-119.8124925
0
LINE
8
0
10
102.1193945
20
-170.7172767
11
120.4978595
21
-180.9046262
0
LINE
8
0
10
131.1055823
20
-166.897445
11
131.1571259
21
-166.8044579
0
LINE
8
0
10
131.1571259
20
-166.8044579
11
129.3828256
21
-165.8209472
0
LINE
8
0
10
127.6060905
20
-164.8360868
11
110.6035628
21
-155.4114318
0
LINE
8
0
10
110.6035628
20
-155.4114318
11
102.1193945
21
-170.7172767
0
LINE
8
0
10
120.4978595
20
-180.9046262
11
137.2085554
21
-191.3466279
0
LINE
8
0
10
140.9051842
20
-187.899466
11
147.5915603
21
-177.1990274
0
LINE
8
0
10
147.5915603
20
-177.1990274
11
131.1055823
21
-166.897445
0
LINE
8
0
10
129.3828256
20
-165.8209472
11
127.66243
21
-164.7459247
0
LINE
8
0
10
127.66243
20
-164.7459247
11
127.6060905
21
-164.8360868
0
LINE
8
0
10
137.2085554
20
-191.3466279
11
147.6269738
21
-210.9408232
0
LINE
8
0
10
147.6269738
20
-210.9408232
11
163.0785567
21
-202.7250708
0
LINE
8
0
10
163.0785567
20
-202.7250708
11
152.045975
21
-181.9758024
0
LINE
8
0
10
152.045975
20
-181.9758024
11
140.9051842
21
-187.899466
0
LINE
8
0
10
218.5360757
20
-180.9046262
11
236.9145407
21
-170.7172767
0
LINE
8
0
10
236.9145407
20
-170.7172767
11
228.4303724
21
-155.4114318
0
LINE
8
0
10
228.4303724
20
-155.4114318
11
211.4278447
21
-164.8360868
0
LINE
8
0
10
209.6511096
20
-165.8209472
11
207.8768093
21
-166.8044579
0
LINE
8
0
10
207.8768093
20
-166.8044579
11
207.9283529
21
-166.897445
0
LINE
8
0
10
201.8253798
20
-191.3466279
11
218.5360757
21
-180.9046262
0
LINE
8
0
10
211.4278447
20
-164.8360868
11
211.3715052
21
-164.7459247
0
LINE
8
0
10
211.3715052
20
-164.7459247
11
209.6511096
21
-165.8209472
0
LINE
8
0
10
207.9283529
20
-166.897445
11
191.4423749
21
-177.1990274
0
LINE
8
0
10
191.4423749
20
-177.1990274
11
198.128751
21
-187.899466
0
LINE
8
0
10
191.4069614
20
-210.9408232
11
201.8253798
21
-191.3466279
0
LINE
8
0
10
198.128751
20
-187.899466
11
186.9879602
21
-181.9758024
0
LINE
8
0
10
186.9879602
20
-181.9758024
11
175.9553785
21
-202.7250708
0
LINE
8
0
10
175.9553785
20
-202.7250708
11
191.4069614
21
-210.9408232
0
ENDSEC
0
EOF