<svg width="277.701mm" height="145.911mm" viewBox="0 0 277.701 145.911" xmlns="http://www.w3.org/2000/svg"><g id="svgGroup" stroke-linecap="round" fill-rule="evenodd" font-size="9pt" stroke="#000" stroke-width="0.25mm" fill="none" style="stroke:#000;stroke-width:0.25mm;fill:none"><path d="M 0 65.074 L 24.032 71.965 L 30.328 50.008 L 50.214 58.042 L 52 53.622 L 65.568 59.949 L 63.719 63.915 L 80.486 71.733 L 79.746 73.319 L 102.404 83.884 L 124.591 36.303 L 107.825 28.485 L 108.564 26.899 L 90.438 18.446 L 92.287 14.481 L 69.629 3.916 L 67.531 8.416 L 46.701 0 L 40.145 16.226 L 38.066 21.373 L 14.471 14.608 L 0 65.074 Z M 253.669 71.965 L 277.701 65.074 L 263.23 14.608 L 239.635 21.373 L 237.555 16.226 L 231 0 L 210.17 8.416 L 208.072 3.916 L 185.414 14.481 L 187.263 18.446 L 169.137 26.899 L 169.876 28.485 L 153.11 36.303 L 175.297 83.884 L 197.955 73.319 L 197.215 71.733 L 213.982 63.915 L 212.133 59.949 L 225.701 53.622 L 227.487 58.042 L 247.373 50.008 L 253.669 71.965 Z M 68.814 90.374 L 81.28 108.178 L 89.085 124.917 L 94.711 145.911 L 111.614 141.381 L 106.049 120.61 L 106.326 120.481 L 105.593 118.909 L 105.144 117.233 L 104.848 117.312 L 97.238 100.991 L 97.488 100.816 L 96.493 99.395 L 95.76 97.823 L 95.483 97.952 L 83.149 80.337 L 68.814 90.374 Z M 196.421 108.178 L 208.887 90.374 L 194.552 80.337 L 182.218 97.952 L 181.941 97.823 L 181.208 99.395 L 180.213 100.816 L 180.463 100.991 L 172.852 117.312 L 172.557 117.233 L 172.108 118.909 L 171.375 120.481 L 171.652 120.61 L 166.087 141.381 L 182.99 145.911 L 188.616 124.917 L 196.421 108.178 Z" vector-effect="non-scaling-stroke"/></g></svg>