<svg width="274.286mm" height="140.891mm" viewBox="0 0 274.286 140.891" xmlns="http://www.w3.org/2000/svg"><g id="svgGroup" stroke-linecap="round" fill-rule="evenodd" font-size="9pt" stroke="#000" stroke-width="0.25mm" fill="none" style="stroke:#000;stroke-width:0.25mm;fill:none"><path d="M 256.503 39.166 L 274.286 34.066 L 269.463 17.244 L 229.09 28.821 L 229.603 30.612 L 217.235 0 L 197.801 7.852 L 195.667 3.274 L 174.368 13.206 L 176.27 17.284 L 159.504 25.102 L 160.349 26.915 L 143.582 34.733 L 150.978 50.594 L 165.77 82.315 L 187.068 72.383 L 186.223 70.571 L 202.989 62.752 L 201.087 58.674 L 213.295 52.981 L 215.113 57.48 L 235.003 49.444 L 238.737 62.465 L 261.327 55.988 L 256.503 39.166 Z M 0 34.066 L 17.783 39.166 L 12.96 55.988 L 35.549 62.465 L 39.283 49.444 L 59.173 57.48 L 60.991 52.981 L 73.199 58.674 L 71.297 62.752 L 88.064 70.571 L 87.219 72.383 L 108.517 82.315 L 123.308 50.594 L 130.704 34.733 L 113.938 26.915 L 114.783 25.102 L 98.016 17.284 L 99.918 13.206 L 78.62 3.274 L 76.485 7.852 L 57.051 0 L 44.683 30.612 L 45.197 28.821 L 4.824 17.244 L 0 34.066 Z M 181.157 103.394 L 197.278 89.867 L 186.029 76.461 L 169.455 90.368 L 169.33 90.263 L 168.736 90.972 L 168.027 91.567 L 168.132 91.692 L 154.225 108.265 L 167.631 119.514 L 181.157 103.394 Z M 77.009 89.867 L 93.129 103.394 L 106.656 119.514 L 120.062 108.265 L 106.155 91.692 L 106.259 91.567 L 105.551 90.972 L 104.956 90.263 L 104.831 90.368 L 88.257 76.461 L 77.009 89.867 Z M 106.706 119.593 L 116.637 140.891 L 132.498 133.495 L 122.566 112.197 L 106.706 119.593 Z M 157.649 140.891 L 167.581 119.593 L 151.72 112.197 L 141.789 133.495 L 157.649 140.891 Z" vector-effect="non-scaling-stroke"/></g></svg>