0
SECTION
2
HEADER
9
$INSUNITS
70
4
0
ENDSEC
0
SECTION
2
TABLES
0
TABLE
2
LTYPE
0
LTYPE
72
65
70
64
2
CONTINUOUS
3
______
73
0
40
0
0
ENDTAB
0
TABLE
2
LAYER
0
ENDTAB
0
ENDSEC
0
SECTION
2
ENTITIES
0
LINE
8
0
10
54.1348359
20
-128.6554781
11
78.1663783
21
-135.546412
0
LINE
8
0
10
78.1663783
20
-135.546412
11
84.4624365
21
-113.5894476
0
LINE
8
0
10
54.1348359
20
-128.6554781
11
68.6057972
21
-78.189239
0
LINE
8
0
10
92.200556
20
-84.9549272
11
68.6057972
21
-78.189239
0
LINE
8
0
10
84.4624365
20
-113.5894476
11
104.3486567
21
-121.624002
0
LINE
8
0
10
104.3486567
20
-121.624002
11
106.1344172
21
-117.2040897
0
LINE
8
0
10
94.2802911
20
-79.8074023
11
92.200556
21
-84.9549272
0
LINE
8
0
10
121.6657076
20
-71.9974707
11
100.8359065
21
-63.5816848
0
LINE
8
0
10
100.8359065
20
-63.5816848
11
94.2802911
21
-79.8074022
0
LINE
8
0
10
106.1344172
20
-117.2040897
11
119.7027392
21
-123.5311021
0
LINE
8
0
10
144.5727818
20
-82.0281309
11
146.4217367
21
-78.0630344
0
LINE
8
0
10
146.4217367
20
-78.0630344
11
123.7640421
21
-67.4975779
0
LINE
8
0
10
123.7640421
20
-67.4975779
11
121.6657076
21
-71.9974707
0
LINE
8
0
10
117.8537843
20
-127.4961987
11
134.6204783
21
-135.3146365
0
LINE
8
0
10
119.7027392
20
-123.5311021
11
117.8537843
21
-127.4961987
0
LINE
8
0
10
161.9593556
20
-92.0665349
11
162.6989376
21
-90.4804962
0
LINE
8
0
10
162.6989376
20
-90.4804962
11
144.5727818
21
-82.0281309
0
LINE
8
0
10
133.8808964
20
-136.9006751
11
156.538591
21
-147.4661316
0
LINE
8
0
10
156.538591
20
-147.4661316
11
178.7260497
21
-99.8849727
0
LINE
8
0
10
134.6204783
20
-135.3146365
11
133.8808964
21
-136.9006751
0
LINE
8
0
10
178.7260497
20
-99.8849727
11
161.9593556
21
-92.0665349
0
LINE
8
0
10
307.8041169
20
-135.546412
11
331.8356593
21
-128.6554781
0
LINE
8
0
10
317.364698
20
-78.189239
11
331.8356593
21
-128.6554781
0
LINE
8
0
10
301.5080587
20
-113.5894476
11
307.8041169
21
-135.546412
0
LINE
8
0
10
317.364698
20
-78.189239
11
293.7699392
21
-84.9549272
0
LINE
8
0
10
281.6218385
20
-121.624002
11
301.5080587
21
-113.5894476
0
LINE
8
0
10
279.836078
20
-117.2040897
11
281.6218385
21
-121.624002
0
LINE
8
0
10
293.7699392
20
-84.9549272
11
291.6902041
21
-79.8074023
0
LINE
8
0
10
291.6902041
20
-79.8074022
11
285.1345887
21
-63.5816848
0
LINE
8
0
10
285.1345887
20
-63.5816848
11
264.3047876
21
-71.9974707
0
LINE
8
0
10
266.267756
20
-123.5311021
11
279.836078
21
-117.2040897
0
LINE
8
0
10
264.3047876
20
-71.9974707
11
262.2064531
21
-67.4975779
0
LINE
8
0
10
262.2064531
20
-67.4975779
11
239.5487585
21
-78.0630344
0
LINE
8
0
10
239.5487585
20
-78.0630344
11
241.3977134
21
-82.0281309
0
LINE
8
0
10
251.3500169
20
-135.3146365
11
268.1167109
21
-127.4961987
0
LINE
8
0
10
268.1167109
20
-127.4961987
11
266.267756
21
-123.5311021
0
LINE
8
0
10
241.3977134
20
-82.0281309
11
223.2715576
21
-90.4804962
0
LINE
8
0
10
223.2715576
20
-90.4804962
11
224.0111396
21
-92.0665349
0
LINE
8
0
10
229.4319042
20
-147.4661316
11
252.0895988
21
-136.9006751
0
LINE
8
0
10
252.0895988
20
-136.9006751
11
251.3500169
21
-135.3146365
0
LINE
8
0
10
207.2444455
20
-99.8849727
11
229.4319042
21
-147.4661316
0
LINE
8
0
10
224.0111396
20
-92.0665349
11
207.2444455
21
-99.8849727
0
LINE
8
0
10
122.9483655
20
-153.9560676
11
135.4147479
21
-171.7599067
0
LINE
8
0
10
151.3724122
20
-164.5727005
11
151.6229371
21
-164.397281
0
LINE
8
0
10
151.6229371
20
-164.397281
11
150.6280839
21
-162.9764834
0
LINE
8
0
10
149.6178828
20
-161.5337667
11
137.2835262
21
-143.9184799
0
LINE
8
0
10
137.2835262
20
-143.9184799
11
122.9483655
21
-153.9560676
0
LINE
8
0
10
135.4147479
20
-171.7599067
11
143.2200625
21
-188.4984579
0
LINE
8
0
10
160.1833393
20
-184.1914613
11
160.4605197
21
-184.06221
0
LINE
8
0
10
160.4605197
20
-184.06221
11
159.7274989
21
-182.4902419
0
LINE
8
0
10
158.9831708
20
-180.8940251
11
151.3724122
21
-164.5727005
0
LINE
8
0
10
150.6280839
20
-162.9764834
11
149.8950632
21
-161.4045154
0
LINE
8
0
10
149.8950632
20
-161.4045154
11
149.6178828
21
-161.5337667
0
LINE
8
0
10
143.2200625
20
-188.4984579
11
148.8453584
21
-209.4923483
0
LINE
8
0
10
148.8453584
20
-209.4923483
11
165.7490603
21
-204.963015
0
LINE
8
0
10
165.7490603
20
-204.963015
11
160.1833393
21
-184.1914613
0
LINE
8
0
10
159.7274989
20
-182.4902419
11
159.2785842
21
-180.8148693
0
LINE
8
0
10
159.2785842
20
-180.8148693
11
158.9831708
21
-180.8940251
0
LINE
8
0
10
250.5557473
20
-171.7599067
11
263.0221297
21
-153.9560676
0
LINE
8
0
10
263.0221297
20
-153.9560676
11
248.686969
21
-143.9184799
0
LINE
8
0
10
248.686969
20
-143.9184799
11
236.3526124
21
-161.5337667
0
LINE
8
0
10
235.3424113
20
-162.9764834
11
234.3475581
21
-164.397281
0
LINE
8
0
10
234.3475581
20
-164.397281
11
234.598083
21
-164.5727005
0
LINE
8
0
10
242.7504327
20
-188.4984579
11
250.5557473
21
-171.7599067
0
LINE
8
0
10
236.3526124
20
-161.5337667
11
236.075432
21
-161.4045154
0
LINE
8
0
10
236.075432
20
-161.4045154
11
235.3424113
21
-162.9764834
0
LINE
8
0
10
234.598083
20
-164.5727005
11
226.9873244
21
-180.8940251
0
LINE
8
0
10
226.2429963
20
-182.4902419
11
225.5099755
21
-184.06221
0
LINE
8
0
10
225.5099755
20
-184.06221
11
225.7871559
21
-184.1914613
0
LINE
8
0
10
237.1251368
20
-209.4923483
11
242.7504327
21
-188.4984579
0
LINE
8
0
10
226.9873244
20
-180.8940251
11
226.691911
21
-180.8148693
0
LINE
8
0
10
226.691911
20
-180.8148693
11
226.2429963
21
-182.4902419
0
LINE
8
0
10
225.7871559
20
-184.1914613
11
220.2214349
21
-204.963015
0
LINE
8
0
10
220.2214349
20
-204.963015
11
237.1251368
21
-209.4923483
0
ENDSEC
0
EOF