0
SECTION
2
HEADER
9
$INSUNITS
70
4
0
ENDSEC
0
SECTION
2
TABLES
0
TABLE
2
LTYPE
0
LTYPE
72
65
70
64
2
CONTINUOUS
3
______
73
0
40
0
0
ENDTAB
0
TABLE
2
LAYER
0
ENDTAB
0
ENDSEC
0
SECTION
2
ENTITIES
0
LINE
8
0
10
35.7690396
20
-108.1905764
11
53.3130272
21
-114.0607125
0
LINE
8
0
10
41.3218711
20
-91.5949124
11
81.1514646
21
-104.9217079
0
LINE
8
0
10
41.3218711
20
-91.5949124
11
35.7690396
21
-108.1905764
0
LINE
8
0
10
47.7601957
20
-130.6563765
11
70.0458016
21
-138.1130359
0
LINE
8
0
10
70.0458016
20
-138.1130359
11
74.3438981
21
-125.2673795
0
LINE
8
0
10
53.3130272
20
-114.0607125
11
47.7601957
21
-130.6563765
0
LINE
8
0
10
80.5604334
20
-106.6881138
11
81.1514646
21
-104.9217079
0
LINE
8
0
10
74.3438981
20
-125.2673795
11
93.8644879
21
-134.1634248
0
LINE
8
0
10
93.8644879
20
-134.1634248
11
95.8768794
21
-129.7476346
0
LINE
8
0
10
86.9946614
20
-92.5694891
11
80.5604334
21
-106.6881138
0
LINE
8
0
10
113.324711
20
-85.3371962
11
94.2517932
21
-76.6451668
0
LINE
8
0
10
94.2517932
20
-76.6451668
11
86.9946615
21
-92.569489
0
LINE
8
0
10
95.8768794
20
-129.7476346
11
107.8248775
21
-135.9673687
0
LINE
8
0
10
134.4238651
20
-95.6995918
11
136.5017339
21
-91.708043
0
LINE
8
0
10
136.5017339
20
-91.708043
11
115.6569793
21
-80.8569506
0
LINE
8
0
10
115.6569793
20
-80.8569506
11
113.324711
21
-85.3371962
0
LINE
8
0
10
105.7470087
20
-139.9589176
11
122.1567093
21
-148.501267
0
LINE
8
0
10
107.8248775
20
-135.9673687
11
105.7470087
21
-139.9589176
0
LINE
8
0
10
149.9100683
20
-106.0159627
11
150.8335655
21
-104.2419411
0
LINE
8
0
10
150.8335655
20
-104.2419411
11
134.4238651
21
-95.6995918
0
LINE
8
0
10
121.2332121
20
-150.2752886
11
142.0779667
21
-161.126381
0
LINE
8
0
10
142.0779667
20
-161.126381
11
150.1585675
21
-145.6036914
0
LINE
8
0
10
122.1567093
20
-148.501267
11
121.2332121
21
-150.2752886
0
LINE
8
0
10
150.1585674
20
-145.6036913
11
166.3197689
21
-114.5583121
0
LINE
8
0
10
166.3197689
20
-114.5583121
11
149.9100683
21
-106.0159627
0
LINE
8
0
10
292.3994832
20
-114.0607125
11
309.9434708
21
-108.1905764
0
LINE
8
0
10
309.9434708
20
-108.1905764
11
304.3906393
21
-91.5949124
0
LINE
8
0
10
264.5610458
20
-104.9217079
11
304.3906393
21
-91.5949124
0
LINE
8
0
10
275.6667088
20
-138.1130359
11
297.9523147
21
-130.6563765
0
LINE
8
0
10
297.9523147
20
-130.6563765
11
292.3994832
21
-114.0607125
0
LINE
8
0
10
271.3686123
20
-125.2673795
11
275.6667088
21
-138.1130359
0
LINE
8
0
10
264.5610458
20
-104.9217079
11
265.152077
21
-106.6881138
0
LINE
8
0
10
251.8480225
20
-134.1634248
11
271.3686123
21
-125.2673795
0
LINE
8
0
10
249.835631
20
-129.7476346
11
251.8480225
21
-134.1634248
0
LINE
8
0
10
265.152077
20
-106.6881138
11
258.717849
21
-92.5694891
0
LINE
8
0
10
258.7178489
20
-92.569489
11
251.4607172
21
-76.6451668
0
LINE
8
0
10
251.4607172
20
-76.6451668
11
232.3877994
21
-85.3371962
0
LINE
8
0
10
237.8876329
20
-135.9673687
11
249.835631
21
-129.7476346
0
LINE
8
0
10
232.3877994
20
-85.3371962
11
230.0555311
21
-80.8569506
0
LINE
8
0
10
230.0555311
20
-80.8569506
11
209.2107765
21
-91.708043
0
LINE
8
0
10
209.2107765
20
-91.708043
11
211.2886453
21
-95.6995918
0
LINE
8
0
10
223.5558011
20
-148.501267
11
239.9655017
21
-139.9589176
0
LINE
8
0
10
239.9655017
20
-139.9589176
11
237.8876329
21
-135.9673687
0
LINE
8
0
10
211.2886453
20
-95.6995918
11
194.8789449
21
-104.2419411
0
LINE
8
0
10
194.8789449
20
-104.2419411
11
195.8024421
21
-106.0159627
0
LINE
8
0
10
203.6345437
20
-161.126381
11
224.4792983
21
-150.2752886
0
LINE
8
0
10
224.4792983
20
-150.2752886
11
223.5558011
21
-148.501267
0
LINE
8
0
10
195.5539429
20
-145.6036914
11
203.6345437
21
-161.126381
0
LINE
8
0
10
179.3927415
20
-114.5583121
11
195.553943
21
-145.6036913
0
LINE
8
0
10
195.8024421
20
-106.0159627
11
179.3927415
21
-114.5583121
0
LINE
8
0
10
110.2700627
20
-167.6148791
11
127.999695
21
-178.9099005
0
LINE
8
0
10
139.411929
20
-165.6085483
11
139.4925049
21
-165.4820695
0
LINE
8
0
10
139.4925049
20
-165.4820695
11
138.0468451
21
-164.5610827
0
LINE
8
0
10
136.595663
20
-163.6365777
11
119.6728059
21
-152.8555288
0
LINE
8
0
10
119.6728059
20
-152.8555288
11
110.2700627
21
-167.6148791
0
LINE
8
0
10
127.999695
20
-178.9099005
11
144.6774341
21
-191.7071798
0
LINE
8
0
10
144.6774341
20
-191.7071798
11
155.3307592
21
-177.8234964
0
LINE
8
0
10
155.3307592
20
-177.8234964
11
139.411929
21
-165.6085483
0
LINE
8
0
10
138.0468451
20
-164.5610827
11
136.6869557
21
-163.5176028
0
LINE
8
0
10
136.6869557
20
-163.5176028
11
136.595663
21
-163.6365777
0
LINE
8
0
10
144.8097438
20
-191.879609
11
153.8028044
21
-213.590778
0
LINE
8
0
10
153.8028044
20
-213.590778
11
169.9706962
21
-206.893818
0
LINE
8
0
10
169.9706962
20
-206.893818
11
160.9776356
21
-185.182649
0
LINE
8
0
10
160.9776356
20
-185.182649
11
144.8097438
21
-191.879609
0
LINE
8
0
10
217.7128154
20
-178.9099005
11
235.4424477
21
-167.6148791
0
LINE
8
0
10
235.4424477
20
-167.6148791
11
226.0397045
21
-152.8555288
0
LINE
8
0
10
226.0397045
20
-152.8555288
11
209.1168474
21
-163.6365777
0
LINE
8
0
10
207.6656653
20
-164.5610827
11
206.2200055
21
-165.4820695
0
LINE
8
0
10
206.2200055
20
-165.4820695
11
206.3005814
21
-165.6085483
0
LINE
8
0
10
201.0350763
20
-191.7071798
11
217.7128154
21
-178.9099005
0
LINE
8
0
10
209.1168474
20
-163.6365777
11
209.0255547
21
-163.5176028
0
LINE
8
0
10
209.0255547
20
-163.5176028
11
207.6656653
21
-164.5610827
0
LINE
8
0
10
206.3005814
20
-165.6085483
11
190.3817512
21
-177.8234964
0
LINE
8
0
10
190.3817512
20
-177.8234964
11
201.0350763
21
-191.7071798
0
LINE
8
0
10
191.909706
20
-213.590778
11
200.9027666
21
-191.879609
0
LINE
8
0
10
200.9027666
20
-191.879609
11
184.7348748
21
-185.182649
0
LINE
8
0
10
184.7348748
20
-185.182649
11
175.7418142
21
-206.893818
0
LINE
8
0
10
175.7418142
20
-206.893818
11
191.909706
21
-213.590778
0
ENDSEC
0
EOF