<svg width="273.185mm" height="130.915mm" viewBox="0 0 273.185 130.915" xmlns="http://www.w3.org/2000/svg"><g id="svgGroup" stroke-linecap="round" fill-rule="evenodd" font-size="9pt" stroke="#000" stroke-width="0.25mm" fill="none" style="stroke:#000;stroke-width:0.25mm;fill:none"><path d="M 255.8 35.391 L 273.185 29.064 L 267.199 12.619 L 227.732 26.984 L 228.711 29.674 L 221.91 15.729 L 214.238 0 L 195.399 9.188 L 192.951 4.771 L 172.397 16.164 L 174.579 20.099 L 158.398 29.068 L 159.368 30.818 L 143.187 39.787 L 160.156 70.398 L 168.64 85.704 L 189.193 74.311 L 188.224 72.562 L 204.404 63.593 L 202.223 59.657 L 214.004 53.127 L 216.131 57.488 L 235.412 48.084 L 239.703 59.873 L 261.786 51.836 L 255.8 35.391 Z M 0 29.064 L 17.384 35.391 L 11.399 51.836 L 33.482 59.873 L 37.773 48.084 L 57.054 57.488 L 59.181 53.127 L 70.962 59.657 L 68.78 63.593 L 84.961 72.562 L 83.991 74.311 L 104.545 85.704 L 113.029 70.398 L 129.997 39.787 L 113.817 30.818 L 114.786 29.068 L 98.606 20.099 L 100.788 16.164 L 80.234 4.771 L 77.785 9.188 L 58.946 0 L 51.275 15.729 L 44.473 29.674 L 45.452 26.984 L 5.985 12.619 L 0 29.064 Z M 185.611 100.879 L 203.99 90.691 L 195.506 75.386 L 178.503 84.81 L 178.447 84.72 L 176.726 85.795 L 174.952 86.779 L 175.004 86.872 L 158.518 97.173 L 165.204 107.874 L 154.063 101.95 L 143.031 122.699 L 158.482 130.915 L 168.901 111.321 L 185.611 100.879 Z M 69.195 90.691 L 87.573 100.879 L 104.284 111.321 L 114.702 130.915 L 130.154 122.699 L 119.121 101.95 L 107.981 107.874 L 114.667 97.173 L 98.181 86.872 L 98.232 86.779 L 96.458 85.795 L 94.738 84.72 L 94.681 84.81 L 77.679 75.386 L 69.195 90.691 Z" vector-effect="non-scaling-stroke"/></g></svg>