0
SECTION
2
HEADER
9
$INSUNITS
70
4
0
ENDSEC
0
SECTION
2
TABLES
0
TABLE
2
LTYPE
0
LTYPE
72
65
70
64
2
CONTINUOUS
3
______
73
0
40
0
0
ENDTAB
0
TABLE
2
LAYER
0
ENDTAB
0
ENDSEC
0
SECTION
2
ENTITIES
0
LINE
8
0
10
40.454202
20
-106.5273793
11
58.2375434
21
-111.6266703
0
LINE
8
0
10
45.2778557
20
-89.7052996
11
85.650847
21
-101.2820686
0
LINE
8
0
10
45.2778557
20
-89.7052996
11
40.454202
21
-106.5273793
0
LINE
8
0
10
53.4138897
20
-128.44875
11
76.0035396
21
-134.9262279
0
LINE
8
0
10
76.0035396
20
-134.9262279
11
79.7372256
21
-121.9053175
0
LINE
8
0
10
58.2375434
20
-111.6266703
11
53.4138897
21
-128.44875
0
LINE
8
0
10
85.137428
20
-103.0725735
11
85.650847
21
-101.2820686
0
LINE
8
0
10
79.7372256
20
-121.9053175
11
99.6272761
21
-129.9414195
0
LINE
8
0
10
99.6272761
20
-129.9414195
11
101.4451382
21
-125.442053
0
LINE
8
0
10
85.137428
20
-103.0725735
11
97.5053016
21
-72.4610121
0
LINE
8
0
10
116.9392072
20
-80.3128196
11
97.5053016
21
-72.4610121
0
LINE
8
0
10
101.4451382
20
-125.442053
11
113.6530655
21
-131.1347029
0
LINE
8
0
10
138.4702809
20
-89.7450204
11
140.3720631
21
-85.6666352
0
LINE
8
0
10
140.3720631
20
-85.6666352
11
119.0738301
21
-75.7351061
0
LINE
8
0
10
119.0738301
20
-75.7351061
11
116.9392072
21
-80.3128196
0
LINE
8
0
10
111.7512833
20
-135.213088
11
128.5179775
21
-143.0315259
0
LINE
8
0
10
113.6530655
20
-131.1347029
11
111.7512833
21
-135.213088
0
LINE
8
0
10
154.3917385
20
-99.3760737
11
155.236975
21
-97.5634582
0
LINE
8
0
10
155.236975
20
-97.5634582
11
138.4702809
21
-89.7450204
0
LINE
8
0
10
127.672741
20
-144.8441414
11
148.970974
21
-154.7756705
0
LINE
8
0
10
148.970974
20
-154.7756705
11
163.7626131
21
-123.0548979
0
LINE
8
0
10
128.5179775
20
-143.0315259
11
127.672741
21
-144.8441414
0
LINE
8
0
10
163.7626131
20
-123.0548978
11
171.1584327
21
-107.1945115
0
LINE
8
0
10
171.1584327
20
-107.1945115
11
154.3917385
21
-99.3760737
0
LINE
8
0
10
296.9571794
20
-111.6266703
11
314.7405208
21
-106.5273793
0
LINE
8
0
10
314.7405208
20
-106.5273793
11
309.9168671
21
-89.7052996
0
LINE
8
0
10
269.5438758
20
-101.2820686
11
309.9168671
21
-89.7052996
0
LINE
8
0
10
279.1911832
20
-134.9262279
11
301.7808331
21
-128.44875
0
LINE
8
0
10
301.7808331
20
-128.44875
11
296.9571794
21
-111.6266703
0
LINE
8
0
10
275.4574972
20
-121.9053175
11
279.1911832
21
-134.9262279
0
LINE
8
0
10
269.5438758
20
-101.2820686
11
270.0572948
21
-103.0725735
0
LINE
8
0
10
255.5674467
20
-129.9414195
11
275.4574972
21
-121.9053175
0
LINE
8
0
10
253.7495846
20
-125.442053
11
255.5674467
21
-129.9414195
0
LINE
8
0
10
257.6894212
20
-72.4610121
11
270.0572948
21
-103.0725735
0
LINE
8
0
10
257.6894212
20
-72.4610121
11
238.2555156
21
-80.3128196
0
LINE
8
0
10
241.5416573
20
-131.1347029
11
253.7495846
21
-125.442053
0
LINE
8
0
10
238.2555156
20
-80.3128196
11
236.1208927
21
-75.7351061
0
LINE
8
0
10
236.1208927
20
-75.7351061
11
214.8226597
21
-85.6666352
0
LINE
8
0
10
214.8226597
20
-85.6666352
11
216.7244419
21
-89.7450204
0
LINE
8
0
10
226.6767453
20
-143.0315259
11
243.4434395
21
-135.213088
0
LINE
8
0
10
243.4434395
20
-135.213088
11
241.5416573
21
-131.1347029
0
LINE
8
0
10
216.7244419
20
-89.7450204
11
199.9577478
21
-97.5634582
0
LINE
8
0
10
199.9577478
20
-97.5634582
11
200.8029843
21
-99.3760737
0
LINE
8
0
10
206.2237488
20
-154.7756705
11
227.5219818
21
-144.8441414
0
LINE
8
0
10
227.5219818
20
-144.8441414
11
226.6767453
21
-143.0315259
0
LINE
8
0
10
191.4321097
20
-123.0548979
11
206.2237488
21
-154.7756705
0
LINE
8
0
10
200.8029843
20
-99.3760737
11
184.0362901
21
-107.1945115
0
LINE
8
0
10
184.0362901
20
-107.1945115
11
191.4321097
21
-123.0548978
0
LINE
8
0
10
117.4628243
20
-162.3280803
11
133.583268
21
-175.8547386
0
LINE
8
0
10
146.6087886
20
-164.1527825
11
146.7136519
21
-164.0278113
0
LINE
8
0
10
146.7136519
20
-164.0278113
11
146.0049048
21
-163.4331018
0
LINE
8
0
10
145.2852234
20
-162.8292175
11
128.7116075
21
-148.9223025
0
LINE
8
0
10
128.7116075
20
-148.9223025
11
117.4628243
21
-162.3280803
0
LINE
8
0
10
133.583268
20
-175.8547386
11
147.1099258
21
-191.9751817
0
LINE
8
0
10
147.1099258
20
-191.9751817
11
160.5157036
21
-180.7263985
0
LINE
8
0
10
160.5157036
20
-180.7263985
11
146.6087886
21
-164.1527825
0
LINE
8
0
10
146.0049048
20
-163.4331018
11
145.4101948
21
-162.7243541
0
LINE
8
0
10
145.4101948
20
-162.7243541
11
145.2852234
21
-162.8292175
0
LINE
8
0
10
147.1599113
20
-192.0536433
11
157.0914404
21
-213.3518763
0
LINE
8
0
10
157.0914404
20
-213.3518763
11
172.9518267
21
-205.9560567
0
LINE
8
0
10
172.9518267
20
-205.9560567
11
163.0202976
21
-184.6578237
0
LINE
8
0
10
163.0202976
20
-184.6578237
11
147.1599113
21
-192.0536433
0
LINE
8
0
10
221.6114548
20
-175.8547386
11
237.7318985
21
-162.3280803
0
LINE
8
0
10
237.7318985
20
-162.3280803
11
226.4831153
21
-148.9223025
0
LINE
8
0
10
226.4831153
20
-148.9223025
11
209.9094994
21
-162.8292175
0
LINE
8
0
10
209.189818
20
-163.4331018
11
208.4810709
21
-164.0278113
0
LINE
8
0
10
208.4810709
20
-164.0278113
11
208.5859342
21
-164.1527825
0
LINE
8
0
10
208.084797
20
-191.9751817
11
221.6114548
21
-175.8547386
0
LINE
8
0
10
209.9094994
20
-162.8292175
11
209.784528
21
-162.7243541
0
LINE
8
0
10
209.784528
20
-162.7243541
11
209.189818
21
-163.4331018
0
LINE
8
0
10
208.5859342
20
-164.1527825
11
194.6790192
21
-180.7263985
0
LINE
8
0
10
194.6790192
20
-180.7263985
11
208.084797
21
-191.9751817
0
LINE
8
0
10
198.1032824
20
-213.3518763
11
208.0348115
21
-192.0536433
0
LINE
8
0
10
208.0348115
20
-192.0536433
11
192.1744252
21
-184.6578237
0
LINE
8
0
10
192.1744252
20
-184.6578237
11
182.2428961
21
-205.9560567
0
LINE
8
0
10
182.2428961
20
-205.9560567
11
198.1032824
21
-213.3518763
0
ENDSEC
0
EOF