0
SECTION
2
HEADER
9
$INSUNITS
70
4
0
ENDSEC
0
SECTION
2
TABLES
0
TABLE
2
LTYPE
0
LTYPE
72
65
70
64
2
CONTINUOUS
3
______
73
0
40
0
0
ENDTAB
0
TABLE
2
LAYER
0
ENDTAB
0
ENDSEC
0
SECTION
2
ENTITIES
0
LINE
8
0
10
-14.4275981
20
-4.9655729
11
9.6039443
21
-11.8565068
0
LINE
8
0
10
9.6039443
20
-11.8565068
11
15.9000025
21
10.1004576
0
LINE
8
0
10
-14.4275981
20
-4.9655729
11
0.0433632
21
45.5006662
0
LINE
8
0
10
23.6381221
20
38.734978
11
0.0433632
21
45.5006662
0
LINE
8
0
10
15.9000025
20
10.1004576
11
35.7862227
21
2.0659032
0
LINE
8
0
10
35.7862227
20
2.0659032
11
37.5719832
21
6.4858155
0
LINE
8
0
10
25.7178571
20
43.8825028
11
23.6381221
21
38.734978
0
LINE
8
0
10
53.1032735
20
51.6924345
11
32.2734725
21
60.1082203
0
LINE
8
0
10
32.2734725
20
60.1082203
11
25.7178571
21
43.8825029
0
LINE
8
0
10
37.5719832
20
6.4858155
11
51.1403051
21
0.158803
0
LINE
8
0
10
76.0103477
20
41.6617742
11
77.8593026
21
45.6268708
0
LINE
8
0
10
77.8593026
20
45.6268708
11
55.201608
21
56.1923273
0
LINE
8
0
10
55.201608
20
56.1923273
11
53.1032735
21
51.6924345
0
LINE
8
0
10
49.2913502
20
-3.8062935
11
66.5111982
21
-11.8360405
0
LINE
8
0
10
51.1403051
20
0.158803
11
49.2913502
21
-3.8062935
0
LINE
8
0
10
93.3969216
20
31.6233702
11
94.1365036
21
33.2094089
0
LINE
8
0
10
94.1365036
20
33.2094089
11
76.0103477
21
41.6617742
0
LINE
8
0
10
65.7716162
20
-13.4220791
11
88.4293108
21
-23.9875356
0
LINE
8
0
10
88.4293108
20
-23.9875356
11
110.6167695
21
23.5936233
0
LINE
8
0
10
66.5111982
20
-11.8360405
11
65.7716162
21
-13.4220791
0
LINE
8
0
10
110.6167695
20
23.5936233
11
93.3969216
21
31.6233702
0
LINE
8
0
10
240.1479905
20
-11.8565068
11
264.1795329
21
-4.9655729
0
LINE
8
0
10
249.7085716
20
45.5006662
11
264.1795329
21
-4.9655729
0
LINE
8
0
10
233.8519323
20
10.1004576
11
240.1479905
21
-11.8565068
0
LINE
8
0
10
249.7085716
20
45.5006662
11
226.1138127
21
38.734978
0
LINE
8
0
10
213.9657121
20
2.0659032
11
233.8519323
21
10.1004576
0
LINE
8
0
10
212.1799516
20
6.4858155
11
213.9657121
21
2.0659032
0
LINE
8
0
10
226.1138127
20
38.734978
11
224.0340777
21
43.8825028
0
LINE
8
0
10
224.0340777
20
43.8825029
11
217.4784623
21
60.1082203
0
LINE
8
0
10
217.4784623
20
60.1082203
11
196.6486613
21
51.6924345
0
LINE
8
0
10
198.6116297
20
0.158803
11
212.1799516
21
6.4858155
0
LINE
8
0
10
196.6486613
20
51.6924345
11
194.5503268
21
56.1923273
0
LINE
8
0
10
194.5503268
20
56.1923273
11
171.8926322
21
45.6268708
0
LINE
8
0
10
171.8926322
20
45.6268708
11
173.7415871
21
41.6617742
0
LINE
8
0
10
183.2407366
20
-11.8360405
11
200.4605846
21
-3.8062935
0
LINE
8
0
10
200.4605846
20
-3.8062935
11
198.6116297
21
0.158803
0
LINE
8
0
10
173.7415871
20
41.6617742
11
155.6154312
21
33.2094089
0
LINE
8
0
10
155.6154312
20
33.2094089
11
156.3550132
21
31.6233702
0
LINE
8
0
10
161.322624
20
-23.9875356
11
183.9803186
21
-13.4220791
0
LINE
8
0
10
183.9803186
20
-13.4220791
11
183.2407366
21
-11.8360405
0
LINE
8
0
10
139.1351653
20
23.5936233
11
161.322624
21
-23.9875356
0
LINE
8
0
10
156.3550132
20
31.6233702
11
139.1351653
21
23.5936233
0
LINE
8
0
10
54.8390853
20
-30.4774716
11
67.3054677
21
-48.2813107
0
LINE
8
0
10
83.263132
20
-41.0941045
11
83.5136569
21
-40.918685
0
LINE
8
0
10
83.5136569
20
-40.918685
11
82.5188037
21
-39.4978874
0
LINE
8
0
10
81.5086026
20
-38.0551707
11
69.174246
21
-20.4398839
0
LINE
8
0
10
69.174246
20
-20.4398839
11
54.8390853
21
-30.4774716
0
LINE
8
0
10
67.3054677
20
-48.2813107
11
75.1107823
21
-65.0198619
0
LINE
8
0
10
92.0740591
20
-60.7128653
11
92.3512395
21
-60.583614
0
LINE
8
0
10
92.3512395
20
-60.583614
11
91.6182187
21
-59.0116459
0
LINE
8
0
10
90.8738906
20
-57.4154291
11
83.263132
21
-41.0941045
0
LINE
8
0
10
82.5188037
20
-39.4978874
11
81.785783
21
-37.9259194
0
LINE
8
0
10
81.785783
20
-37.9259194
11
81.5086026
21
-38.0551707
0
LINE
8
0
10
75.1107823
20
-65.0198619
11
80.7360782
21
-86.0137523
0
LINE
8
0
10
80.7360782
20
-86.0137523
11
97.6397801
21
-81.484419
0
LINE
8
0
10
97.6397801
20
-81.484419
11
92.0740591
21
-60.7128653
0
LINE
8
0
10
91.6182187
20
-59.0116459
11
91.169304
21
-57.3362733
0
LINE
8
0
10
91.169304
20
-57.3362733
11
90.8738906
21
-57.4154291
0
LINE
8
0
10
182.4464671
20
-48.2813107
11
194.9128495
21
-30.4774716
0
LINE
8
0
10
194.9128495
20
-30.4774716
11
180.5776888
21
-20.4398839
0
LINE
8
0
10
180.5776888
20
-20.4398839
11
168.2433322
21
-38.0551707
0
LINE
8
0
10
167.2331311
20
-39.4978874
11
166.2382779
21
-40.918685
0
LINE
8
0
10
166.2382779
20
-40.918685
11
166.4888028
21
-41.0941045
0
LINE
8
0
10
174.6411525
20
-65.0198619
11
182.4464671
21
-48.2813107
0
LINE
8
0
10
168.2433322
20
-38.0551707
11
167.9661518
21
-37.9259194
0
LINE
8
0
10
167.9661518
20
-37.9259194
11
167.2331311
21
-39.4978874
0
LINE
8
0
10
166.4888028
20
-41.0941045
11
158.8780442
21
-57.4154291
0
LINE
8
0
10
158.1337161
20
-59.0116459
11
157.4006953
21
-60.583614
0
LINE
8
0
10
157.4006953
20
-60.583614
11
157.6778757
21
-60.7128653
0
LINE
8
0
10
169.0158566
20
-86.0137523
11
174.6411525
21
-65.0198619
0
LINE
8
0
10
158.8780442
20
-57.4154291
11
158.5826308
21
-57.3362733
0
LINE
8
0
10
158.5826308
20
-57.3362733
11
158.1337161
21
-59.0116459
0
LINE
8
0
10
157.6778757
20
-60.7128653
11
152.1121547
21
-81.484419
0
LINE
8
0
10
152.1121547
20
-81.484419
11
169.0158566
21
-86.0137523
0
ENDSEC
0
EOF