%TF.GenerationSoftware,KiCad,Pcbnew,8.0.2-1*%
%TF.CreationDate,2024-06-17T15:58:38+09:00*%
%TF.ProjectId,tolkeeb_zero,746f6c6b-6565-4625-9f7a-65726f2e6b69,v1.0.0*%
%TF.SameCoordinates,Original*%
%TF.FileFunction,Paste,Top*%
%TF.FilePolarity,Positive*%
%FSLAX46Y46*%
G04 Gerber Fmt 4.6, Leading zero omitted, Abs format (unit mm)*
G04 Created by KiCad (PCBNEW 8.0.2-1) date 2024-06-17 15:58:38*
%MOMM*%
%LPD*%
G01*
G04 APERTURE LIST*
G04 Aperture macros list*
%AMRotRect*
0 Rectangle, with rotation*
0 The origin of the aperture is its center*
0 $1 length*
0 $2 width*
0 $3 Rotation angle, in degrees counterclockwise*
0 Add horizontal line*
21,1,$1,$2,0,0,$3*%
G04 Aperture macros list end*
%ADD10R,1.800000X1.100000*%
%ADD11RotRect,0.900000X1.200000X209.000000*%
%ADD12RotRect,0.900000X1.200000X148.000000*%
%ADD13RotRect,0.900000X1.200000X151.000000*%
%ADD14RotRect,0.900000X1.200000X118.000000*%
%ADD15RotRect,0.900000X1.200000X160.000000*%
%ADD16RotRect,0.900000X1.200000X206.000000*%
%ADD17RotRect,0.900000X1.200000X212.000000*%
%ADD18RotRect,0.900000X1.200000X242.000000*%
%ADD19RotRect,0.900000X1.200000X154.000000*%
%ADD20RotRect,0.900000X1.200000X200.000000*%
G04 APERTURE END LIST*
D10*
%TO.C,B1*%
X155427541Y-145446987D03*
X161627541Y-145446987D03*
X155427541Y-149146987D03*
X161627541Y-149146987D03*
%TD*%
D11*
%TO.C,D29*%
X183719763Y-147356627D03*
X180833517Y-148956499D03*
%TD*%
%TO.C,D27*%
X190446441Y-121332563D03*
X187560195Y-122932435D03*
%TD*%
D12*
%TO.C,D32*%
X112781894Y-190224194D03*
X109983336Y-188475458D03*
%TD*%
D13*
%TO.C,D31*%
X96685811Y-180642620D03*
X93799565Y-179042748D03*
%TD*%
D14*
%TO.C,D33*%
X127344284Y-207092793D03*
X125795028Y-204179069D03*
%TD*%
D15*
%TO.C,D1*%
X27784780Y-116838246D03*
X24683794Y-115709580D03*
%TD*%
D16*
%TO.C,D19*%
X240207094Y-134971045D03*
X237241072Y-136417667D03*
%TD*%
D17*
%TO.C,D35*%
X190816667Y-188475457D03*
X188018109Y-190224193D03*
%TD*%
D13*
%TO.C,D11*%
X104755639Y-138238281D03*
X101869393Y-136638409D03*
%TD*%
D18*
%TO.C,D36*%
X175004975Y-204179068D03*
X173455719Y-207092796D03*
%TD*%
D19*
%TO.C,D5*%
X71230428Y-120688770D03*
X68264406Y-119242148D03*
%TD*%
D13*
%TO.C,D12*%
X113239810Y-122932434D03*
X110353564Y-121332562D03*
%TD*%
D20*
%TO.C,D16*%
X276116208Y-115709575D03*
X273015220Y-116838243D03*
%TD*%
D11*
%TO.C,D30*%
X175235595Y-132050782D03*
X172349349Y-133650654D03*
%TD*%
%TO.C,D23*%
X212929429Y-123733641D03*
X210043183Y-125333513D03*
%TD*%
D15*
%TO.C,D2*%
X39183740Y-139610235D03*
X36082754Y-138481569D03*
%TD*%
D11*
%TO.C,D25*%
X207414776Y-151944253D03*
X204528530Y-153544125D03*
%TD*%
D20*
%TO.C,D17*%
X264717249Y-138481571D03*
X261616261Y-139610239D03*
%TD*%
D13*
%TO.C,D13*%
X111482318Y-164262342D03*
X108596072Y-162662470D03*
%TD*%
%TO.C,D7*%
X82272651Y-140639356D03*
X79386405Y-139039484D03*
%TD*%
D16*
%TO.C,D21*%
X224864101Y-103513252D03*
X221898079Y-104959874D03*
%TD*%
D13*
%TO.C,D15*%
X128450653Y-133650654D03*
X125564407Y-132050782D03*
%TD*%
D11*
%TO.C,D22*%
X221413598Y-139039488D03*
X218527352Y-140639360D03*
%TD*%
%TO.C,D24*%
X204445261Y-108427796D03*
X201559015Y-110027668D03*
%TD*%
%TO.C,D34*%
X207000437Y-179042746D03*
X204114191Y-180642618D03*
%TD*%
D20*
%TO.C,D18*%
X258731897Y-122036949D03*
X255630909Y-123165617D03*
%TD*%
D19*
%TO.C,D4*%
X63558931Y-136417665D03*
X60592909Y-134971043D03*
%TD*%
D13*
%TO.C,D8*%
X90756819Y-125333515D03*
X87870573Y-123733643D03*
%TD*%
%TO.C,D9*%
X99240986Y-110027669D03*
X96354740Y-108427797D03*
%TD*%
D11*
%TO.C,D26*%
X198930610Y-136638408D03*
X196044364Y-138238280D03*
%TD*%
D13*
%TO.C,D10*%
X96271471Y-153544127D03*
X93385225Y-151944255D03*
%TD*%
D11*
%TO.C,D28*%
X192203932Y-162662472D03*
X189317686Y-164262344D03*
%TD*%
D19*
%TO.C,D6*%
X78901922Y-104959874D03*
X75935900Y-103513252D03*
%TD*%
D16*
%TO.C,D20*%
X232535597Y-119242147D03*
X229569575Y-120688769D03*
%TD*%
D15*
%TO.C,D3*%
X45169094Y-123165617D03*
X42068108Y-122036951D03*
%TD*%
D13*
%TO.C,D14*%
X119966484Y-148956497D03*
X117080238Y-147356625D03*
%TD*%
M02*
