%TF.GenerationSoftware,KiCad,Pcbnew,8.0.2-1*%
%TF.CreationDate,2024-06-17T15:58:38+09:00*%
%TF.ProjectId,tolkeeb_zero,746f6c6b-6565-4625-9f7a-65726f2e6b69,v1.0.0*%
%TF.SameCoordinates,Original*%
%TF.FileFunction,Profile,NP*%
%FSLAX46Y46*%
G04 Gerber Fmt 4.6, Leading zero omitted, Abs format (unit mm)*
G04 Created by KiCad (PCBNEW 8.0.2-1) date 2024-06-17 15:58:38*
%MOMM*%
%LPD*%
G01*
G04 APERTURE LIST*
%TA.AperFunction,Profile*%
%ADD10C,0.150000*%
%TD*%
G04 APERTURE END LIST*
D10*
X275039443Y-136507099D02*
X272474293Y-129459404D01*
X275669082Y-98765661D02*
X244980921Y-109935241D01*
X116447374Y-101272133D02*
X142053873Y-121981097D01*
X157517178Y-128292862D02*
G75*
G02*
X158746115Y-121981079I4373122J2424062D01*
G01*
X71896495Y-87985590D02*
G75*
G02*
X77452831Y-85371442I4458105J-2263610D01*
G01*
X184352629Y-101272133D02*
X158746129Y-121981096D01*
X157517178Y-128292862D02*
X161404483Y-135305746D01*
X239127800Y-143006888D02*
G75*
G02*
X244068151Y-143190566I2308700J-4435012D01*
G01*
X143282824Y-128292858D02*
X139395519Y-135305747D01*
X17349961Y-120143668D02*
G75*
G02*
X14361559Y-113735087I1710039J4698468D01*
G01*
X56731827Y-143190526D02*
G75*
G02*
X61672219Y-143006850I2631673J-4251474D01*
G01*
X142515044Y-210776771D02*
X130081275Y-217387925D01*
X244068176Y-143190526D02*
X252087506Y-148154500D01*
X94374752Y-89180994D02*
G75*
G02*
X95700646Y-89685821I-1098452J-4878606D01*
G01*
X14361600Y-113735102D02*
X18722357Y-101754021D01*
X155937600Y-210191511D02*
X144862401Y-210191512D01*
X155937600Y-210191511D02*
G75*
G02*
X158284954Y-210776786I-100J-5000289D01*
G01*
X87316202Y-156356311D02*
G75*
G02*
X89523796Y-162936699I-2308902J-4435089D01*
G01*
X158284960Y-210776774D02*
X170718730Y-217387928D01*
X83472477Y-175675934D02*
X89523817Y-162936709D01*
X286438402Y-113735102D02*
X282077645Y-101754022D01*
X95700650Y-89685814D02*
X115727274Y-100786751D01*
X205099353Y-89685813D02*
X185072728Y-100786751D01*
X286438401Y-113735105D02*
G75*
G02*
X283450065Y-120143739I-4698601J-1710095D01*
G01*
X25130921Y-98765659D02*
X55819081Y-109935237D01*
X25760561Y-136507100D02*
X28325713Y-129459403D01*
X143768616Y-142729795D02*
X157031386Y-142729794D01*
X275669082Y-98765661D02*
G75*
G02*
X282077644Y-101754022I1710018J-4698639D01*
G01*
X48712498Y-148154499D02*
G75*
G02*
X44370762Y-148601565I-2631598J4250899D01*
G01*
X25337348Y-123050837D02*
X17349961Y-120143668D01*
X217327527Y-175675933D02*
G75*
G02*
X215304124Y-182155469I-4516107J-2145427D01*
G01*
X61987371Y-107500517D02*
G75*
G02*
X55819081Y-109935238I-4458201J2263767D01*
G01*
X177050849Y-215993399D02*
G75*
G02*
X170718737Y-217387915I-3984749J3020199D01*
G01*
X275039441Y-136507099D02*
G75*
G02*
X272051101Y-142915714I-4698341J-1710201D01*
G01*
X44370768Y-148601548D02*
X28748921Y-142915663D01*
X123749154Y-215993400D02*
X108458042Y-195818838D01*
X223347164Y-85371416D02*
G75*
G02*
X228903524Y-87985583I1098136J-4877984D01*
G01*
X143768616Y-142729795D02*
G75*
G02*
X139395589Y-135305786I84J4999995D01*
G01*
X275462655Y-123050838D02*
X283450040Y-120143669D01*
X205099353Y-89685813D02*
G75*
G02*
X206425254Y-89181007I2423847J-4372687D01*
G01*
X56731827Y-143190526D02*
X48712498Y-148154499D01*
X256429234Y-148601548D02*
X272051081Y-142915660D01*
X244980921Y-109935237D02*
G75*
G02*
X238812661Y-107500500I-1710121J4698337D01*
G01*
X213483801Y-156356309D02*
X239127800Y-143006888D01*
X177050849Y-215993399D02*
X192341962Y-195818840D01*
X256429234Y-148601547D02*
G75*
G02*
X252087523Y-148154472I-1710034J4698747D01*
G01*
X238812629Y-107500516D02*
X228903507Y-87985592D01*
X193833770Y-194504863D02*
X215304122Y-182155465D01*
X106966231Y-194504859D02*
G75*
G02*
X108458021Y-195818850I-2493431J-4334641D01*
G01*
X142053871Y-121981097D02*
G75*
G02*
X143282804Y-128292847I-3144171J-3887703D01*
G01*
X106966231Y-194504859D02*
X85495882Y-182155466D01*
X223347165Y-85371417D02*
X206425251Y-89180994D01*
X192341962Y-195818837D02*
G75*
G02*
X193833773Y-194504869I3984338J-3019763D01*
G01*
X115727274Y-100786751D02*
G75*
G02*
X116447380Y-101272125I-2423874J-4372949D01*
G01*
X161404483Y-135305747D02*
G75*
G02*
X157031386Y-142729789I-4373083J-2424053D01*
G01*
X184352631Y-101272133D02*
G75*
G02*
X185072732Y-100786758I3144469J-3888267D01*
G01*
X87316202Y-156356311D02*
X61672199Y-143006888D01*
X77452837Y-85371414D02*
X94374752Y-89180994D01*
X272474293Y-129459404D02*
G75*
G02*
X275462666Y-123050868I4698407J1710104D01*
G01*
X61987374Y-107500519D02*
X71896495Y-87985590D01*
X28748921Y-142915663D02*
G75*
G02*
X25760603Y-136507115I1710179J4698463D01*
G01*
X217327527Y-175675933D02*
X211276183Y-162936711D01*
X25337348Y-123050837D02*
G75*
G02*
X28325683Y-129459392I-1710148J-4698463D01*
G01*
X85495883Y-182155465D02*
G75*
G02*
X83472446Y-175675919I2493117J4334265D01*
G01*
X130081275Y-217387925D02*
G75*
G02*
X123749164Y-215993393I-2347375J4414625D01*
G01*
X18722356Y-101754025D02*
G75*
G02*
X25130921Y-98765658I4698464J-1710095D01*
G01*
X211276183Y-162936711D02*
G75*
G02*
X213483790Y-156356288I4516517J2145311D01*
G01*
X142515044Y-210776771D02*
G75*
G02*
X144862401Y-210191509I2347256J-4414329D01*
G01*
M02*
