%TF.GenerationSoftware,KiCad,Pcbnew,8.0.2-1*%
%TF.CreationDate,2024-06-17T15:58:38+09:00*%
%TF.ProjectId,tolkeeb_zero,746f6c6b-6565-4625-9f7a-65726f2e6b69,v1.0.0*%
%TF.SameCoordinates,Original*%
%TF.FileFunction,Soldermask,Top*%
%TF.FilePolarity,Negative*%
%FSLAX46Y46*%
G04 Gerber Fmt 4.6, Leading zero omitted, Abs format (unit mm)*
G04 Created by KiCad (PCBNEW 8.0.2-1) date 2024-06-17 15:58:38*
%MOMM*%
%LPD*%
G01*
G04 APERTURE LIST*
G04 Aperture macros list*
%AMRotRect*
0 Rectangle, with rotation*
0 The origin of the aperture is its center*
0 $1 length*
0 $2 width*
0 $3 Rotation angle, in degrees counterclockwise*
0 Add horizontal line*
21,1,$1,$2,0,0,$3*%
G04 Aperture macros list end*
%ADD10R,1.800000X1.100000*%
%ADD11R,1.752600X1.752600*%
%ADD12C,1.752600*%
%ADD13C,0.700000*%
%ADD14C,4.400000*%
%ADD15C,1.701800*%
%ADD16C,3.000000*%
%ADD17C,3.429000*%
%ADD18RotRect,0.900000X1.200000X209.000000*%
%ADD19RotRect,0.900000X1.200000X148.000000*%
%ADD20RotRect,0.900000X1.200000X151.000000*%
%ADD21RotRect,0.900000X1.200000X118.000000*%
%ADD22RotRect,0.900000X1.200000X160.000000*%
%ADD23RotRect,0.900000X1.200000X206.000000*%
%ADD24RotRect,0.900000X1.200000X212.000000*%
%ADD25R,1.200000X1.700000*%
%ADD26O,1.200000X1.700000*%
%ADD27RotRect,0.900000X1.200000X242.000000*%
%ADD28RotRect,0.900000X1.200000X154.000000*%
%ADD29RotRect,0.900000X1.200000X200.000000*%
G04 APERTURE END LIST*
D10*
%TO.C,B1*%
X155427541Y-145446987D03*
X161627541Y-145446987D03*
X155427541Y-149146987D03*
X161627541Y-149146987D03*
%TD*%
D11*
%TO.C,MCU1*%
X158020003Y-156020003D03*
D12*
X158020003Y-158560003D03*
X158020004Y-161100003D03*
X158020002Y-163640004D03*
X158020003Y-166180004D03*
X158020003Y-168720003D03*
X158020003Y-171260003D03*
X158020003Y-173800002D03*
X158020003Y-176340003D03*
X158020005Y-178880003D03*
X158020003Y-181420003D03*
X158020003Y-183960003D03*
X142780003Y-156020003D03*
X142780003Y-158560003D03*
X142780001Y-161100003D03*
X142780003Y-163640003D03*
X142780003Y-166180004D03*
X142780003Y-168720003D03*
X142780003Y-171260003D03*
X142780003Y-173800002D03*
X142780004Y-176340002D03*
X142780002Y-178880003D03*
X142780003Y-181420003D03*
X142780003Y-183960003D03*
%TD*%
D13*
%TO.C,_3*%
X61138430Y-113730247D03*
X60237699Y-114615396D03*
X61149451Y-112467442D03*
X58974894Y-114604375D03*
D14*
X59619598Y-113085543D03*
D13*
X60264302Y-111566711D03*
X58089745Y-113703644D03*
X59001497Y-111555690D03*
X58100766Y-112440839D03*
%TD*%
D15*
%TO.C,S8*%
X86781890Y-117756415D03*
D16*
X94476915Y-115218878D03*
D17*
X91592298Y-120422867D03*
D16*
X97783433Y-119567091D03*
D15*
X96402706Y-123089319D03*
%TD*%
D18*
%TO.C,D29*%
X183719763Y-147356627D03*
X180833517Y-148956499D03*
%TD*%
%TO.C,D27*%
X190446441Y-121332563D03*
X187560195Y-122932435D03*
%TD*%
D19*
%TO.C,D32*%
X112781894Y-190224194D03*
X109983336Y-188475458D03*
%TD*%
D15*
%TO.C,S35*%
X182262503Y-188278557D03*
D16*
X183773747Y-180318116D03*
D17*
X186926768Y-185364001D03*
D16*
X189179811Y-179534224D03*
D15*
X191591033Y-182449445D03*
%TD*%
%TO.C,S23*%
X204397293Y-123089318D03*
D17*
X209207702Y-120422865D03*
D16*
X206323085Y-115218876D03*
X211762763Y-114718994D03*
D15*
X214018111Y-117756412D03*
%TD*%
D13*
%TO.C,_2*%
X173750001Y-169045849D03*
X174233274Y-170212575D03*
X174233275Y-167879122D03*
X175400001Y-167395849D03*
D14*
X175400001Y-169045849D03*
D13*
X175400001Y-170695849D03*
X176566727Y-170212576D03*
X176566728Y-167879123D03*
X177050001Y-169045849D03*
%TD*%
D15*
%TO.C,S26*%
X190398472Y-135994086D03*
D17*
X195208881Y-133327633D03*
D16*
X192324264Y-128123644D03*
X197763942Y-127623762D03*
D15*
X200019290Y-130661180D03*
%TD*%
%TO.C,S15*%
X124475726Y-126073553D03*
D16*
X132170751Y-123536016D03*
D17*
X129286134Y-128740005D03*
D16*
X135477269Y-127884229D03*
D15*
X134096542Y-131406457D03*
%TD*%
%TO.C,S13*%
X107507391Y-156685242D03*
D16*
X115202416Y-154147705D03*
D17*
X112317799Y-159351694D03*
D16*
X118508934Y-158495918D03*
D15*
X117128207Y-162018146D03*
%TD*%
%TO.C,S31*%
X92710887Y-173065519D03*
D16*
X100405912Y-170527982D03*
D17*
X97521295Y-175731971D03*
D16*
X103712430Y-174876195D03*
D15*
X102331703Y-178398423D03*
%TD*%
D20*
%TO.C,D31*%
X96685811Y-180642620D03*
X93799565Y-179042748D03*
%TD*%
D15*
%TO.C,S14*%
X115991558Y-141379398D03*
D16*
X123686583Y-138841861D03*
D17*
X120801966Y-144045850D03*
D16*
X126993101Y-143190074D03*
D15*
X125612374Y-146712302D03*
%TD*%
%TO.C,S17*%
X256390950Y-136510460D03*
D16*
X259524239Y-129038178D03*
D17*
X261559259Y-134629349D03*
D16*
X264975147Y-129395402D03*
D15*
X266727568Y-132748238D03*
%TD*%
D21*
%TO.C,D33*%
X127344284Y-207092793D03*
X125795028Y-204179069D03*
%TD*%
D15*
%TO.C,S24*%
X195913124Y-107783473D03*
D17*
X200723533Y-105117020D03*
D16*
X197838916Y-99913031D03*
X203278594Y-99413149D03*
D15*
X205533942Y-102450567D03*
%TD*%
D22*
%TO.C,D1*%
X27784780Y-116838246D03*
X24683794Y-115709580D03*
%TD*%
D23*
%TO.C,D19*%
X240207094Y-134971045D03*
X237241072Y-136417667D03*
%TD*%
D15*
%TO.C,S27*%
X181914302Y-120688241D03*
D17*
X186724711Y-118021788D03*
D16*
X183840094Y-112817799D03*
X189279772Y-112317917D03*
D15*
X191535120Y-115355335D03*
%TD*%
D13*
%TO.C,_4*%
X242699234Y-112440839D03*
X242710255Y-113703645D03*
X241798503Y-111555691D03*
X240535697Y-111566712D03*
D14*
X241180402Y-113085544D03*
D13*
X241825107Y-114604376D03*
X240562301Y-114615397D03*
X239650549Y-112467443D03*
X239661570Y-113730249D03*
%TD*%
D24*
%TO.C,D35*%
X190816667Y-188475457D03*
X188018109Y-190224193D03*
%TD*%
D20*
%TO.C,D11*%
X104755639Y-138238281D03*
X101869393Y-136638409D03*
%TD*%
D15*
%TO.C,S18*%
X250405599Y-120065839D03*
D16*
X253538888Y-112593557D03*
D17*
X255573908Y-118184728D03*
D16*
X258989796Y-112950781D03*
D15*
X260742217Y-116303617D03*
%TD*%
%TO.C,S32*%
X109208970Y-182449442D03*
D16*
X117026255Y-180318112D03*
D17*
X113873235Y-185363998D03*
D16*
X120100673Y-184833414D03*
D15*
X118537500Y-188278554D03*
%TD*%
D25*
%TO.C,JST1*%
X149400000Y-144740005D03*
D26*
X151400002Y-144740003D03*
%TD*%
D27*
%TO.C,D36*%
X175004975Y-204179068D03*
X173455719Y-207092796D03*
%TD*%
D28*
%TO.C,D5*%
X71230428Y-120688770D03*
X68264406Y-119242148D03*
%TD*%
D15*
%TO.C,S30*%
X166703457Y-131406458D03*
D17*
X171513866Y-128740005D03*
D16*
X168629249Y-123536016D03*
X174068927Y-123036134D03*
D15*
X176324275Y-126073552D03*
%TD*%
D20*
%TO.C,D12*%
X113239810Y-122932434D03*
X110353564Y-121332562D03*
%TD*%
D15*
%TO.C,S16*%
X267789910Y-113738466D03*
D16*
X270923199Y-106266184D03*
D17*
X272958219Y-111857355D03*
D16*
X276374107Y-106623408D03*
D15*
X278126528Y-109976244D03*
%TD*%
%TO.C,S33*%
X128137415Y-198573202D03*
D16*
X135973047Y-200636058D03*
D17*
X130719509Y-203429414D03*
D16*
X136377920Y-206083634D03*
D15*
X133301603Y-208285626D03*
%TD*%
D29*
%TO.C,D16*%
X276116208Y-115709575D03*
X273015220Y-116838243D03*
%TD*%
D15*
%TO.C,S3*%
X40057783Y-116303617D03*
D16*
X47261113Y-112593558D03*
D17*
X45226093Y-118184729D03*
D16*
X51207133Y-116370983D03*
D15*
X50394403Y-120065841D03*
%TD*%
D18*
%TO.C,D30*%
X175235595Y-132050782D03*
X172349349Y-133650654D03*
%TD*%
D15*
%TO.C,S9*%
X95266060Y-102450570D03*
D16*
X102961085Y-99913033D03*
D17*
X100076468Y-105117022D03*
D16*
X106267603Y-104261246D03*
D15*
X104886876Y-107783474D03*
%TD*%
D18*
%TO.C,D23*%
X212929429Y-123733641D03*
X210043183Y-125333513D03*
%TD*%
D22*
%TO.C,D2*%
X39183740Y-139610235D03*
X36082754Y-138481569D03*
%TD*%
D18*
%TO.C,D25*%
X207414776Y-151944253D03*
X204528530Y-153544125D03*
%TD*%
D29*
%TO.C,D17*%
X264717249Y-138481571D03*
X261616261Y-139610239D03*
%TD*%
D15*
%TO.C,S7*%
X78297723Y-133062259D03*
D16*
X85992748Y-130524722D03*
D17*
X83108131Y-135728711D03*
D16*
X89299266Y-134872935D03*
D15*
X87918539Y-138395163D03*
%TD*%
D20*
%TO.C,D13*%
X111482318Y-164262342D03*
X108596072Y-162662470D03*
%TD*%
%TO.C,D7*%
X82272651Y-140639356D03*
X79386405Y-139039484D03*
%TD*%
D23*
%TO.C,D21*%
X224864101Y-103513252D03*
X221898079Y-104959874D03*
%TD*%
D20*
%TO.C,D15*%
X128450653Y-133650654D03*
X125564407Y-132050782D03*
%TD*%
D15*
%TO.C,S2*%
X34072432Y-132748235D03*
D16*
X41275762Y-129038176D03*
D17*
X39240742Y-134629347D03*
D16*
X45221782Y-132815601D03*
D15*
X44409052Y-136510459D03*
%TD*%
%TO.C,S6*%
X74535887Y-97601190D03*
D16*
X82087562Y-94664406D03*
D17*
X79479254Y-100012231D03*
D16*
X85617116Y-98833610D03*
D15*
X84422621Y-102423272D03*
%TD*%
D18*
%TO.C,D22*%
X221413598Y-139039488D03*
X218527352Y-140639360D03*
%TD*%
%TO.C,D24*%
X204445261Y-108427796D03*
X201559015Y-110027668D03*
%TD*%
D15*
%TO.C,S5*%
X66864394Y-113330085D03*
D16*
X74416069Y-110393301D03*
D17*
X71807761Y-115741126D03*
D16*
X77945623Y-114562505D03*
D15*
X76751128Y-118152167D03*
%TD*%
%TO.C,S19*%
X231720370Y-133881065D03*
D16*
X234055428Y-126122199D03*
D17*
X236663737Y-131470024D03*
D16*
X239513815Y-125907692D03*
D15*
X241607104Y-129058983D03*
%TD*%
D18*
%TO.C,D34*%
X207000437Y-179042746D03*
X204114191Y-180642618D03*
%TD*%
D29*
%TO.C,D18*%
X258731897Y-122036949D03*
X255630909Y-123165617D03*
%TD*%
D28*
%TO.C,D4*%
X63558931Y-136417665D03*
X60592909Y-134971043D03*
%TD*%
D15*
%TO.C,S21*%
X216377380Y-102423271D03*
D16*
X218712438Y-94664405D03*
D17*
X221320747Y-100012230D03*
D16*
X224170825Y-94449898D03*
D15*
X226264114Y-97601189D03*
%TD*%
D20*
%TO.C,D8*%
X90756819Y-125333515D03*
X87870573Y-123733643D03*
%TD*%
D15*
%TO.C,S1*%
X22673472Y-109976245D03*
D16*
X29876802Y-106266186D03*
D17*
X27841782Y-111857357D03*
D16*
X33822822Y-110043611D03*
D15*
X33010092Y-113738469D03*
%TD*%
D20*
%TO.C,D9*%
X99240986Y-110027669D03*
X96354740Y-108427797D03*
%TD*%
D15*
%TO.C,S36*%
X167498400Y-208285626D03*
D16*
X164826956Y-200636058D03*
D17*
X170080494Y-203429414D03*
D16*
X169116798Y-197254158D03*
D15*
X172662588Y-198573202D03*
%TD*%
D18*
%TO.C,D26*%
X198930610Y-136638408D03*
X196044364Y-138238280D03*
%TD*%
D15*
%TO.C,S25*%
X198882639Y-151299930D03*
D17*
X203693048Y-148633477D03*
D16*
X200808431Y-143429488D03*
X206248109Y-142929606D03*
D15*
X208503457Y-145967024D03*
%TD*%
D20*
%TO.C,D10*%
X96271471Y-153544127D03*
X93385225Y-151944255D03*
%TD*%
D18*
%TO.C,D28*%
X192203932Y-162662472D03*
X189317686Y-164262344D03*
%TD*%
D15*
%TO.C,S11*%
X100780714Y-130661180D03*
D16*
X108475739Y-128123643D03*
D17*
X105591122Y-133327632D03*
D16*
X111782257Y-132471856D03*
D15*
X110401530Y-135994084D03*
%TD*%
D28*
%TO.C,D6*%
X78901922Y-104959874D03*
X75935900Y-103513252D03*
%TD*%
D15*
%TO.C,S10*%
X92296548Y-145967025D03*
D16*
X99991573Y-143429488D03*
D17*
X97106956Y-148633477D03*
D16*
X103298091Y-147777701D03*
D15*
X101917364Y-151299929D03*
%TD*%
%TO.C,S4*%
X59192899Y-129058980D03*
D16*
X66744574Y-126122196D03*
D17*
X64136266Y-131470021D03*
D16*
X70274128Y-130291400D03*
D15*
X69079633Y-133881062D03*
%TD*%
D23*
%TO.C,D20*%
X232535597Y-119242147D03*
X229569575Y-120688769D03*
%TD*%
D22*
%TO.C,D3*%
X45169094Y-123165617D03*
X42068108Y-122036951D03*
%TD*%
D15*
%TO.C,S22*%
X212881461Y-138395162D03*
D17*
X217691870Y-135728709D03*
D16*
X214807253Y-130524720D03*
X220246931Y-130024838D03*
D15*
X222502279Y-133062256D03*
%TD*%
D20*
%TO.C,D14*%
X119966484Y-148956497D03*
X117080238Y-147356625D03*
%TD*%
D15*
%TO.C,S28*%
X183671793Y-162018148D03*
D17*
X188482202Y-159351695D03*
D16*
X185597585Y-154147706D03*
X191037263Y-153647824D03*
D15*
X193292611Y-156685242D03*
%TD*%
%TO.C,S29*%
X175187625Y-146712302D03*
D17*
X179998034Y-144045849D03*
D16*
X177113417Y-138841860D03*
X182553095Y-138341978D03*
D15*
X184808443Y-141379396D03*
%TD*%
%TO.C,S34*%
X198468297Y-178398423D03*
D17*
X203278706Y-175731970D03*
D16*
X200394089Y-170527981D03*
X205833767Y-170028099D03*
D15*
X208089115Y-173065517D03*
%TD*%
%TO.C,S20*%
X224048874Y-118152168D03*
D16*
X226383932Y-110393302D03*
D17*
X228992241Y-115741127D03*
D16*
X231842319Y-110178795D03*
D15*
X233935608Y-113330086D03*
%TD*%
%TO.C,S12*%
X109264881Y-115355335D03*
D16*
X116959906Y-112817798D03*
D17*
X114075289Y-118021787D03*
D16*
X120266424Y-117166011D03*
D15*
X118885697Y-120688239D03*
%TD*%
D13*
%TO.C,_1*%
X123750000Y-169045849D03*
X124233273Y-170212575D03*
X124233274Y-167879122D03*
X125400000Y-167395849D03*
D14*
X125400000Y-169045849D03*
D13*
X125400000Y-170695849D03*
X126566726Y-170212576D03*
X126566727Y-167879123D03*
X127050000Y-169045849D03*
%TD*%
M02*
