M48
; DRILL file {KiCad 8.0.2-1} date 2024-06-17T15:59:22+0900
; FORMAT={-:-/ absolute / inch / decimal}
; #@! TF.CreationDate,2024-06-17T15:59:22+09:00
; #@! TF.GenerationSoftware,Kicad,Pcbnew,8.0.2-1
; #@! TF.FileFunction,NonPlated,1,4,NPTH
FMAT,2
INCH
; #@! TA.AperFunction,NonPlated,NPTH,ComponentDrill
T1C0.0670
; #@! TA.AperFunction,NonPlated,NPTH,ComponentDrill
T2C0.1181
; #@! TA.AperFunction,NonPlated,NPTH,ComponentDrill
T3C0.1350
%
G90
G05
T1
X0.8927Y-4.3298
X1.2996Y-4.4779
X1.3414Y-5.2263
X1.5771Y-4.5789
X1.7484Y-5.3744
X1.984Y-4.727
X2.3304Y-5.0811
X2.6325Y-4.4618
X2.7197Y-5.2709
X2.9345Y-3.8426
X3.0217Y-4.6517
X3.0826Y-5.2387
X3.3237Y-4.0324
X3.4166Y-4.6361
X3.4614Y-5.4486
X3.6337Y-5.7467
X3.65Y-6.8136
X3.7506Y-4.0335
X3.7954Y-4.846
X3.9677Y-5.1441
X4.0125Y-5.9567
X4.0288Y-7.0236
X4.1294Y-4.2434
X4.2326Y-6.1687
X4.2996Y-7.183
X4.3018Y-4.5415
X4.3465Y-5.3541
X4.5666Y-5.5661
X4.6113Y-6.3787
X4.6668Y-7.4125
X4.6805Y-4.7515
X4.9006Y-4.9635
X4.9454Y-5.7761
X5.0448Y-7.8178
X5.2481Y-8.2002
X5.2794Y-5.1735
X6.5631Y-5.1735
X6.5944Y-8.2002
X6.7977Y-7.8178
X6.8972Y-5.7761
X6.9419Y-4.9635
X7.162Y-4.7515
X7.1757Y-7.4125
X7.2312Y-6.3787
X7.2759Y-5.5661
X7.496Y-5.3541
X7.5408Y-4.5415
X7.543Y-7.183
X7.6099Y-6.1687
X7.7131Y-4.2434
X7.8137Y-7.0236
X7.83Y-5.9567
X7.8748Y-5.1441
X8.0471Y-4.846
X8.0919Y-4.0335
X8.1925Y-6.8136
X8.2088Y-5.7467
X8.3812Y-5.4486
X8.4259Y-4.6361
X8.5188Y-4.0324
X8.7599Y-5.2387
X8.8208Y-4.6517
X8.908Y-3.8426
X9.1228Y-5.2709
X9.2101Y-4.4618
X9.5121Y-5.0811
X9.8585Y-4.727
X10.0941Y-5.3744
X10.2654Y-4.5789
X10.5011Y-5.2263
X10.5429Y-4.4779
X10.9499Y-4.3298
T2
X1.1763Y-4.1837
X1.3316Y-4.3324
X1.625Y-5.0802
X1.7804Y-5.229
X1.8607Y-4.4328
X2.016Y-4.5815
X2.6277Y-4.9654
X2.7667Y-5.1296
X2.9298Y-4.3462
X3.0687Y-4.5103
X3.2318Y-3.7269
X3.3708Y-3.8911
X3.3855Y-5.1388
X3.5157Y-5.31
X3.7196Y-4.5362
X3.8497Y-4.7074
X3.9367Y-5.6468
X3.953Y-6.7137
X4.0536Y-3.9336
X4.0669Y-5.818
X4.0832Y-6.8849
X4.1838Y-4.1048
X4.2707Y-5.0442
X4.4009Y-5.2154
X4.5355Y-6.0688
X4.6047Y-4.4416
X4.6073Y-7.0991
X4.6657Y-6.24
X4.7284Y-7.2769
X4.7349Y-4.6128
X4.8696Y-5.4662
X4.9997Y-5.6374
X5.2036Y-4.8636
X5.3338Y-5.0348
X5.3533Y-7.8991
X5.3692Y-8.1135
X6.4893Y-7.8991
X6.6389Y-4.8636
X6.6581Y-7.7659
X6.8531Y-4.8439
X6.973Y-5.4662
X7.1871Y-5.4465
X7.2352Y-7.0991
X7.2378Y-4.4416
X7.307Y-6.0688
X7.448Y-7.0683
X7.452Y-4.422
X7.5212Y-6.0491
X7.5718Y-5.0442
X7.786Y-5.0246
X7.7889Y-3.9336
X7.8895Y-6.7137
X7.9058Y-5.6468
X8.0031Y-3.9139
X8.1037Y-6.694
X8.12Y-5.6271
X8.123Y-4.5362
X8.3371Y-4.5165
X8.457Y-5.1388
X8.6107Y-3.7269
X8.6711Y-5.1191
X8.8256Y-3.7185
X8.9128Y-4.3462
X9.1277Y-4.3377
X9.2148Y-4.9654
X9.4297Y-4.957
X9.9818Y-4.4328
X10.1964Y-4.4469
X10.2175Y-5.0802
X10.4321Y-5.0943
X10.6663Y-4.1837
X10.8809Y-4.1978
T3
X1.0961Y-4.4038
X1.5449Y-5.3004
X1.7806Y-4.6529
X2.525Y-5.176
X2.8271Y-4.5567
X3.1291Y-3.9375
X3.272Y-5.3437
X3.606Y-4.7411
X3.8231Y-5.8517
X3.8394Y-6.9186
X3.94Y-4.1385
X4.1571Y-5.2491
X4.422Y-6.2737
X4.4832Y-7.2978
X4.4912Y-4.6465
X4.756Y-5.6711
X5.09Y-5.0685
X5.1464Y-8.009
X6.6961Y-8.009
X6.7525Y-5.0685
X7.0865Y-5.6711
X7.3514Y-4.6465
X7.3593Y-7.2978
X7.4206Y-6.2737
X7.6854Y-5.2491
X7.9025Y-4.1385
X8.0031Y-6.9186
X8.0194Y-5.8517
X8.2365Y-4.7411
X8.5705Y-5.3436
X8.7134Y-3.9375
X9.0154Y-4.5567
X9.3175Y-5.176
X10.062Y-4.6529
X10.2976Y-5.3004
X10.7464Y-4.4038
M30
