M48
; DRILL file {KiCad 8.0.2-1} date 2024-06-17T15:59:22+0900
; FORMAT={-:-/ absolute / inch / decimal}
; #@! TF.CreationDate,2024-06-17T15:59:22+09:00
; #@! TF.GenerationSoftware,Kicad,Pcbnew,8.0.2-1
; #@! TF.FileFunction,Plated,1,4,PTH
FMAT,2
INCH
; #@! TA.AperFunction,Plated,PTH,ViaDrill
T1C0.0118
; #@! TA.AperFunction,Plated,PTH,ComponentDrill
T2C0.0118
; #@! TA.AperFunction,Plated,PTH,ComponentDrill
T3C0.0157
; #@! TA.AperFunction,Plated,PTH,ComponentDrill
T4C0.0295
; #@! TA.AperFunction,Plated,PTH,ComponentDrill
T5C0.0430
; #@! TA.AperFunction,Plated,PTH,ComponentDrill
T6C0.0866
%
G90
G05
T1
X2.5588Y-4.5251
X2.8627Y-4.8376
X2.8918Y-4.0705
X2.933Y-3.9313
X3.0607Y-4.789
X3.3466Y-4.1758
X3.3754Y-4.2422
X3.5651Y-5.146
X3.7439Y-5.1482
X4.0291Y-4.6175
X4.0586Y-4.5967
X4.1063Y-5.68
X4.3022Y-5.6514
X4.4013Y-7.113
X4.6148Y-5.0875
X4.6168Y-5.0513
X4.7162Y-6.0901
X4.7945Y-7.4269
X4.9227Y-6.0425
X5.2151Y-5.4824
X5.2238Y-5.4505
X5.3087Y-8.2371
X6.3279Y-7.3739
X6.7924Y-7.7125
X7.1215Y-5.0966
X7.1482Y-5.0525
X7.2727Y-5.9408
X7.4615Y-5.7044
X7.6034Y-7.0906
X7.6864Y-4.5041
X7.692Y-4.557
X7.8948Y-5.4999
X8.0114Y-5.1047
X8.1074Y-6.5156
X8.3008Y-4.213
X8.3042Y-5.0511
X8.3416Y-4.2223
X8.6443Y-4.8163
X8.9342Y-3.9644
X8.9685Y-3.9392
X9.2325Y-4.5707
X9.2348Y-4.773
X9.6142Y-5.0
X9.8976Y-5.3543
X10.0444Y-4.7676
X10.5039Y-4.1024
T2
X0.9515Y-4.502
X1.1438Y-4.572
X1.4002Y-5.3985
X1.5926Y-5.4686
X1.6359Y-4.7511
X1.8283Y-4.8211
X2.3709Y-5.2585
X2.5549Y-5.3482
X2.6729Y-4.6393
X2.8569Y-4.729
X2.975Y-4.02
X3.1137Y-5.418
X3.159Y-4.1098
X3.2928Y-5.5172
X3.4478Y-4.8154
X3.6268Y-4.9146
X3.6649Y-5.926
X3.6812Y-6.9929
X3.7818Y-4.2128
X3.8439Y-6.0253
X3.8602Y-7.0922
X3.9608Y-4.3121
X3.9989Y-5.3235
X4.1779Y-5.4227
X4.2637Y-6.348
X4.3213Y-7.3637
X4.3329Y-4.7209
X4.4428Y-6.4473
X4.4949Y-7.4722
X4.512Y-4.8201
X4.5977Y-5.7454
X4.7768Y-5.8447
X4.9318Y-5.1428
X4.9732Y-7.9852
X5.0694Y-8.166
X5.1108Y-5.2421
X6.7317Y-5.2421
X6.7732Y-8.166
X6.8693Y-7.9852
X6.9108Y-5.1428
X7.0657Y-5.8447
X7.2448Y-5.7454
X7.3306Y-4.8201
X7.3476Y-7.4722
X7.3997Y-6.4473
X7.5096Y-4.7209
X7.5212Y-7.3637
X7.5788Y-6.348
X7.6646Y-5.4227
X7.8436Y-5.3235
X7.8817Y-4.3121
X7.9823Y-7.0922
X7.9986Y-6.0253
X8.0607Y-4.2128
X8.1613Y-6.9929
X8.1777Y-5.926
X8.2157Y-4.9146
X8.3948Y-4.8154
X8.5497Y-5.5172
X8.6835Y-4.1098
X8.7288Y-5.418
X8.8675Y-4.02
X8.9856Y-4.729
X9.1696Y-4.6393
X9.2876Y-5.3482
X9.4716Y-5.2585
X10.0143Y-4.8211
X10.2066Y-4.7511
X10.2499Y-5.4686
X10.4423Y-5.3985
X10.6987Y-4.572
X10.8911Y-4.502
T3
X2.287Y-4.4765
X2.2874Y-4.4268
X2.3218Y-4.512
X2.3229Y-4.392
X2.3716Y-4.5124
X2.3726Y-4.3924
X2.407Y-4.4776
X2.4075Y-4.4279
X4.872Y-6.6553
X4.8911Y-6.7013
X4.8911Y-6.6094
X4.937Y-6.5904
X4.937Y-6.7203
X4.9829Y-6.7013
X4.9829Y-6.6094
X5.002Y-6.6553
X6.8406Y-6.6553
X6.8596Y-6.7013
X6.8596Y-6.6094
X6.9055Y-6.5904
X6.9055Y-6.7203
X6.9514Y-6.7013
X6.9514Y-6.6094
X6.9705Y-6.6553
X9.4351Y-4.4279
X9.4355Y-4.4776
X9.4699Y-4.3924
X9.471Y-4.5124
X9.5196Y-4.392
X9.5207Y-4.512
X9.5551Y-4.4268
X9.5555Y-4.4765
T4
X5.8819Y-5.6984
X5.9606Y-5.6984
T5
X5.6213Y-6.3425
X5.6213Y-7.0425
X5.6213Y-6.1425
X5.6213Y-6.2425
X5.6213Y-6.4425
X5.6213Y-6.5425
X5.6213Y-6.6425
X5.6213Y-6.7425
X5.6213Y-6.8425
X5.6213Y-7.1425
X5.6213Y-7.2425
X5.6213Y-6.9425
X6.2213Y-6.4425
X6.2213Y-6.1425
X6.2213Y-6.2425
X6.2213Y-6.5425
X6.2213Y-6.6425
X6.2213Y-6.7425
X6.2213Y-6.8425
X6.2213Y-6.9425
X6.2213Y-7.1425
X6.2213Y-7.2425
X6.2213Y-6.3425
X6.2213Y-7.0425
T6
X2.3472Y-4.4522
X4.937Y-6.6553
X6.9055Y-6.6553
X9.4953Y-4.4522
M30
