%TF.GenerationSoftware,KiCad,Pcbnew,8.0.2-1*%
%TF.CreationDate,2024-06-17T15:58:38+09:00*%
%TF.ProjectId,tolkeeb_zero,746f6c6b-6565-4625-9f7a-65726f2e6b69,v1.0.0*%
%TF.SameCoordinates,Original*%
%TF.FileFunction,Soldermask,Bot*%
%TF.FilePolarity,Negative*%
%FSLAX46Y46*%
G04 Gerber Fmt 4.6, Leading zero omitted, Abs format (unit mm)*
G04 Created by KiCad (PCBNEW 8.0.2-1) date 2024-06-17 15:58:38*
%MOMM*%
%LPD*%
G01*
G04 APERTURE LIST*
G04 Aperture macros list*
%AMRotRect*
0 Rectangle, with rotation*
0 The origin of the aperture is its center*
0 $1 length*
0 $2 width*
0 $3 Rotation angle, in degrees counterclockwise*
0 Add horizontal line*
21,1,$1,$2,0,0,$3*%
G04 Aperture macros list end*
%ADD10R,1.752600X1.752600*%
%ADD11C,1.752600*%
%ADD12C,0.700000*%
%ADD13C,4.400000*%
%ADD14C,1.701800*%
%ADD15C,3.000000*%
%ADD16C,3.429000*%
%ADD17RotRect,2.600000X2.600000X331.000000*%
%ADD18RotRect,2.600000X2.600000X32.000000*%
%ADD19RotRect,2.600000X2.600000X29.000000*%
%ADD20RotRect,2.600000X2.600000X20.000000*%
%ADD21RotRect,2.600000X2.600000X328.000000*%
%ADD22R,1.200000X1.700000*%
%ADD23O,1.200000X1.700000*%
%ADD24RotRect,2.600000X2.600000X298.000000*%
%ADD25RotRect,2.600000X2.600000X340.000000*%
%ADD26RotRect,2.600000X2.600000X334.000000*%
%ADD27RotRect,2.600000X2.600000X26.000000*%
%ADD28RotRect,2.600000X2.600000X62.000000*%
G04 APERTURE END LIST*
D10*
%TO.C,MCU1*%
X158020003Y-156020003D03*
D11*
X158020003Y-158560003D03*
X158020004Y-161100003D03*
X158020002Y-163640004D03*
X158020003Y-166180004D03*
X158020003Y-168720003D03*
X158020003Y-171260003D03*
X158020003Y-173800002D03*
X158020003Y-176340003D03*
X158020005Y-178880003D03*
X158020003Y-181420003D03*
X158020003Y-183960003D03*
X142780003Y-156020003D03*
X142780003Y-158560003D03*
X142780001Y-161100003D03*
X142780003Y-163640003D03*
X142780003Y-166180004D03*
X142780003Y-168720003D03*
X142780003Y-171260003D03*
X142780003Y-173800002D03*
X142780004Y-176340002D03*
X142780002Y-178880003D03*
X142780003Y-181420003D03*
X142780003Y-183960003D03*
%TD*%
D12*
%TO.C,_3*%
X61138430Y-113730247D03*
X60237699Y-114615396D03*
X61149451Y-112467442D03*
X58974894Y-114604375D03*
D13*
X59619598Y-113085543D03*
D12*
X60264302Y-111566711D03*
X58089745Y-113703644D03*
X59001497Y-111555690D03*
X58100766Y-112440839D03*
%TD*%
D14*
%TO.C,S8*%
X86781890Y-117756415D03*
D15*
X94476915Y-115218878D03*
D16*
X91592298Y-120422867D03*
D15*
X97783433Y-119567091D03*
D14*
X96402706Y-123089319D03*
D17*
X91612536Y-113631128D03*
X100647812Y-121154843D03*
%TD*%
D14*
%TO.C,S35*%
X182262503Y-188278557D03*
D15*
X183773747Y-180318116D03*
D16*
X186926768Y-185364001D03*
D15*
X189179811Y-179534224D03*
D14*
X191591033Y-182449445D03*
D18*
X180996391Y-182053600D03*
X191957170Y-177798739D03*
%TD*%
D14*
%TO.C,S23*%
X204397293Y-123089318D03*
D16*
X209207702Y-120422865D03*
D15*
X206323085Y-115218876D03*
X211762763Y-114718994D03*
D14*
X214018111Y-117756412D03*
D19*
X203458705Y-116806629D03*
X214627144Y-113131240D03*
%TD*%
D12*
%TO.C,_2*%
X173750001Y-169045849D03*
X174233274Y-170212575D03*
X174233275Y-167879122D03*
X175400001Y-167395849D03*
D13*
X175400001Y-169045849D03*
D12*
X175400001Y-170695849D03*
X176566727Y-170212576D03*
X176566728Y-167879123D03*
X177050001Y-169045849D03*
%TD*%
D14*
%TO.C,S26*%
X190398472Y-135994086D03*
D16*
X195208881Y-133327633D03*
D15*
X192324264Y-128123644D03*
X197763942Y-127623762D03*
D14*
X200019290Y-130661180D03*
D19*
X189459884Y-129711397D03*
X200628323Y-126036008D03*
%TD*%
D14*
%TO.C,S15*%
X124475726Y-126073553D03*
D15*
X132170751Y-123536016D03*
D16*
X129286134Y-128740005D03*
D15*
X135477269Y-127884229D03*
D14*
X134096542Y-131406457D03*
D17*
X129306372Y-121948266D03*
X138341648Y-129471981D03*
%TD*%
D14*
%TO.C,S13*%
X107507391Y-156685242D03*
D15*
X115202416Y-154147705D03*
D16*
X112317799Y-159351694D03*
D15*
X118508934Y-158495918D03*
D14*
X117128207Y-162018146D03*
D17*
X112338037Y-152559955D03*
X121373313Y-160083670D03*
%TD*%
D14*
%TO.C,S31*%
X92710887Y-173065519D03*
D15*
X100405912Y-170527982D03*
D16*
X97521295Y-175731971D03*
D15*
X103712430Y-174876195D03*
D14*
X102331703Y-178398423D03*
D17*
X97541533Y-168940232D03*
X106576809Y-176463947D03*
%TD*%
D14*
%TO.C,S14*%
X115991558Y-141379398D03*
D15*
X123686583Y-138841861D03*
D16*
X120801966Y-144045850D03*
D15*
X126993101Y-143190074D03*
D14*
X125612374Y-146712302D03*
D17*
X120822204Y-137254111D03*
X129857480Y-144777826D03*
%TD*%
D14*
%TO.C,S17*%
X256390950Y-136510460D03*
D15*
X259524239Y-129038178D03*
D16*
X261559259Y-134629349D03*
D15*
X264975147Y-129395402D03*
D14*
X266727568Y-132748238D03*
D20*
X256446746Y-130158294D03*
X268052640Y-128275285D03*
%TD*%
D14*
%TO.C,S24*%
X195913124Y-107783473D03*
D16*
X200723533Y-105117020D03*
D15*
X197838916Y-99913031D03*
X203278594Y-99413149D03*
D14*
X205533942Y-102450567D03*
D19*
X194974536Y-101500784D03*
X206142975Y-97825395D03*
%TD*%
D14*
%TO.C,S27*%
X181914302Y-120688241D03*
D16*
X186724711Y-118021788D03*
D15*
X183840094Y-112817799D03*
X189279772Y-112317917D03*
D14*
X191535120Y-115355335D03*
D19*
X180975714Y-114405552D03*
X192144153Y-110730163D03*
%TD*%
D12*
%TO.C,_4*%
X242699234Y-112440839D03*
X242710255Y-113703645D03*
X241798503Y-111555691D03*
X240535697Y-111566712D03*
D13*
X241180402Y-113085544D03*
D12*
X241825107Y-114604376D03*
X240562301Y-114615397D03*
X239650549Y-112467443D03*
X239661570Y-113730249D03*
%TD*%
D14*
%TO.C,S18*%
X250405599Y-120065839D03*
D15*
X253538888Y-112593557D03*
D16*
X255573908Y-118184728D03*
D15*
X258989796Y-112950781D03*
D14*
X260742217Y-116303617D03*
D20*
X250461395Y-113713673D03*
X262067289Y-111830664D03*
%TD*%
D14*
%TO.C,S32*%
X109208970Y-182449442D03*
D15*
X117026255Y-180318112D03*
D16*
X113873235Y-185363998D03*
D15*
X120100673Y-184833414D03*
D14*
X118537500Y-188278554D03*
D21*
X114248897Y-178582626D03*
X122878030Y-186568900D03*
%TD*%
D22*
%TO.C,JST1*%
X149400000Y-144740005D03*
D23*
X151400002Y-144740003D03*
%TD*%
D14*
%TO.C,S30*%
X166703457Y-131406458D03*
D16*
X171513866Y-128740005D03*
D15*
X168629249Y-123536016D03*
X174068927Y-123036134D03*
D14*
X176324275Y-126073552D03*
D19*
X165764869Y-125123769D03*
X176933308Y-121448380D03*
%TD*%
D14*
%TO.C,S16*%
X267789910Y-113738466D03*
D15*
X270923199Y-106266184D03*
D16*
X272958219Y-111857355D03*
D15*
X276374107Y-106623408D03*
D14*
X278126528Y-109976244D03*
D20*
X267845706Y-107386300D03*
X279451600Y-105503291D03*
%TD*%
D14*
%TO.C,S33*%
X128137415Y-198573202D03*
D15*
X135973047Y-200636058D03*
D16*
X130719509Y-203429414D03*
D15*
X136377920Y-206083634D03*
D14*
X133301603Y-208285626D03*
D24*
X134435529Y-197744405D03*
X137915439Y-208975287D03*
%TD*%
D14*
%TO.C,S3*%
X40057783Y-116303617D03*
D15*
X47261113Y-112593558D03*
D16*
X45226093Y-118184729D03*
D15*
X51207133Y-116370983D03*
D14*
X50394403Y-120065841D03*
D25*
X44183620Y-111473442D03*
X54284625Y-117491099D03*
%TD*%
D14*
%TO.C,S9*%
X95266060Y-102450570D03*
D15*
X102961085Y-99913033D03*
D16*
X100076468Y-105117022D03*
D15*
X106267603Y-104261246D03*
D14*
X104886876Y-107783474D03*
D17*
X100096706Y-98325283D03*
X109131982Y-105848998D03*
%TD*%
D14*
%TO.C,S7*%
X78297723Y-133062259D03*
D15*
X85992748Y-130524722D03*
D16*
X83108131Y-135728711D03*
D15*
X89299266Y-134872935D03*
D14*
X87918539Y-138395163D03*
D17*
X83128369Y-128936972D03*
X92163645Y-136460687D03*
%TD*%
D14*
%TO.C,S2*%
X34072432Y-132748235D03*
D15*
X41275762Y-129038176D03*
D16*
X39240742Y-134629347D03*
D15*
X45221782Y-132815601D03*
D14*
X44409052Y-136510459D03*
D25*
X38198269Y-127918060D03*
X48299274Y-133935717D03*
%TD*%
D14*
%TO.C,S6*%
X74535887Y-97601190D03*
D15*
X82087562Y-94664406D03*
D16*
X79479254Y-100012231D03*
D15*
X85617116Y-98833610D03*
D14*
X84422621Y-102423272D03*
D26*
X79144012Y-93228743D03*
X88560667Y-100269275D03*
%TD*%
D14*
%TO.C,S5*%
X66864394Y-113330085D03*
D15*
X74416069Y-110393301D03*
D16*
X71807761Y-115741126D03*
D15*
X77945623Y-114562505D03*
D14*
X76751128Y-118152167D03*
D26*
X71472519Y-108957638D03*
X80889174Y-115998170D03*
%TD*%
D14*
%TO.C,S19*%
X231720370Y-133881065D03*
D15*
X234055428Y-126122199D03*
D16*
X236663737Y-131470024D03*
D15*
X239513815Y-125907692D03*
D14*
X241607104Y-129058983D03*
D27*
X231111878Y-127557865D03*
X242457366Y-124472025D03*
%TD*%
D14*
%TO.C,S21*%
X216377380Y-102423271D03*
D15*
X218712438Y-94664405D03*
D16*
X221320747Y-100012230D03*
D15*
X224170825Y-94449898D03*
D14*
X226264114Y-97601189D03*
D27*
X215768888Y-96100071D03*
X227114376Y-93014231D03*
%TD*%
D14*
%TO.C,S1*%
X22673472Y-109976245D03*
D15*
X29876802Y-106266186D03*
D16*
X27841782Y-111857357D03*
D15*
X33822822Y-110043611D03*
D14*
X33010092Y-113738469D03*
D25*
X26799309Y-105146070D03*
X36900314Y-111163727D03*
%TD*%
D14*
%TO.C,S36*%
X167498400Y-208285626D03*
D15*
X164826956Y-200636058D03*
D16*
X170080494Y-203429414D03*
D15*
X169116798Y-197254158D03*
D14*
X172662588Y-198573202D03*
D28*
X163289436Y-203527712D03*
X170654319Y-194362504D03*
%TD*%
D14*
%TO.C,S25*%
X198882639Y-151299930D03*
D16*
X203693048Y-148633477D03*
D15*
X200808431Y-143429488D03*
X206248109Y-142929606D03*
D14*
X208503457Y-145967024D03*
D19*
X197944051Y-145017241D03*
X209112490Y-141341852D03*
%TD*%
D14*
%TO.C,S11*%
X100780714Y-130661180D03*
D15*
X108475739Y-128123643D03*
D16*
X105591122Y-133327632D03*
D15*
X111782257Y-132471856D03*
D14*
X110401530Y-135994084D03*
D17*
X105611360Y-126535893D03*
X114646636Y-134059608D03*
%TD*%
D14*
%TO.C,S10*%
X92296548Y-145967025D03*
D15*
X99991573Y-143429488D03*
D16*
X97106956Y-148633477D03*
D15*
X103298091Y-147777701D03*
D14*
X101917364Y-151299929D03*
D17*
X97127194Y-141841738D03*
X106162470Y-149365453D03*
%TD*%
D14*
%TO.C,S4*%
X59192899Y-129058980D03*
D15*
X66744574Y-126122196D03*
D16*
X64136266Y-131470021D03*
D15*
X70274128Y-130291400D03*
D14*
X69079633Y-133881062D03*
D26*
X63801024Y-124686533D03*
X73217679Y-131727065D03*
%TD*%
D14*
%TO.C,S22*%
X212881461Y-138395162D03*
D16*
X217691870Y-135728709D03*
D15*
X214807253Y-130524720D03*
X220246931Y-130024838D03*
D14*
X222502279Y-133062256D03*
D19*
X211942873Y-132112473D03*
X223111312Y-128437084D03*
%TD*%
D14*
%TO.C,S28*%
X183671793Y-162018148D03*
D16*
X188482202Y-159351695D03*
D15*
X185597585Y-154147706D03*
X191037263Y-153647824D03*
D14*
X193292611Y-156685242D03*
D19*
X182733205Y-155735459D03*
X193901644Y-152060070D03*
%TD*%
D14*
%TO.C,S29*%
X175187625Y-146712302D03*
D16*
X179998034Y-144045849D03*
D15*
X177113417Y-138841860D03*
X182553095Y-138341978D03*
D14*
X184808443Y-141379396D03*
D19*
X174249037Y-140429613D03*
X185417476Y-136754224D03*
%TD*%
D14*
%TO.C,S34*%
X198468297Y-178398423D03*
D16*
X203278706Y-175731970D03*
D15*
X200394089Y-170527981D03*
X205833767Y-170028099D03*
D14*
X208089115Y-173065517D03*
D19*
X197529709Y-172115734D03*
X208698148Y-168440345D03*
%TD*%
D14*
%TO.C,S20*%
X224048874Y-118152168D03*
D15*
X226383932Y-110393302D03*
D16*
X228992241Y-115741127D03*
D15*
X231842319Y-110178795D03*
D14*
X233935608Y-113330086D03*
D27*
X223440382Y-111828968D03*
X234785870Y-108743128D03*
%TD*%
D14*
%TO.C,S12*%
X109264881Y-115355335D03*
D15*
X116959906Y-112817798D03*
D16*
X114075289Y-118021787D03*
D15*
X120266424Y-117166011D03*
D14*
X118885697Y-120688239D03*
D17*
X114095527Y-111230048D03*
X123130803Y-118753763D03*
%TD*%
D12*
%TO.C,_1*%
X123750000Y-169045849D03*
X124233273Y-170212575D03*
X124233274Y-167879122D03*
X125400000Y-167395849D03*
D13*
X125400000Y-169045849D03*
D12*
X125400000Y-170695849D03*
X126566726Y-170212576D03*
X126566727Y-167879123D03*
X127050000Y-169045849D03*
%TD*%
M02*
